<?xml version="1.0" encoding="UTF-8"?>
<svg width="1200pt" height="1200pt" version="1.1" viewBox="0 0 1200 1200" xmlns="http://www.w3.org/2000/svg">
 <path d="m997.2 420h-241.2v-242.4c0-45.602-40.801-81.602-86.398-81.602h-163.2c-45.602 0-86.398 37.199-86.398 81.602v242.4h-242.4c-45.602 0-81.602 38.398-81.602 82.801v164.4c0 45.602 36 87.602 81.602 88.801h242.4v241.2c0 45.602 40.801 81.602 86.398 81.602h164.4c45.602 0 86.398-37.199 86.398-81.602l0.003907-242.4h241.2c45.602 0 82.801-42 82.801-87.602v-164.4c-1.1992-44.402-38.398-82.801-84-82.801zm-661.2 253.2c0 7.1992-4.8008 12-9.6016 14.398-2.3984 1.1992-6 2.3984-8.3984 1.1992-3.6016 0-7.1992-1.1992-9.6016-2.3984l-116.4-82.797c-4.8008-3.6016-7.1992-8.3984-7.1992-13.199 0-4.8008 2.3984-10.801 7.1992-13.199l117.6-81.602c4.8008-3.6016 13.199-3.6016 18-1.1992 6 2.3984 9.6016 8.3984 9.6016 14.398zm152.4-343.2c-2.3984-6-2.3984-10.801 1.1992-15.602l82.801-116.4c3.6016-4.8008 8.3984-7.1992 13.199-7.1992 4.8008 0 10.801 2.3984 13.199 7.1992l81.602 117.6c3.6016 4.8008 3.6016 8.3984 1.1992 14.398-2.3984 7.1992-8.3984 7.1992-14.398 7.1992h-164.4c-6-2.3984-12-1.1992-14.402-7.1992zm163.2 321.6c-34.801 34.801-92.398 34.801-127.2 0-34.801-34.801-34.801-92.398 0-127.2 34.801-34.801 92.398-34.801 127.2 0 36 34.797 36 92.398 0 127.2zm34.797 207.6-82.801 116.4c-3.6016 4.8008-8.3984 7.1992-13.199 7.1992-4.8008 0-10.801-2.3984-13.199-7.1992l-81.602-117.6c-3.6016-4.8008-3.6016-8.3984-1.1992-14.398 2.3984-6 7.1992-6 14.398-6h164.4c7.1992 0 12 0 14.398 6 2.4062 7.2031 2.4062 10.801-1.1953 15.602zm273.6-261.6-117.6 81.602c-2.3984 2.3984-6 4.8008-9.6016 3.6016-1.1992 0-6-1.1992-8.3984-1.1992-6-2.3984-9.6016-8.3984-9.6016-14.398l0.003906-165.61c0-7.1992 4.8008-12 9.6016-14.398 6-2.3984 12-1.1992 16.801 1.1992l116.4 82.801c4.8008 3.6016 7.1992 8.3984 7.1992 13.199 2.3984 5.9961 0 9.5977-4.8008 13.199z"/>
</svg>
