%TF.GenerationSoftware,KiCad,Pcbnew,8.0.6*%
%TF.CreationDate,2024-11-09T20:31:53-07:00*%
%TF.ProjectId,SparkFun_Qwiic_Navigation,53706172-6b46-4756-9e5f-51776969635f,rev?*%
%TF.SameCoordinates,Original*%
%TF.FileFunction,Copper,L2,Bot*%
%TF.FilePolarity,Positive*%
%FSLAX46Y46*%
G04 Gerber Fmt 4.6, Leading zero omitted, Abs format (unit mm)*
G04 Created by KiCad (PCBNEW 8.0.6) date 2024-11-09 20:31:53*
%MOMM*%
%LPD*%
G01*
G04 APERTURE LIST*
G04 Aperture macros list*
%AMRoundRect*
0 Rectangle with rounded corners*
0 $1 Rounding radius*
0 $2 $3 $4 $5 $6 $7 $8 $9 X,Y pos of 4 corners*
0 Add a 4 corners polygon primitive as box body*
4,1,4,$2,$3,$4,$5,$6,$7,$8,$9,$2,$3,0*
0 Add four circle primitives for the rounded corners*
1,1,$1+$1,$2,$3*
1,1,$1+$1,$4,$5*
1,1,$1+$1,$6,$7*
1,1,$1+$1,$8,$9*
0 Add four rect primitives between the rounded corners*
20,1,$1+$1,$2,$3,$4,$5,0*
20,1,$1+$1,$4,$5,$6,$7,0*
20,1,$1+$1,$6,$7,$8,$9,0*
20,1,$1+$1,$8,$9,$2,$3,0*%
G04 Aperture macros list end*
%ADD10C,0.250000*%
%TA.AperFunction,EtchedComponent*%
%ADD11C,0.000000*%
%TD*%
%TA.AperFunction,SMDPad,CuDef*%
%ADD12C,0.500000*%
%TD*%
%TA.AperFunction,ComponentPad*%
%ADD13C,1.879600*%
%TD*%
%TA.AperFunction,SMDPad,CuDef*%
%ADD14RoundRect,0.200000X-0.200000X-0.275000X0.200000X-0.275000X0.200000X0.275000X-0.200000X0.275000X0*%
%TD*%
%TA.AperFunction,SMDPad,CuDef*%
%ADD15RoundRect,0.200000X-0.275000X0.200000X-0.275000X-0.200000X0.275000X-0.200000X0.275000X0.200000X0*%
%TD*%
%TA.AperFunction,SMDPad,CuDef*%
%ADD16R,1.350000X0.600000*%
%TD*%
%TA.AperFunction,SMDPad,CuDef*%
%ADD17R,2.000000X1.200000*%
%TD*%
%TA.AperFunction,SMDPad,CuDef*%
%ADD18R,1.270000X0.660400*%
%TD*%
%TA.AperFunction,SMDPad,CuDef*%
%ADD19RoundRect,0.225000X0.250000X-0.225000X0.250000X0.225000X-0.250000X0.225000X-0.250000X-0.225000X0*%
%TD*%
%TA.AperFunction,SMDPad,CuDef*%
%ADD20RoundRect,0.100000X0.637500X0.100000X-0.637500X0.100000X-0.637500X-0.100000X0.637500X-0.100000X0*%
%TD*%
%TA.AperFunction,SMDPad,CuDef*%
%ADD21R,1.270000X0.635000*%
%TD*%
%TA.AperFunction,SMDPad,CuDef*%
%ADD22RoundRect,0.200000X0.200000X0.275000X-0.200000X0.275000X-0.200000X-0.275000X0.200000X-0.275000X0*%
%TD*%
%TA.AperFunction,SMDPad,CuDef*%
%ADD23RoundRect,0.218750X-0.256250X0.218750X-0.256250X-0.218750X0.256250X-0.218750X0.256250X0.218750X0*%
%TD*%
%TA.AperFunction,SMDPad,CuDef*%
%ADD24R,0.800000X0.700000*%
%TD*%
%TA.AperFunction,ViaPad*%
%ADD25C,0.560000*%
%TD*%
%TA.AperFunction,Conductor*%
%ADD26C,0.152400*%
%TD*%
%TA.AperFunction,Conductor*%
%ADD27C,0.177800*%
%TD*%
%TA.AperFunction,Conductor*%
%ADD28C,0.254000*%
%TD*%
%TA.AperFunction,Conductor*%
%ADD29C,0.406400*%
%TD*%
G04 APERTURE END LIST*
D10*
G36*
X18896668Y1352531D02*
G01*
X18915600Y1333598D01*
X18948010Y1268777D01*
X18988570Y1106540D01*
X18988570Y899223D01*
X18948010Y736987D01*
X18915599Y672164D01*
X18896668Y653232D01*
X18845967Y627881D01*
X18809746Y627881D01*
X18759044Y653232D01*
X18740112Y672164D01*
X18707701Y736985D01*
X18667142Y899223D01*
X18667142Y1106540D01*
X18707701Y1268778D01*
X18740111Y1333599D01*
X18759044Y1352531D01*
X18809746Y1377881D01*
X18845967Y1377881D01*
X18896668Y1352531D01*
G37*
G36*
X21124132Y252881D02*
G01*
X18292142Y252881D01*
X18292142Y1121929D01*
X18417142Y1121929D01*
X18417142Y883834D01*
X18417561Y879580D01*
X18417290Y877758D01*
X18418639Y868630D01*
X18419544Y859448D01*
X18420248Y857747D01*
X18420874Y853517D01*
X18468493Y663041D01*
X18469136Y661242D01*
X18469200Y660342D01*
X18473082Y650196D01*
X18476738Y639966D01*
X18477274Y639242D01*
X18477958Y637456D01*
X18525576Y542219D01*
X18532183Y531723D01*
X18533446Y528675D01*
X18536263Y525242D01*
X18538631Y521481D01*
X18541125Y519318D01*
X18548991Y509733D01*
X18596610Y462113D01*
X18606198Y454244D01*
X18608360Y451751D01*
X18612114Y449388D01*
X18615551Y446567D01*
X18618604Y445303D01*
X18629097Y438697D01*
X18724335Y391078D01*
X18747221Y382320D01*
X18751701Y382002D01*
X18755851Y380283D01*
X18780237Y377881D01*
X18875475Y377881D01*
X18899861Y380283D01*
X18904009Y382002D01*
X18908491Y382320D01*
X18931377Y391078D01*
X19026614Y438696D01*
X19037110Y445304D01*
X19040160Y446567D01*
X19043593Y449386D01*
X19047352Y451751D01*
X19049514Y454245D01*
X19059102Y462113D01*
X19106721Y509732D01*
X19114588Y519320D01*
X19117081Y521481D01*
X19119447Y525241D01*
X19121110Y527267D01*
X19371925Y527267D01*
X19371925Y478495D01*
X19390589Y433435D01*
X19425077Y398947D01*
X19470137Y380283D01*
X19494523Y377881D01*
X20065951Y377881D01*
X20090337Y380283D01*
X20135397Y398947D01*
X20169885Y433435D01*
X20188549Y478495D01*
X20188549Y527267D01*
X20169885Y572327D01*
X20135397Y606815D01*
X20090337Y625479D01*
X20065951Y627881D01*
X19905237Y627881D01*
X19905237Y1159010D01*
X19914811Y1152983D01*
X20010049Y1105364D01*
X20032935Y1096606D01*
X20081584Y1093149D01*
X20127855Y1108572D01*
X20164700Y1140528D01*
X20170075Y1151279D01*
X20275627Y1151279D01*
X20281567Y1127506D01*
X20519662Y460839D01*
X20530126Y438682D01*
X20534336Y434031D01*
X20537023Y428359D01*
X20550582Y416084D01*
X20562858Y402524D01*
X20568530Y399838D01*
X20573181Y395627D01*
X20590405Y389476D01*
X20606936Y381645D01*
X20613201Y381334D01*
X20619111Y379223D01*
X20637386Y380132D01*
X20655649Y379224D01*
X20661555Y381334D01*
X20667823Y381645D01*
X20684355Y389476D01*
X20701579Y395627D01*
X20706230Y399838D01*
X20711902Y402524D01*
X20724177Y416084D01*
X20737737Y428359D01*
X20740423Y434031D01*
X20744634Y438682D01*
X20755098Y460839D01*
X20993193Y1127506D01*
X20999132Y1151279D01*
X20996711Y1199991D01*
X20975832Y1244070D01*
X20939674Y1276802D01*
X20893744Y1293205D01*
X20845031Y1290784D01*
X20800953Y1269905D01*
X20768221Y1233747D01*
X20757757Y1211590D01*
X20637380Y874534D01*
X20517003Y1211590D01*
X20506539Y1233747D01*
X20473807Y1269905D01*
X20429728Y1290784D01*
X20381016Y1293206D01*
X20335086Y1276802D01*
X20298928Y1244070D01*
X20278049Y1199991D01*
X20275627Y1151279D01*
X20170075Y1151279D01*
X20186511Y1184151D01*
X20189969Y1232801D01*
X20174546Y1279071D01*
X20142590Y1315916D01*
X20121852Y1328971D01*
X20044756Y1367519D01*
X19972615Y1439660D01*
X19884243Y1572219D01*
X19884187Y1572287D01*
X19884171Y1572327D01*
X19884080Y1572418D01*
X19868718Y1591177D01*
X19858433Y1598065D01*
X19849683Y1606815D01*
X19838370Y1611501D01*
X19828194Y1618316D01*
X19816055Y1620744D01*
X19804623Y1625479D01*
X19792378Y1625479D01*
X19780367Y1627881D01*
X19768225Y1625479D01*
X19755851Y1625479D01*
X19744537Y1620794D01*
X19732522Y1618416D01*
X19722223Y1611551D01*
X19710791Y1606815D01*
X19702132Y1598156D01*
X19691941Y1591362D01*
X19685053Y1581078D01*
X19676303Y1572327D01*
X19671617Y1561015D01*
X19664802Y1550838D01*
X19662374Y1538700D01*
X19657639Y1527267D01*
X19655262Y1503138D01*
X19655237Y1503011D01*
X19655245Y1502968D01*
X19655237Y1502881D01*
X19655237Y627881D01*
X19494523Y627881D01*
X19470137Y625479D01*
X19425077Y606815D01*
X19390589Y572327D01*
X19371925Y527267D01*
X19121110Y527267D01*
X19122266Y528675D01*
X19123528Y531724D01*
X19130135Y542218D01*
X19177754Y637456D01*
X19178437Y639242D01*
X19178974Y639966D01*
X19182629Y650196D01*
X19186512Y660342D01*
X19186575Y661242D01*
X19187219Y663041D01*
X19234838Y853517D01*
X19235463Y857747D01*
X19236168Y859448D01*
X19237072Y868628D01*
X19238422Y877757D01*
X19238150Y879580D01*
X19238570Y883834D01*
X19238570Y1121929D01*
X19238150Y1126184D01*
X19238422Y1128006D01*
X19237072Y1137136D01*
X19236168Y1146315D01*
X19235463Y1148017D01*
X19234838Y1152246D01*
X19187219Y1342722D01*
X19186575Y1344522D01*
X19186512Y1345421D01*
X19182629Y1355568D01*
X19178974Y1365797D01*
X19178437Y1366522D01*
X19177754Y1368307D01*
X19130135Y1463545D01*
X19123528Y1474040D01*
X19122265Y1477090D01*
X19119446Y1480525D01*
X19117081Y1484282D01*
X19114589Y1486444D01*
X19106720Y1496032D01*
X19059101Y1543650D01*
X19049515Y1551517D01*
X19047352Y1554011D01*
X19043590Y1556380D01*
X19040159Y1559195D01*
X19037112Y1560457D01*
X19026614Y1567066D01*
X18931377Y1614684D01*
X18908491Y1623442D01*
X18904009Y1623761D01*
X18899861Y1625479D01*
X18875475Y1627881D01*
X18780237Y1627881D01*
X18755851Y1625479D01*
X18751701Y1623761D01*
X18747221Y1623442D01*
X18724335Y1614684D01*
X18629097Y1567065D01*
X18618602Y1560459D01*
X18615552Y1559195D01*
X18612117Y1556377D01*
X18608360Y1554011D01*
X18606198Y1551520D01*
X18596610Y1543650D01*
X18548992Y1496031D01*
X18541125Y1486446D01*
X18538631Y1484282D01*
X18536262Y1480521D01*
X18533447Y1477089D01*
X18532185Y1474043D01*
X18525576Y1463544D01*
X18477958Y1368307D01*
X18477274Y1366522D01*
X18476738Y1365797D01*
X18473082Y1355568D01*
X18469200Y1345421D01*
X18469136Y1344522D01*
X18468493Y1342722D01*
X18420874Y1152246D01*
X18420248Y1148017D01*
X18419544Y1146315D01*
X18418639Y1137134D01*
X18417290Y1128005D01*
X18417561Y1126184D01*
X18417142Y1121929D01*
X18292142Y1121929D01*
X18292142Y1752881D01*
X21124132Y1752881D01*
X21124132Y252881D01*
G37*
D11*
%TA.AperFunction,EtchedComponent*%
%TO.C,JP5*%
G36*
X9040000Y21340000D02*
G01*
X8740000Y21340000D01*
X8740000Y21840000D01*
X9040000Y21840000D01*
X9040000Y21340000D01*
G37*
%TD.AperFunction*%
%TA.AperFunction,EtchedComponent*%
%TO.C,JP7*%
G36*
X11580000Y21340000D02*
G01*
X11280000Y21340000D01*
X11280000Y21840000D01*
X11580000Y21840000D01*
X11580000Y21340000D01*
G37*
%TD.AperFunction*%
%TA.AperFunction,EtchedComponent*%
%TO.C,JP8*%
G36*
X14120000Y21454300D02*
G01*
X13820000Y21454300D01*
X13820000Y21954300D01*
X14120000Y21954300D01*
X14120000Y21454300D01*
G37*
%TD.AperFunction*%
%TA.AperFunction,EtchedComponent*%
%TO.C,JP6*%
G36*
X4912500Y6214300D02*
G01*
X4612500Y6214300D01*
X4612500Y6714300D01*
X4912500Y6714300D01*
X4912500Y6214300D01*
G37*
%TD.AperFunction*%
%TA.AperFunction,EtchedComponent*%
G36*
X4935500Y7247000D02*
G01*
X4635500Y7247000D01*
X4635500Y7747000D01*
X4935500Y7747000D01*
X4935500Y7247000D01*
G37*
%TD.AperFunction*%
%TA.AperFunction,EtchedComponent*%
%TO.C,JP4*%
G36*
X24280000Y7370000D02*
G01*
X23980000Y7370000D01*
X23980000Y7870000D01*
X24280000Y7870000D01*
X24280000Y7370000D01*
G37*
%TD.AperFunction*%
%TD*%
D12*
%TO.P,FID2,*%
%TO.N,*%
X952500Y952500D03*
%TD*%
%TO.P,FID1,*%
%TO.N,*%
X24447500Y24447500D03*
%TD*%
D13*
%TO.P,J5,1,Pin_1*%
%TO.N,GND*%
X8890000Y1270000D03*
%TO.P,J5,2,Pin_2*%
%TO.N,3.3V*%
X11430000Y1270000D03*
%TO.P,J5,3,Pin_3*%
%TO.N,SDA*%
X13970000Y1270000D03*
%TO.P,J5,4,Pin_4*%
%TO.N,SCL*%
X16510000Y1270000D03*
%TD*%
%TO.P,J2,1,Pin_1*%
%TO.N,IO5{slash}Blue*%
X8890000Y24130000D03*
%TO.P,J2,2,Pin_2*%
%TO.N,IO6{slash}Green*%
X11430000Y24130000D03*
%TO.P,J2,3,Pin_3*%
%TO.N,IO7{slash}Red*%
X13970000Y24130000D03*
%TO.P,J2,4,Pin_4*%
%TO.N,~{INT}*%
X16510000Y24130000D03*
%TD*%
D14*
%TO.P,R14,1*%
%TO.N,Net-(JP7-A)*%
X5525000Y21590000D03*
%TO.P,R14,2*%
%TO.N,Net-(D2-GK)*%
X7175000Y21590000D03*
%TD*%
D15*
%TO.P,R8,1*%
%TO.N,SW_Down*%
X12700000Y8445000D03*
%TO.P,R8,2*%
%TO.N,3.3V*%
X12700000Y6795000D03*
%TD*%
D16*
%TO.P,J1,1,Pin_1*%
%TO.N,GND*%
X20637500Y14200000D03*
%TO.P,J1,2,Pin_2*%
%TO.N,3.3V*%
X20637500Y13200000D03*
%TO.P,J1,3,Pin_3*%
%TO.N,SDA*%
X20637500Y12200000D03*
%TO.P,J1,4,Pin_4*%
%TO.N,SCL*%
X20637500Y11200000D03*
D17*
%TO.P,J1,NC1,NC*%
%TO.N,unconnected-(J1-NC-PadNC1)*%
X24312500Y9900000D03*
%TO.P,J1,NC2,NC*%
%TO.N,unconnected-(J1-NC-PadNC2)*%
X24312500Y15500000D03*
%TD*%
D16*
%TO.P,J3,1,Pin_1*%
%TO.N,GND*%
X4762500Y11200000D03*
%TO.P,J3,2,Pin_2*%
%TO.N,3.3V*%
X4762500Y12200000D03*
%TO.P,J3,3,Pin_3*%
%TO.N,SDA*%
X4762500Y13200000D03*
%TO.P,J3,4,Pin_4*%
%TO.N,SCL*%
X4762500Y14200000D03*
D17*
%TO.P,J3,NC1,NC*%
%TO.N,unconnected-(J3-NC-PadNC1)*%
X1087500Y15500000D03*
%TO.P,J3,NC2,NC*%
%TO.N,unconnected-(J3-NC-PadNC2)*%
X1087500Y9900000D03*
%TD*%
D18*
%TO.P,JP5,1,A*%
%TO.N,Net-(JP5-A)*%
X8890000Y21069300D03*
%TO.P,JP5,2,B*%
%TO.N,IO5{slash}Blue*%
X8890000Y22110700D03*
%TD*%
D19*
%TO.P,C1,1*%
%TO.N,3.3V*%
X9525000Y16370000D03*
%TO.P,C1,2*%
%TO.N,GND*%
X9525000Y17920000D03*
%TD*%
D18*
%TO.P,JP7,1,A*%
%TO.N,Net-(JP7-A)*%
X11430000Y21069300D03*
%TO.P,JP7,2,B*%
%TO.N,IO6{slash}Green*%
X11430000Y22110700D03*
%TD*%
D20*
%TO.P,U4,1,A0*%
%TO.N,ADR0*%
X15562500Y14975000D03*
%TO.P,U4,2,A1*%
%TO.N,ADR1*%
X15562500Y14325000D03*
%TO.P,U4,3,A2*%
%TO.N,ADR2*%
X15562500Y13675000D03*
%TO.P,U4,4,IO0*%
%TO.N,SW_Up*%
X15562500Y13025000D03*
%TO.P,U4,5,IO1*%
%TO.N,SW_Down*%
X15562500Y12375000D03*
%TO.P,U4,6,IO2*%
%TO.N,SW_Right*%
X15562500Y11725000D03*
%TO.P,U4,7,IO3*%
%TO.N,SW_Left*%
X15562500Y11075000D03*
%TO.P,U4,8,VSS*%
%TO.N,GND*%
X15562500Y10425000D03*
%TO.P,U4,9,IO4*%
%TO.N,SW_Center*%
X9837500Y10425000D03*
%TO.P,U4,10,IO5*%
%TO.N,IO5{slash}Blue*%
X9837500Y11075000D03*
%TO.P,U4,11,IO6*%
%TO.N,IO6{slash}Green*%
X9837500Y11725000D03*
%TO.P,U4,12,IO7*%
%TO.N,IO7{slash}Red*%
X9837500Y12375000D03*
%TO.P,U4,13,~{INT}*%
%TO.N,~{INT}*%
X9837500Y13025000D03*
%TO.P,U4,14,SCL*%
%TO.N,SCL*%
X9837500Y13675000D03*
%TO.P,U4,15,SDA*%
%TO.N,SDA*%
X9837500Y14325000D03*
%TO.P,U4,16,VDD*%
%TO.N,3.3V*%
X9837500Y14975000D03*
%TD*%
D21*
%TO.P,JP1,1,A*%
%TO.N,ADR0*%
X19685000Y16967200D03*
%TO.P,JP1,2,B*%
%TO.N,3.3V*%
X19685000Y17780000D03*
%TD*%
D15*
%TO.P,R12,1*%
%TO.N,SW_Center*%
X9525000Y8445000D03*
%TO.P,R12,2*%
%TO.N,3.3V*%
X9525000Y6795000D03*
%TD*%
D22*
%TO.P,R13,1*%
%TO.N,Net-(JP6-A)*%
X2730000Y6032500D03*
%TO.P,R13,2*%
%TO.N,SDA*%
X1080000Y6032500D03*
%TD*%
D23*
%TO.P,D1,1,K*%
%TO.N,GND*%
X20637500Y8407500D03*
%TO.P,D1,2,A*%
%TO.N,Net-(D1-A)*%
X20637500Y6832500D03*
%TD*%
D15*
%TO.P,R3,1*%
%TO.N,GND*%
X12700000Y17970000D03*
%TO.P,R3,2*%
%TO.N,ADR2*%
X12700000Y16320000D03*
%TD*%
%TO.P,R6,1*%
%TO.N,Net-(JP5-A)*%
X1270000Y18922500D03*
%TO.P,R6,2*%
%TO.N,Net-(D2-BK)*%
X1270000Y17272500D03*
%TD*%
D21*
%TO.P,JP2,1,A*%
%TO.N,ADR1*%
X21907500Y16967200D03*
%TO.P,JP2,2,B*%
%TO.N,3.3V*%
X21907500Y17780000D03*
%TD*%
D15*
%TO.P,R4,1*%
%TO.N,~{INT}*%
X11112500Y17970000D03*
%TO.P,R4,2*%
%TO.N,3.3V*%
X11112500Y16320000D03*
%TD*%
%TO.P,R11,1*%
%TO.N,SW_Left*%
X14287500Y8445000D03*
%TO.P,R11,2*%
%TO.N,3.3V*%
X14287500Y6795000D03*
%TD*%
D14*
%TO.P,R15,1*%
%TO.N,Net-(JP8-A)*%
X5525000Y20002500D03*
%TO.P,R15,2*%
%TO.N,Net-(D2-RK)*%
X7175000Y20002500D03*
%TD*%
D15*
%TO.P,R2,1*%
%TO.N,GND*%
X14287500Y17970000D03*
%TO.P,R2,2*%
%TO.N,ADR1*%
X14287500Y16320000D03*
%TD*%
D22*
%TO.P,R7,1*%
%TO.N,Net-(JP6-B)*%
X2730000Y7937500D03*
%TO.P,R7,2*%
%TO.N,SCL*%
X1080000Y7937500D03*
%TD*%
D18*
%TO.P,JP8,1,A*%
%TO.N,Net-(JP8-A)*%
X13970000Y21183600D03*
%TO.P,JP8,2,B*%
%TO.N,IO7{slash}Red*%
X13970000Y22225000D03*
%TD*%
D24*
%TO.P,D2,1,A*%
%TO.N,3.3V*%
X3530000Y17547500D03*
%TO.P,D2,2,BK*%
%TO.N,Net-(D2-BK)*%
X3530000Y18647500D03*
%TO.P,D2,3,GK*%
%TO.N,Net-(D2-GK)*%
X6630000Y18647500D03*
%TO.P,D2,4,RK*%
%TO.N,Net-(D2-RK)*%
X6630000Y17547500D03*
%TD*%
D18*
%TO.P,JP6,1,A*%
%TO.N,Net-(JP6-A)*%
X4762500Y5943600D03*
%TO.P,JP6,2,C*%
%TO.N,3.3V*%
X4762500Y6985000D03*
%TO.P,JP6,3,B*%
%TO.N,Net-(JP6-B)*%
X4762500Y8026400D03*
%TD*%
D15*
%TO.P,R5,1*%
%TO.N,Net-(JP4-A)*%
X22225000Y8445000D03*
%TO.P,R5,2*%
%TO.N,Net-(D1-A)*%
X22225000Y6795000D03*
%TD*%
D21*
%TO.P,JP3,1,A*%
%TO.N,ADR2*%
X24130000Y16967200D03*
%TO.P,JP3,2,B*%
%TO.N,3.3V*%
X24130000Y17780000D03*
%TD*%
D15*
%TO.P,R10,1*%
%TO.N,SW_Right*%
X15875000Y8445000D03*
%TO.P,R10,2*%
%TO.N,3.3V*%
X15875000Y6795000D03*
%TD*%
%TO.P,R9,1*%
%TO.N,SW_Up*%
X11112500Y8445000D03*
%TO.P,R9,2*%
%TO.N,3.3V*%
X11112500Y6795000D03*
%TD*%
D18*
%TO.P,JP4,1,A*%
%TO.N,Net-(JP4-A)*%
X24130000Y8140700D03*
%TO.P,JP4,2,B*%
%TO.N,3.3V*%
X24130000Y7099300D03*
%TD*%
D15*
%TO.P,R1,1*%
%TO.N,GND*%
X15875000Y17970000D03*
%TO.P,R1,2*%
%TO.N,ADR0*%
X15875000Y16320000D03*
%TD*%
D25*
%TO.N,SCL*%
X8458800Y13766848D03*
%TO.N,SDA*%
X8458800Y14605000D03*
%TO.N,GND*%
X20637500Y9525000D03*
X18732500Y21907500D03*
X15875000Y19685000D03*
X3492500Y11112500D03*
X18427391Y13100110D03*
X18415000Y9525000D03*
X22225000Y10477500D03*
X14287500Y19685000D03*
X8258202Y7942185D03*
X6667500Y3175000D03*
X18732500Y3175000D03*
X6350000Y23495000D03*
X10318750Y17303750D03*
X6032500Y16192500D03*
X21907500Y14287500D03*
X16986250Y17145000D03*
%TO.N,3.3V*%
X13335000Y14128750D03*
X6032500Y12382500D03*
X23177500Y19050000D03*
X22225000Y13017500D03*
%TO.N,SCL*%
X3492500Y14287500D03*
X22542500Y14922500D03*
X19685000Y9842500D03*
%TO.N,SDA*%
X19050000Y10477500D03*
X19050000Y14693300D03*
X3175000Y13335000D03*
%TO.N,SW_Down*%
X16986250Y13018100D03*
%TO.N,SW_Up*%
X12382500Y11746900D03*
%TO.N,SW_Right*%
X17719865Y13183323D03*
%TO.N,SW_Left*%
X13811250Y10318750D03*
%TO.N,SW_Center*%
X8255000Y8890000D03*
%TO.N,Net-(JP5-A)*%
X1270000Y20002500D03*
X7302500Y22542500D03*
%TO.N,Net-(JP7-A)*%
X4445000Y20714903D03*
X10795000Y20206300D03*
%TO.N,Net-(JP8-A)*%
X12962353Y19834313D03*
X4445000Y20002500D03*
%TD*%
D26*
%TO.N,SW_Left*%
X14251268Y10318750D02*
X14287500Y10354982D01*
X13811250Y10318750D02*
X14251268Y10318750D01*
X15007518Y11075000D02*
X15562500Y11075000D01*
X14287500Y10354982D02*
X15007518Y11075000D01*
X14287500Y8445000D02*
X14287500Y10354982D01*
%TO.N,SCL*%
X9745652Y13766848D02*
X9837500Y13675000D01*
X8458800Y13766848D02*
X9745652Y13766848D01*
D27*
%TO.N,~{INT}*%
X9944730Y19050000D02*
X11112500Y19050000D01*
X9740930Y19253800D02*
X9944730Y19050000D01*
X9309070Y19253800D02*
X9740930Y19253800D01*
X9003700Y18948430D02*
X9309070Y19253800D01*
X9003700Y18846200D02*
X9003700Y18948430D01*
X8597900Y18440400D02*
X9003700Y18846200D01*
X7937500Y15721478D02*
X8597900Y16381878D01*
X7937500Y13176250D02*
X7937500Y15721478D01*
X8088750Y13025000D02*
X7937500Y13176250D01*
X9837500Y13025000D02*
X8088750Y13025000D01*
X8597900Y16381878D02*
X8597900Y18440400D01*
%TO.N,IO7{slash}Red*%
X13563600Y22225000D02*
X13970000Y22225000D01*
X13093700Y21755100D02*
X13563600Y22225000D01*
X13093700Y21043900D02*
X13093700Y21755100D01*
X11734800Y19685000D02*
X13093700Y21043900D01*
X8267700Y16518652D02*
X8267700Y18738850D01*
X8267700Y18738850D02*
X9213850Y19685000D01*
X9213850Y19685000D02*
X11734800Y19685000D01*
X7607300Y15858252D02*
X8267700Y16518652D01*
X7607300Y12553950D02*
X7607300Y15858252D01*
X9837500Y12375000D02*
X7786250Y12375000D01*
X7786250Y12375000D02*
X7607300Y12553950D01*
%TO.N,IO6{slash}Green*%
X10553700Y21539200D02*
X11125200Y22110700D01*
X7937500Y18875624D02*
X9077076Y20015200D01*
X9636374Y20015200D02*
X10553700Y20932526D01*
X10553700Y20932526D02*
X10553700Y21539200D01*
X7937500Y16655426D02*
X7937500Y18875624D01*
X9077076Y20015200D02*
X9636374Y20015200D01*
X7801250Y11725000D02*
X7277100Y12249150D01*
X7277100Y12249150D02*
X7277100Y15995026D01*
X11125200Y22110700D02*
X11430000Y22110700D01*
X7277100Y15995026D02*
X7937500Y16655426D01*
X9837500Y11725000D02*
X7801250Y11725000D01*
%TO.N,IO5{slash}Blue*%
X9194800Y22225000D02*
X8890000Y22225000D01*
X9842500Y20688300D02*
X9842500Y21577300D01*
X8940302Y20345400D02*
X9499600Y20345400D01*
X6946900Y16131799D02*
X7607300Y16792199D01*
X9842500Y21577300D02*
X9194800Y22225000D01*
X9499600Y20345400D02*
X9842500Y20688300D01*
X6946900Y12103100D02*
X6946900Y16131799D01*
X7607300Y16792199D02*
X7607300Y19012398D01*
X7975000Y11075000D02*
X6946900Y12103100D01*
X9837500Y11075000D02*
X7975000Y11075000D01*
X7607300Y19012398D02*
X8940302Y20345400D01*
D26*
%TO.N,SW_Up*%
X11112500Y10476900D02*
X11112500Y8445000D01*
X12382500Y11746900D02*
X11112500Y10476900D01*
D27*
X13977500Y13025000D02*
X15562500Y13025000D01*
X12382500Y11746900D02*
X12699400Y11746900D01*
X12699400Y11746900D02*
X13977500Y13025000D01*
%TO.N,SW_Down*%
X12700000Y11271250D02*
X12700000Y8445000D01*
X13803750Y12375000D02*
X12700000Y11271250D01*
X15562500Y12375000D02*
X13803750Y12375000D01*
D28*
%TO.N,3.3V*%
X13335000Y14128750D02*
X12488750Y14975000D01*
X12488750Y14975000D02*
X11112500Y14975000D01*
D27*
%TO.N,ADR2*%
X12700000Y15716250D02*
X12700000Y16320000D01*
X14741250Y13675000D02*
X12700000Y15716250D01*
X15562500Y13675000D02*
X14741250Y13675000D01*
%TO.N,SDA*%
X8738800Y14325000D02*
X9837500Y14325000D01*
X8458800Y14605000D02*
X8738800Y14325000D01*
D28*
%TO.N,3.3V*%
X15875000Y6795000D02*
X14287500Y6795000D01*
X12700000Y6795000D02*
X11112500Y6795000D01*
X9837500Y15557500D02*
X9525000Y15870000D01*
D29*
X6032500Y6985000D02*
X7937500Y6985000D01*
X22042500Y13200000D02*
X22225000Y13017500D01*
X9525000Y6795000D02*
X11112500Y6795000D01*
D27*
X23177500Y19050000D02*
X23177500Y17780000D01*
D29*
X11112500Y6795000D02*
X11112500Y4445000D01*
X11112500Y4445000D02*
X11430000Y4127500D01*
D28*
X17652500Y6795000D02*
X18415000Y6032500D01*
X18415000Y6032500D02*
X23812500Y6032500D01*
X9837500Y14975000D02*
X9837500Y15557500D01*
D29*
X7937500Y6985000D02*
X8127500Y6795000D01*
D27*
X11112500Y16320000D02*
X11112500Y14975000D01*
D28*
X23812500Y6032500D02*
X24130000Y6350000D01*
D29*
X8127500Y6795000D02*
X9525000Y6795000D01*
D28*
X21907500Y17780000D02*
X19685000Y17780000D01*
X5397500Y15240000D02*
X6032500Y14605000D01*
D29*
X6032500Y12382500D02*
X6032500Y6985000D01*
X4762500Y12200000D02*
X5850000Y12200000D01*
X4762500Y6985000D02*
X6032500Y6985000D01*
D28*
X3530000Y17547500D02*
X3530000Y16155000D01*
X11112500Y14975000D02*
X9837500Y14975000D01*
D29*
X11430000Y4127500D02*
X11430000Y1270000D01*
X5850000Y12200000D02*
X6032500Y12382500D01*
X20637500Y13200000D02*
X22042500Y13200000D01*
D28*
X24130000Y17780000D02*
X23177500Y17780000D01*
X4445000Y15240000D02*
X5397500Y15240000D01*
X23177500Y17780000D02*
X21907500Y17780000D01*
X6032500Y14605000D02*
X6032500Y12382500D01*
X14287500Y6795000D02*
X12700000Y6795000D01*
X3530000Y16155000D02*
X4445000Y15240000D01*
X15875000Y6795000D02*
X17652500Y6795000D01*
X9525000Y15870000D02*
X9525000Y16370000D01*
X24130000Y6350000D02*
X24130000Y7099300D01*
D27*
%TO.N,~{INT}*%
X12280270Y19050000D02*
X12484070Y19253800D01*
X11112500Y19050000D02*
X12280270Y19050000D01*
X13119070Y19253800D02*
X14185270Y20320000D01*
X11112500Y19050000D02*
X11112500Y17970000D01*
X14185270Y20320000D02*
X16192500Y20320000D01*
X16192500Y20320000D02*
X16510000Y20637500D01*
X16510000Y20637500D02*
X16510000Y24130000D01*
X12484070Y19253800D02*
X13119070Y19253800D01*
%TO.N,Net-(D1-A)*%
X20675000Y6795000D02*
X20637500Y6832500D01*
X22225000Y6795000D02*
X20675000Y6795000D01*
%TO.N,Net-(JP4-A)*%
X22987500Y8445000D02*
X23291800Y8140700D01*
X23291800Y8140700D02*
X24130000Y8140700D01*
X22225000Y8445000D02*
X22987500Y8445000D01*
%TO.N,ADR1*%
X15562500Y14325000D02*
X14567500Y14325000D01*
X21907500Y15875000D02*
X21907500Y16967200D01*
X17792700Y14605000D02*
X17792700Y15240000D01*
X14287500Y14605000D02*
X14287500Y16320000D01*
X15562500Y14325000D02*
X17512700Y14325000D01*
X18097500Y15544800D02*
X21577300Y15544800D01*
X14567500Y14325000D02*
X14287500Y14605000D01*
X21577300Y15544800D02*
X21907500Y15875000D01*
X17512700Y14325000D02*
X17792700Y14605000D01*
X17792700Y15240000D02*
X18097500Y15544800D01*
%TO.N,SCL*%
X19685000Y9842500D02*
X20002500Y9842500D01*
D26*
X2540000Y13419270D02*
X3408230Y14287500D01*
D27*
X22947500Y11200000D02*
X20637500Y11200000D01*
D26*
X1156448Y7937500D02*
X2540000Y9321052D01*
D27*
X22542500Y14922500D02*
X22542500Y14287500D01*
X23495000Y13335000D02*
X23495000Y11747500D01*
D26*
X3408230Y14287500D02*
X3492500Y14287500D01*
D27*
X4762500Y14200000D02*
X3580000Y14200000D01*
X20637500Y10477500D02*
X20637500Y11200000D01*
X22542500Y14287500D02*
X23495000Y13335000D01*
X3580000Y14200000D02*
X3492500Y14287500D01*
X20002500Y9842500D02*
X20637500Y10477500D01*
X23495000Y11747500D02*
X22947500Y11200000D01*
D26*
X2540000Y9321052D02*
X2540000Y13419270D01*
X1080000Y7937500D02*
X1156448Y7937500D01*
%TO.N,SDA*%
X1905000Y6857500D02*
X1905000Y8255000D01*
D27*
X20637500Y12200000D02*
X19056268Y12200000D01*
D26*
X2857500Y13017500D02*
X3175000Y13335000D01*
D27*
X19050000Y12206268D02*
X19050000Y12700000D01*
D26*
X2857500Y9207500D02*
X2857500Y13017500D01*
D27*
X19050000Y14693300D02*
X19050000Y12700000D01*
X19050000Y10477500D02*
X19050000Y12206268D01*
X3310000Y13200000D02*
X3175000Y13335000D01*
X4762500Y13200000D02*
X3310000Y13200000D01*
D26*
X1905000Y8255000D02*
X2857500Y9207500D01*
D27*
X19056268Y12200000D02*
X19050000Y12206268D01*
D26*
X1080000Y6032500D02*
X1905000Y6857500D01*
D27*
%TO.N,ADR2*%
X23812500Y16967200D02*
X24130000Y16967200D01*
X18122900Y14947900D02*
X18389600Y15214600D01*
X22059900Y15214600D02*
X23812500Y16967200D01*
X17329674Y13675000D02*
X18122900Y14468226D01*
X15562500Y13675000D02*
X17329674Y13675000D01*
X18122900Y14468226D02*
X18122900Y14947900D01*
X18389600Y15214600D02*
X22059900Y15214600D01*
%TO.N,ADR0*%
X15875000Y15875000D02*
X15557500Y15557500D01*
X19685000Y16192500D02*
X19685000Y16967200D01*
X19367500Y15875000D02*
X19685000Y16192500D01*
X15875000Y16320000D02*
X17017500Y16320000D01*
X17017500Y16320000D02*
X17462500Y15875000D01*
X17462500Y15875000D02*
X19367500Y15875000D01*
X15875000Y16320000D02*
X15875000Y15875000D01*
X15557500Y15557500D02*
X15562500Y15552500D01*
X15562500Y15552500D02*
X15562500Y14975000D01*
%TO.N,SW_Down*%
X15562500Y12375000D02*
X16661250Y12375000D01*
X16986250Y12700000D02*
X16986250Y13018100D01*
X16661250Y12375000D02*
X16986250Y12700000D01*
%TO.N,SW_Right*%
X15875000Y8445000D02*
X17017500Y8445000D01*
X17719865Y12163615D02*
X17303750Y11747500D01*
X17719865Y13183323D02*
X17719865Y12163615D01*
X17122500Y11725000D02*
X17145000Y11747500D01*
X17303750Y11747500D02*
X17145000Y11747500D01*
X17017500Y8445000D02*
X17145000Y8572500D01*
X17145000Y8572500D02*
X17145000Y11747500D01*
X15562500Y11725000D02*
X17122500Y11725000D01*
%TO.N,SW_Center*%
X9525000Y8445000D02*
X9525000Y9207500D01*
X9525000Y9207500D02*
X9842500Y9525000D01*
D26*
X8255000Y8890000D02*
X8700000Y8445000D01*
D27*
X9837500Y9847500D02*
X9837500Y10425000D01*
X9842500Y9842500D02*
X9837500Y9847500D01*
X9842500Y9525000D02*
X9842500Y9842500D01*
D26*
X8700000Y8445000D02*
X9525000Y8445000D01*
%TO.N,Net-(JP5-A)*%
X1270000Y18922500D02*
X1270000Y20002500D01*
X8026400Y21183600D02*
X8890000Y21183600D01*
X7302500Y22542500D02*
X7630774Y22542500D01*
X7937500Y22235774D02*
X7937500Y21272500D01*
X7937500Y21272500D02*
X8026400Y21183600D01*
X7630774Y22542500D02*
X7937500Y22235774D01*
%TO.N,Net-(JP6-A)*%
X2730000Y6032500D02*
X4673600Y6032500D01*
X4673600Y6032500D02*
X4762500Y5943600D01*
%TO.N,Net-(JP6-B)*%
X4673600Y7937500D02*
X4762500Y8026400D01*
X2730000Y7937500D02*
X4673600Y7937500D01*
%TO.N,Net-(D2-BK)*%
X3530000Y18647500D02*
X2645000Y18647500D01*
X2645000Y18647500D02*
X1270000Y17272500D01*
%TO.N,Net-(JP7-A)*%
X5320097Y21590000D02*
X4445000Y20714903D01*
X10795000Y20206300D02*
X10795000Y20434300D01*
X5525000Y21590000D02*
X5320097Y21590000D01*
X10795000Y20434300D02*
X11430000Y21069300D01*
D27*
%TO.N,IO6{slash}Green*%
X11023600Y22110700D02*
X11430000Y22110700D01*
D26*
X11430000Y22110700D02*
X11430000Y24130000D01*
%TO.N,Net-(JP8-A)*%
X12962353Y20175953D02*
X13970000Y21183600D01*
X12962353Y19834313D02*
X12962353Y20175953D01*
X5525000Y20002500D02*
X4445000Y20002500D01*
%TO.N,Net-(D2-GK)*%
X6630000Y18647500D02*
X6546400Y18731100D01*
X6546400Y20961400D02*
X7175000Y21590000D01*
X6546400Y18731100D02*
X6546400Y20961400D01*
%TO.N,Net-(D2-RK)*%
X6630000Y17547500D02*
X7289800Y18207300D01*
X7289800Y19887700D02*
X7175000Y20002500D01*
X7289800Y18207300D02*
X7289800Y19887700D01*
%TO.N,IO5{slash}Blue*%
X8890000Y22225000D02*
X8890000Y24130000D01*
D27*
%TO.N,IO7{slash}Red*%
X13335000Y24130000D02*
X13970000Y24130000D01*
D26*
X13970000Y22225000D02*
X13970000Y24130000D01*
D27*
X13970000Y24130000D02*
X13970000Y23495000D01*
%TD*%
%TA.AperFunction,Conductor*%
%TO.N,GND*%
G36*
X1825020Y9101136D02*
G01*
X1855084Y9049065D01*
X1844643Y8989851D01*
X1830674Y8971646D01*
X1463982Y8604954D01*
X1409488Y8579543D01*
X1389162Y8580127D01*
X1315904Y8590800D01*
X844096Y8590800D01*
X770565Y8580087D01*
X770563Y8580087D01*
X770561Y8580086D01*
X770559Y8580085D01*
X657142Y8524639D01*
X567861Y8435358D01*
X512415Y8321941D01*
X512414Y8321939D01*
X512413Y8321937D01*
X512413Y8321935D01*
X501700Y8248404D01*
X501700Y7626596D01*
X512413Y7553065D01*
X512413Y7553064D01*
X512414Y7553062D01*
X512415Y7553060D01*
X567861Y7439643D01*
X567863Y7439641D01*
X567864Y7439639D01*
X657139Y7350364D01*
X657140Y7350364D01*
X657142Y7350362D01*
X745563Y7307136D01*
X770565Y7294913D01*
X844096Y7284200D01*
X844100Y7284200D01*
X1315899Y7284200D01*
X1315904Y7284200D01*
X1389435Y7294913D01*
X1502861Y7350364D01*
X1508786Y7354594D01*
X1510262Y7352527D01*
X1554939Y7373360D01*
X1613017Y7357797D01*
X1647505Y7308544D01*
X1650500Y7285794D01*
X1650500Y6999328D01*
X1629935Y6942827D01*
X1624755Y6937173D01*
X1397257Y6709676D01*
X1342763Y6684265D01*
X1322432Y6684849D01*
X1315906Y6685800D01*
X1315904Y6685800D01*
X844096Y6685800D01*
X770565Y6675087D01*
X770563Y6675087D01*
X770561Y6675086D01*
X770559Y6675085D01*
X657142Y6619639D01*
X567861Y6530358D01*
X512415Y6416941D01*
X512414Y6416939D01*
X512413Y6416937D01*
X512413Y6416935D01*
X501700Y6343404D01*
X501700Y5721596D01*
X512413Y5648065D01*
X512413Y5648064D01*
X512414Y5648062D01*
X512415Y5648060D01*
X567861Y5534643D01*
X567863Y5534641D01*
X567864Y5534639D01*
X657139Y5445364D01*
X657140Y5445364D01*
X657142Y5445362D01*
X757942Y5396084D01*
X770565Y5389913D01*
X844096Y5379200D01*
X844100Y5379200D01*
X1315899Y5379200D01*
X1315904Y5379200D01*
X1389435Y5389913D01*
X1502861Y5445364D01*
X1592136Y5534639D01*
X1647587Y5648065D01*
X1658300Y5721596D01*
X1658300Y6214474D01*
X1678865Y6270975D01*
X1684034Y6276618D01*
X2049161Y6641745D01*
X2049163Y6641745D01*
X2120755Y6713337D01*
X2159500Y6806877D01*
X2159500Y7285794D01*
X2180065Y7342295D01*
X2232136Y7372359D01*
X2291350Y7361918D01*
X2301101Y7354436D01*
X2301214Y7354594D01*
X2307138Y7350364D01*
X2395563Y7307136D01*
X2420565Y7294913D01*
X2494096Y7284200D01*
X2494100Y7284200D01*
X2965899Y7284200D01*
X2965904Y7284200D01*
X3039435Y7294913D01*
X3152861Y7350364D01*
X3242136Y7439639D01*
X3297587Y7553065D01*
X3305557Y7607775D01*
X3334053Y7660719D01*
X3389915Y7682961D01*
X3392539Y7683000D01*
X3877463Y7683000D01*
X3933964Y7662435D01*
X3958671Y7628740D01*
X3959543Y7626634D01*
X3959544Y7626632D01*
X3959545Y7626631D01*
X3997663Y7569583D01*
X4003763Y7560455D01*
X4002573Y7559661D01*
X4024163Y7513361D01*
X4008600Y7455283D01*
X3999078Y7443934D01*
X3998953Y7443748D01*
X3998953Y7443747D01*
X3959545Y7384769D01*
X3951097Y7342295D01*
X3949200Y7332760D01*
X3949200Y6637237D01*
X3949201Y6637235D01*
X3959543Y6585235D01*
X3959543Y6585234D01*
X3959544Y6585232D01*
X3959545Y6585231D01*
X3997919Y6527800D01*
X4003763Y6519055D01*
X4002573Y6518261D01*
X4024163Y6471961D01*
X4008600Y6413883D01*
X3999078Y6402534D01*
X3959543Y6343367D01*
X3958671Y6341260D01*
X3956695Y6339105D01*
X3954735Y6336170D01*
X3954283Y6336472D01*
X3918048Y6296930D01*
X3877463Y6287000D01*
X3392539Y6287000D01*
X3336038Y6307565D01*
X3305974Y6359636D01*
X3305563Y6362188D01*
X3297587Y6416935D01*
X3278177Y6456639D01*
X3242138Y6530358D01*
X3242136Y6530360D01*
X3242136Y6530361D01*
X3152861Y6619636D01*
X3152859Y6619637D01*
X3152857Y6619639D01*
X3039440Y6675085D01*
X3039438Y6675086D01*
X3039436Y6675087D01*
X3039435Y6675087D01*
X2965904Y6685800D01*
X2494096Y6685800D01*
X2420565Y6675087D01*
X2420563Y6675087D01*
X2420561Y6675086D01*
X2420559Y6675085D01*
X2307142Y6619639D01*
X2217861Y6530358D01*
X2162415Y6416941D01*
X2162414Y6416939D01*
X2162413Y6416937D01*
X2162413Y6416935D01*
X2151700Y6343404D01*
X2151700Y5721596D01*
X2162413Y5648065D01*
X2162413Y5648064D01*
X2162414Y5648062D01*
X2162415Y5648060D01*
X2217861Y5534643D01*
X2217863Y5534641D01*
X2217864Y5534639D01*
X2307139Y5445364D01*
X2307140Y5445364D01*
X2307142Y5445362D01*
X2407942Y5396084D01*
X2420565Y5389913D01*
X2494096Y5379200D01*
X2494100Y5379200D01*
X2965899Y5379200D01*
X2965904Y5379200D01*
X3039435Y5389913D01*
X3152861Y5445364D01*
X3242136Y5534639D01*
X3297587Y5648065D01*
X3305557Y5702775D01*
X3334053Y5755719D01*
X3389915Y5777961D01*
X3392539Y5778000D01*
X3861301Y5778000D01*
X3917802Y5757435D01*
X3947866Y5705364D01*
X3949201Y5690100D01*
X3949201Y5595835D01*
X3959543Y5543835D01*
X3959543Y5543834D01*
X3959544Y5543832D01*
X3959545Y5543831D01*
X3998953Y5484853D01*
X4057931Y5445445D01*
X4109939Y5435100D01*
X5415060Y5435101D01*
X5415063Y5435101D01*
X5415065Y5435102D01*
X5467065Y5445444D01*
X5467066Y5445444D01*
X5467066Y5445445D01*
X5467069Y5445445D01*
X5526047Y5484853D01*
X5565455Y5543831D01*
X5575800Y5595839D01*
X5575799Y6291360D01*
X5575799Y6291361D01*
X5575799Y6291364D01*
X5575798Y6291366D01*
X5565456Y6343366D01*
X5565456Y6343367D01*
X5565434Y6343400D01*
X5526047Y6402347D01*
X5526046Y6402348D01*
X5521237Y6409545D01*
X5522426Y6410340D01*
X5500837Y6456639D01*
X5516400Y6514717D01*
X5525921Y6526066D01*
X5526045Y6526252D01*
X5526047Y6526253D01*
X5551559Y6564436D01*
X5600048Y6599988D01*
X5624645Y6603500D01*
X5982275Y6603500D01*
X6082725Y6603500D01*
X7743068Y6603500D01*
X7799569Y6582935D01*
X7805223Y6577755D01*
X7822223Y6560755D01*
X7822223Y6560754D01*
X7893249Y6489727D01*
X7893251Y6489725D01*
X7898240Y6486845D01*
X7916158Y6476500D01*
X7980247Y6439498D01*
X8077275Y6413499D01*
X8077276Y6413499D01*
X8183107Y6413499D01*
X8183123Y6413500D01*
X8863087Y6413500D01*
X8919588Y6392935D01*
X8934624Y6376677D01*
X8937861Y6372143D01*
X8937863Y6372141D01*
X8937864Y6372139D01*
X9027139Y6282864D01*
X9027140Y6282864D01*
X9027142Y6282862D01*
X9094207Y6250076D01*
X9140565Y6227413D01*
X9214096Y6216700D01*
X9214100Y6216700D01*
X9835899Y6216700D01*
X9835904Y6216700D01*
X9909435Y6227413D01*
X10022861Y6282864D01*
X10112136Y6372139D01*
X10112138Y6372143D01*
X10115376Y6376677D01*
X10164944Y6410710D01*
X10186913Y6413500D01*
X10450587Y6413500D01*
X10507088Y6392935D01*
X10522124Y6376677D01*
X10525361Y6372143D01*
X10525363Y6372141D01*
X10525364Y6372139D01*
X10614639Y6282864D01*
X10614640Y6282864D01*
X10614642Y6282862D01*
X10681706Y6250076D01*
X10723434Y6206786D01*
X10731000Y6171108D01*
X10731000Y4394776D01*
X10756998Y4297746D01*
X10770273Y4274753D01*
X10770274Y4274753D01*
X10785370Y4248605D01*
X10807225Y4210752D01*
X11022755Y3995222D01*
X11048166Y3940728D01*
X11048500Y3933067D01*
X11048500Y2381490D01*
X11027935Y2324989D01*
X10992354Y2299526D01*
X10929490Y2275173D01*
X10929480Y2275168D01*
X10753314Y2166091D01*
X10753305Y2166085D01*
X10600173Y2026485D01*
X10475302Y1861129D01*
X10475300Y1861126D01*
X10475300Y1861125D01*
X10387433Y1684665D01*
X10382936Y1675634D01*
X10382934Y1675629D01*
X10326229Y1476335D01*
X10326229Y1476334D01*
X10307110Y1270001D01*
X10307110Y1270000D01*
X10326229Y1063667D01*
X10326229Y1063666D01*
X10366619Y921714D01*
X10382936Y864365D01*
X10475300Y678875D01*
X10600174Y513514D01*
X10667652Y452000D01*
X10753305Y373916D01*
X10753314Y373910D01*
X10870759Y301192D01*
X10929485Y264830D01*
X11122707Y189976D01*
X11122711Y189976D01*
X11122715Y189974D01*
X11206547Y174303D01*
X11258307Y143707D01*
X11278290Y86998D01*
X11257147Y30711D01*
X11204769Y1183D01*
X11190395Y0D01*
X9246063Y0D01*
X9189562Y20565D01*
X9159498Y72636D01*
X9169939Y131850D01*
X9214310Y169864D01*
X9401652Y242442D01*
X9401666Y242448D01*
X9581755Y353954D01*
X9581764Y353960D01*
X9738304Y496667D01*
X9738308Y496671D01*
X9865960Y665709D01*
X9960383Y855336D01*
X10018351Y1059070D01*
X10018351Y1059071D01*
X10029659Y1181100D01*
X9392100Y1181100D01*
X9398000Y1203120D01*
X9398000Y1336880D01*
X9392100Y1358900D01*
X10029659Y1358900D01*
X10029659Y1358901D01*
X10018351Y1480930D01*
X10018351Y1480931D01*
X9960383Y1684665D01*
X9865960Y1874292D01*
X9738308Y2043330D01*
X9738304Y2043334D01*
X9581764Y2186041D01*
X9581755Y2186047D01*
X9401666Y2297553D01*
X9401652Y2297559D01*
X9204140Y2374076D01*
X9204126Y2374080D01*
X8995919Y2413000D01*
X8978901Y2413000D01*
X8978900Y2412999D01*
X8978900Y1772100D01*
X8956880Y1778000D01*
X8823120Y1778000D01*
X8801100Y1772100D01*
X8801100Y2412999D01*
X8801099Y2413000D01*
X8784080Y2413000D01*
X8575873Y2374080D01*
X8575859Y2374076D01*
X8378347Y2297559D01*
X8378333Y2297553D01*
X8198244Y2186047D01*
X8198235Y2186041D01*
X8041695Y2043334D01*
X8041691Y2043330D01*
X7914039Y1874292D01*
X7819616Y1684665D01*
X7761648Y1480931D01*
X7761648Y1480930D01*
X7750340Y1358901D01*
X7750341Y1358900D01*
X8387900Y1358900D01*
X8382000Y1336880D01*
X8382000Y1203120D01*
X8387900Y1181100D01*
X7750341Y1181100D01*
X7761648Y1059071D01*
X7761648Y1059070D01*
X7819616Y855336D01*
X7914039Y665709D01*
X8041691Y496671D01*
X8041695Y496667D01*
X8198235Y353960D01*
X8198244Y353954D01*
X8378333Y242448D01*
X8378347Y242442D01*
X8565690Y169864D01*
X8610947Y130278D01*
X8620170Y70862D01*
X8589044Y19419D01*
X8533937Y0D01*
X87900Y0D01*
X31399Y20565D01*
X1335Y72636D01*
X0Y87900D01*
X0Y952504D01*
X446853Y952504D01*
X446853Y952497D01*
X467333Y810050D01*
X467334Y810045D01*
X467335Y810043D01*
X527123Y679127D01*
X621372Y570357D01*
X621374Y570356D01*
X621375Y570355D01*
X736029Y496671D01*
X742447Y492547D01*
X880539Y452000D01*
X880540Y452000D01*
X1024460Y452000D01*
X1024461Y452000D01*
X1162553Y492547D01*
X1283628Y570357D01*
X1377877Y679127D01*
X1437665Y810043D01*
X1457330Y946823D01*
X1485725Y999820D01*
X1541545Y1022168D01*
X1588282Y1010437D01*
X1741951Y921716D01*
X1960007Y831394D01*
X2187986Y770307D01*
X2367541Y746669D01*
X2421987Y739500D01*
X2421989Y739500D01*
X2658013Y739500D01*
X2706784Y745922D01*
X2892014Y770307D01*
X3119993Y831394D01*
X3338049Y921716D01*
X3542450Y1039727D01*
X3729699Y1183408D01*
X3896592Y1350301D01*
X4040273Y1537550D01*
X4158284Y1741951D01*
X4248606Y1960007D01*
X4309693Y2187986D01*
X4336915Y2394766D01*
X4340500Y2421988D01*
X4340500Y2658013D01*
X4333331Y2712459D01*
X4309693Y2892014D01*
X4248606Y3119993D01*
X4158284Y3338049D01*
X4040273Y3542450D01*
X3896592Y3729699D01*
X3729699Y3896592D01*
X3672180Y3940728D01*
X3542452Y4040272D01*
X3474316Y4079610D01*
X3338049Y4158284D01*
X3338047Y4158285D01*
X3338045Y4158286D01*
X3338043Y4158287D01*
X3211378Y4210753D01*
X3119993Y4248606D01*
X3119986Y4248608D01*
X2892026Y4309690D01*
X2892014Y4309693D01*
X2658013Y4340500D01*
X2658011Y4340500D01*
X2421989Y4340500D01*
X2421987Y4340500D01*
X2187985Y4309693D01*
X2187973Y4309690D01*
X1960013Y4248608D01*
X1960009Y4248607D01*
X1960007Y4248606D01*
X1960005Y4248605D01*
X1741956Y4158287D01*
X1741954Y4158286D01*
X1537547Y4040272D01*
X1350304Y3896595D01*
X1183405Y3729696D01*
X1039728Y3542453D01*
X921714Y3338046D01*
X921713Y3338044D01*
X831395Y3119995D01*
X831392Y3119987D01*
X770310Y2892027D01*
X770307Y2892015D01*
X739500Y2658013D01*
X739500Y2421988D01*
X770307Y2187986D01*
X770310Y2187974D01*
X813581Y2026486D01*
X831394Y1960007D01*
X872351Y1861129D01*
X921713Y1741957D01*
X921714Y1741955D01*
X921716Y1741951D01*
X1012419Y1584849D01*
X1022860Y1525636D01*
X992796Y1473565D01*
X936295Y1453000D01*
X880539Y1453000D01*
X880538Y1453000D01*
X880532Y1452999D01*
X742449Y1412454D01*
X742445Y1412453D01*
X621375Y1334646D01*
X621370Y1334642D01*
X527122Y1225872D01*
X467335Y1094957D01*
X467333Y1094951D01*
X446853Y952504D01*
X0Y952504D01*
X0Y9033801D01*
X20565Y9090302D01*
X72636Y9120366D01*
X87888Y9121701D01*
X1768519Y9121701D01*
X1825020Y9101136D01*
G37*
%TD.AperFunction*%
%TA.AperFunction,Conductor*%
G36*
X6053846Y17129442D02*
G01*
X6076517Y17106272D01*
X6077010Y17105534D01*
X6101453Y17068953D01*
X6160431Y17029545D01*
X6212439Y17019200D01*
X7047560Y17019201D01*
X7047563Y17019201D01*
X7047565Y17019202D01*
X7099565Y17029544D01*
X7099566Y17029544D01*
X7099566Y17029545D01*
X7099569Y17029545D01*
X7158547Y17068953D01*
X7179115Y17099736D01*
X7227602Y17135288D01*
X7287601Y17131356D01*
X7331035Y17089778D01*
X7340100Y17050900D01*
X7340100Y16939287D01*
X7319535Y16882786D01*
X7314355Y16877132D01*
X6795543Y16358320D01*
X6795542Y16358321D01*
X6720380Y16283158D01*
X6720378Y16283156D01*
X6679700Y16184948D01*
X6679700Y12156249D01*
X6679700Y12049951D01*
X6720379Y11951743D01*
X7748479Y10923643D01*
X7748478Y10923643D01*
X7789682Y10882440D01*
X7823643Y10848479D01*
X7921851Y10807800D01*
X8885748Y10807800D01*
X8942249Y10787235D01*
X8972313Y10735164D01*
X8966158Y10684395D01*
X8924400Y10589825D01*
X8924399Y10589822D01*
X8921701Y10566568D01*
X8921700Y10566549D01*
X8921700Y10283452D01*
X8921701Y10283433D01*
X8924399Y10260179D01*
X8924400Y10260176D01*
X8938971Y10227176D01*
X8966426Y10164998D01*
X9039998Y10091426D01*
X9135179Y10049399D01*
X9158444Y10046700D01*
X9482400Y10046700D01*
X9538901Y10026135D01*
X9568965Y9974064D01*
X9570300Y9958800D01*
X9570300Y9794351D01*
X9571989Y9785859D01*
X9571142Y9785691D01*
X9575300Y9764796D01*
X9575300Y9672088D01*
X9554735Y9615587D01*
X9549555Y9609933D01*
X9373643Y9434021D01*
X9373642Y9434022D01*
X9298480Y9358859D01*
X9298478Y9358857D01*
X9257800Y9260649D01*
X9257800Y9105689D01*
X9237235Y9049188D01*
X9185164Y9019124D01*
X9182603Y9018712D01*
X9140565Y9012587D01*
X9140563Y9012587D01*
X9140561Y9012586D01*
X9140559Y9012585D01*
X9027142Y8957139D01*
X8937861Y8867858D01*
X8893163Y8776427D01*
X8849873Y8734699D01*
X8789888Y8730561D01*
X8752040Y8752878D01*
X8736165Y8768753D01*
X8710754Y8823247D01*
X8711315Y8843419D01*
X8718013Y8890000D01*
X8718013Y8890003D01*
X8699259Y9020440D01*
X8699258Y9020441D01*
X8699258Y9020446D01*
X8644511Y9140324D01*
X8644510Y9140325D01*
X8644510Y9140326D01*
X8601360Y9190123D01*
X8558209Y9239922D01*
X8558206Y9239924D01*
X8558205Y9239925D01*
X8447346Y9311170D01*
X8447343Y9311171D01*
X8422053Y9318597D01*
X8320898Y9348300D01*
X8320894Y9348300D01*
X8189106Y9348300D01*
X8189101Y9348300D01*
X8062657Y9311171D01*
X8062653Y9311170D01*
X7951794Y9239925D01*
X7951789Y9239920D01*
X7865489Y9140326D01*
X7810742Y9020446D01*
X7810740Y9020440D01*
X7791987Y8890004D01*
X7791987Y8889997D01*
X7810740Y8759561D01*
X7810741Y8759556D01*
X7810742Y8759554D01*
X7823983Y8730561D01*
X7865489Y8639675D01*
X7900348Y8599446D01*
X7951791Y8540078D01*
X7951793Y8540077D01*
X7951794Y8540076D01*
X8062653Y8468831D01*
X8062654Y8468831D01*
X8062657Y8468829D01*
X8148782Y8443541D01*
X8189101Y8431701D01*
X8189104Y8431701D01*
X8189106Y8431700D01*
X8189107Y8431700D01*
X8316972Y8431700D01*
X8373473Y8411135D01*
X8379127Y8405955D01*
X8484245Y8300837D01*
X8484244Y8300837D01*
X8520446Y8264636D01*
X8555837Y8229245D01*
X8555838Y8229245D01*
X8555839Y8229244D01*
X8581829Y8218479D01*
X8649377Y8190500D01*
X8800687Y8190500D01*
X8857188Y8169935D01*
X8879656Y8141205D01*
X8882412Y8135566D01*
X8882413Y8135565D01*
X8897160Y8105400D01*
X8937862Y8022142D01*
X8937863Y8022141D01*
X8937864Y8022139D01*
X9027139Y7932864D01*
X9027140Y7932864D01*
X9027142Y7932862D01*
X9065355Y7914181D01*
X9140565Y7877413D01*
X9214096Y7866700D01*
X9214100Y7866700D01*
X9835899Y7866700D01*
X9835904Y7866700D01*
X9909435Y7877413D01*
X10022861Y7932864D01*
X10112136Y8022139D01*
X10167587Y8135565D01*
X10178300Y8209096D01*
X10178300Y8680904D01*
X10167587Y8754435D01*
X10156836Y8776427D01*
X10112138Y8867858D01*
X10112136Y8867860D01*
X10112136Y8867861D01*
X10022861Y8957136D01*
X10022859Y8957137D01*
X10022857Y8957139D01*
X9909440Y9012585D01*
X9909438Y9012586D01*
X9909436Y9012587D01*
X9909435Y9012587D01*
X9906943Y9012951D01*
X9905170Y9013905D01*
X9902918Y9014600D01*
X9903054Y9015043D01*
X9853999Y9041445D01*
X9831757Y9097308D01*
X9850626Y9154397D01*
X9857454Y9162077D01*
X10069021Y9373643D01*
X10109700Y9471851D01*
X10109700Y9578149D01*
X10109700Y9895649D01*
X10108011Y9904142D01*
X10108855Y9904311D01*
X10104700Y9925206D01*
X10104700Y9958800D01*
X10125265Y10015301D01*
X10177336Y10045365D01*
X10192600Y10046700D01*
X10516549Y10046700D01*
X10516556Y10046700D01*
X10539821Y10049399D01*
X10635002Y10091426D01*
X10707946Y10164371D01*
X10762439Y10189781D01*
X10820517Y10174218D01*
X10855005Y10124965D01*
X10858000Y10102215D01*
X10858000Y9107539D01*
X10837435Y9051038D01*
X10785364Y9020974D01*
X10782812Y9020564D01*
X10728065Y9012587D01*
X10728063Y9012587D01*
X10728061Y9012586D01*
X10728059Y9012585D01*
X10614642Y8957139D01*
X10525361Y8867858D01*
X10469915Y8754441D01*
X10469914Y8754439D01*
X10469913Y8754437D01*
X10469913Y8754435D01*
X10459200Y8680904D01*
X10459200Y8209096D01*
X10469913Y8135565D01*
X10469913Y8135564D01*
X10469914Y8135562D01*
X10469915Y8135560D01*
X10525361Y8022143D01*
X10525363Y8022141D01*
X10525364Y8022139D01*
X10614639Y7932864D01*
X10614640Y7932864D01*
X10614642Y7932862D01*
X10652855Y7914181D01*
X10728065Y7877413D01*
X10801596Y7866700D01*
X10801600Y7866700D01*
X11423399Y7866700D01*
X11423404Y7866700D01*
X11496935Y7877413D01*
X11610361Y7932864D01*
X11699636Y8022139D01*
X11755087Y8135565D01*
X11765800Y8209096D01*
X11765800Y8680904D01*
X11755087Y8754435D01*
X11744336Y8776427D01*
X11699638Y8867858D01*
X11699636Y8867860D01*
X11699636Y8867861D01*
X11610361Y8957136D01*
X11610359Y8957137D01*
X11610357Y8957139D01*
X11496940Y9012585D01*
X11496938Y9012586D01*
X11496936Y9012587D01*
X11496935Y9012587D01*
X11442225Y9020558D01*
X11389281Y9049053D01*
X11367039Y9104915D01*
X11367000Y9107539D01*
X11367000Y10335074D01*
X11387565Y10391575D01*
X11392734Y10397218D01*
X12258371Y11262856D01*
X12312865Y11288266D01*
X12320526Y11288600D01*
X12344900Y11288600D01*
X12401401Y11268035D01*
X12431465Y11215964D01*
X12432800Y11200700D01*
X12432800Y9105689D01*
X12412235Y9049188D01*
X12360164Y9019124D01*
X12357603Y9018712D01*
X12315565Y9012587D01*
X12315563Y9012587D01*
X12315561Y9012586D01*
X12315559Y9012585D01*
X12202142Y8957139D01*
X12112861Y8867858D01*
X12057415Y8754441D01*
X12057414Y8754439D01*
X12057413Y8754437D01*
X12057413Y8754435D01*
X12046700Y8680904D01*
X12046700Y8209096D01*
X12057413Y8135565D01*
X12057413Y8135564D01*
X12057414Y8135562D01*
X12057415Y8135560D01*
X12112861Y8022143D01*
X12112863Y8022141D01*
X12112864Y8022139D01*
X12202139Y7932864D01*
X12202140Y7932864D01*
X12202142Y7932862D01*
X12240355Y7914181D01*
X12315565Y7877413D01*
X12389096Y7866700D01*
X12389100Y7866700D01*
X13010899Y7866700D01*
X13010904Y7866700D01*
X13084435Y7877413D01*
X13197861Y7932864D01*
X13287136Y8022139D01*
X13342587Y8135565D01*
X13353300Y8209096D01*
X13353300Y8680904D01*
X13342587Y8754435D01*
X13331836Y8776427D01*
X13287138Y8867858D01*
X13287136Y8867860D01*
X13287136Y8867861D01*
X13197861Y8957136D01*
X13197859Y8957137D01*
X13197857Y8957139D01*
X13084440Y9012585D01*
X13084438Y9012586D01*
X13084436Y9012587D01*
X13084435Y9012587D01*
X13042424Y9018708D01*
X12989481Y9047204D01*
X12967239Y9103066D01*
X12967200Y9105689D01*
X12967200Y11124163D01*
X12987765Y11180664D01*
X12992934Y11186307D01*
X13143315Y11336689D01*
X13197809Y11362099D01*
X13255887Y11346536D01*
X13290375Y11297283D01*
X13292946Y11283160D01*
X13293003Y11282580D01*
X13321843Y11137588D01*
X13321845Y11137584D01*
X13378417Y11001004D01*
X13378419Y11001001D01*
X13460548Y10878086D01*
X13460549Y10878085D01*
X13460552Y10878081D01*
X13529484Y10809149D01*
X13554895Y10754656D01*
X13539332Y10696578D01*
X13514853Y10673050D01*
X13508043Y10668674D01*
X13508039Y10668671D01*
X13421738Y10569073D01*
X13366992Y10449196D01*
X13366990Y10449190D01*
X13348237Y10318754D01*
X13348237Y10318747D01*
X13366990Y10188311D01*
X13366991Y10188306D01*
X13366992Y10188304D01*
X13382856Y10153567D01*
X13421739Y10068425D01*
X13464393Y10019200D01*
X13508041Y9968828D01*
X13508043Y9968827D01*
X13508044Y9968826D01*
X13618903Y9897581D01*
X13618904Y9897581D01*
X13618907Y9897579D01*
X13702165Y9873132D01*
X13745351Y9860451D01*
X13745354Y9860451D01*
X13745356Y9860450D01*
X13745357Y9860450D01*
X13877143Y9860450D01*
X13877144Y9860450D01*
X13877146Y9860451D01*
X13877148Y9860451D01*
X13920335Y9873132D01*
X13980341Y9869319D01*
X14023857Y9827827D01*
X14033000Y9788793D01*
X14033000Y9107539D01*
X14012435Y9051038D01*
X13960364Y9020974D01*
X13957812Y9020564D01*
X13903065Y9012587D01*
X13903063Y9012587D01*
X13903061Y9012586D01*
X13903059Y9012585D01*
X13789642Y8957139D01*
X13700361Y8867858D01*
X13644915Y8754441D01*
X13644914Y8754439D01*
X13644913Y8754437D01*
X13644913Y8754435D01*
X13634200Y8680904D01*
X13634200Y8209096D01*
X13644913Y8135565D01*
X13644913Y8135564D01*
X13644914Y8135562D01*
X13644915Y8135560D01*
X13700361Y8022143D01*
X13700363Y8022141D01*
X13700364Y8022139D01*
X13789639Y7932864D01*
X13789640Y7932864D01*
X13789642Y7932862D01*
X13827855Y7914181D01*
X13903065Y7877413D01*
X13976596Y7866700D01*
X13976600Y7866700D01*
X14598399Y7866700D01*
X14598404Y7866700D01*
X14671935Y7877413D01*
X14785361Y7932864D01*
X14874636Y8022139D01*
X14930087Y8135565D01*
X14940800Y8209096D01*
X14940800Y8680904D01*
X14930087Y8754435D01*
X14919336Y8776427D01*
X14874638Y8867858D01*
X14874636Y8867860D01*
X14874636Y8867861D01*
X14785361Y8957136D01*
X14785359Y8957137D01*
X14785357Y8957139D01*
X14671940Y9012585D01*
X14671938Y9012586D01*
X14671936Y9012587D01*
X14671935Y9012587D01*
X14617225Y9020558D01*
X14564281Y9049053D01*
X14542039Y9104915D01*
X14542000Y9107539D01*
X14542000Y10067002D01*
X14562565Y10123503D01*
X14614636Y10153567D01*
X14673850Y10143126D01*
X14692055Y10129157D01*
X14750684Y10070528D01*
X14854376Y10024743D01*
X14854380Y10024742D01*
X14879718Y10021802D01*
X14879737Y10021800D01*
X15473599Y10021800D01*
X15473600Y10021801D01*
X15473600Y10336099D01*
X15651400Y10336099D01*
X15651400Y10021801D01*
X15651401Y10021800D01*
X16245263Y10021800D01*
X16245281Y10021802D01*
X16270619Y10024742D01*
X16270623Y10024743D01*
X16374315Y10070528D01*
X16454472Y10150685D01*
X16500257Y10254377D01*
X16500258Y10254381D01*
X16503198Y10279719D01*
X16503200Y10279738D01*
X16503200Y10336099D01*
X16503199Y10336100D01*
X15651401Y10336100D01*
X15651400Y10336099D01*
X15473600Y10336099D01*
X15473600Y10426000D01*
X15494165Y10482501D01*
X15546236Y10512565D01*
X15561500Y10513900D01*
X16503199Y10513900D01*
X16503200Y10513901D01*
X16503200Y10570263D01*
X16503198Y10570282D01*
X16500258Y10595620D01*
X16500257Y10595624D01*
X16454472Y10699316D01*
X16446653Y10707135D01*
X16421242Y10761629D01*
X16432985Y10806355D01*
X16430284Y10807547D01*
X16449278Y10850564D01*
X16475601Y10910179D01*
X16478300Y10933444D01*
X16478300Y11216556D01*
X16475601Y11239821D01*
X16433841Y11334396D01*
X16429832Y11394388D01*
X16465323Y11442923D01*
X16514252Y11457800D01*
X16789900Y11457800D01*
X16846401Y11437235D01*
X16876465Y11385164D01*
X16877800Y11369900D01*
X16877800Y8800100D01*
X16857235Y8743599D01*
X16805164Y8713535D01*
X16789900Y8712200D01*
X16593104Y8712200D01*
X16536603Y8732765D01*
X16514136Y8761494D01*
X16462136Y8867861D01*
X16372861Y8957136D01*
X16372859Y8957137D01*
X16372857Y8957139D01*
X16259440Y9012585D01*
X16259438Y9012586D01*
X16259436Y9012587D01*
X16259435Y9012587D01*
X16185904Y9023300D01*
X15564096Y9023300D01*
X15490565Y9012587D01*
X15490563Y9012587D01*
X15490561Y9012586D01*
X15490559Y9012585D01*
X15377142Y8957139D01*
X15287861Y8867858D01*
X15232415Y8754441D01*
X15232414Y8754439D01*
X15232413Y8754437D01*
X15232413Y8754435D01*
X15221700Y8680904D01*
X15221700Y8209096D01*
X15232413Y8135565D01*
X15232413Y8135564D01*
X15232414Y8135562D01*
X15232415Y8135560D01*
X15287861Y8022143D01*
X15287863Y8022141D01*
X15287864Y8022139D01*
X15377139Y7932864D01*
X15377140Y7932864D01*
X15377142Y7932862D01*
X15415355Y7914181D01*
X15490565Y7877413D01*
X15564096Y7866700D01*
X15564100Y7866700D01*
X16185899Y7866700D01*
X16185904Y7866700D01*
X16259435Y7877413D01*
X16372861Y7932864D01*
X16462136Y8022139D01*
X16514136Y8128507D01*
X16557425Y8170233D01*
X16593104Y8177800D01*
X17070648Y8177800D01*
X17070649Y8177800D01*
X17168857Y8218479D01*
X17268977Y8318599D01*
X19959301Y8318599D01*
X19959301Y8155540D01*
X19974948Y8056738D01*
X20035629Y7937644D01*
X20130143Y7843130D01*
X20249237Y7782449D01*
X20348040Y7766801D01*
X20548600Y7766801D01*
X20548600Y8318599D01*
X20726400Y8318599D01*
X20726400Y7766802D01*
X20726401Y7766801D01*
X20926959Y7766801D01*
X20926960Y7766802D01*
X21025762Y7782449D01*
X21144856Y7843130D01*
X21239370Y7937644D01*
X21300051Y8056738D01*
X21315699Y8155541D01*
X21315700Y8155541D01*
X21315700Y8318599D01*
X21315699Y8318600D01*
X20726401Y8318600D01*
X20726400Y8318599D01*
X20548600Y8318599D01*
X20548599Y8318600D01*
X19959302Y8318600D01*
X19959301Y8318599D01*
X17268977Y8318599D01*
X17371521Y8421143D01*
X17412200Y8519351D01*
X17412200Y8625649D01*
X17412200Y8659460D01*
X19959300Y8659460D01*
X19959300Y8496401D01*
X19959301Y8496400D01*
X20548599Y8496400D01*
X20548600Y8496401D01*
X20548600Y9048199D01*
X20726400Y9048199D01*
X20726400Y8496401D01*
X20726401Y8496400D01*
X21315698Y8496400D01*
X21315699Y8496401D01*
X21315699Y8659459D01*
X21315698Y8659461D01*
X21300051Y8758263D01*
X21239370Y8877357D01*
X21144856Y8971871D01*
X21025762Y9032552D01*
X20926960Y9048200D01*
X20726401Y9048200D01*
X20726400Y9048199D01*
X20548600Y9048199D01*
X20548600Y9048200D01*
X20348041Y9048200D01*
X20348039Y9048199D01*
X20249237Y9032552D01*
X20130143Y8971871D01*
X20035629Y8877357D01*
X19974948Y8758263D01*
X19959300Y8659460D01*
X17412200Y8659460D01*
X17412200Y11445326D01*
X17432765Y11501827D01*
X17451269Y11518414D01*
X17455104Y11520977D01*
X17455105Y11520979D01*
X17455107Y11520979D01*
X17946386Y12012258D01*
X17987065Y12110466D01*
X17987065Y12216764D01*
X17987065Y12762263D01*
X18007630Y12818764D01*
X18018868Y12828656D01*
X18018323Y12829285D01*
X18023069Y12833399D01*
X18023074Y12833401D01*
X18109376Y12932999D01*
X18164123Y13052877D01*
X18177878Y13148546D01*
X18182878Y13183320D01*
X18182878Y13183327D01*
X18164124Y13313763D01*
X18164123Y13313764D01*
X18164123Y13313769D01*
X18109376Y13433647D01*
X18109375Y13433648D01*
X18109375Y13433649D01*
X18043063Y13510176D01*
X18023074Y13533245D01*
X18023071Y13533247D01*
X18023070Y13533248D01*
X17912211Y13604493D01*
X17912207Y13604495D01*
X17841648Y13625213D01*
X17793230Y13660863D01*
X17779055Y13719296D01*
X17804257Y13771706D01*
X18349421Y14316869D01*
X18390100Y14415077D01*
X18390100Y14521375D01*
X18390100Y14800812D01*
X18410665Y14857313D01*
X18415845Y14862966D01*
X18457470Y14904592D01*
X18511963Y14930003D01*
X18570042Y14914442D01*
X18604530Y14865189D01*
X18606630Y14829929D01*
X18586987Y14693304D01*
X18586987Y14693297D01*
X18605740Y14562861D01*
X18605741Y14562856D01*
X18605742Y14562854D01*
X18660489Y14442976D01*
X18699307Y14398178D01*
X18746790Y14343379D01*
X18751542Y14339262D01*
X18749486Y14336890D01*
X18778824Y14298378D01*
X18782800Y14272240D01*
X18782800Y10898561D01*
X18762235Y10842060D01*
X18751000Y10832167D01*
X18751543Y10831540D01*
X18746792Y10827424D01*
X18660488Y10727823D01*
X18605742Y10607946D01*
X18605740Y10607940D01*
X18586987Y10477504D01*
X18586987Y10477497D01*
X18605740Y10347061D01*
X18605741Y10347056D01*
X18605742Y10347054D01*
X18618668Y10318750D01*
X18660489Y10227175D01*
X18706377Y10174218D01*
X18746791Y10127578D01*
X18746793Y10127577D01*
X18746794Y10127576D01*
X18857653Y10056331D01*
X18857654Y10056331D01*
X18857657Y10056329D01*
X18943782Y10031041D01*
X18984101Y10019201D01*
X18984104Y10019201D01*
X18984106Y10019200D01*
X18984107Y10019200D01*
X19115893Y10019200D01*
X19115894Y10019200D01*
X19121949Y10020978D01*
X19181954Y10017168D01*
X19225473Y9975678D01*
X19233722Y9924132D01*
X19221987Y9842505D01*
X19221987Y9842497D01*
X19240740Y9712061D01*
X19240742Y9712055D01*
X19295489Y9592175D01*
X19321341Y9562341D01*
X19381791Y9492578D01*
X19381793Y9492577D01*
X19381794Y9492576D01*
X19492653Y9421331D01*
X19492654Y9421331D01*
X19492657Y9421329D01*
X19578782Y9396041D01*
X19619101Y9384201D01*
X19619104Y9384201D01*
X19619106Y9384200D01*
X19619107Y9384200D01*
X19750893Y9384200D01*
X19750894Y9384200D01*
X19750896Y9384201D01*
X19750898Y9384201D01*
X19765927Y9388615D01*
X19877343Y9421329D01*
X19988209Y9492578D01*
X20048659Y9562343D01*
X20081450Y9585988D01*
X20153857Y9615979D01*
X20864021Y10326143D01*
X20904700Y10424351D01*
X20904700Y10530649D01*
X20904700Y10633801D01*
X20925265Y10690302D01*
X20977336Y10720366D01*
X20992600Y10721701D01*
X21330064Y10721701D01*
X21330065Y10721702D01*
X21382065Y10732044D01*
X21382066Y10732044D01*
X21382066Y10732045D01*
X21382069Y10732045D01*
X21441047Y10771453D01*
X21480455Y10830431D01*
X21486744Y10862048D01*
X21517936Y10913452D01*
X21572955Y10932800D01*
X23000648Y10932800D01*
X23000649Y10932800D01*
X23098857Y10973479D01*
X23721521Y11596143D01*
X23762200Y11694351D01*
X23762200Y11800649D01*
X23762200Y13388149D01*
X23721521Y13486357D01*
X23684235Y13523643D01*
X23646357Y13561522D01*
X23646357Y13561521D01*
X22835445Y14372433D01*
X22810034Y14426927D01*
X22809700Y14434588D01*
X22809700Y14501440D01*
X22830265Y14557941D01*
X22841503Y14567833D01*
X22840958Y14568462D01*
X22845704Y14572576D01*
X22845709Y14572578D01*
X22932011Y14672176D01*
X22986758Y14792054D01*
X22986759Y14792063D01*
X22988530Y14798089D01*
X22990183Y14797604D01*
X23014984Y14843899D01*
X23070803Y14866251D01*
X23127929Y14847493D01*
X23146683Y14827231D01*
X23183953Y14771453D01*
X23242931Y14732045D01*
X23294939Y14721700D01*
X25312100Y14721701D01*
X25368601Y14701136D01*
X25398665Y14649065D01*
X25400000Y14633801D01*
X25400000Y10766200D01*
X25379435Y10709699D01*
X25327364Y10679635D01*
X25312100Y10678300D01*
X23294936Y10678300D01*
X23294934Y10678299D01*
X23242934Y10667957D01*
X23242933Y10667957D01*
X23183954Y10628548D01*
X23183952Y10628546D01*
X23178952Y10621063D01*
X23144545Y10569569D01*
X23136804Y10530649D01*
X23134200Y10517560D01*
X23134200Y9282437D01*
X23134201Y9282435D01*
X23144543Y9230435D01*
X23144543Y9230434D01*
X23144544Y9230432D01*
X23144545Y9230431D01*
X23183953Y9171453D01*
X23242931Y9132045D01*
X23294939Y9121700D01*
X25312100Y9121701D01*
X25368601Y9101136D01*
X25398665Y9049065D01*
X25400000Y9033801D01*
X25400000Y87900D01*
X25379435Y31399D01*
X25327364Y1335D01*
X25312100Y0D01*
X16749605Y0D01*
X16693104Y20565D01*
X16663040Y72636D01*
X16673481Y131850D01*
X16719541Y170499D01*
X16733453Y174303D01*
X16817284Y189974D01*
X16817286Y189975D01*
X16817293Y189976D01*
X17010515Y264830D01*
X17182706Y371446D01*
X18409898Y371446D01*
X18409899Y371446D01*
X21006548Y371446D01*
X21006549Y371446D01*
X21006549Y1635235D01*
X18409898Y1635235D01*
X18409898Y371446D01*
X17182706Y371446D01*
X17186692Y373914D01*
X17339826Y513514D01*
X17464700Y678875D01*
X17557064Y864365D01*
X17612462Y1059070D01*
X17613770Y1063666D01*
X17613770Y1063667D01*
X17613769Y1063667D01*
X17613771Y1063670D01*
X17632890Y1270000D01*
X17613771Y1476330D01*
X17612462Y1480930D01*
X17568559Y1635234D01*
X17557064Y1675635D01*
X17464700Y1861125D01*
X17339826Y2026486D01*
X17255837Y2103052D01*
X17186694Y2166085D01*
X17186685Y2166091D01*
X17010517Y2275169D01*
X17010511Y2275172D01*
X16817296Y2350023D01*
X16817284Y2350027D01*
X16613609Y2388100D01*
X16613607Y2388100D01*
X16406393Y2388100D01*
X16406390Y2388100D01*
X16202715Y2350027D01*
X16202703Y2350023D01*
X16009488Y2275172D01*
X16009482Y2275169D01*
X15833314Y2166091D01*
X15833305Y2166085D01*
X15680173Y2026485D01*
X15555302Y1861129D01*
X15555300Y1861126D01*
X15555300Y1861125D01*
X15467433Y1684665D01*
X15462936Y1675634D01*
X15462934Y1675629D01*
X15406229Y1476335D01*
X15406229Y1476334D01*
X15387110Y1270001D01*
X15387110Y1270000D01*
X15406229Y1063667D01*
X15406229Y1063666D01*
X15446619Y921714D01*
X15462936Y864365D01*
X15555300Y678875D01*
X15680174Y513514D01*
X15747652Y452000D01*
X15833305Y373916D01*
X15833314Y373910D01*
X15950759Y301192D01*
X16009485Y264830D01*
X16202707Y189976D01*
X16202711Y189976D01*
X16202715Y189974D01*
X16286547Y174303D01*
X16338307Y143707D01*
X16358290Y86998D01*
X16337147Y30711D01*
X16284769Y1183D01*
X16270395Y0D01*
X14209605Y0D01*
X14153104Y20565D01*
X14123040Y72636D01*
X14133481Y131850D01*
X14179541Y170499D01*
X14193453Y174303D01*
X14277284Y189974D01*
X14277286Y189975D01*
X14277293Y189976D01*
X14470515Y264830D01*
X14646692Y373914D01*
X14799826Y513514D01*
X14924700Y678875D01*
X15017064Y864365D01*
X15072462Y1059070D01*
X15073770Y1063666D01*
X15073770Y1063667D01*
X15073769Y1063667D01*
X15073771Y1063670D01*
X15092890Y1270000D01*
X15073771Y1476330D01*
X15072462Y1480930D01*
X15028559Y1635234D01*
X15017064Y1675635D01*
X14924700Y1861125D01*
X14799826Y2026486D01*
X14715837Y2103052D01*
X14646694Y2166085D01*
X14646685Y2166091D01*
X14470517Y2275169D01*
X14470511Y2275172D01*
X14277296Y2350023D01*
X14277284Y2350027D01*
X14073609Y2388100D01*
X14073607Y2388100D01*
X13866393Y2388100D01*
X13866390Y2388100D01*
X13662715Y2350027D01*
X13662703Y2350023D01*
X13469488Y2275172D01*
X13469482Y2275169D01*
X13293314Y2166091D01*
X13293305Y2166085D01*
X13140173Y2026485D01*
X13015302Y1861129D01*
X13015300Y1861126D01*
X13015300Y1861125D01*
X12927433Y1684665D01*
X12922936Y1675634D01*
X12922934Y1675629D01*
X12866229Y1476335D01*
X12866229Y1476334D01*
X12847110Y1270001D01*
X12847110Y1270000D01*
X12866229Y1063667D01*
X12866229Y1063666D01*
X12906619Y921714D01*
X12922936Y864365D01*
X13015300Y678875D01*
X13140174Y513514D01*
X13207652Y452000D01*
X13293305Y373916D01*
X13293314Y373910D01*
X13410759Y301192D01*
X13469485Y264830D01*
X13662707Y189976D01*
X13662711Y189976D01*
X13662715Y189974D01*
X13746547Y174303D01*
X13798307Y143707D01*
X13818290Y86998D01*
X13797147Y30711D01*
X13744769Y1183D01*
X13730395Y0D01*
X11669605Y0D01*
X11613104Y20565D01*
X11583040Y72636D01*
X11593481Y131850D01*
X11639541Y170499D01*
X11653453Y174303D01*
X11737284Y189974D01*
X11737286Y189975D01*
X11737293Y189976D01*
X11930515Y264830D01*
X12106692Y373914D01*
X12259826Y513514D01*
X12384700Y678875D01*
X12477064Y864365D01*
X12532462Y1059070D01*
X12533770Y1063666D01*
X12533770Y1063667D01*
X12533769Y1063667D01*
X12533771Y1063670D01*
X12552890Y1270000D01*
X12533771Y1476330D01*
X12532462Y1480930D01*
X12488559Y1635234D01*
X12477064Y1675635D01*
X12384700Y1861125D01*
X12259826Y2026486D01*
X12175837Y2103052D01*
X12106694Y2166085D01*
X12106685Y2166091D01*
X11930519Y2275168D01*
X11930509Y2275173D01*
X11867646Y2299526D01*
X11822390Y2339113D01*
X11811500Y2381490D01*
X11811500Y2658013D01*
X21059500Y2658013D01*
X21059500Y2421988D01*
X21090307Y2187986D01*
X21090310Y2187974D01*
X21133581Y2026486D01*
X21151394Y1960007D01*
X21192351Y1861129D01*
X21241713Y1741957D01*
X21241714Y1741955D01*
X21359728Y1537548D01*
X21408824Y1473565D01*
X21503408Y1350301D01*
X21670301Y1183408D01*
X21670304Y1183406D01*
X21832341Y1059070D01*
X21857550Y1039727D01*
X22061951Y921716D01*
X22280007Y831394D01*
X22507986Y770307D01*
X22687541Y746669D01*
X22741987Y739500D01*
X22741989Y739500D01*
X22978013Y739500D01*
X23026784Y745922D01*
X23212014Y770307D01*
X23439993Y831394D01*
X23658049Y921716D01*
X23862450Y1039727D01*
X24049699Y1183408D01*
X24216592Y1350301D01*
X24360273Y1537550D01*
X24478284Y1741951D01*
X24568606Y1960007D01*
X24629693Y2187986D01*
X24656915Y2394766D01*
X24660500Y2421988D01*
X24660500Y2658013D01*
X24653331Y2712459D01*
X24629693Y2892014D01*
X24568606Y3119993D01*
X24478284Y3338049D01*
X24360273Y3542450D01*
X24216592Y3729699D01*
X24049699Y3896592D01*
X23992180Y3940728D01*
X23862452Y4040272D01*
X23794316Y4079610D01*
X23658049Y4158284D01*
X23658047Y4158285D01*
X23658045Y4158286D01*
X23658043Y4158287D01*
X23531378Y4210753D01*
X23439993Y4248606D01*
X23439986Y4248608D01*
X23212026Y4309690D01*
X23212014Y4309693D01*
X22978013Y4340500D01*
X22978011Y4340500D01*
X22741989Y4340500D01*
X22741987Y4340500D01*
X22507985Y4309693D01*
X22507973Y4309690D01*
X22280013Y4248608D01*
X22280009Y4248607D01*
X22280007Y4248606D01*
X22280005Y4248605D01*
X22061956Y4158287D01*
X22061954Y4158286D01*
X21857547Y4040272D01*
X21670304Y3896595D01*
X21503405Y3729696D01*
X21359728Y3542453D01*
X21241714Y3338046D01*
X21241713Y3338044D01*
X21151395Y3119995D01*
X21151392Y3119987D01*
X21090310Y2892027D01*
X21090307Y2892015D01*
X21059500Y2658013D01*
X11811500Y2658013D01*
X11811500Y4070183D01*
X11811501Y4070196D01*
X11811501Y4177725D01*
X11785502Y4274753D01*
X11765329Y4309693D01*
X11735276Y4361747D01*
X11519745Y4577278D01*
X11494334Y4631772D01*
X11494000Y4639433D01*
X11494000Y6171108D01*
X11514565Y6227609D01*
X11543294Y6250076D01*
X11610357Y6282862D01*
X11610357Y6282863D01*
X11610361Y6282864D01*
X11699636Y6372139D01*
X11714404Y6402347D01*
X11733011Y6440406D01*
X11776301Y6482134D01*
X11811979Y6489700D01*
X12000521Y6489700D01*
X12057022Y6469135D01*
X12079489Y6440406D01*
X12112861Y6372143D01*
X12112863Y6372141D01*
X12112864Y6372139D01*
X12202139Y6282864D01*
X12202140Y6282864D01*
X12202142Y6282862D01*
X12269207Y6250076D01*
X12315565Y6227413D01*
X12389096Y6216700D01*
X12389100Y6216700D01*
X13010899Y6216700D01*
X13010904Y6216700D01*
X13084435Y6227413D01*
X13197861Y6282864D01*
X13287136Y6372139D01*
X13301904Y6402347D01*
X13320511Y6440406D01*
X13363801Y6482134D01*
X13399479Y6489700D01*
X13588021Y6489700D01*
X13644522Y6469135D01*
X13666989Y6440406D01*
X13700361Y6372143D01*
X13700363Y6372141D01*
X13700364Y6372139D01*
X13789639Y6282864D01*
X13789640Y6282864D01*
X13789642Y6282862D01*
X13856707Y6250076D01*
X13903065Y6227413D01*
X13976596Y6216700D01*
X13976600Y6216700D01*
X14598399Y6216700D01*
X14598404Y6216700D01*
X14671935Y6227413D01*
X14785361Y6282864D01*
X14874636Y6372139D01*
X14889404Y6402347D01*
X14908011Y6440406D01*
X14951301Y6482134D01*
X14986979Y6489700D01*
X15175521Y6489700D01*
X15232022Y6469135D01*
X15254489Y6440406D01*
X15287861Y6372143D01*
X15287863Y6372141D01*
X15287864Y6372139D01*
X15377139Y6282864D01*
X15377140Y6282864D01*
X15377142Y6282862D01*
X15444207Y6250076D01*
X15490565Y6227413D01*
X15564096Y6216700D01*
X15564100Y6216700D01*
X16185899Y6216700D01*
X16185904Y6216700D01*
X16259435Y6227413D01*
X16372861Y6282864D01*
X16462136Y6372139D01*
X16476904Y6402347D01*
X16495511Y6440406D01*
X16538801Y6482134D01*
X16574479Y6489700D01*
X17489631Y6489700D01*
X17546132Y6469135D01*
X17551785Y6463956D01*
X18227541Y5788199D01*
X18297159Y5748006D01*
X18374807Y5727200D01*
X18374808Y5727200D01*
X23852692Y5727200D01*
X23852693Y5727200D01*
X23930341Y5748006D01*
X23999959Y5788200D01*
X24374301Y6162541D01*
X24414494Y6232159D01*
X24418807Y6248255D01*
X24435300Y6309807D01*
X24435300Y6502901D01*
X24455865Y6559402D01*
X24507936Y6589466D01*
X24523200Y6590801D01*
X24782564Y6590801D01*
X24782565Y6590802D01*
X24834565Y6601144D01*
X24834566Y6601144D01*
X24834566Y6601145D01*
X24834569Y6601145D01*
X24893547Y6640553D01*
X24932955Y6699531D01*
X24943300Y6751539D01*
X24943299Y7447060D01*
X24943299Y7447061D01*
X24943299Y7447064D01*
X24943298Y7447066D01*
X24932956Y7499066D01*
X24932956Y7499067D01*
X24920372Y7517900D01*
X24893547Y7558047D01*
X24893546Y7558048D01*
X24888737Y7565245D01*
X24889926Y7566040D01*
X24868337Y7612339D01*
X24883900Y7670417D01*
X24893421Y7681767D01*
X24893543Y7681951D01*
X24893547Y7681953D01*
X24932955Y7740931D01*
X24943300Y7792939D01*
X24943299Y8488460D01*
X24943299Y8488464D01*
X24943298Y8488466D01*
X24932956Y8540466D01*
X24932956Y8540467D01*
X24932955Y8540469D01*
X24893547Y8599447D01*
X24834569Y8638855D01*
X24782561Y8649200D01*
X24782559Y8649200D01*
X23477436Y8649200D01*
X23477434Y8649199D01*
X23425434Y8638857D01*
X23425433Y8638857D01*
X23366454Y8599448D01*
X23366451Y8599445D01*
X23363661Y8595269D01*
X23315169Y8559719D01*
X23255171Y8563656D01*
X23228426Y8581952D01*
X23138857Y8671521D01*
X23040649Y8712200D01*
X23040648Y8712200D01*
X22943104Y8712200D01*
X22886603Y8732765D01*
X22864136Y8761494D01*
X22812136Y8867861D01*
X22722861Y8957136D01*
X22722859Y8957137D01*
X22722857Y8957139D01*
X22609440Y9012585D01*
X22609438Y9012586D01*
X22609436Y9012587D01*
X22609435Y9012587D01*
X22535904Y9023300D01*
X21914096Y9023300D01*
X21840565Y9012587D01*
X21840563Y9012587D01*
X21840561Y9012586D01*
X21840559Y9012585D01*
X21727142Y8957139D01*
X21637861Y8867858D01*
X21582415Y8754441D01*
X21582414Y8754439D01*
X21582413Y8754437D01*
X21582413Y8754435D01*
X21571700Y8680904D01*
X21571700Y8209096D01*
X21582413Y8135565D01*
X21582413Y8135564D01*
X21582414Y8135562D01*
X21582415Y8135560D01*
X21637861Y8022143D01*
X21637863Y8022141D01*
X21637864Y8022139D01*
X21727139Y7932864D01*
X21727140Y7932864D01*
X21727142Y7932862D01*
X21765355Y7914181D01*
X21840565Y7877413D01*
X21914096Y7866700D01*
X21914100Y7866700D01*
X22535899Y7866700D01*
X22535904Y7866700D01*
X22609435Y7877413D01*
X22722861Y7932864D01*
X22812136Y8022139D01*
X22830416Y8059533D01*
X22873706Y8101260D01*
X22933690Y8105400D01*
X22971540Y8083082D01*
X23065279Y7989343D01*
X23065278Y7989343D01*
X23140441Y7914181D01*
X23140443Y7914179D01*
X23238651Y7873500D01*
X23246228Y7871993D01*
X23297631Y7840801D01*
X23315457Y7797095D01*
X23315858Y7797174D01*
X23316269Y7795104D01*
X23316556Y7794402D01*
X23316700Y7792941D01*
X23327043Y7740935D01*
X23327043Y7740934D01*
X23327044Y7740932D01*
X23327045Y7740931D01*
X23365779Y7682961D01*
X23371263Y7674755D01*
X23370073Y7673961D01*
X23391663Y7627661D01*
X23376100Y7569583D01*
X23366578Y7558234D01*
X23366453Y7558048D01*
X23366453Y7558047D01*
X23327045Y7499069D01*
X23316947Y7448300D01*
X23316700Y7447060D01*
X23316700Y6751537D01*
X23316701Y6751535D01*
X23327043Y6699535D01*
X23327043Y6699534D01*
X23327044Y6699532D01*
X23327045Y6699531D01*
X23366453Y6640553D01*
X23425431Y6601145D01*
X23477439Y6590800D01*
X23726831Y6590801D01*
X23783332Y6570237D01*
X23813396Y6518165D01*
X23802955Y6458951D01*
X23788986Y6440747D01*
X23711787Y6363546D01*
X23657294Y6338135D01*
X23649632Y6337800D01*
X22936163Y6337800D01*
X22879662Y6358365D01*
X22849598Y6410436D01*
X22857194Y6464305D01*
X22863156Y6476501D01*
X22867587Y6485565D01*
X22878300Y6559096D01*
X22878300Y7030904D01*
X22867587Y7104435D01*
X22845510Y7149594D01*
X22812138Y7217858D01*
X22812136Y7217860D01*
X22812136Y7217861D01*
X22722861Y7307136D01*
X22722859Y7307137D01*
X22722857Y7307139D01*
X22609440Y7362585D01*
X22609438Y7362586D01*
X22609436Y7362587D01*
X22609435Y7362587D01*
X22535904Y7373300D01*
X21914096Y7373300D01*
X21840565Y7362587D01*
X21840563Y7362587D01*
X21840561Y7362586D01*
X21840559Y7362585D01*
X21727142Y7307139D01*
X21637862Y7217859D01*
X21604490Y7149594D01*
X21585863Y7111494D01*
X21542575Y7069767D01*
X21506896Y7062200D01*
X21369088Y7062200D01*
X21312587Y7082765D01*
X21282523Y7134836D01*
X21282270Y7136351D01*
X21276074Y7175473D01*
X21276074Y7175475D01*
X21254477Y7217861D01*
X21218976Y7287536D01*
X21218975Y7287537D01*
X21218974Y7287539D01*
X21130039Y7376474D01*
X21130036Y7376476D01*
X21130035Y7376477D01*
X21017975Y7433575D01*
X20947362Y7444758D01*
X20924997Y7448300D01*
X20924995Y7448300D01*
X20350005Y7448300D01*
X20350003Y7448299D01*
X20257027Y7433575D01*
X20257021Y7433573D01*
X20144964Y7376477D01*
X20056023Y7287536D01*
X19998925Y7175476D01*
X19998925Y7175475D01*
X19987020Y7100300D01*
X19984243Y7082765D01*
X19984200Y7082496D01*
X19984200Y6582506D01*
X19984201Y6582504D01*
X19998925Y6489528D01*
X19998925Y6489527D01*
X19998926Y6489525D01*
X20011114Y6465605D01*
X20018441Y6405927D01*
X19985693Y6355500D01*
X19932794Y6337800D01*
X18577870Y6337800D01*
X18521369Y6358365D01*
X18515715Y6363545D01*
X17839960Y7039299D01*
X17839959Y7039300D01*
X17770341Y7079494D01*
X17770340Y7079495D01*
X17770339Y7079495D01*
X17721113Y7092685D01*
X17692693Y7100300D01*
X17692692Y7100300D01*
X16574479Y7100300D01*
X16517978Y7120865D01*
X16495511Y7149594D01*
X16462138Y7217858D01*
X16462136Y7217860D01*
X16462136Y7217861D01*
X16372861Y7307136D01*
X16372859Y7307137D01*
X16372857Y7307139D01*
X16259440Y7362585D01*
X16259438Y7362586D01*
X16259436Y7362587D01*
X16259435Y7362587D01*
X16185904Y7373300D01*
X15564096Y7373300D01*
X15490565Y7362587D01*
X15490563Y7362587D01*
X15490561Y7362586D01*
X15490559Y7362585D01*
X15377142Y7307139D01*
X15287861Y7217858D01*
X15254489Y7149594D01*
X15211199Y7107866D01*
X15175521Y7100300D01*
X14986979Y7100300D01*
X14930478Y7120865D01*
X14908011Y7149594D01*
X14874638Y7217858D01*
X14874636Y7217860D01*
X14874636Y7217861D01*
X14785361Y7307136D01*
X14785359Y7307137D01*
X14785357Y7307139D01*
X14671940Y7362585D01*
X14671938Y7362586D01*
X14671936Y7362587D01*
X14671935Y7362587D01*
X14598404Y7373300D01*
X13976596Y7373300D01*
X13903065Y7362587D01*
X13903063Y7362587D01*
X13903061Y7362586D01*
X13903059Y7362585D01*
X13789642Y7307139D01*
X13700361Y7217858D01*
X13666989Y7149594D01*
X13623699Y7107866D01*
X13588021Y7100300D01*
X13399479Y7100300D01*
X13342978Y7120865D01*
X13320511Y7149594D01*
X13287138Y7217858D01*
X13287136Y7217860D01*
X13287136Y7217861D01*
X13197861Y7307136D01*
X13197859Y7307137D01*
X13197857Y7307139D01*
X13084440Y7362585D01*
X13084438Y7362586D01*
X13084436Y7362587D01*
X13084435Y7362587D01*
X13010904Y7373300D01*
X12389096Y7373300D01*
X12315565Y7362587D01*
X12315563Y7362587D01*
X12315561Y7362586D01*
X12315559Y7362585D01*
X12202142Y7307139D01*
X12112861Y7217858D01*
X12079489Y7149594D01*
X12036199Y7107866D01*
X12000521Y7100300D01*
X11811979Y7100300D01*
X11755478Y7120865D01*
X11733011Y7149594D01*
X11699638Y7217858D01*
X11699636Y7217860D01*
X11699636Y7217861D01*
X11610361Y7307136D01*
X11610359Y7307137D01*
X11610357Y7307139D01*
X11496940Y7362585D01*
X11496938Y7362586D01*
X11496936Y7362587D01*
X11496935Y7362587D01*
X11423404Y7373300D01*
X10801596Y7373300D01*
X10728065Y7362587D01*
X10728063Y7362587D01*
X10728061Y7362586D01*
X10728059Y7362585D01*
X10614642Y7307139D01*
X10525361Y7217858D01*
X10522124Y7213323D01*
X10472556Y7179290D01*
X10450587Y7176500D01*
X10186913Y7176500D01*
X10130412Y7197065D01*
X10115376Y7213323D01*
X10112138Y7217858D01*
X10112136Y7217860D01*
X10112136Y7217861D01*
X10022861Y7307136D01*
X10022859Y7307137D01*
X10022857Y7307139D01*
X9909440Y7362585D01*
X9909438Y7362586D01*
X9909436Y7362587D01*
X9909435Y7362587D01*
X9835904Y7373300D01*
X9214096Y7373300D01*
X9140565Y7362587D01*
X9140563Y7362587D01*
X9140561Y7362586D01*
X9140559Y7362585D01*
X9027142Y7307139D01*
X8937861Y7217858D01*
X8934624Y7213323D01*
X8885056Y7179290D01*
X8863087Y7176500D01*
X8321933Y7176500D01*
X8265432Y7197065D01*
X8259778Y7202245D01*
X8171747Y7290276D01*
X8142544Y7307136D01*
X8084752Y7340502D01*
X7987725Y7366500D01*
X6501900Y7366500D01*
X6445399Y7387065D01*
X6415335Y7439136D01*
X6414000Y7454400D01*
X6414000Y12095513D01*
X6421944Y12132028D01*
X6476756Y12252049D01*
X6476756Y12252051D01*
X6476758Y12252054D01*
X6477817Y12259417D01*
X6495513Y12382497D01*
X6495513Y12382504D01*
X6476759Y12512940D01*
X6476758Y12512941D01*
X6476758Y12512946D01*
X6422011Y12632824D01*
X6359268Y12705233D01*
X6337811Y12761400D01*
X6337800Y12762794D01*
X6337800Y14645193D01*
X6316994Y14722842D01*
X6309730Y14735424D01*
X6309727Y14735427D01*
X6303739Y14745800D01*
X6276801Y14792459D01*
X5584959Y15484300D01*
X5515341Y15524494D01*
X5515340Y15524495D01*
X5515339Y15524495D01*
X5466113Y15537685D01*
X5437693Y15545300D01*
X5437692Y15545300D01*
X4607869Y15545300D01*
X4551368Y15565865D01*
X4545714Y15571045D01*
X3861045Y16255714D01*
X3835634Y16310208D01*
X3835300Y16317869D01*
X3835300Y16931301D01*
X3855865Y16987802D01*
X3907936Y17017866D01*
X3923200Y17019201D01*
X3947564Y17019201D01*
X3947565Y17019202D01*
X3999565Y17029544D01*
X3999566Y17029544D01*
X3999566Y17029545D01*
X3999569Y17029545D01*
X4058547Y17068953D01*
X4083482Y17106272D01*
X4131971Y17141825D01*
X4191969Y17137893D01*
X4218723Y17119592D01*
X4232781Y17105534D01*
X4283131Y17068953D01*
X4398388Y16985214D01*
X4398390Y16985213D01*
X4580781Y16892280D01*
X4580786Y16892279D01*
X4580787Y16892278D01*
X4595228Y16887586D01*
X4775466Y16829023D01*
X4977648Y16797000D01*
X4977650Y16797000D01*
X5182350Y16797000D01*
X5182352Y16797000D01*
X5384534Y16829023D01*
X5579219Y16892280D01*
X5761610Y16985213D01*
X5927219Y17105534D01*
X5941275Y17119591D01*
X5995767Y17145002D01*
X6053846Y17129442D01*
G37*
%TD.AperFunction*%
%TA.AperFunction,Conductor*%
G36*
X3883546Y12912235D02*
G01*
X3913256Y12862047D01*
X3919543Y12830434D01*
X3919544Y12830432D01*
X3919545Y12830431D01*
X3958953Y12771453D01*
X3958956Y12771451D01*
X3965075Y12765332D01*
X3963414Y12763672D01*
X3992064Y12724591D01*
X3988127Y12664593D01*
X3963956Y12635787D01*
X3965075Y12634668D01*
X3958952Y12628546D01*
X3927517Y12581500D01*
X3919545Y12569569D01*
X3917483Y12559200D01*
X3909200Y12517560D01*
X3909200Y11882437D01*
X3909201Y11882435D01*
X3919543Y11830435D01*
X3919543Y11830433D01*
X3962298Y11766447D01*
X3976590Y11708043D01*
X3949996Y11654116D01*
X3943015Y11648513D01*
X3941000Y11646498D01*
X3896090Y11579286D01*
X3896089Y11579283D01*
X3884300Y11520013D01*
X3884300Y11288901D01*
X3884301Y11288900D01*
X4763500Y11288900D01*
X4820001Y11268335D01*
X4850065Y11216264D01*
X4851400Y11201000D01*
X4851400Y10696801D01*
X4851401Y10696800D01*
X5457512Y10696800D01*
X5516782Y10708590D01*
X5524782Y10711903D01*
X5525693Y10709703D01*
X5572662Y10721199D01*
X5626590Y10694611D01*
X5650811Y10639578D01*
X5651000Y10633821D01*
X5651000Y8566106D01*
X5630435Y8509605D01*
X5578364Y8479541D01*
X5519150Y8489982D01*
X5514266Y8493019D01*
X5467068Y8524556D01*
X5432316Y8531468D01*
X5415061Y8534900D01*
X5415059Y8534900D01*
X4109936Y8534900D01*
X4109934Y8534899D01*
X4057934Y8524557D01*
X4057933Y8524557D01*
X3998954Y8485148D01*
X3998952Y8485146D01*
X3959545Y8426169D01*
X3949200Y8374160D01*
X3949200Y8279900D01*
X3928635Y8223399D01*
X3876564Y8193335D01*
X3861300Y8192000D01*
X3392539Y8192000D01*
X3336038Y8212565D01*
X3305974Y8264636D01*
X3305563Y8267188D01*
X3297587Y8321935D01*
X3256512Y8405955D01*
X3242138Y8435358D01*
X3242136Y8435360D01*
X3242136Y8435361D01*
X3152861Y8524636D01*
X3152859Y8524637D01*
X3152857Y8524639D01*
X3039440Y8580085D01*
X3039438Y8580086D01*
X3039436Y8580087D01*
X3039435Y8580087D01*
X2965904Y8590800D01*
X2965900Y8590800D01*
X2812927Y8590800D01*
X2756426Y8611365D01*
X2726362Y8663436D01*
X2736803Y8722650D01*
X2750772Y8740854D01*
X2989297Y8979381D01*
X3001661Y8991745D01*
X3001663Y8991745D01*
X3073255Y9063337D01*
X3112000Y9156877D01*
X3112000Y11111099D01*
X3884300Y11111099D01*
X3884300Y10879988D01*
X3896089Y10820718D01*
X3896090Y10820715D01*
X3941000Y10753503D01*
X3941002Y10753501D01*
X4008214Y10708591D01*
X4008217Y10708590D01*
X4067488Y10696800D01*
X4673599Y10696800D01*
X4673600Y10696801D01*
X4673600Y11111099D01*
X4673599Y11111100D01*
X3884301Y11111100D01*
X3884300Y11111099D01*
X3112000Y11111099D01*
X3112000Y12788800D01*
X3132565Y12845301D01*
X3184636Y12875365D01*
X3199900Y12876700D01*
X3240893Y12876700D01*
X3240894Y12876700D01*
X3240896Y12876701D01*
X3240898Y12876701D01*
X3278200Y12887654D01*
X3367343Y12913829D01*
X3375151Y12918848D01*
X3422672Y12932800D01*
X3827045Y12932800D01*
X3883546Y12912235D01*
G37*
%TD.AperFunction*%
%TA.AperFunction,Conductor*%
G36*
X8706896Y25379435D02*
G01*
X8736960Y25327364D01*
X8726519Y25268150D01*
X8680459Y25229501D01*
X8666547Y25225697D01*
X8582715Y25210027D01*
X8582703Y25210023D01*
X8389488Y25135172D01*
X8389482Y25135169D01*
X8213314Y25026091D01*
X8213305Y25026085D01*
X8060173Y24886485D01*
X7935302Y24721129D01*
X7935300Y24721126D01*
X7935300Y24721125D01*
X7859354Y24568605D01*
X7842936Y24535634D01*
X7842934Y24535629D01*
X7786229Y24336335D01*
X7786229Y24336334D01*
X7767110Y24130001D01*
X7767110Y24130000D01*
X7786229Y23923667D01*
X7786229Y23923666D01*
X7842934Y23724372D01*
X7842936Y23724365D01*
X7935300Y23538875D01*
X8060174Y23373514D01*
X8151584Y23290182D01*
X8213305Y23233916D01*
X8213314Y23233910D01*
X8330759Y23161192D01*
X8389485Y23124830D01*
X8389488Y23124829D01*
X8579353Y23051275D01*
X8624610Y23011689D01*
X8635500Y22969311D01*
X8635500Y22707100D01*
X8614935Y22650599D01*
X8562864Y22620535D01*
X8547600Y22619200D01*
X8237436Y22619200D01*
X8237434Y22619199D01*
X8185434Y22608857D01*
X8185433Y22608857D01*
X8126454Y22569448D01*
X8126449Y22569443D01*
X8120783Y22560963D01*
X8072292Y22525412D01*
X8012294Y22529348D01*
X7985545Y22547647D01*
X7882593Y22650599D01*
X7774937Y22758255D01*
X7711497Y22784533D01*
X7678705Y22808180D01*
X7667250Y22821400D01*
X7605709Y22892422D01*
X7605706Y22892424D01*
X7605705Y22892425D01*
X7494846Y22963670D01*
X7494843Y22963671D01*
X7469553Y22971097D01*
X7368398Y23000800D01*
X7368394Y23000800D01*
X7236606Y23000800D01*
X7236601Y23000800D01*
X7110157Y22963671D01*
X7110153Y22963670D01*
X6999294Y22892425D01*
X6999289Y22892420D01*
X6912989Y22792826D01*
X6858242Y22672946D01*
X6858240Y22672940D01*
X6839487Y22542504D01*
X6839487Y22542497D01*
X6858240Y22412061D01*
X6858242Y22412055D01*
X6891013Y22340297D01*
X6895778Y22280359D01*
X6860901Y22231381D01*
X6849662Y22224814D01*
X6752142Y22177139D01*
X6662861Y22087858D01*
X6607415Y21974441D01*
X6607414Y21974439D01*
X6607413Y21974437D01*
X6607413Y21974435D01*
X6596700Y21900904D01*
X6596700Y21900900D01*
X6596700Y21408028D01*
X6576135Y21351527D01*
X6570955Y21345873D01*
X6402237Y21177155D01*
X6402236Y21177156D01*
X6330646Y21105565D01*
X6330643Y21105561D01*
X6291900Y21012025D01*
X6291900Y19263294D01*
X6271335Y19206793D01*
X6219264Y19176729D01*
X6212626Y19175818D01*
X6212437Y19175800D01*
X6160434Y19165457D01*
X6160433Y19165457D01*
X6101454Y19126048D01*
X6101450Y19126044D01*
X6076516Y19088728D01*
X6028026Y19053175D01*
X5968028Y19057109D01*
X5941276Y19075409D01*
X5927219Y19089466D01*
X5876873Y19126044D01*
X5776395Y19199045D01*
X5742773Y19248892D01*
X5749058Y19308689D01*
X5792309Y19350457D01*
X5815382Y19357138D01*
X5834435Y19359913D01*
X5947861Y19415364D01*
X6037136Y19504639D01*
X6092587Y19618065D01*
X6103300Y19691596D01*
X6103300Y20313404D01*
X6092587Y20386935D01*
X6074628Y20423671D01*
X6037138Y20500358D01*
X6037136Y20500360D01*
X6037136Y20500361D01*
X5947861Y20589636D01*
X5947859Y20589637D01*
X5947857Y20589639D01*
X5834440Y20645085D01*
X5834438Y20645086D01*
X5834436Y20645087D01*
X5834435Y20645087D01*
X5760904Y20655800D01*
X5289096Y20655800D01*
X5215565Y20645087D01*
X5215563Y20645087D01*
X5215561Y20645086D01*
X5215559Y20645085D01*
X5102140Y20589638D01*
X5041124Y20528622D01*
X4986630Y20503211D01*
X4928552Y20518774D01*
X4894065Y20568027D01*
X4891965Y20603287D01*
X4897910Y20644631D01*
X4908013Y20714903D01*
X4908012Y20714907D01*
X4901315Y20761487D01*
X4913629Y20820339D01*
X4926166Y20836152D01*
X5051542Y20961527D01*
X5106035Y20986938D01*
X5152302Y20978340D01*
X5209440Y20950408D01*
X5215565Y20947413D01*
X5289096Y20936700D01*
X5289100Y20936700D01*
X5760899Y20936700D01*
X5760904Y20936700D01*
X5834435Y20947413D01*
X5947861Y21002864D01*
X6037136Y21092139D01*
X6092587Y21205565D01*
X6103300Y21279096D01*
X6103300Y21900904D01*
X6092587Y21974435D01*
X6046536Y22068634D01*
X6037138Y22087858D01*
X6037136Y22087860D01*
X6037136Y22087861D01*
X5947861Y22177136D01*
X5947859Y22177137D01*
X5947857Y22177139D01*
X5834440Y22232585D01*
X5834438Y22232586D01*
X5834436Y22232587D01*
X5834435Y22232587D01*
X5760904Y22243300D01*
X5289096Y22243300D01*
X5215565Y22232587D01*
X5215563Y22232587D01*
X5215561Y22232586D01*
X5215559Y22232585D01*
X5102142Y22177139D01*
X5012861Y22087858D01*
X4957415Y21974441D01*
X4957414Y21974439D01*
X4957413Y21974437D01*
X4957413Y21974435D01*
X4946700Y21900904D01*
X4946700Y21900900D01*
X4946700Y21612932D01*
X4926135Y21556431D01*
X4920955Y21550777D01*
X4569126Y21198948D01*
X4514632Y21173537D01*
X4506971Y21173203D01*
X4379101Y21173203D01*
X4252657Y21136074D01*
X4252653Y21136073D01*
X4141794Y21064828D01*
X4141789Y21064823D01*
X4055489Y20965229D01*
X4000742Y20845349D01*
X4000740Y20845343D01*
X3981987Y20714907D01*
X3981987Y20714900D01*
X4000740Y20584464D01*
X4000741Y20584459D01*
X4000742Y20584457D01*
X4026241Y20528622D01*
X4055489Y20464578D01*
X4097354Y20416264D01*
X4118813Y20360097D01*
X4099147Y20303276D01*
X4097355Y20301140D01*
X4055488Y20252823D01*
X4000742Y20132946D01*
X4000740Y20132940D01*
X3981987Y20002504D01*
X3981987Y20002497D01*
X4000740Y19872061D01*
X4000741Y19872056D01*
X4000742Y19872054D01*
X4017978Y19834313D01*
X4055489Y19752175D01*
X4106497Y19693309D01*
X4141791Y19652578D01*
X4141793Y19652577D01*
X4141794Y19652576D01*
X4252653Y19581331D01*
X4252654Y19581331D01*
X4252657Y19581329D01*
X4338782Y19556041D01*
X4379101Y19544201D01*
X4379104Y19544201D01*
X4379106Y19544200D01*
X4379107Y19544200D01*
X4510893Y19544200D01*
X4510894Y19544200D01*
X4510896Y19544201D01*
X4510898Y19544201D01*
X4525927Y19548615D01*
X4637343Y19581329D01*
X4748209Y19652578D01*
X4797265Y19709194D01*
X4849806Y19738426D01*
X4908846Y19727047D01*
X4946760Y19680380D01*
X4950675Y19664309D01*
X4957413Y19618065D01*
X4957413Y19618064D01*
X4957414Y19618062D01*
X5006496Y19517663D01*
X5012835Y19457871D01*
X4979258Y19407993D01*
X4941278Y19392240D01*
X4775467Y19365978D01*
X4580787Y19302723D01*
X4398388Y19209787D01*
X4232783Y19089469D01*
X4218721Y19075406D01*
X4164226Y19049997D01*
X4106148Y19065561D01*
X4083482Y19088729D01*
X4058549Y19126044D01*
X4058547Y19126047D01*
X3999569Y19165455D01*
X3947561Y19175800D01*
X3947559Y19175800D01*
X3112436Y19175800D01*
X3112434Y19175799D01*
X3060434Y19165457D01*
X3060433Y19165457D01*
X3001454Y19126048D01*
X3001452Y19126046D01*
X2962045Y19067069D01*
X2951700Y19015060D01*
X2951700Y18989900D01*
X2931135Y18933399D01*
X2879064Y18903335D01*
X2863800Y18902000D01*
X2705862Y18902000D01*
X2705854Y18902001D01*
X2695623Y18902001D01*
X2594377Y18902001D01*
X2500839Y18863257D01*
X1514127Y17876545D01*
X1459633Y17851134D01*
X1451972Y17850800D01*
X959096Y17850800D01*
X885565Y17840087D01*
X885563Y17840087D01*
X885561Y17840086D01*
X885559Y17840085D01*
X772142Y17784639D01*
X682861Y17695358D01*
X627415Y17581941D01*
X627414Y17581939D01*
X627413Y17581937D01*
X627413Y17581935D01*
X616700Y17508404D01*
X616700Y17036596D01*
X627413Y16963065D01*
X627413Y16963064D01*
X627414Y16963062D01*
X627415Y16963060D01*
X682861Y16849643D01*
X682863Y16849641D01*
X682864Y16849639D01*
X772139Y16760364D01*
X772140Y16760364D01*
X772142Y16760362D01*
X872942Y16711084D01*
X885565Y16704913D01*
X959096Y16694200D01*
X959100Y16694200D01*
X1580899Y16694200D01*
X1580904Y16694200D01*
X1654435Y16704913D01*
X1767861Y16760364D01*
X1857136Y16849639D01*
X1912587Y16963065D01*
X1923300Y17036596D01*
X1923300Y17508404D01*
X1922349Y17514928D01*
X1934550Y17573803D01*
X1947171Y17589755D01*
X2724673Y18367255D01*
X2779167Y18392666D01*
X2786828Y18393000D01*
X2863801Y18393000D01*
X2920302Y18372435D01*
X2950366Y18320364D01*
X2951701Y18305100D01*
X2951701Y18279935D01*
X2962043Y18227935D01*
X2962043Y18227934D01*
X2962044Y18227932D01*
X2962045Y18227931D01*
X3001453Y18168953D01*
X3001456Y18168951D01*
X3007575Y18162832D01*
X3005914Y18161172D01*
X3034564Y18122091D01*
X3030627Y18062093D01*
X3006456Y18033287D01*
X3007575Y18032168D01*
X3001452Y18026046D01*
X2962045Y17967069D01*
X2951700Y17915060D01*
X2951700Y17179937D01*
X2951701Y17179935D01*
X2962043Y17127935D01*
X2962043Y17127934D01*
X2962044Y17127932D01*
X2962045Y17127931D01*
X3001453Y17068953D01*
X3060431Y17029545D01*
X3112439Y17019200D01*
X3136799Y17019201D01*
X3193299Y16998638D01*
X3223364Y16946568D01*
X3224700Y16931301D01*
X3224700Y16114807D01*
X3230298Y16093914D01*
X3243342Y16045233D01*
X3245506Y16037159D01*
X3285700Y15967541D01*
X4257541Y14995700D01*
X4257543Y14995699D01*
X4257544Y14995698D01*
X4257547Y14995696D01*
X4327152Y14955509D01*
X4327153Y14955509D01*
X4327158Y14955506D01*
X4329325Y14954926D01*
X4329336Y14954918D01*
X4329338Y14954922D01*
X4404807Y14934700D01*
X5234631Y14934700D01*
X5291132Y14914135D01*
X5296786Y14908955D01*
X5377386Y14828355D01*
X5402797Y14773861D01*
X5387234Y14715783D01*
X5337981Y14681295D01*
X5315231Y14678300D01*
X4069936Y14678300D01*
X4069934Y14678299D01*
X4017934Y14667957D01*
X4017933Y14667957D01*
X3958954Y14628548D01*
X3958949Y14628543D01*
X3955259Y14623020D01*
X3906768Y14587469D01*
X3846770Y14591405D01*
X3815747Y14614296D01*
X3795709Y14637422D01*
X3795706Y14637424D01*
X3795705Y14637425D01*
X3684846Y14708670D01*
X3684843Y14708671D01*
X3640471Y14721700D01*
X3558398Y14745800D01*
X3558394Y14745800D01*
X3426606Y14745800D01*
X3426601Y14745800D01*
X3300157Y14708671D01*
X3300153Y14708670D01*
X3189294Y14637425D01*
X3189289Y14637420D01*
X3102989Y14537826D01*
X3048242Y14417946D01*
X3048240Y14417940D01*
X3030489Y14294475D01*
X3005639Y14244829D01*
X2395837Y13635025D01*
X2395836Y13635026D01*
X2324246Y13563435D01*
X2324243Y13563431D01*
X2285500Y13469895D01*
X2285500Y10746309D01*
X2264935Y10689808D01*
X2212864Y10659744D01*
X2163964Y10665099D01*
X2157068Y10667956D01*
X2122316Y10674868D01*
X2105061Y10678300D01*
X2105059Y10678300D01*
X87900Y10678300D01*
X31399Y10698865D01*
X1335Y10750936D01*
X0Y10766200D01*
X0Y14633801D01*
X20565Y14690302D01*
X72636Y14720366D01*
X87888Y14721701D01*
X2105060Y14721701D01*
X2105064Y14721701D01*
X2105065Y14721702D01*
X2157065Y14732044D01*
X2157066Y14732044D01*
X2157066Y14732045D01*
X2157069Y14732045D01*
X2216047Y14771453D01*
X2255455Y14830431D01*
X2265800Y14882439D01*
X2265799Y16117560D01*
X2265799Y16117561D01*
X2265799Y16117564D01*
X2265798Y16117566D01*
X2255456Y16169566D01*
X2255456Y16169567D01*
X2245179Y16184948D01*
X2216047Y16228547D01*
X2157069Y16267955D01*
X2105061Y16278300D01*
X2105059Y16278300D01*
X87900Y16278300D01*
X31399Y16298865D01*
X1335Y16350936D01*
X0Y16366200D01*
X0Y19158404D01*
X616700Y19158404D01*
X616700Y18686596D01*
X627413Y18613065D01*
X627413Y18613064D01*
X627414Y18613062D01*
X627415Y18613060D01*
X682861Y18499643D01*
X682863Y18499641D01*
X682864Y18499639D01*
X772139Y18410364D01*
X772140Y18410364D01*
X772142Y18410362D01*
X849723Y18372435D01*
X885565Y18354913D01*
X959096Y18344200D01*
X959100Y18344200D01*
X1580899Y18344200D01*
X1580904Y18344200D01*
X1654435Y18354913D01*
X1767861Y18410364D01*
X1857136Y18499639D01*
X1912587Y18613065D01*
X1923300Y18686596D01*
X1923300Y19158404D01*
X1912587Y19231935D01*
X1904297Y19248892D01*
X1857138Y19345358D01*
X1857136Y19345360D01*
X1857136Y19345361D01*
X1767861Y19434636D01*
X1767859Y19434637D01*
X1767857Y19434639D01*
X1654440Y19490085D01*
X1654433Y19490088D01*
X1614357Y19495927D01*
X1561412Y19524423D01*
X1539171Y19580286D01*
X1558041Y19637375D01*
X1569473Y19649341D01*
X1573207Y19652577D01*
X1573206Y19652577D01*
X1573209Y19652578D01*
X1659511Y19752176D01*
X1714258Y19872054D01*
X1723254Y19934623D01*
X1733013Y20002497D01*
X1733013Y20002504D01*
X1714259Y20132940D01*
X1714258Y20132941D01*
X1714258Y20132946D01*
X1659511Y20252824D01*
X1659510Y20252825D01*
X1659510Y20252826D01*
X1602971Y20318075D01*
X1573209Y20352422D01*
X1573206Y20352424D01*
X1573205Y20352425D01*
X1462346Y20423670D01*
X1462343Y20423671D01*
X1437053Y20431097D01*
X1335898Y20460800D01*
X1335894Y20460800D01*
X1204106Y20460800D01*
X1204101Y20460800D01*
X1077657Y20423671D01*
X1077653Y20423670D01*
X966794Y20352425D01*
X966789Y20352420D01*
X880489Y20252826D01*
X825742Y20132946D01*
X825740Y20132940D01*
X806987Y20002504D01*
X806987Y20002497D01*
X825740Y19872061D01*
X825741Y19872056D01*
X825742Y19872054D01*
X880489Y19752176D01*
X966791Y19652578D01*
X966792Y19652578D01*
X966796Y19652573D01*
X970530Y19649337D01*
X999763Y19596795D01*
X988383Y19537755D01*
X941715Y19499842D01*
X925642Y19495927D01*
X885567Y19490088D01*
X885559Y19490085D01*
X772142Y19434639D01*
X682861Y19345358D01*
X627415Y19231941D01*
X627414Y19231939D01*
X627413Y19231937D01*
X627413Y19231935D01*
X616700Y19158404D01*
X0Y19158404D01*
X0Y22978013D01*
X739500Y22978013D01*
X739500Y22741988D01*
X762216Y22569446D01*
X770307Y22507986D01*
X831394Y22280007D01*
X874005Y22177136D01*
X921713Y22061957D01*
X921714Y22061955D01*
X921716Y22061951D01*
X980584Y21959988D01*
X1039728Y21857548D01*
X1163198Y21696639D01*
X1183408Y21670301D01*
X1350301Y21503408D01*
X1537550Y21359727D01*
X1741951Y21241716D01*
X1960007Y21151394D01*
X2187986Y21090307D01*
X2367541Y21066669D01*
X2421987Y21059500D01*
X2421989Y21059500D01*
X2658013Y21059500D01*
X2706784Y21065922D01*
X2892014Y21090307D01*
X3119993Y21151394D01*
X3338049Y21241716D01*
X3542450Y21359727D01*
X3729699Y21503408D01*
X3896592Y21670301D01*
X4040273Y21857550D01*
X4158284Y22061951D01*
X4248606Y22280007D01*
X4309693Y22507986D01*
X4336915Y22714766D01*
X4340500Y22741988D01*
X4340500Y22978013D01*
X4321171Y23124830D01*
X4309693Y23212014D01*
X4248606Y23439993D01*
X4158284Y23658049D01*
X4040273Y23862450D01*
X3896592Y24049699D01*
X3729699Y24216592D01*
X3708208Y24233082D01*
X3542452Y24360272D01*
X3473329Y24400180D01*
X3338049Y24478284D01*
X3338047Y24478285D01*
X3338045Y24478286D01*
X3338043Y24478287D01*
X3199594Y24535634D01*
X3119993Y24568606D01*
X3040333Y24589951D01*
X2892026Y24629690D01*
X2892014Y24629693D01*
X2658013Y24660500D01*
X2658011Y24660500D01*
X2421989Y24660500D01*
X2421987Y24660500D01*
X2187985Y24629693D01*
X2187973Y24629690D01*
X1960013Y24568608D01*
X1960009Y24568607D01*
X1960007Y24568606D01*
X1960005Y24568605D01*
X1741956Y24478287D01*
X1741954Y24478286D01*
X1537547Y24360272D01*
X1350304Y24216595D01*
X1183405Y24049696D01*
X1039728Y23862453D01*
X921714Y23658046D01*
X921713Y23658044D01*
X831395Y23439995D01*
X831392Y23439987D01*
X770310Y23212027D01*
X770307Y23212015D01*
X739500Y22978013D01*
X0Y22978013D01*
X0Y25312100D01*
X20565Y25368601D01*
X72636Y25398665D01*
X87900Y25400000D01*
X8650395Y25400000D01*
X8706896Y25379435D01*
G37*
%TD.AperFunction*%
%TA.AperFunction,Conductor*%
G36*
X22056242Y14926835D02*
G01*
X22086306Y14874764D01*
X22086746Y14872009D01*
X22098240Y14792061D01*
X22098241Y14792056D01*
X22098242Y14792054D01*
X22152989Y14672176D01*
X22222977Y14591405D01*
X22239290Y14572579D01*
X22244042Y14568462D01*
X22241986Y14566090D01*
X22271324Y14527578D01*
X22275300Y14501440D01*
X22275300Y14340649D01*
X22275300Y14234351D01*
X22295359Y14185924D01*
X22310930Y14148331D01*
X22315979Y14136143D01*
X23202055Y13250067D01*
X23227466Y13195574D01*
X23227800Y13187913D01*
X23227800Y11894588D01*
X23207235Y11838087D01*
X23202055Y11832433D01*
X22862567Y11492945D01*
X22808073Y11467534D01*
X22800412Y11467200D01*
X21572955Y11467200D01*
X21516454Y11487765D01*
X21486744Y11537953D01*
X21480456Y11569567D01*
X21471184Y11583444D01*
X21441047Y11628547D01*
X21441043Y11628550D01*
X21434925Y11634668D01*
X21436586Y11636330D01*
X21407937Y11675401D01*
X21411868Y11735399D01*
X21436044Y11764213D01*
X21434925Y11765332D01*
X21441040Y11771449D01*
X21441047Y11771453D01*
X21480455Y11830431D01*
X21490800Y11882439D01*
X21490799Y12517560D01*
X21490799Y12517561D01*
X21490799Y12517564D01*
X21490798Y12517566D01*
X21480456Y12569566D01*
X21480456Y12569567D01*
X21462574Y12596329D01*
X21441047Y12628547D01*
X21441043Y12628550D01*
X21434925Y12634668D01*
X21436586Y12636330D01*
X21407937Y12675401D01*
X21411868Y12735399D01*
X21436044Y12764213D01*
X21434925Y12765332D01*
X21441040Y12771449D01*
X21441047Y12771453D01*
X21446380Y12779436D01*
X21494869Y12814988D01*
X21519466Y12818500D01*
X21755560Y12818500D01*
X21812061Y12797935D01*
X21831655Y12772189D01*
X21832088Y12772467D01*
X21835488Y12767177D01*
X21837376Y12764998D01*
X21921791Y12667578D01*
X21921793Y12667577D01*
X21921794Y12667576D01*
X22032653Y12596331D01*
X22032654Y12596331D01*
X22032657Y12596329D01*
X22118782Y12571041D01*
X22159101Y12559201D01*
X22159104Y12559201D01*
X22159106Y12559200D01*
X22159107Y12559200D01*
X22290893Y12559200D01*
X22290894Y12559200D01*
X22290896Y12559201D01*
X22290898Y12559201D01*
X22305927Y12563615D01*
X22417343Y12596329D01*
X22528209Y12667578D01*
X22614511Y12767176D01*
X22669258Y12887054D01*
X22669534Y12888978D01*
X22688013Y13017497D01*
X22688013Y13017504D01*
X22669259Y13147940D01*
X22669258Y13147941D01*
X22669258Y13147946D01*
X22614511Y13267824D01*
X22614510Y13267825D01*
X22614510Y13267826D01*
X22571360Y13317623D01*
X22528209Y13367422D01*
X22528206Y13367424D01*
X22528205Y13367425D01*
X22417346Y13438670D01*
X22417341Y13438672D01*
X22334122Y13463107D01*
X22296733Y13485290D01*
X22276747Y13505276D01*
X22268255Y13510179D01*
X22189754Y13555501D01*
X22189752Y13555502D01*
X22189750Y13555503D01*
X22092725Y13581500D01*
X21519466Y13581500D01*
X21462965Y13602065D01*
X21446380Y13620565D01*
X21443274Y13625213D01*
X21441047Y13628547D01*
X21441046Y13628548D01*
X21437701Y13633554D01*
X21423409Y13691958D01*
X21450003Y13745885D01*
X21456987Y13751491D01*
X21458999Y13753503D01*
X21503909Y13820715D01*
X21503910Y13820718D01*
X21515700Y13879988D01*
X21515700Y14111099D01*
X21515699Y14111100D01*
X19759301Y14111100D01*
X19759300Y14111099D01*
X19759300Y13879988D01*
X19771089Y13820718D01*
X19771090Y13820715D01*
X19816000Y13753503D01*
X19822123Y13747380D01*
X19820311Y13745569D01*
X19848601Y13706983D01*
X19844666Y13646984D01*
X19837298Y13633555D01*
X19794545Y13569571D01*
X19784200Y13517560D01*
X19784200Y12882437D01*
X19784201Y12882435D01*
X19794543Y12830435D01*
X19794543Y12830434D01*
X19794544Y12830432D01*
X19794545Y12830431D01*
X19833953Y12771453D01*
X19833956Y12771451D01*
X19840075Y12765332D01*
X19838414Y12763672D01*
X19867064Y12724591D01*
X19863127Y12664593D01*
X19838956Y12635787D01*
X19840075Y12634668D01*
X19833952Y12628546D01*
X19794544Y12569569D01*
X19788256Y12537952D01*
X19757064Y12486548D01*
X19702045Y12467200D01*
X19405100Y12467200D01*
X19348599Y12487765D01*
X19318535Y12539836D01*
X19317200Y12555100D01*
X19317200Y14272240D01*
X19337765Y14328741D01*
X19349003Y14338633D01*
X19348458Y14339262D01*
X19353204Y14343376D01*
X19353209Y14343378D01*
X19439511Y14442976D01*
X19474693Y14520013D01*
X19759300Y14520013D01*
X19759300Y14288901D01*
X19759301Y14288900D01*
X20548599Y14288900D01*
X20548600Y14288901D01*
X20548600Y14703199D01*
X20726400Y14703199D01*
X20726400Y14288901D01*
X20726401Y14288900D01*
X21515699Y14288900D01*
X21515700Y14288901D01*
X21515700Y14520013D01*
X21503910Y14579283D01*
X21503909Y14579286D01*
X21458999Y14646498D01*
X21458997Y14646500D01*
X21391785Y14691410D01*
X21391782Y14691411D01*
X21332512Y14703200D01*
X20726401Y14703200D01*
X20726400Y14703199D01*
X20548600Y14703199D01*
X20548599Y14703200D01*
X19942488Y14703200D01*
X19883217Y14691411D01*
X19883214Y14691410D01*
X19816002Y14646500D01*
X19816000Y14646498D01*
X19771090Y14579286D01*
X19771089Y14579283D01*
X19759300Y14520013D01*
X19474693Y14520013D01*
X19494258Y14562854D01*
X19501434Y14612765D01*
X19513013Y14693297D01*
X19513013Y14693304D01*
X19494259Y14823740D01*
X19494258Y14823741D01*
X19494258Y14823746D01*
X19494255Y14823751D01*
X19492487Y14829776D01*
X19494030Y14830230D01*
X19489839Y14882920D01*
X19524715Y14931899D01*
X19574562Y14947400D01*
X21999741Y14947400D01*
X22056242Y14926835D01*
G37*
%TD.AperFunction*%
%TA.AperFunction,Conductor*%
G36*
X25368601Y25379435D02*
G01*
X25398665Y25327364D01*
X25400000Y25312100D01*
X25400000Y16366200D01*
X25379435Y16309699D01*
X25327364Y16279635D01*
X25312100Y16278300D01*
X23713687Y16278300D01*
X23657186Y16298865D01*
X23627122Y16350936D01*
X23637563Y16410150D01*
X23651532Y16428355D01*
X23668833Y16445656D01*
X23723327Y16471067D01*
X23730988Y16471401D01*
X24782564Y16471401D01*
X24782565Y16471402D01*
X24834565Y16481744D01*
X24834566Y16481744D01*
X24834566Y16481745D01*
X24834569Y16481745D01*
X24893547Y16521153D01*
X24932955Y16580131D01*
X24943300Y16632139D01*
X24943299Y17302260D01*
X24932955Y17354269D01*
X24932953Y17354272D01*
X24932520Y17356450D01*
X24932520Y17390748D01*
X24932953Y17392930D01*
X24932955Y17392931D01*
X24943300Y17444939D01*
X24943299Y18115060D01*
X24943299Y18115061D01*
X24943299Y18115064D01*
X24943298Y18115066D01*
X24932956Y18167066D01*
X24932956Y18167067D01*
X24931696Y18168953D01*
X24893547Y18226047D01*
X24834569Y18265455D01*
X24782561Y18275800D01*
X24782559Y18275800D01*
X23532600Y18275800D01*
X23476099Y18296365D01*
X23446035Y18348436D01*
X23444700Y18363700D01*
X23444700Y18628940D01*
X23465265Y18685441D01*
X23476503Y18695333D01*
X23475958Y18695962D01*
X23480704Y18700076D01*
X23480709Y18700078D01*
X23567011Y18799676D01*
X23621758Y18919554D01*
X23631872Y18989900D01*
X23640513Y19049997D01*
X23640513Y19050004D01*
X23621759Y19180440D01*
X23621758Y19180441D01*
X23621758Y19180446D01*
X23567011Y19300324D01*
X23567010Y19300325D01*
X23567010Y19300326D01*
X23510122Y19365977D01*
X23480709Y19399922D01*
X23480706Y19399924D01*
X23480705Y19399925D01*
X23369846Y19471170D01*
X23369843Y19471171D01*
X23338678Y19480322D01*
X23243398Y19508300D01*
X23243394Y19508300D01*
X23111606Y19508300D01*
X23111601Y19508300D01*
X22985157Y19471171D01*
X22985153Y19471170D01*
X22874294Y19399925D01*
X22874289Y19399920D01*
X22787989Y19300326D01*
X22733242Y19180446D01*
X22733240Y19180440D01*
X22714487Y19050004D01*
X22714487Y19049997D01*
X22733240Y18919561D01*
X22733241Y18919556D01*
X22733242Y18919554D01*
X22787989Y18799676D01*
X22860994Y18715424D01*
X22874290Y18700079D01*
X22879042Y18695962D01*
X22876986Y18693590D01*
X22906324Y18655078D01*
X22910300Y18628940D01*
X22910300Y18173200D01*
X22889735Y18116699D01*
X22837664Y18086635D01*
X22822400Y18085300D01*
X22798858Y18085300D01*
X22742357Y18105865D01*
X22712647Y18156052D01*
X22710456Y18167067D01*
X22709196Y18168953D01*
X22671047Y18226047D01*
X22612069Y18265455D01*
X22560061Y18275800D01*
X22560059Y18275800D01*
X21254936Y18275800D01*
X21254934Y18275799D01*
X21202934Y18265457D01*
X21202933Y18265457D01*
X21143954Y18226048D01*
X21143952Y18226046D01*
X21104544Y18167069D01*
X21102354Y18156053D01*
X21071163Y18104649D01*
X21016143Y18085300D01*
X20576358Y18085300D01*
X20519857Y18105865D01*
X20490147Y18156052D01*
X20487956Y18167067D01*
X20486696Y18168953D01*
X20448547Y18226047D01*
X20389569Y18265455D01*
X20337561Y18275800D01*
X20337559Y18275800D01*
X19032436Y18275800D01*
X19032434Y18275799D01*
X18980434Y18265457D01*
X18980433Y18265457D01*
X18921454Y18226048D01*
X18921452Y18226046D01*
X18901772Y18196593D01*
X18882045Y18167069D01*
X18872524Y18119201D01*
X18871700Y18115060D01*
X18871700Y17444937D01*
X18882479Y17390747D01*
X18882479Y17356452D01*
X18871700Y17302260D01*
X18871700Y16632137D01*
X18871701Y16632135D01*
X18882043Y16580135D01*
X18882043Y16580134D01*
X18882044Y16580132D01*
X18882045Y16580131D01*
X18921453Y16521153D01*
X18980431Y16481745D01*
X19032439Y16471400D01*
X19329900Y16471401D01*
X19386401Y16450836D01*
X19416465Y16398765D01*
X19417800Y16383501D01*
X19417800Y16339588D01*
X19397235Y16283087D01*
X19392055Y16277433D01*
X19282567Y16167945D01*
X19228073Y16142534D01*
X19220412Y16142200D01*
X17609588Y16142200D01*
X17553087Y16162765D01*
X17547433Y16167945D01*
X17364442Y16350936D01*
X17168857Y16546521D01*
X17168855Y16546522D01*
X17168856Y16546522D01*
X17087715Y16580131D01*
X17070649Y16587200D01*
X17070648Y16587200D01*
X16593104Y16587200D01*
X16536603Y16607765D01*
X16514136Y16636494D01*
X16462136Y16742861D01*
X16372861Y16832136D01*
X16372859Y16832137D01*
X16372857Y16832139D01*
X16259440Y16887585D01*
X16259438Y16887586D01*
X16259436Y16887587D01*
X16259435Y16887587D01*
X16185904Y16898300D01*
X15564096Y16898300D01*
X15490565Y16887587D01*
X15490563Y16887587D01*
X15490561Y16887586D01*
X15490559Y16887585D01*
X15377142Y16832139D01*
X15287861Y16742858D01*
X15232415Y16629441D01*
X15232414Y16629439D01*
X15232413Y16629437D01*
X15232413Y16629435D01*
X15221700Y16555904D01*
X15221700Y16084096D01*
X15232413Y16010565D01*
X15232413Y16010564D01*
X15232414Y16010562D01*
X15232415Y16010560D01*
X15287861Y15897143D01*
X15287863Y15897141D01*
X15287864Y15897139D01*
X15341408Y15843595D01*
X15366819Y15789102D01*
X15351256Y15731024D01*
X15341410Y15719288D01*
X15330978Y15708857D01*
X15290300Y15610649D01*
X15290300Y15504351D01*
X15291989Y15495859D01*
X15291142Y15495691D01*
X15295300Y15474796D01*
X15295300Y15441200D01*
X15274735Y15384699D01*
X15222664Y15354635D01*
X15207400Y15353300D01*
X14883444Y15353300D01*
X14883438Y15353300D01*
X14883432Y15353299D01*
X14860178Y15350601D01*
X14860175Y15350600D01*
X14764999Y15308575D01*
X14764998Y15308575D01*
X14764998Y15308574D01*
X14704753Y15248330D01*
X14650261Y15222919D01*
X14592183Y15238482D01*
X14557695Y15287735D01*
X14554700Y15310485D01*
X14554700Y15659312D01*
X14575265Y15715813D01*
X14627336Y15745877D01*
X14629852Y15746282D01*
X14671935Y15752413D01*
X14785361Y15807864D01*
X14874636Y15897139D01*
X14930087Y16010565D01*
X14940800Y16084096D01*
X14940800Y16555904D01*
X14930087Y16629435D01*
X14893187Y16704915D01*
X14874638Y16742858D01*
X14874636Y16742860D01*
X14874636Y16742861D01*
X14785361Y16832136D01*
X14785359Y16832137D01*
X14785357Y16832139D01*
X14671940Y16887585D01*
X14671938Y16887586D01*
X14671936Y16887587D01*
X14671935Y16887587D01*
X14598404Y16898300D01*
X13976596Y16898300D01*
X13903065Y16887587D01*
X13903063Y16887587D01*
X13903061Y16887586D01*
X13903059Y16887585D01*
X13789642Y16832139D01*
X13700361Y16742858D01*
X13644915Y16629441D01*
X13644914Y16629439D01*
X13644913Y16629437D01*
X13644913Y16629435D01*
X13634200Y16555904D01*
X13634200Y16084096D01*
X13644913Y16010565D01*
X13644913Y16010564D01*
X13644914Y16010562D01*
X13644915Y16010560D01*
X13700361Y15897143D01*
X13700363Y15897141D01*
X13700364Y15897139D01*
X13789639Y15807864D01*
X13789640Y15807864D01*
X13789642Y15807862D01*
X13838410Y15784021D01*
X13903065Y15752413D01*
X13945074Y15746293D01*
X13998018Y15717799D01*
X14020261Y15661937D01*
X14020300Y15659312D01*
X14020300Y14986038D01*
X13999735Y14929537D01*
X13947664Y14899473D01*
X13888450Y14909914D01*
X13870245Y14923883D01*
X13142795Y15651333D01*
X13117384Y15705827D01*
X13132947Y15763905D01*
X13166344Y15792457D01*
X13197861Y15807864D01*
X13287136Y15897139D01*
X13342587Y16010565D01*
X13353300Y16084096D01*
X13353300Y16555904D01*
X13342587Y16629435D01*
X13305687Y16704915D01*
X13287138Y16742858D01*
X13287136Y16742860D01*
X13287136Y16742861D01*
X13197861Y16832136D01*
X13197859Y16832137D01*
X13197857Y16832139D01*
X13084440Y16887585D01*
X13084438Y16887586D01*
X13084436Y16887587D01*
X13084435Y16887587D01*
X13010904Y16898300D01*
X12389096Y16898300D01*
X12315565Y16887587D01*
X12315563Y16887587D01*
X12315561Y16887586D01*
X12315559Y16887585D01*
X12202142Y16832139D01*
X12112861Y16742858D01*
X12057415Y16629441D01*
X12057414Y16629439D01*
X12057413Y16629437D01*
X12057413Y16629435D01*
X12046700Y16555904D01*
X12046700Y16084096D01*
X12057413Y16010565D01*
X12057413Y16010564D01*
X12057414Y16010562D01*
X12057415Y16010560D01*
X12112861Y15897143D01*
X12112863Y15897141D01*
X12112864Y15897139D01*
X12202139Y15807864D01*
X12202140Y15807864D01*
X12202142Y15807862D01*
X12250910Y15784021D01*
X12315565Y15752413D01*
X12357574Y15746293D01*
X12410518Y15717799D01*
X12429077Y15671189D01*
X12431111Y15671593D01*
X12432800Y15663102D01*
X12432800Y15663101D01*
X12473479Y15564893D01*
X12609975Y15428397D01*
X12635386Y15373904D01*
X12619823Y15315826D01*
X12570570Y15281338D01*
X12534890Y15281335D01*
X12534655Y15279548D01*
X12528943Y15280300D01*
X11467600Y15280300D01*
X11411099Y15300865D01*
X11381035Y15352936D01*
X11379700Y15368200D01*
X11379700Y15659312D01*
X11400265Y15715813D01*
X11452336Y15745877D01*
X11454852Y15746282D01*
X11496935Y15752413D01*
X11610361Y15807864D01*
X11699636Y15897139D01*
X11755087Y16010565D01*
X11765800Y16084096D01*
X11765800Y16555904D01*
X11755087Y16629435D01*
X11718187Y16704915D01*
X11699638Y16742858D01*
X11699636Y16742860D01*
X11699636Y16742861D01*
X11610361Y16832136D01*
X11610359Y16832137D01*
X11610357Y16832139D01*
X11496940Y16887585D01*
X11496938Y16887586D01*
X11496936Y16887587D01*
X11496935Y16887587D01*
X11423404Y16898300D01*
X10801596Y16898300D01*
X10728065Y16887587D01*
X10728063Y16887587D01*
X10728061Y16887586D01*
X10728059Y16887585D01*
X10614642Y16832139D01*
X10525361Y16742858D01*
X10469915Y16629441D01*
X10469914Y16629439D01*
X10469913Y16629437D01*
X10469913Y16629435D01*
X10459200Y16555904D01*
X10459200Y16084096D01*
X10469913Y16010565D01*
X10469913Y16010564D01*
X10469914Y16010562D01*
X10469915Y16010560D01*
X10525361Y15897143D01*
X10525363Y15897141D01*
X10525364Y15897139D01*
X10614639Y15807864D01*
X10614640Y15807864D01*
X10614642Y15807862D01*
X10663410Y15784021D01*
X10728065Y15752413D01*
X10770074Y15746293D01*
X10823018Y15717799D01*
X10845261Y15661937D01*
X10845300Y15659312D01*
X10845300Y15368200D01*
X10824735Y15311699D01*
X10772664Y15281635D01*
X10757400Y15280300D01*
X10699685Y15280300D01*
X10643184Y15300865D01*
X10637541Y15306035D01*
X10635002Y15308574D01*
X10555138Y15343838D01*
X10539824Y15350600D01*
X10539821Y15350601D01*
X10516567Y15353299D01*
X10516562Y15353300D01*
X10516556Y15353300D01*
X10516549Y15353300D01*
X10230700Y15353300D01*
X10174199Y15373865D01*
X10144135Y15425936D01*
X10142800Y15441200D01*
X10142800Y15597693D01*
X10121994Y15675342D01*
X10117837Y15682542D01*
X10117836Y15682543D01*
X10083875Y15741366D01*
X10081801Y15744959D01*
X10075710Y15751050D01*
X10050299Y15805544D01*
X10065862Y15863622D01*
X10075700Y15875349D01*
X10105343Y15904991D01*
X10163342Y16018820D01*
X10178300Y16113261D01*
X10178299Y16626738D01*
X10163342Y16721180D01*
X10105343Y16835009D01*
X10015009Y16925343D01*
X9901180Y16983342D01*
X9901178Y16983343D01*
X9901177Y16983343D01*
X9842282Y16992671D01*
X9806739Y16998300D01*
X9806737Y16998300D01*
X9243263Y16998300D01*
X9243261Y16998299D01*
X9148822Y16983343D01*
X9034992Y16925344D01*
X9034991Y16925344D01*
X9034991Y16925343D01*
X9015153Y16905506D01*
X8960661Y16880095D01*
X8902583Y16895658D01*
X8868095Y16944911D01*
X8865100Y16967661D01*
X8865100Y17291209D01*
X8885665Y17347710D01*
X8937736Y17377774D01*
X8996950Y17367333D01*
X9005198Y17361933D01*
X9072660Y17312143D01*
X9194489Y17269513D01*
X9194494Y17269512D01*
X9223413Y17266801D01*
X9436100Y17266801D01*
X9436100Y17831099D01*
X9613900Y17831099D01*
X9613900Y17266802D01*
X9613901Y17266801D01*
X9826582Y17266801D01*
X9826592Y17266802D01*
X9855500Y17269512D01*
X9855513Y17269515D01*
X9977341Y17312144D01*
X10081200Y17388796D01*
X10081204Y17388800D01*
X10157857Y17492659D01*
X10200487Y17614490D01*
X10200488Y17614495D01*
X10203199Y17643413D01*
X10203200Y17643415D01*
X10203200Y17831099D01*
X10203199Y17831100D01*
X9613901Y17831100D01*
X9613900Y17831099D01*
X9436100Y17831099D01*
X9436100Y18573199D01*
X9613900Y18573199D01*
X9613900Y18008901D01*
X9613901Y18008900D01*
X10203198Y18008900D01*
X10203199Y18008901D01*
X10203199Y18196582D01*
X10203198Y18196593D01*
X10200488Y18225501D01*
X10200485Y18225514D01*
X10157856Y18347342D01*
X10081204Y18451201D01*
X10081200Y18451205D01*
X9977341Y18527858D01*
X9855510Y18570488D01*
X9855505Y18570489D01*
X9826587Y18573200D01*
X9613901Y18573200D01*
X9613900Y18573199D01*
X9436100Y18573199D01*
X9436099Y18573200D01*
X9311386Y18573200D01*
X9254885Y18593765D01*
X9224821Y18645836D01*
X9230177Y18694738D01*
X9230220Y18694843D01*
X9230221Y18694843D01*
X9270900Y18793051D01*
X9270900Y18801342D01*
X9291465Y18857843D01*
X9296645Y18863497D01*
X9394003Y18960855D01*
X9448497Y18986266D01*
X9456158Y18986600D01*
X9593842Y18986600D01*
X9650343Y18966035D01*
X9655996Y18960855D01*
X9753355Y18863497D01*
X9793373Y18823479D01*
X9891581Y18782800D01*
X9997879Y18782800D01*
X10757400Y18782800D01*
X10813901Y18762235D01*
X10843965Y18710164D01*
X10845300Y18694900D01*
X10845300Y18630689D01*
X10824735Y18574188D01*
X10772664Y18544124D01*
X10770103Y18543712D01*
X10728065Y18537587D01*
X10728063Y18537587D01*
X10728061Y18537586D01*
X10728059Y18537585D01*
X10614642Y18482139D01*
X10525361Y18392858D01*
X10469915Y18279441D01*
X10469914Y18279439D01*
X10469913Y18279437D01*
X10469913Y18279435D01*
X10459200Y18205904D01*
X10459200Y17734096D01*
X10469913Y17660565D01*
X10469913Y17660564D01*
X10469914Y17660562D01*
X10469915Y17660560D01*
X10525361Y17547143D01*
X10525363Y17547141D01*
X10525364Y17547139D01*
X10614639Y17457864D01*
X10614640Y17457864D01*
X10614642Y17457862D01*
X10715442Y17408584D01*
X10728065Y17402413D01*
X10801596Y17391700D01*
X10801600Y17391700D01*
X11423399Y17391700D01*
X11423404Y17391700D01*
X11496935Y17402413D01*
X11610361Y17457864D01*
X11699636Y17547139D01*
X11755087Y17660565D01*
X11765800Y17734096D01*
X11765800Y17881099D01*
X12021801Y17881099D01*
X12021801Y17738268D01*
X12036753Y17643854D01*
X12094737Y17530053D01*
X12185052Y17439738D01*
X12298853Y17381754D01*
X12393268Y17366801D01*
X12611100Y17366801D01*
X12611100Y17881099D01*
X12788900Y17881099D01*
X12788900Y17366802D01*
X12788901Y17366801D01*
X13006731Y17366801D01*
X13006732Y17366802D01*
X13101146Y17381754D01*
X13214947Y17439738D01*
X13305262Y17530053D01*
X13363246Y17643854D01*
X13378199Y17738269D01*
X13378200Y17738269D01*
X13378200Y17881099D01*
X13609301Y17881099D01*
X13609301Y17738268D01*
X13624253Y17643854D01*
X13682237Y17530053D01*
X13772552Y17439738D01*
X13886353Y17381754D01*
X13980768Y17366801D01*
X14198600Y17366801D01*
X14198600Y17881099D01*
X14376400Y17881099D01*
X14376400Y17366802D01*
X14376401Y17366801D01*
X14594231Y17366801D01*
X14594232Y17366802D01*
X14688646Y17381754D01*
X14802447Y17439738D01*
X14892762Y17530053D01*
X14950746Y17643854D01*
X14965699Y17738269D01*
X14965700Y17738269D01*
X14965700Y17881099D01*
X15196801Y17881099D01*
X15196801Y17738268D01*
X15211753Y17643854D01*
X15269737Y17530053D01*
X15360052Y17439738D01*
X15473853Y17381754D01*
X15568268Y17366801D01*
X15786100Y17366801D01*
X15786100Y17881099D01*
X15963900Y17881099D01*
X15963900Y17366802D01*
X15963901Y17366801D01*
X16181731Y17366801D01*
X16181732Y17366802D01*
X16276146Y17381754D01*
X16389947Y17439738D01*
X16480262Y17530053D01*
X16538246Y17643854D01*
X16553199Y17738269D01*
X16553200Y17738269D01*
X16553200Y17881099D01*
X16553199Y17881100D01*
X15963901Y17881100D01*
X15963900Y17881099D01*
X15786100Y17881099D01*
X15786099Y17881100D01*
X15196802Y17881100D01*
X15196801Y17881099D01*
X14965700Y17881099D01*
X14965699Y17881100D01*
X14376401Y17881100D01*
X14376400Y17881099D01*
X14198600Y17881099D01*
X14198599Y17881100D01*
X13609302Y17881100D01*
X13609301Y17881099D01*
X13378200Y17881099D01*
X13378199Y17881100D01*
X12788901Y17881100D01*
X12788900Y17881099D01*
X12611100Y17881099D01*
X12611099Y17881100D01*
X12021802Y17881100D01*
X12021801Y17881099D01*
X11765800Y17881099D01*
X11765800Y18201732D01*
X12021800Y18201732D01*
X12021800Y18058901D01*
X12021801Y18058900D01*
X12611099Y18058900D01*
X12611100Y18058901D01*
X12611100Y18573199D01*
X12788900Y18573199D01*
X12788900Y18058901D01*
X12788901Y18058900D01*
X13378198Y18058900D01*
X13378199Y18058901D01*
X13378199Y18201731D01*
X13378198Y18201732D01*
X13609300Y18201732D01*
X13609300Y18058901D01*
X13609301Y18058900D01*
X14198599Y18058900D01*
X14198600Y18058901D01*
X14198600Y18573199D01*
X14376400Y18573199D01*
X14376400Y18058901D01*
X14376401Y18058900D01*
X14965698Y18058900D01*
X14965699Y18058901D01*
X14965699Y18201731D01*
X14965698Y18201732D01*
X15196800Y18201732D01*
X15196800Y18058901D01*
X15196801Y18058900D01*
X15786099Y18058900D01*
X15786100Y18058901D01*
X15786100Y18573199D01*
X15963900Y18573199D01*
X15963900Y18058901D01*
X15963901Y18058900D01*
X16553198Y18058900D01*
X16553199Y18058901D01*
X16553199Y18201731D01*
X16553198Y18201733D01*
X16538246Y18296147D01*
X16480262Y18409948D01*
X16389947Y18500263D01*
X16276146Y18558247D01*
X16181732Y18573200D01*
X15963901Y18573200D01*
X15963900Y18573199D01*
X15786100Y18573199D01*
X15786099Y18573200D01*
X15568269Y18573200D01*
X15568266Y18573199D01*
X15473853Y18558247D01*
X15360052Y18500263D01*
X15269737Y18409948D01*
X15211753Y18296147D01*
X15196800Y18201732D01*
X14965698Y18201732D01*
X14965698Y18201733D01*
X14950746Y18296147D01*
X14892762Y18409948D01*
X14802447Y18500263D01*
X14688646Y18558247D01*
X14594232Y18573200D01*
X14376401Y18573200D01*
X14376400Y18573199D01*
X14198600Y18573199D01*
X14198599Y18573200D01*
X13980769Y18573200D01*
X13980766Y18573199D01*
X13886353Y18558247D01*
X13772552Y18500263D01*
X13682237Y18409948D01*
X13624253Y18296147D01*
X13609300Y18201732D01*
X13378198Y18201732D01*
X13378198Y18201733D01*
X13363246Y18296147D01*
X13305262Y18409948D01*
X13214947Y18500263D01*
X13101146Y18558247D01*
X13006732Y18573200D01*
X12788901Y18573200D01*
X12788900Y18573199D01*
X12611100Y18573199D01*
X12611099Y18573200D01*
X12393269Y18573200D01*
X12393266Y18573199D01*
X12298853Y18558247D01*
X12185052Y18500263D01*
X12094737Y18409948D01*
X12036753Y18296147D01*
X12021800Y18201732D01*
X11765800Y18201732D01*
X11765800Y18205904D01*
X11755087Y18279435D01*
X11721889Y18347342D01*
X11699638Y18392858D01*
X11699636Y18392860D01*
X11699636Y18392861D01*
X11610361Y18482136D01*
X11610359Y18482137D01*
X11610357Y18482139D01*
X11496940Y18537585D01*
X11496938Y18537586D01*
X11496936Y18537587D01*
X11496935Y18537587D01*
X11454924Y18543708D01*
X11401981Y18572204D01*
X11379739Y18628066D01*
X11379700Y18630689D01*
X11379700Y18694900D01*
X11400265Y18751401D01*
X11452336Y18781465D01*
X11467600Y18782800D01*
X12333418Y18782800D01*
X12333419Y18782800D01*
X12431627Y18823479D01*
X12527709Y18919561D01*
X12569004Y18960855D01*
X12623497Y18986266D01*
X12631158Y18986600D01*
X13172218Y18986600D01*
X13172219Y18986600D01*
X13270427Y19027279D01*
X14270203Y20027055D01*
X14324697Y20052466D01*
X14332358Y20052800D01*
X16245648Y20052800D01*
X16245649Y20052800D01*
X16343857Y20093479D01*
X16736521Y20486143D01*
X16777200Y20584351D01*
X16777200Y20690649D01*
X16777200Y22974231D01*
X16778577Y22978013D01*
X21059500Y22978013D01*
X21059500Y22741988D01*
X21082216Y22569446D01*
X21090307Y22507986D01*
X21151394Y22280007D01*
X21194005Y22177136D01*
X21241713Y22061957D01*
X21241714Y22061955D01*
X21241716Y22061951D01*
X21300584Y21959988D01*
X21359728Y21857548D01*
X21483198Y21696639D01*
X21503408Y21670301D01*
X21670301Y21503408D01*
X21857550Y21359727D01*
X22061951Y21241716D01*
X22280007Y21151394D01*
X22507986Y21090307D01*
X22687541Y21066669D01*
X22741987Y21059500D01*
X22741989Y21059500D01*
X22978013Y21059500D01*
X23026784Y21065922D01*
X23212014Y21090307D01*
X23439993Y21151394D01*
X23658049Y21241716D01*
X23862450Y21359727D01*
X24049699Y21503408D01*
X24216592Y21670301D01*
X24360273Y21857550D01*
X24478284Y22061951D01*
X24568606Y22280007D01*
X24629693Y22507986D01*
X24656915Y22714766D01*
X24660500Y22741988D01*
X24660500Y22978013D01*
X24641171Y23124830D01*
X24629693Y23212014D01*
X24568606Y23439993D01*
X24478284Y23658049D01*
X24387580Y23815152D01*
X24377140Y23874364D01*
X24407204Y23926435D01*
X24463705Y23947000D01*
X24519460Y23947000D01*
X24519461Y23947000D01*
X24657553Y23987547D01*
X24778628Y24065357D01*
X24872877Y24174127D01*
X24932665Y24305043D01*
X24943131Y24377833D01*
X24953147Y24447497D01*
X24953147Y24447504D01*
X24932666Y24589951D01*
X24932665Y24589952D01*
X24932665Y24589957D01*
X24872877Y24720873D01*
X24778628Y24829643D01*
X24778626Y24829644D01*
X24778624Y24829646D01*
X24657554Y24907453D01*
X24657550Y24907454D01*
X24519467Y24947999D01*
X24519461Y24948000D01*
X24375539Y24948000D01*
X24375538Y24948000D01*
X24375532Y24947999D01*
X24237449Y24907454D01*
X24237445Y24907453D01*
X24116375Y24829646D01*
X24116370Y24829642D01*
X24022122Y24720872D01*
X23962335Y24589957D01*
X23962333Y24589951D01*
X23942669Y24453180D01*
X23914273Y24400180D01*
X23858453Y24377833D01*
X23811715Y24389565D01*
X23658049Y24478284D01*
X23658047Y24478285D01*
X23658045Y24478286D01*
X23658043Y24478287D01*
X23519594Y24535634D01*
X23439993Y24568606D01*
X23360333Y24589951D01*
X23212026Y24629690D01*
X23212014Y24629693D01*
X22978013Y24660500D01*
X22978011Y24660500D01*
X22741989Y24660500D01*
X22741987Y24660500D01*
X22507985Y24629693D01*
X22507973Y24629690D01*
X22280013Y24568608D01*
X22280009Y24568607D01*
X22280007Y24568606D01*
X22280005Y24568605D01*
X22061956Y24478287D01*
X22061954Y24478286D01*
X21857547Y24360272D01*
X21670304Y24216595D01*
X21503405Y24049696D01*
X21359728Y23862453D01*
X21241714Y23658046D01*
X21241713Y23658044D01*
X21151395Y23439995D01*
X21151392Y23439987D01*
X21090310Y23212027D01*
X21090307Y23212015D01*
X21059500Y22978013D01*
X16778577Y22978013D01*
X16797765Y23030732D01*
X16833347Y23056195D01*
X16896275Y23080574D01*
X17010515Y23124830D01*
X17186692Y23233914D01*
X17339826Y23373514D01*
X17464700Y23538875D01*
X17557064Y23724365D01*
X17613771Y23923670D01*
X17632890Y24130000D01*
X17613771Y24336330D01*
X17601962Y24377833D01*
X17580524Y24453180D01*
X17557064Y24535635D01*
X17464700Y24721125D01*
X17339826Y24886486D01*
X17255837Y24963052D01*
X17186694Y25026085D01*
X17186685Y25026091D01*
X17010517Y25135169D01*
X17010511Y25135172D01*
X16817296Y25210023D01*
X16817284Y25210027D01*
X16733453Y25225697D01*
X16681693Y25256293D01*
X16661710Y25313002D01*
X16682853Y25369289D01*
X16735231Y25398817D01*
X16749605Y25400000D01*
X25312100Y25400000D01*
X25368601Y25379435D01*
G37*
%TD.AperFunction*%
%TD*%
M02*
