%TF.GenerationSoftware,KiCad,Pcbnew,8.0.6*%
%TF.CreationDate,2024-11-09T20:31:53-07:00*%
%TF.ProjectId,SparkFun_Qwiic_Navigation,53706172-6b46-4756-9e5f-51776969635f,rev?*%
%TF.SameCoordinates,Original*%
%TF.FileFunction,Paste,Bot*%
%TF.FilePolarity,Positive*%
%FSLAX46Y46*%
G04 Gerber Fmt 4.6, Leading zero omitted, Abs format (unit mm)*
G04 Created by KiCad (PCBNEW 8.0.6) date 2024-11-09 20:31:53*
%MOMM*%
%LPD*%
G01*
G04 APERTURE LIST*
G04 Aperture macros list*
%AMRoundRect*
0 Rectangle with rounded corners*
0 $1 Rounding radius*
0 $2 $3 $4 $5 $6 $7 $8 $9 X,Y pos of 4 corners*
0 Add a 4 corners polygon primitive as box body*
4,1,4,$2,$3,$4,$5,$6,$7,$8,$9,$2,$3,0*
0 Add four circle primitives for the rounded corners*
1,1,$1+$1,$2,$3*
1,1,$1+$1,$4,$5*
1,1,$1+$1,$6,$7*
1,1,$1+$1,$8,$9*
0 Add four rect primitives between the rounded corners*
20,1,$1+$1,$2,$3,$4,$5,0*
20,1,$1+$1,$4,$5,$6,$7,0*
20,1,$1+$1,$6,$7,$8,$9,0*
20,1,$1+$1,$8,$9,$2,$3,0*%
G04 Aperture macros list end*
%ADD10RoundRect,0.200000X-0.200000X-0.275000X0.200000X-0.275000X0.200000X0.275000X-0.200000X0.275000X0*%
%ADD11RoundRect,0.200000X-0.275000X0.200000X-0.275000X-0.200000X0.275000X-0.200000X0.275000X0.200000X0*%
%ADD12R,1.350000X0.600000*%
%ADD13R,2.000000X1.200000*%
%ADD14RoundRect,0.225000X0.250000X-0.225000X0.250000X0.225000X-0.250000X0.225000X-0.250000X-0.225000X0*%
%ADD15RoundRect,0.100000X0.637500X0.100000X-0.637500X0.100000X-0.637500X-0.100000X0.637500X-0.100000X0*%
%ADD16RoundRect,0.200000X0.200000X0.275000X-0.200000X0.275000X-0.200000X-0.275000X0.200000X-0.275000X0*%
%ADD17RoundRect,0.218750X-0.256250X0.218750X-0.256250X-0.218750X0.256250X-0.218750X0.256250X0.218750X0*%
%ADD18R,0.800000X0.700000*%
G04 APERTURE END LIST*
D10*
%TO.C,R14*%
X5525000Y21590000D03*
X7175000Y21590000D03*
%TD*%
D11*
%TO.C,R8*%
X12700000Y8445000D03*
X12700000Y6795000D03*
%TD*%
D12*
%TO.C,J1*%
X20637500Y14200000D03*
X20637500Y13200000D03*
X20637500Y12200000D03*
X20637500Y11200000D03*
D13*
X24312500Y9900000D03*
X24312500Y15500000D03*
%TD*%
D12*
%TO.C,J3*%
X4762500Y11200000D03*
X4762500Y12200000D03*
X4762500Y13200000D03*
X4762500Y14200000D03*
D13*
X1087500Y15500000D03*
X1087500Y9900000D03*
%TD*%
D14*
%TO.C,C1*%
X9525000Y16370000D03*
X9525000Y17920000D03*
%TD*%
D15*
%TO.C,U4*%
X15562500Y14975000D03*
X15562500Y14325000D03*
X15562500Y13675000D03*
X15562500Y13025000D03*
X15562500Y12375000D03*
X15562500Y11725000D03*
X15562500Y11075000D03*
X15562500Y10425000D03*
X9837500Y10425000D03*
X9837500Y11075000D03*
X9837500Y11725000D03*
X9837500Y12375000D03*
X9837500Y13025000D03*
X9837500Y13675000D03*
X9837500Y14325000D03*
X9837500Y14975000D03*
%TD*%
D11*
%TO.C,R12*%
X9525000Y8445000D03*
X9525000Y6795000D03*
%TD*%
D16*
%TO.C,R13*%
X2730000Y6032500D03*
X1080000Y6032500D03*
%TD*%
D17*
%TO.C,D1*%
X20637500Y8407500D03*
X20637500Y6832500D03*
%TD*%
D11*
%TO.C,R3*%
X12700000Y17970000D03*
X12700000Y16320000D03*
%TD*%
%TO.C,R6*%
X1270000Y18922500D03*
X1270000Y17272500D03*
%TD*%
%TO.C,R4*%
X11112500Y17970000D03*
X11112500Y16320000D03*
%TD*%
%TO.C,R11*%
X14287500Y8445000D03*
X14287500Y6795000D03*
%TD*%
D10*
%TO.C,R15*%
X5525000Y20002500D03*
X7175000Y20002500D03*
%TD*%
D11*
%TO.C,R2*%
X14287500Y17970000D03*
X14287500Y16320000D03*
%TD*%
D16*
%TO.C,R7*%
X2730000Y7937500D03*
X1080000Y7937500D03*
%TD*%
D18*
%TO.C,D2*%
X3530000Y17547500D03*
X3530000Y18647500D03*
X6630000Y18647500D03*
X6630000Y17547500D03*
%TD*%
D11*
%TO.C,R5*%
X22225000Y8445000D03*
X22225000Y6795000D03*
%TD*%
%TO.C,R10*%
X15875000Y8445000D03*
X15875000Y6795000D03*
%TD*%
%TO.C,R9*%
X11112500Y8445000D03*
X11112500Y6795000D03*
%TD*%
%TO.C,R1*%
X15875000Y17970000D03*
X15875000Y16320000D03*
%TD*%
M02*
