%TF.GenerationSoftware,KiCad,Pcbnew,8.0.6*%
%TF.CreationDate,2024-11-09T20:31:53-07:00*%
%TF.ProjectId,SparkFun_Qwiic_Navigation,53706172-6b46-4756-9e5f-51776969635f,rev?*%
%TF.SameCoordinates,Original*%
%TF.FileFunction,Copper,L1,Top*%
%TF.FilePolarity,Positive*%
%FSLAX46Y46*%
G04 Gerber Fmt 4.6, Leading zero omitted, Abs format (unit mm)*
G04 Created by KiCad (PCBNEW 8.0.6) date 2024-11-09 20:31:53*
%MOMM*%
%LPD*%
G01*
G04 APERTURE LIST*
G04 Aperture macros list*
%AMRotRect*
0 Rectangle, with rotation*
0 The origin of the aperture is its center*
0 $1 length*
0 $2 width*
0 $3 Rotation angle, in degrees counterclockwise*
0 Add horizontal line*
21,1,$1,$2,0,0,$3*%
G04 Aperture macros list end*
%TA.AperFunction,SMDPad,CuDef*%
%ADD10C,0.500000*%
%TD*%
%TA.AperFunction,SMDPad,CuDef*%
%ADD11RotRect,1.400000X1.100000X225.000000*%
%TD*%
%TA.AperFunction,SMDPad,CuDef*%
%ADD12RotRect,2.000000X1.800000X225.000000*%
%TD*%
%TA.AperFunction,ComponentPad*%
%ADD13C,1.879600*%
%TD*%
%TA.AperFunction,ViaPad*%
%ADD14C,0.560000*%
%TD*%
%TA.AperFunction,Conductor*%
%ADD15C,0.152400*%
%TD*%
%TA.AperFunction,Conductor*%
%ADD16C,0.177800*%
%TD*%
%TA.AperFunction,Conductor*%
%ADD17C,0.406400*%
%TD*%
%TA.AperFunction,Conductor*%
%ADD18C,0.254000*%
%TD*%
G04 APERTURE END LIST*
D10*
%TO.P,FID3,*%
%TO.N,*%
X952500Y952500D03*
%TD*%
%TO.P,FID4,*%
%TO.N,*%
X24447500Y24447500D03*
%TD*%
D11*
%TO.P,SW2,1,Up*%
%TO.N,SW_Up*%
X9376598Y11356497D03*
%TO.P,SW2,2,Center*%
%TO.N,SW_Center*%
X10366548Y10366548D03*
%TO.P,SW2,3,Left*%
%TO.N,SW_Left*%
X11356497Y9376598D03*
%TO.P,SW2,4,Right*%
%TO.N,SW_Right*%
X14043503Y16023402D03*
%TO.P,SW2,5,GND*%
%TO.N,GND*%
X15033452Y15033452D03*
%TO.P,SW2,6,Down*%
%TO.N,SW_Down*%
X16023402Y14043503D03*
D12*
%TO.P,SW2,MP1,MP1*%
%TO.N,unconnected-(SW2-PadMP1)*%
X9836218Y15563782D03*
%TO.P,SW2,MP2,MP2*%
%TO.N,unconnected-(SW2-PadMP2)*%
X15563782Y9836218D03*
%TD*%
D13*
%TO.P,J5,1,Pin_1*%
%TO.N,GND*%
X8890000Y1270000D03*
%TO.P,J5,2,Pin_2*%
%TO.N,3.3V*%
X11430000Y1270000D03*
%TO.P,J5,3,Pin_3*%
%TO.N,SDA*%
X13970000Y1270000D03*
%TO.P,J5,4,Pin_4*%
%TO.N,SCL*%
X16510000Y1270000D03*
%TD*%
%TO.P,J2,1,Pin_1*%
%TO.N,IO5{slash}Blue*%
X8890000Y24130000D03*
%TO.P,J2,2,Pin_2*%
%TO.N,IO6{slash}Green*%
X11430000Y24130000D03*
%TO.P,J2,3,Pin_3*%
%TO.N,IO7{slash}Red*%
X13970000Y24130000D03*
%TO.P,J2,4,Pin_4*%
%TO.N,~{INT}*%
X16510000Y24130000D03*
%TD*%
D14*
%TO.N,SCL*%
X8458800Y13766848D03*
%TO.N,SDA*%
X8458800Y14605000D03*
%TO.N,GND*%
X20637500Y9525000D03*
X18732500Y21907500D03*
X15875000Y19685000D03*
X3492500Y11112500D03*
X18427391Y13100110D03*
X18415000Y9525000D03*
X22225000Y10477500D03*
X14287500Y19685000D03*
X8258202Y7942185D03*
X6667500Y3175000D03*
X18732500Y3175000D03*
X6350000Y23495000D03*
X10318750Y17303750D03*
X6032500Y16192500D03*
X21907500Y14287500D03*
X16986250Y17145000D03*
%TO.N,3.3V*%
X13335000Y14128750D03*
X6032500Y12382500D03*
X23177500Y19050000D03*
X22225000Y13017500D03*
%TO.N,SCL*%
X3492500Y14287500D03*
X22542500Y14922500D03*
X19685000Y9842500D03*
%TO.N,SDA*%
X19050000Y10477500D03*
X19050000Y14693300D03*
X3175000Y13335000D03*
%TO.N,SW_Down*%
X16986250Y13018100D03*
%TO.N,SW_Up*%
X12382500Y11746900D03*
%TO.N,SW_Right*%
X17719865Y13183323D03*
%TO.N,SW_Left*%
X13811250Y10318750D03*
%TO.N,SW_Center*%
X8255000Y8890000D03*
%TO.N,Net-(JP5-A)*%
X1270000Y20002500D03*
X7302500Y22542500D03*
%TO.N,Net-(JP7-A)*%
X4445000Y20714903D03*
X10795000Y20206300D03*
%TO.N,Net-(JP8-A)*%
X12962353Y19834313D03*
X4445000Y20002500D03*
%TD*%
D15*
%TO.N,SW_Right*%
X17719865Y14574426D02*
X17719865Y13183323D01*
X14847601Y16827500D02*
X15466791Y16827500D01*
X15466791Y16827500D02*
X17719865Y14574426D01*
X14043503Y16023402D02*
X14847601Y16827500D01*
D16*
%TO.N,GND*%
X15033452Y15033452D02*
X14287500Y14287500D01*
D17*
%TO.N,3.3V*%
X10795000Y12700000D02*
X11112500Y12382500D01*
X6350000Y12700000D02*
X10795000Y12700000D01*
X6032500Y12382500D02*
X6350000Y12700000D01*
X11112500Y12382500D02*
X13335000Y12382500D01*
D15*
%TO.N,SDA*%
X9048750Y14015050D02*
X8458800Y14605000D01*
X8939603Y13234420D02*
X9048750Y13343567D01*
X3275580Y13234420D02*
X8939603Y13234420D01*
X3175000Y13335000D02*
X3275580Y13234420D01*
X9048750Y13343567D02*
X9048750Y14015050D01*
D16*
%TO.N,SCL*%
X8458800Y13766848D02*
X7143750Y13766848D01*
D15*
%TO.N,SW_Up*%
X12381900Y11747500D02*
X9767601Y11747500D01*
X12382500Y11746900D02*
X12381900Y11747500D01*
X9767601Y11747500D02*
X9376598Y11356497D01*
%TO.N,SW_Left*%
X12298649Y10318750D02*
X11356497Y9376598D01*
X13811250Y10318750D02*
X12298649Y10318750D01*
D16*
%TO.N,SDA*%
X7778750Y17780000D02*
X7778750Y15285050D01*
X19050000Y17621250D02*
X17951450Y18719800D01*
X17951450Y18719800D02*
X8718550Y18719800D01*
X8718550Y18719800D02*
X7778750Y17780000D01*
X7778750Y15285050D02*
X8458800Y14605000D01*
X19050000Y14693300D02*
X19050000Y17621250D01*
D18*
%TO.N,3.3V*%
X13335000Y14128750D02*
X13335000Y12382500D01*
D17*
X13335000Y12382500D02*
X21590000Y12382500D01*
D16*
%TO.N,SCL*%
X7143750Y17621250D02*
X7143750Y13766848D01*
X8572500Y19050000D02*
X7143750Y17621250D01*
X18415000Y19050000D02*
X8572500Y19050000D01*
X22542500Y14922500D02*
X18415000Y19050000D01*
X7143750Y13766848D02*
X6350000Y13766848D01*
%TO.N,3.3V*%
X22225000Y13017500D02*
X23177500Y13970000D01*
X23177500Y13970000D02*
X23177500Y19050000D01*
D17*
X21590000Y12382500D02*
X22225000Y13017500D01*
D16*
%TO.N,SCL*%
X4013152Y13766848D02*
X3492500Y14287500D01*
X19685000Y7302500D02*
X19685000Y9842500D01*
X6350000Y13766848D02*
X4013152Y13766848D01*
X16510000Y4127500D02*
X19685000Y7302500D01*
X16510000Y1270000D02*
X16510000Y4127500D01*
%TO.N,SDA*%
X13970000Y2222500D02*
X19050000Y7302500D01*
X19050000Y7302500D02*
X19050000Y10477500D01*
X13970000Y1270000D02*
X13970000Y2222500D01*
D15*
%TO.N,SW_Down*%
X16023402Y13980948D02*
X16986250Y13018100D01*
X16023402Y14043503D02*
X16023402Y13980948D01*
%TO.N,SW_Center*%
X10366548Y10366548D02*
X8890000Y8890000D01*
X8890000Y8890000D02*
X8255000Y8890000D01*
%TO.N,Net-(JP5-A)*%
X2335847Y20002500D02*
X3605847Y21272500D01*
X3605847Y21272500D02*
X6667500Y21272500D01*
X1270000Y20002500D02*
X2335847Y20002500D01*
X7302500Y21907500D02*
X7302500Y22542500D01*
X6667500Y21272500D02*
X7302500Y21907500D01*
%TO.N,Net-(JP7-A)*%
X10795000Y20206300D02*
X10286397Y20714903D01*
X10286397Y20714903D02*
X4445000Y20714903D01*
%TO.N,Net-(JP8-A)*%
X12962353Y19834313D02*
X12813040Y19685000D01*
X12813040Y19685000D02*
X4762500Y19685000D01*
X4762500Y19685000D02*
X4445000Y20002500D01*
%TD*%
%TA.AperFunction,Conductor*%
%TO.N,GND*%
G36*
X17860863Y18432035D02*
G01*
X17866517Y18426855D01*
X18757055Y17536317D01*
X18782466Y17481823D01*
X18782800Y17474162D01*
X18782800Y15114361D01*
X18762235Y15057860D01*
X18751000Y15047967D01*
X18751543Y15047340D01*
X18746792Y15043224D01*
X18660488Y14943623D01*
X18605742Y14823746D01*
X18605740Y14823740D01*
X18586987Y14693304D01*
X18586987Y14693297D01*
X18605740Y14562861D01*
X18605741Y14562856D01*
X18605742Y14562854D01*
X18611649Y14549920D01*
X18660489Y14442975D01*
X18687138Y14412221D01*
X18746791Y14343378D01*
X18746793Y14343377D01*
X18746794Y14343376D01*
X18857653Y14272131D01*
X18857654Y14272131D01*
X18857657Y14272129D01*
X18943782Y14246841D01*
X18984101Y14235001D01*
X18984104Y14235001D01*
X18984106Y14235000D01*
X18984107Y14235000D01*
X19115893Y14235000D01*
X19115894Y14235000D01*
X19115896Y14235001D01*
X19115898Y14235001D01*
X19130927Y14239415D01*
X19242343Y14272129D01*
X19353209Y14343378D01*
X19439511Y14442976D01*
X19494258Y14562854D01*
X19501147Y14610769D01*
X19513013Y14693297D01*
X19513013Y14693304D01*
X19494259Y14823740D01*
X19494258Y14823741D01*
X19494258Y14823746D01*
X19439511Y14943624D01*
X19353209Y15043222D01*
X19353208Y15043223D01*
X19353207Y15043224D01*
X19348457Y15047340D01*
X19350505Y15049705D01*
X19321162Y15088269D01*
X19317200Y15114361D01*
X19317200Y17557712D01*
X19337765Y17614213D01*
X19389836Y17644277D01*
X19449050Y17633836D01*
X19467255Y17619867D01*
X22059076Y15028046D01*
X22084487Y14973552D01*
X22083927Y14953384D01*
X22079487Y14922498D01*
X22079487Y14922497D01*
X22098240Y14792061D01*
X22098242Y14792055D01*
X22152989Y14672175D01*
X22166960Y14656052D01*
X22239291Y14572578D01*
X22239293Y14572577D01*
X22239294Y14572576D01*
X22350153Y14501331D01*
X22350154Y14501331D01*
X22350157Y14501329D01*
X22427326Y14478670D01*
X22476601Y14464201D01*
X22476604Y14464201D01*
X22476606Y14464200D01*
X22476607Y14464200D01*
X22608393Y14464200D01*
X22608394Y14464200D01*
X22608396Y14464201D01*
X22608398Y14464201D01*
X22624768Y14469008D01*
X22734843Y14501329D01*
X22774878Y14527059D01*
X22833527Y14540305D01*
X22886970Y14512754D01*
X22910200Y14457295D01*
X22910300Y14453112D01*
X22910300Y14117089D01*
X22889735Y14060588D01*
X22884555Y14054934D01*
X22331166Y13501545D01*
X22276672Y13476134D01*
X22269011Y13475800D01*
X22159101Y13475800D01*
X22032657Y13438671D01*
X22032653Y13438670D01*
X21921794Y13367425D01*
X21921789Y13367420D01*
X21835489Y13267826D01*
X21780742Y13147947D01*
X21778998Y13135816D01*
X21754148Y13086174D01*
X21457722Y12789746D01*
X21403228Y12764335D01*
X21395567Y12764000D01*
X18155411Y12764000D01*
X18098910Y12784565D01*
X18068846Y12836636D01*
X18079287Y12895850D01*
X18088976Y12909457D01*
X18109376Y12932999D01*
X18164123Y13052877D01*
X18168910Y13086174D01*
X18182878Y13183320D01*
X18182878Y13183327D01*
X18164124Y13313763D01*
X18164123Y13313764D01*
X18164123Y13313769D01*
X18109376Y13433647D01*
X18023074Y13533245D01*
X18023073Y13533246D01*
X18023072Y13533247D01*
X18014741Y13538601D01*
X17978329Y13586448D01*
X17974365Y13612546D01*
X17974365Y14513564D01*
X17974366Y14513573D01*
X17974366Y14625050D01*
X17935621Y14718587D01*
X17935620Y14718588D01*
X17935620Y14718589D01*
X15610954Y17043255D01*
X15610952Y17043256D01*
X15610951Y17043257D01*
X15517415Y17082000D01*
X15517414Y17082000D01*
X14796978Y17082000D01*
X14796976Y17082000D01*
X14703440Y17043257D01*
X14703436Y17043254D01*
X14631845Y16971664D01*
X14631846Y16971663D01*
X14631845Y16971662D01*
X14631844Y16971662D01*
X14546749Y16886568D01*
X14492255Y16861157D01*
X14434177Y16876720D01*
X14422441Y16886568D01*
X14263231Y17045777D01*
X14263230Y17045778D01*
X14263229Y17045779D01*
X14219138Y17075240D01*
X14219137Y17075241D01*
X14149569Y17089078D01*
X14079999Y17075240D01*
X14035915Y17045786D01*
X13021126Y16030996D01*
X12991664Y15986905D01*
X12977827Y15917337D01*
X12977827Y15917336D01*
X12991664Y15847768D01*
X12991665Y15847767D01*
X13021125Y15803676D01*
X13823777Y15001025D01*
X13867868Y14971564D01*
X13878703Y14969409D01*
X13930106Y14938217D01*
X13947766Y14900347D01*
X13958158Y14848103D01*
X13991731Y14797856D01*
X14331930Y14457657D01*
X14971296Y15097022D01*
X15025790Y15122433D01*
X15083868Y15106871D01*
X15095606Y15097022D01*
X15097021Y15095607D01*
X15122432Y15041113D01*
X15106869Y14983035D01*
X15097021Y14971297D01*
X14457655Y14331932D01*
X14797855Y13991732D01*
X14848103Y13958158D01*
X14900344Y13947767D01*
X14951748Y13916575D01*
X14969407Y13878707D01*
X14971562Y13867871D01*
X14971563Y13867869D01*
X14971564Y13867868D01*
X15001024Y13823777D01*
X15803676Y13021126D01*
X15847767Y12991665D01*
X15917336Y12977827D01*
X15986905Y12991665D01*
X16030996Y13021125D01*
X16264996Y13255127D01*
X16319490Y13280537D01*
X16377568Y13264974D01*
X16389306Y13255126D01*
X16505084Y13139348D01*
X16530495Y13084854D01*
X16529934Y13064684D01*
X16523237Y13018103D01*
X16523237Y13018097D01*
X16541990Y12887661D01*
X16543763Y12881624D01*
X16542219Y12881171D01*
X16546411Y12828480D01*
X16511535Y12779501D01*
X16461688Y12764000D01*
X13728200Y12764000D01*
X13671699Y12784565D01*
X13641635Y12836636D01*
X13640300Y12851900D01*
X13640300Y13748458D01*
X13660865Y13804959D01*
X13661694Y13805933D01*
X13724511Y13878426D01*
X13779258Y13998304D01*
X13785035Y14038486D01*
X13798013Y14128747D01*
X13798013Y14128754D01*
X13779259Y14259192D01*
X13779258Y14259194D01*
X13779258Y14259196D01*
X13724511Y14379074D01*
X13724510Y14379075D01*
X13724510Y14379076D01*
X13671494Y14440259D01*
X13638209Y14478672D01*
X13638206Y14478674D01*
X13638205Y14478675D01*
X13527346Y14549920D01*
X13527343Y14549921D01*
X13483298Y14562854D01*
X13400898Y14587050D01*
X13400894Y14587050D01*
X13269106Y14587050D01*
X13269101Y14587050D01*
X13142657Y14549921D01*
X13142653Y14549920D01*
X13031794Y14478675D01*
X13031789Y14478670D01*
X12945489Y14379076D01*
X12890742Y14259196D01*
X12890741Y14259192D01*
X12871987Y14128754D01*
X12871987Y14128747D01*
X12890740Y13998311D01*
X12890741Y13998306D01*
X12890742Y13998304D01*
X12945489Y13878426D01*
X13008231Y13806019D01*
X13029689Y13749853D01*
X13029700Y13748458D01*
X13029700Y12851900D01*
X13009135Y12795399D01*
X12957064Y12765335D01*
X12941800Y12764000D01*
X11306933Y12764000D01*
X11250432Y12784565D01*
X11244778Y12789745D01*
X11029248Y13005275D01*
X11029247Y13005276D01*
X10942254Y13055501D01*
X10942253Y13055502D01*
X10942250Y13055503D01*
X10845225Y13081500D01*
X9347219Y13081500D01*
X9290718Y13102065D01*
X9260654Y13154136D01*
X9266010Y13203037D01*
X9287585Y13255126D01*
X9303250Y13292944D01*
X9303250Y14065673D01*
X9277121Y14128754D01*
X9264506Y14159211D01*
X9264505Y14159212D01*
X9264505Y14159213D01*
X9192913Y14230805D01*
X9192911Y14230806D01*
X8939965Y14483752D01*
X8914554Y14538246D01*
X8915115Y14558418D01*
X8922708Y14611224D01*
X8925874Y14610769D01*
X8942378Y14656112D01*
X8994449Y14686176D01*
X9053663Y14675735D01*
X9071864Y14661769D01*
X9354558Y14379076D01*
X9651850Y14081784D01*
X9676299Y14065447D01*
X9695938Y14052324D01*
X9765507Y14038486D01*
X9835077Y14052324D01*
X9879167Y14081784D01*
X9919943Y14122560D01*
X10755997Y14122560D01*
X10755997Y13964447D01*
X10796918Y13811723D01*
X10796919Y13811720D01*
X10796920Y13811719D01*
X10875977Y13674787D01*
X10987781Y13562983D01*
X11124713Y13483926D01*
X11124715Y13483926D01*
X11124716Y13483925D01*
X11277440Y13443003D01*
X11435553Y13443003D01*
X11435554Y13443003D01*
X11588281Y13483926D01*
X11725213Y13562983D01*
X11837017Y13674787D01*
X11916074Y13811719D01*
X11956997Y13964446D01*
X11956997Y14122560D01*
X11916074Y14275287D01*
X11837017Y14412219D01*
X11725213Y14524023D01*
X11588281Y14603080D01*
X11588280Y14603081D01*
X11588277Y14603082D01*
X11435554Y14644003D01*
X11277440Y14644003D01*
X11124716Y14603082D01*
X10987779Y14524022D01*
X10875978Y14412221D01*
X10796918Y14275284D01*
X10755997Y14122560D01*
X9919943Y14122560D01*
X11318214Y15520833D01*
X11347676Y15564923D01*
X11361514Y15634493D01*
X11347676Y15704062D01*
X11318216Y15748152D01*
X10020588Y17045778D01*
X10020587Y17045779D01*
X10020586Y17045780D01*
X10020585Y17045781D01*
X9976498Y17075240D01*
X9976497Y17075241D01*
X9906929Y17089078D01*
X9837359Y17075241D01*
X9793271Y17045782D01*
X8354220Y15606730D01*
X8354219Y15606729D01*
X8324760Y15562642D01*
X8324759Y15562641D01*
X8310922Y15493072D01*
X8310922Y15493071D01*
X8324759Y15423503D01*
X8324760Y15423502D01*
X8354220Y15379412D01*
X8520278Y15213354D01*
X8545689Y15158861D01*
X8530126Y15100783D01*
X8480873Y15066295D01*
X8458123Y15063300D01*
X8414788Y15063300D01*
X8358287Y15083865D01*
X8352633Y15089045D01*
X8071695Y15369983D01*
X8046284Y15424477D01*
X8045950Y15432138D01*
X8045950Y17632912D01*
X8066515Y17689413D01*
X8071695Y17695067D01*
X8803483Y18426855D01*
X8857977Y18452266D01*
X8865638Y18452600D01*
X17804362Y18452600D01*
X17860863Y18432035D01*
G37*
%TD.AperFunction*%
%TA.AperFunction,Conductor*%
G36*
X8706896Y25379435D02*
G01*
X8736960Y25327364D01*
X8726519Y25268150D01*
X8680459Y25229501D01*
X8666547Y25225697D01*
X8582715Y25210027D01*
X8582703Y25210023D01*
X8389488Y25135172D01*
X8389482Y25135169D01*
X8213314Y25026091D01*
X8213305Y25026085D01*
X8060173Y24886485D01*
X7935302Y24721129D01*
X7935300Y24721126D01*
X7935300Y24721125D01*
X7859354Y24568605D01*
X7842936Y24535634D01*
X7842934Y24535629D01*
X7786229Y24336335D01*
X7786229Y24336334D01*
X7767110Y24130001D01*
X7767110Y24130000D01*
X7786229Y23923667D01*
X7786229Y23923666D01*
X7842934Y23724372D01*
X7842936Y23724365D01*
X7935300Y23538875D01*
X8060174Y23373514D01*
X8151584Y23290182D01*
X8213305Y23233916D01*
X8213314Y23233910D01*
X8330759Y23161192D01*
X8389485Y23124830D01*
X8582707Y23049976D01*
X8582711Y23049976D01*
X8582715Y23049974D01*
X8691601Y23029620D01*
X8786393Y23011900D01*
X8786394Y23011900D01*
X8993606Y23011900D01*
X8993607Y23011900D01*
X9128741Y23037162D01*
X9197284Y23049974D01*
X9197286Y23049975D01*
X9197293Y23049976D01*
X9390515Y23124830D01*
X9566692Y23233914D01*
X9719826Y23373514D01*
X9844700Y23538875D01*
X9937064Y23724365D01*
X9993771Y23923670D01*
X10012890Y24130000D01*
X9993771Y24336330D01*
X9981962Y24377833D01*
X9960524Y24453180D01*
X9937064Y24535635D01*
X9844700Y24721125D01*
X9719826Y24886486D01*
X9635837Y24963052D01*
X9566694Y25026085D01*
X9566685Y25026091D01*
X9390517Y25135169D01*
X9390511Y25135172D01*
X9197296Y25210023D01*
X9197284Y25210027D01*
X9113453Y25225697D01*
X9061693Y25256293D01*
X9041710Y25313002D01*
X9062853Y25369289D01*
X9115231Y25398817D01*
X9129605Y25400000D01*
X11190395Y25400000D01*
X11246896Y25379435D01*
X11276960Y25327364D01*
X11266519Y25268150D01*
X11220459Y25229501D01*
X11206547Y25225697D01*
X11122715Y25210027D01*
X11122703Y25210023D01*
X10929488Y25135172D01*
X10929482Y25135169D01*
X10753314Y25026091D01*
X10753305Y25026085D01*
X10600173Y24886485D01*
X10475302Y24721129D01*
X10475300Y24721126D01*
X10475300Y24721125D01*
X10399354Y24568605D01*
X10382936Y24535634D01*
X10382934Y24535629D01*
X10326229Y24336335D01*
X10326229Y24336334D01*
X10307110Y24130001D01*
X10307110Y24130000D01*
X10326229Y23923667D01*
X10326229Y23923666D01*
X10382934Y23724372D01*
X10382936Y23724365D01*
X10475300Y23538875D01*
X10600174Y23373514D01*
X10691584Y23290182D01*
X10753305Y23233916D01*
X10753314Y23233910D01*
X10870759Y23161192D01*
X10929485Y23124830D01*
X11122707Y23049976D01*
X11122711Y23049976D01*
X11122715Y23049974D01*
X11231601Y23029620D01*
X11326393Y23011900D01*
X11326394Y23011900D01*
X11533606Y23011900D01*
X11533607Y23011900D01*
X11668741Y23037162D01*
X11737284Y23049974D01*
X11737286Y23049975D01*
X11737293Y23049976D01*
X11930515Y23124830D01*
X12106692Y23233914D01*
X12259826Y23373514D01*
X12384700Y23538875D01*
X12477064Y23724365D01*
X12533771Y23923670D01*
X12552890Y24130000D01*
X12533771Y24336330D01*
X12521962Y24377833D01*
X12500524Y24453180D01*
X12477064Y24535635D01*
X12384700Y24721125D01*
X12259826Y24886486D01*
X12175837Y24963052D01*
X12106694Y25026085D01*
X12106685Y25026091D01*
X11930517Y25135169D01*
X11930511Y25135172D01*
X11737296Y25210023D01*
X11737284Y25210027D01*
X11653453Y25225697D01*
X11601693Y25256293D01*
X11581710Y25313002D01*
X11602853Y25369289D01*
X11655231Y25398817D01*
X11669605Y25400000D01*
X13730395Y25400000D01*
X13786896Y25379435D01*
X13816960Y25327364D01*
X13806519Y25268150D01*
X13760459Y25229501D01*
X13746547Y25225697D01*
X13662715Y25210027D01*
X13662703Y25210023D01*
X13469488Y25135172D01*
X13469482Y25135169D01*
X13293314Y25026091D01*
X13293305Y25026085D01*
X13140173Y24886485D01*
X13015302Y24721129D01*
X13015300Y24721126D01*
X13015300Y24721125D01*
X12939354Y24568605D01*
X12922936Y24535634D01*
X12922934Y24535629D01*
X12866229Y24336335D01*
X12866229Y24336334D01*
X12847110Y24130001D01*
X12847110Y24130000D01*
X12866229Y23923667D01*
X12866229Y23923666D01*
X12922934Y23724372D01*
X12922936Y23724365D01*
X13015300Y23538875D01*
X13140174Y23373514D01*
X13231584Y23290182D01*
X13293305Y23233916D01*
X13293314Y23233910D01*
X13410759Y23161192D01*
X13469485Y23124830D01*
X13662707Y23049976D01*
X13662711Y23049976D01*
X13662715Y23049974D01*
X13771601Y23029620D01*
X13866393Y23011900D01*
X13866394Y23011900D01*
X14073606Y23011900D01*
X14073607Y23011900D01*
X14208741Y23037162D01*
X14277284Y23049974D01*
X14277286Y23049975D01*
X14277293Y23049976D01*
X14470515Y23124830D01*
X14646692Y23233914D01*
X14799826Y23373514D01*
X14924700Y23538875D01*
X15017064Y23724365D01*
X15073771Y23923670D01*
X15092890Y24130000D01*
X15073771Y24336330D01*
X15061962Y24377833D01*
X15040524Y24453180D01*
X15017064Y24535635D01*
X14924700Y24721125D01*
X14799826Y24886486D01*
X14715837Y24963052D01*
X14646694Y25026085D01*
X14646685Y25026091D01*
X14470517Y25135169D01*
X14470511Y25135172D01*
X14277296Y25210023D01*
X14277284Y25210027D01*
X14193453Y25225697D01*
X14141693Y25256293D01*
X14121710Y25313002D01*
X14142853Y25369289D01*
X14195231Y25398817D01*
X14209605Y25400000D01*
X16270395Y25400000D01*
X16326896Y25379435D01*
X16356960Y25327364D01*
X16346519Y25268150D01*
X16300459Y25229501D01*
X16286547Y25225697D01*
X16202715Y25210027D01*
X16202703Y25210023D01*
X16009488Y25135172D01*
X16009482Y25135169D01*
X15833314Y25026091D01*
X15833305Y25026085D01*
X15680173Y24886485D01*
X15555302Y24721129D01*
X15555300Y24721126D01*
X15555300Y24721125D01*
X15479354Y24568605D01*
X15462936Y24535634D01*
X15462934Y24535629D01*
X15406229Y24336335D01*
X15406229Y24336334D01*
X15387110Y24130001D01*
X15387110Y24130000D01*
X15406229Y23923667D01*
X15406229Y23923666D01*
X15462934Y23724372D01*
X15462936Y23724365D01*
X15555300Y23538875D01*
X15680174Y23373514D01*
X15771584Y23290182D01*
X15833305Y23233916D01*
X15833314Y23233910D01*
X15950759Y23161192D01*
X16009485Y23124830D01*
X16202707Y23049976D01*
X16202711Y23049976D01*
X16202715Y23049974D01*
X16311601Y23029620D01*
X16406393Y23011900D01*
X16406394Y23011900D01*
X16613606Y23011900D01*
X16613607Y23011900D01*
X16748741Y23037162D01*
X16817284Y23049974D01*
X16817286Y23049975D01*
X16817293Y23049976D01*
X17010515Y23124830D01*
X17186692Y23233914D01*
X17339826Y23373514D01*
X17464700Y23538875D01*
X17557064Y23724365D01*
X17613771Y23923670D01*
X17632890Y24130000D01*
X17613771Y24336330D01*
X17601962Y24377833D01*
X17580524Y24453180D01*
X17557064Y24535635D01*
X17464700Y24721125D01*
X17339826Y24886486D01*
X17255837Y24963052D01*
X17186694Y25026085D01*
X17186685Y25026091D01*
X17010517Y25135169D01*
X17010511Y25135172D01*
X16817296Y25210023D01*
X16817284Y25210027D01*
X16733453Y25225697D01*
X16681693Y25256293D01*
X16661710Y25313002D01*
X16682853Y25369289D01*
X16735231Y25398817D01*
X16749605Y25400000D01*
X25312100Y25400000D01*
X25368601Y25379435D01*
X25398665Y25327364D01*
X25400000Y25312100D01*
X25400000Y87900D01*
X25379435Y31399D01*
X25327364Y1335D01*
X25312100Y0D01*
X16749605Y0D01*
X16693104Y20565D01*
X16663040Y72636D01*
X16673481Y131850D01*
X16719541Y170499D01*
X16733453Y174303D01*
X16817284Y189974D01*
X16817286Y189975D01*
X16817293Y189976D01*
X17010515Y264830D01*
X17186692Y373914D01*
X17339826Y513514D01*
X17464700Y678875D01*
X17557064Y864365D01*
X17612462Y1059070D01*
X17613770Y1063666D01*
X17613770Y1063667D01*
X17613769Y1063667D01*
X17613771Y1063670D01*
X17632890Y1270000D01*
X17613771Y1476330D01*
X17612462Y1480930D01*
X17582894Y1584850D01*
X17557064Y1675635D01*
X17464700Y1861125D01*
X17339826Y2026486D01*
X17255837Y2103052D01*
X17186694Y2166085D01*
X17186685Y2166091D01*
X17010517Y2275169D01*
X17010511Y2275172D01*
X16833347Y2343805D01*
X16788090Y2383391D01*
X16777200Y2425769D01*
X16777200Y2658013D01*
X21059500Y2658013D01*
X21059500Y2421988D01*
X21090307Y2187986D01*
X21090310Y2187974D01*
X21133581Y2026486D01*
X21151394Y1960007D01*
X21192351Y1861129D01*
X21241713Y1741957D01*
X21241714Y1741955D01*
X21359728Y1537548D01*
X21408824Y1473565D01*
X21503408Y1350301D01*
X21670301Y1183408D01*
X21670304Y1183406D01*
X21832341Y1059070D01*
X21857550Y1039727D01*
X22061951Y921716D01*
X22280007Y831394D01*
X22507986Y770307D01*
X22687541Y746669D01*
X22741987Y739500D01*
X22741989Y739500D01*
X22978013Y739500D01*
X23026784Y745922D01*
X23212014Y770307D01*
X23439993Y831394D01*
X23658049Y921716D01*
X23862450Y1039727D01*
X24049699Y1183408D01*
X24216592Y1350301D01*
X24360273Y1537550D01*
X24478284Y1741951D01*
X24568606Y1960007D01*
X24629693Y2187986D01*
X24656915Y2394766D01*
X24660500Y2421988D01*
X24660500Y2658013D01*
X24653331Y2712459D01*
X24629693Y2892014D01*
X24568606Y3119993D01*
X24478284Y3338049D01*
X24360273Y3542450D01*
X24216592Y3729699D01*
X24049699Y3896592D01*
X24028208Y3913082D01*
X23862452Y4040272D01*
X23728824Y4117422D01*
X23658049Y4158284D01*
X23658047Y4158285D01*
X23658045Y4158286D01*
X23658043Y4158287D01*
X23556059Y4200530D01*
X23439993Y4248606D01*
X23439986Y4248608D01*
X23212026Y4309690D01*
X23212014Y4309693D01*
X22978013Y4340500D01*
X22978011Y4340500D01*
X22741989Y4340500D01*
X22741987Y4340500D01*
X22507985Y4309693D01*
X22507973Y4309690D01*
X22280013Y4248608D01*
X22280009Y4248607D01*
X22280007Y4248606D01*
X22280005Y4248605D01*
X22061956Y4158287D01*
X22061954Y4158286D01*
X21857547Y4040272D01*
X21670304Y3896595D01*
X21503405Y3729696D01*
X21359728Y3542453D01*
X21241714Y3338046D01*
X21241713Y3338044D01*
X21151395Y3119995D01*
X21151392Y3119987D01*
X21090310Y2892027D01*
X21090307Y2892015D01*
X21059500Y2658013D01*
X16777200Y2658013D01*
X16777200Y3980413D01*
X16797765Y4036914D01*
X16802934Y4042557D01*
X19911521Y7151143D01*
X19952200Y7249351D01*
X19952200Y7355649D01*
X19952200Y9421440D01*
X19972765Y9477941D01*
X19984003Y9487833D01*
X19983458Y9488462D01*
X19988204Y9492576D01*
X19988209Y9492578D01*
X20074511Y9592176D01*
X20129258Y9712054D01*
X20143345Y9810031D01*
X20148013Y9842497D01*
X20148013Y9842504D01*
X20129259Y9972940D01*
X20129258Y9972941D01*
X20129258Y9972946D01*
X20074511Y10092824D01*
X20074510Y10092825D01*
X20074510Y10092826D01*
X20031360Y10142623D01*
X19988209Y10192422D01*
X19988206Y10192424D01*
X19988205Y10192425D01*
X19877346Y10263670D01*
X19877343Y10263671D01*
X19852053Y10271097D01*
X19750898Y10300800D01*
X19750894Y10300800D01*
X19619106Y10300800D01*
X19619105Y10300800D01*
X19619098Y10300799D01*
X19613043Y10299021D01*
X19553037Y10302836D01*
X19509523Y10344331D01*
X19501277Y10395870D01*
X19513013Y10477498D01*
X19513013Y10477504D01*
X19494259Y10607940D01*
X19494258Y10607941D01*
X19494258Y10607946D01*
X19439511Y10727824D01*
X19439510Y10727825D01*
X19439510Y10727826D01*
X19396360Y10777623D01*
X19353209Y10827422D01*
X19353206Y10827424D01*
X19353205Y10827425D01*
X19242346Y10898670D01*
X19242343Y10898671D01*
X19217053Y10906097D01*
X19115898Y10935800D01*
X19115894Y10935800D01*
X18984106Y10935800D01*
X18984101Y10935800D01*
X18857657Y10898671D01*
X18857653Y10898670D01*
X18746794Y10827425D01*
X18746789Y10827420D01*
X18660489Y10727826D01*
X18605742Y10607946D01*
X18605740Y10607940D01*
X18586987Y10477504D01*
X18586987Y10477497D01*
X18605740Y10347061D01*
X18605741Y10347056D01*
X18605742Y10347054D01*
X18660489Y10227176D01*
X18691911Y10190913D01*
X18746790Y10127579D01*
X18751542Y10123462D01*
X18749486Y10121090D01*
X18778824Y10082578D01*
X18782800Y10056440D01*
X18782800Y7449588D01*
X18762235Y7393087D01*
X18757055Y7387433D01*
X13751985Y2382363D01*
X13705985Y2358115D01*
X13662706Y2350024D01*
X13662700Y2350022D01*
X13469488Y2275172D01*
X13469482Y2275169D01*
X13293314Y2166091D01*
X13293305Y2166085D01*
X13140173Y2026485D01*
X13015302Y1861129D01*
X13015300Y1861126D01*
X13015300Y1861125D01*
X12927433Y1684665D01*
X12922936Y1675634D01*
X12922934Y1675629D01*
X12866229Y1476335D01*
X12866229Y1476334D01*
X12847110Y1270001D01*
X12847110Y1270000D01*
X12866229Y1063667D01*
X12866229Y1063666D01*
X12906619Y921714D01*
X12922936Y864365D01*
X13015300Y678875D01*
X13140174Y513514D01*
X13207652Y452000D01*
X13293305Y373916D01*
X13293314Y373910D01*
X13410759Y301192D01*
X13469485Y264830D01*
X13662707Y189976D01*
X13662711Y189976D01*
X13662715Y189974D01*
X13746547Y174303D01*
X13798307Y143707D01*
X13818290Y86998D01*
X13797147Y30711D01*
X13744769Y1183D01*
X13730395Y0D01*
X11669605Y0D01*
X11613104Y20565D01*
X11583040Y72636D01*
X11593481Y131850D01*
X11639541Y170499D01*
X11653453Y174303D01*
X11737284Y189974D01*
X11737286Y189975D01*
X11737293Y189976D01*
X11930515Y264830D01*
X12106692Y373914D01*
X12259826Y513514D01*
X12384700Y678875D01*
X12477064Y864365D01*
X12532462Y1059070D01*
X12533770Y1063666D01*
X12533770Y1063667D01*
X12533769Y1063667D01*
X12533771Y1063670D01*
X12552890Y1270000D01*
X12533771Y1476330D01*
X12532462Y1480930D01*
X12502894Y1584850D01*
X12477064Y1675635D01*
X12384700Y1861125D01*
X12259826Y2026486D01*
X12175837Y2103052D01*
X12106694Y2166085D01*
X12106685Y2166091D01*
X11930517Y2275169D01*
X11930511Y2275172D01*
X11737296Y2350023D01*
X11737284Y2350027D01*
X11533609Y2388100D01*
X11533607Y2388100D01*
X11326393Y2388100D01*
X11326390Y2388100D01*
X11122715Y2350027D01*
X11122703Y2350023D01*
X10929488Y2275172D01*
X10929482Y2275169D01*
X10753314Y2166091D01*
X10753305Y2166085D01*
X10600173Y2026485D01*
X10475302Y1861129D01*
X10475300Y1861126D01*
X10475300Y1861125D01*
X10387433Y1684665D01*
X10382936Y1675634D01*
X10382934Y1675629D01*
X10326229Y1476335D01*
X10326229Y1476334D01*
X10307110Y1270001D01*
X10307110Y1270000D01*
X10326229Y1063667D01*
X10326229Y1063666D01*
X10366619Y921714D01*
X10382936Y864365D01*
X10475300Y678875D01*
X10600174Y513514D01*
X10667652Y452000D01*
X10753305Y373916D01*
X10753314Y373910D01*
X10870759Y301192D01*
X10929485Y264830D01*
X11122707Y189976D01*
X11122711Y189976D01*
X11122715Y189974D01*
X11206547Y174303D01*
X11258307Y143707D01*
X11278290Y86998D01*
X11257147Y30711D01*
X11204769Y1183D01*
X11190395Y0D01*
X9246063Y0D01*
X9189562Y20565D01*
X9159498Y72636D01*
X9169939Y131850D01*
X9214310Y169864D01*
X9401652Y242442D01*
X9401666Y242448D01*
X9581755Y353954D01*
X9581764Y353960D01*
X9738304Y496667D01*
X9738308Y496671D01*
X9865960Y665709D01*
X9960383Y855336D01*
X10018351Y1059070D01*
X10018351Y1059071D01*
X10029659Y1181100D01*
X9392100Y1181100D01*
X9398000Y1203120D01*
X9398000Y1336880D01*
X9392100Y1358900D01*
X10029659Y1358900D01*
X10029659Y1358901D01*
X10018351Y1480930D01*
X10018351Y1480931D01*
X9960383Y1684665D01*
X9865960Y1874292D01*
X9738308Y2043330D01*
X9738304Y2043334D01*
X9581764Y2186041D01*
X9581755Y2186047D01*
X9401666Y2297553D01*
X9401652Y2297559D01*
X9204140Y2374076D01*
X9204126Y2374080D01*
X8995919Y2413000D01*
X8978901Y2413000D01*
X8978900Y2412999D01*
X8978900Y1772100D01*
X8956880Y1778000D01*
X8823120Y1778000D01*
X8801100Y1772100D01*
X8801100Y2412999D01*
X8801099Y2413000D01*
X8784080Y2413000D01*
X8575873Y2374080D01*
X8575859Y2374076D01*
X8378347Y2297559D01*
X8378333Y2297553D01*
X8198244Y2186047D01*
X8198235Y2186041D01*
X8041695Y2043334D01*
X8041691Y2043330D01*
X7914039Y1874292D01*
X7819616Y1684665D01*
X7761648Y1480931D01*
X7761648Y1480930D01*
X7750340Y1358901D01*
X7750341Y1358900D01*
X8387900Y1358900D01*
X8382000Y1336880D01*
X8382000Y1203120D01*
X8387900Y1181100D01*
X7750341Y1181100D01*
X7761648Y1059071D01*
X7761648Y1059070D01*
X7819616Y855336D01*
X7914039Y665709D01*
X8041691Y496671D01*
X8041695Y496667D01*
X8198235Y353960D01*
X8198244Y353954D01*
X8378333Y242448D01*
X8378347Y242442D01*
X8565690Y169864D01*
X8610947Y130278D01*
X8620170Y70862D01*
X8589044Y19419D01*
X8533937Y0D01*
X87900Y0D01*
X31399Y20565D01*
X1335Y72636D01*
X0Y87900D01*
X0Y952504D01*
X446853Y952504D01*
X446853Y952497D01*
X467333Y810050D01*
X467334Y810045D01*
X467335Y810043D01*
X527123Y679127D01*
X621372Y570357D01*
X621374Y570356D01*
X621375Y570355D01*
X736029Y496671D01*
X742447Y492547D01*
X880539Y452000D01*
X880540Y452000D01*
X1024460Y452000D01*
X1024461Y452000D01*
X1162553Y492547D01*
X1283628Y570357D01*
X1377877Y679127D01*
X1437665Y810043D01*
X1457330Y946823D01*
X1485725Y999820D01*
X1541545Y1022168D01*
X1588282Y1010437D01*
X1741951Y921716D01*
X1960007Y831394D01*
X2187986Y770307D01*
X2367541Y746669D01*
X2421987Y739500D01*
X2421989Y739500D01*
X2658013Y739500D01*
X2706784Y745922D01*
X2892014Y770307D01*
X3119993Y831394D01*
X3338049Y921716D01*
X3542450Y1039727D01*
X3729699Y1183408D01*
X3896592Y1350301D01*
X4040273Y1537550D01*
X4158284Y1741951D01*
X4248606Y1960007D01*
X4309693Y2187986D01*
X4336915Y2394766D01*
X4340500Y2421988D01*
X4340500Y2658013D01*
X4333331Y2712459D01*
X4309693Y2892014D01*
X4248606Y3119993D01*
X4158284Y3338049D01*
X4040273Y3542450D01*
X3896592Y3729699D01*
X3729699Y3896592D01*
X3708208Y3913082D01*
X3542452Y4040272D01*
X3408824Y4117422D01*
X3338049Y4158284D01*
X3338047Y4158285D01*
X3338045Y4158286D01*
X3338043Y4158287D01*
X3236059Y4200530D01*
X3119993Y4248606D01*
X3119986Y4248608D01*
X2892026Y4309690D01*
X2892014Y4309693D01*
X2658013Y4340500D01*
X2658011Y4340500D01*
X2421989Y4340500D01*
X2421987Y4340500D01*
X2187985Y4309693D01*
X2187973Y4309690D01*
X1960013Y4248608D01*
X1960009Y4248607D01*
X1960007Y4248606D01*
X1960005Y4248605D01*
X1741956Y4158287D01*
X1741954Y4158286D01*
X1537547Y4040272D01*
X1350304Y3896595D01*
X1183405Y3729696D01*
X1039728Y3542453D01*
X921714Y3338046D01*
X921713Y3338044D01*
X831395Y3119995D01*
X831392Y3119987D01*
X770310Y2892027D01*
X770307Y2892015D01*
X739500Y2658013D01*
X739500Y2421988D01*
X770307Y2187986D01*
X770310Y2187974D01*
X813581Y2026486D01*
X831394Y1960007D01*
X872351Y1861129D01*
X921713Y1741957D01*
X921714Y1741955D01*
X921716Y1741951D01*
X1012419Y1584849D01*
X1022860Y1525636D01*
X992796Y1473565D01*
X936295Y1453000D01*
X880539Y1453000D01*
X880538Y1453000D01*
X880532Y1452999D01*
X742449Y1412454D01*
X742445Y1412453D01*
X621375Y1334646D01*
X621370Y1334642D01*
X527122Y1225872D01*
X467335Y1094957D01*
X467333Y1094951D01*
X446853Y952504D01*
X0Y952504D01*
X0Y22978011D01*
X739500Y22978011D01*
X739500Y22741989D01*
X770307Y22507986D01*
X831394Y22280007D01*
X867609Y22192577D01*
X921713Y22061957D01*
X921714Y22061955D01*
X1039728Y21857548D01*
X1040243Y21856877D01*
X1183408Y21670301D01*
X1350301Y21503408D01*
X1537550Y21359727D01*
X1741951Y21241716D01*
X1960007Y21151394D01*
X2187986Y21090307D01*
X2367541Y21066669D01*
X2421987Y21059500D01*
X2421989Y21059500D01*
X2658013Y21059500D01*
X2692987Y21064105D01*
X2833042Y21082544D01*
X2891742Y21069530D01*
X2928346Y21021829D01*
X2925723Y20961759D01*
X2906669Y20933241D01*
X2256174Y20282745D01*
X2201680Y20257334D01*
X2194019Y20257000D01*
X1696035Y20257000D01*
X1639534Y20277565D01*
X1629604Y20287338D01*
X1573210Y20352421D01*
X1573205Y20352425D01*
X1462346Y20423670D01*
X1462343Y20423671D01*
X1424925Y20434658D01*
X1335898Y20460800D01*
X1335894Y20460800D01*
X1204106Y20460800D01*
X1204101Y20460800D01*
X1077657Y20423671D01*
X1077653Y20423670D01*
X966794Y20352425D01*
X966789Y20352420D01*
X880489Y20252826D01*
X825742Y20132946D01*
X825740Y20132940D01*
X806987Y20002504D01*
X806987Y20002497D01*
X825740Y19872061D01*
X825742Y19872055D01*
X880489Y19752175D01*
X910395Y19717662D01*
X966791Y19652578D01*
X966793Y19652577D01*
X966794Y19652576D01*
X1077653Y19581331D01*
X1077654Y19581331D01*
X1077657Y19581329D01*
X1163782Y19556041D01*
X1204101Y19544201D01*
X1204104Y19544201D01*
X1204106Y19544200D01*
X1204107Y19544200D01*
X1335893Y19544200D01*
X1335894Y19544200D01*
X1335896Y19544201D01*
X1335898Y19544201D01*
X1350927Y19548615D01*
X1462343Y19581329D01*
X1573209Y19652578D01*
X1629604Y19717663D01*
X1682146Y19746896D01*
X1696035Y19748000D01*
X2386469Y19748000D01*
X2386470Y19748000D01*
X2480010Y19786745D01*
X3685519Y20992256D01*
X3740013Y21017666D01*
X3747674Y21018000D01*
X3942814Y21018000D01*
X3999315Y20997435D01*
X4029379Y20945364D01*
X4022771Y20893585D01*
X4000742Y20845349D01*
X4000740Y20845343D01*
X3981987Y20714907D01*
X3981987Y20714900D01*
X4000740Y20584464D01*
X4000742Y20584458D01*
X4055489Y20464578D01*
X4097354Y20416264D01*
X4118813Y20360097D01*
X4099147Y20303276D01*
X4097355Y20301140D01*
X4055488Y20252823D01*
X4000742Y20132946D01*
X4000740Y20132940D01*
X3981987Y20002504D01*
X3981987Y20002497D01*
X4000740Y19872061D01*
X4000742Y19872055D01*
X4055489Y19752175D01*
X4085395Y19717662D01*
X4141791Y19652578D01*
X4141793Y19652577D01*
X4141794Y19652576D01*
X4252653Y19581331D01*
X4252654Y19581331D01*
X4252657Y19581329D01*
X4338782Y19556041D01*
X4379101Y19544201D01*
X4379104Y19544201D01*
X4379106Y19544200D01*
X4379107Y19544200D01*
X4506972Y19544200D01*
X4563473Y19523635D01*
X4569126Y19518455D01*
X4603188Y19484394D01*
X4618337Y19469245D01*
X4618339Y19469244D01*
X4623049Y19466097D01*
X4658602Y19417608D01*
X4654670Y19357610D01*
X4613091Y19314176D01*
X4601379Y19309414D01*
X4580788Y19302723D01*
X4580784Y19302721D01*
X4580781Y19302720D01*
X4537064Y19280445D01*
X4398388Y19209787D01*
X4232780Y19089466D01*
X4088034Y18944720D01*
X3967713Y18779112D01*
X3874777Y18596713D01*
X3811522Y18402033D01*
X3779500Y18199851D01*
X3779500Y17995150D01*
X3811522Y17792968D01*
X3874777Y17598288D01*
X3874779Y17598285D01*
X3874780Y17598281D01*
X3895451Y17557712D01*
X3967713Y17415889D01*
X4088034Y17250281D01*
X4232781Y17105534D01*
X4295113Y17060247D01*
X4398388Y16985214D01*
X4398390Y16985213D01*
X4580781Y16892280D01*
X4775466Y16829023D01*
X4977648Y16797000D01*
X4977650Y16797000D01*
X5182350Y16797000D01*
X5182352Y16797000D01*
X5384534Y16829023D01*
X5579219Y16892280D01*
X5761610Y16985213D01*
X5927219Y17105534D01*
X6071966Y17250281D01*
X6192287Y17415890D01*
X6285220Y17598281D01*
X6348477Y17792966D01*
X6380500Y17995148D01*
X6380500Y18199852D01*
X6348477Y18402034D01*
X6285220Y18596719D01*
X6192287Y18779110D01*
X6189606Y18782800D01*
X6090249Y18919554D01*
X6071966Y18944719D01*
X5927219Y19089466D01*
X5761610Y19209787D01*
X5761601Y19209792D01*
X5654661Y19264281D01*
X5613655Y19308255D01*
X5610508Y19368299D01*
X5646693Y19416319D01*
X5694567Y19430500D01*
X8362913Y19430500D01*
X8419414Y19409935D01*
X8449478Y19357864D01*
X8439037Y19298650D01*
X8425068Y19280445D01*
X8421144Y19276522D01*
X8421143Y19276521D01*
X6992393Y17847771D01*
X6992392Y17847772D01*
X6917230Y17772609D01*
X6917228Y17772607D01*
X6876550Y17674399D01*
X6876550Y14121948D01*
X6855985Y14065447D01*
X6803914Y14035383D01*
X6788650Y14034048D01*
X4160240Y14034048D01*
X4103739Y14054613D01*
X4098085Y14059793D01*
X3975923Y14181955D01*
X3950512Y14236449D01*
X3951073Y14256620D01*
X3955513Y14287499D01*
X3955513Y14287504D01*
X3936759Y14417940D01*
X3936758Y14417941D01*
X3936758Y14417946D01*
X3882011Y14537824D01*
X3882010Y14537825D01*
X3882010Y14537826D01*
X3825466Y14603080D01*
X3795709Y14637422D01*
X3795706Y14637424D01*
X3795705Y14637425D01*
X3684846Y14708670D01*
X3684843Y14708671D01*
X3659553Y14716097D01*
X3558398Y14745800D01*
X3558394Y14745800D01*
X3426606Y14745800D01*
X3426601Y14745800D01*
X3300157Y14708671D01*
X3300153Y14708670D01*
X3189294Y14637425D01*
X3189289Y14637420D01*
X3102989Y14537826D01*
X3048242Y14417946D01*
X3048240Y14417940D01*
X3029487Y14287504D01*
X3029487Y14287497D01*
X3048240Y14157061D01*
X3048241Y14157056D01*
X3048242Y14157054D01*
X3075615Y14097115D01*
X3102989Y14037175D01*
X3188265Y13938762D01*
X3209724Y13882595D01*
X3190058Y13825774D01*
X3138470Y13794888D01*
X3121835Y13793300D01*
X3109101Y13793300D01*
X2982657Y13756171D01*
X2982653Y13756170D01*
X2871794Y13684925D01*
X2871789Y13684920D01*
X2785489Y13585326D01*
X2730742Y13465446D01*
X2730740Y13465440D01*
X2711987Y13335004D01*
X2711987Y13334997D01*
X2730740Y13204561D01*
X2730741Y13204556D01*
X2730742Y13204554D01*
X2753767Y13154136D01*
X2785489Y13084675D01*
X2813042Y13052878D01*
X2871791Y12985078D01*
X2871793Y12985077D01*
X2871794Y12985076D01*
X2982653Y12913831D01*
X2982654Y12913831D01*
X2982657Y12913829D01*
X3068782Y12888541D01*
X3109101Y12876701D01*
X3109104Y12876701D01*
X3109106Y12876700D01*
X3109107Y12876700D01*
X3240893Y12876700D01*
X3240894Y12876700D01*
X3240896Y12876701D01*
X3240898Y12876701D01*
X3256121Y12881171D01*
X3367343Y12913829D01*
X3448470Y12965967D01*
X3495992Y12979920D01*
X5829048Y12979920D01*
X5885549Y12959355D01*
X5915613Y12907284D01*
X5905172Y12848070D01*
X5859112Y12809421D01*
X5853813Y12807681D01*
X5840156Y12803672D01*
X5840154Y12803671D01*
X5729294Y12732425D01*
X5729289Y12732420D01*
X5642989Y12632826D01*
X5588242Y12512946D01*
X5588240Y12512940D01*
X5569487Y12382504D01*
X5569487Y12382497D01*
X5588240Y12252061D01*
X5588242Y12252055D01*
X5642989Y12132175D01*
X5672983Y12097561D01*
X5729291Y12032578D01*
X5729293Y12032577D01*
X5729294Y12032576D01*
X5840153Y11961331D01*
X5840154Y11961331D01*
X5840157Y11961329D01*
X5924648Y11936520D01*
X5966601Y11924201D01*
X5966604Y11924201D01*
X5966606Y11924200D01*
X5966607Y11924200D01*
X6098393Y11924200D01*
X6098394Y11924200D01*
X6098396Y11924201D01*
X6098398Y11924201D01*
X6113427Y11928615D01*
X6224843Y11961329D01*
X6335709Y12032578D01*
X6422011Y12132176D01*
X6476758Y12252054D01*
X6476759Y12252068D01*
X6477729Y12255364D01*
X6479150Y12257295D01*
X6479369Y12257773D01*
X6479469Y12257728D01*
X6513379Y12303783D01*
X6562069Y12318500D01*
X9096419Y12318500D01*
X9152920Y12297935D01*
X9182984Y12245864D01*
X9172543Y12186650D01*
X9158574Y12168445D01*
X8354221Y11364091D01*
X8324759Y11320000D01*
X8310922Y11250432D01*
X8310922Y11250431D01*
X8324759Y11180863D01*
X8324760Y11180862D01*
X8354220Y11136771D01*
X9156872Y10334120D01*
X9200963Y10304659D01*
X9238233Y10297246D01*
X9289636Y10266054D01*
X9307296Y10228184D01*
X9314710Y10190913D01*
X9344165Y10146828D01*
X9344167Y10146826D01*
X9344170Y10146822D01*
X9503382Y9987610D01*
X9528793Y9933117D01*
X9513230Y9875039D01*
X9503382Y9863301D01*
X8810327Y9170245D01*
X8755833Y9144834D01*
X8748172Y9144500D01*
X8681035Y9144500D01*
X8624534Y9165065D01*
X8614604Y9174838D01*
X8558210Y9239921D01*
X8558205Y9239925D01*
X8447346Y9311170D01*
X8447343Y9311171D01*
X8422053Y9318597D01*
X8320898Y9348300D01*
X8320894Y9348300D01*
X8189106Y9348300D01*
X8189101Y9348300D01*
X8062657Y9311171D01*
X8062653Y9311170D01*
X7951794Y9239925D01*
X7951789Y9239920D01*
X7865489Y9140326D01*
X7810742Y9020446D01*
X7810740Y9020440D01*
X7791987Y8890004D01*
X7791987Y8889997D01*
X7810740Y8759561D01*
X7810742Y8759555D01*
X7865489Y8639675D01*
X7895395Y8605162D01*
X7951791Y8540078D01*
X7951793Y8540077D01*
X7951794Y8540076D01*
X8062653Y8468831D01*
X8062654Y8468831D01*
X8062657Y8468829D01*
X8148782Y8443541D01*
X8189101Y8431701D01*
X8189104Y8431701D01*
X8189106Y8431700D01*
X8189107Y8431700D01*
X8320893Y8431700D01*
X8320894Y8431700D01*
X8320896Y8431701D01*
X8320898Y8431701D01*
X8335927Y8436115D01*
X8447343Y8468829D01*
X8558209Y8540078D01*
X8614604Y8605163D01*
X8667146Y8634396D01*
X8681035Y8635500D01*
X8940622Y8635500D01*
X8940623Y8635500D01*
X9034163Y8674245D01*
X9863302Y9503385D01*
X9917794Y9528795D01*
X9975872Y9513232D01*
X9987603Y9503390D01*
X10146822Y9344171D01*
X10190913Y9314710D01*
X10228182Y9307297D01*
X10279586Y9276105D01*
X10297245Y9238235D01*
X10304659Y9200963D01*
X10334119Y9156872D01*
X11136771Y8354221D01*
X11180862Y8324760D01*
X11250431Y8310922D01*
X11320000Y8324760D01*
X11364091Y8354220D01*
X12378874Y9369004D01*
X12408335Y9413095D01*
X12422173Y9482664D01*
X12408335Y9552233D01*
X12381647Y9592176D01*
X12378879Y9596319D01*
X12378877Y9596321D01*
X12378875Y9596324D01*
X12219660Y9755539D01*
X12194250Y9810031D01*
X12209813Y9868109D01*
X12219662Y9879847D01*
X12378322Y10038505D01*
X12432816Y10063916D01*
X12440476Y10064250D01*
X13385215Y10064250D01*
X13441716Y10043685D01*
X13451646Y10033912D01*
X13491765Y9987611D01*
X13508041Y9968828D01*
X13508043Y9968827D01*
X13508044Y9968826D01*
X13618903Y9897581D01*
X13618904Y9897581D01*
X13618907Y9897579D01*
X13695671Y9875039D01*
X13745351Y9860451D01*
X13745354Y9860451D01*
X13745356Y9860450D01*
X13745357Y9860450D01*
X13877143Y9860450D01*
X13877144Y9860450D01*
X13877146Y9860451D01*
X13877148Y9860451D01*
X13929251Y9875750D01*
X13989257Y9871937D01*
X14032774Y9830445D01*
X14040228Y9774266D01*
X14038486Y9765507D01*
X14052323Y9695939D01*
X14052324Y9695938D01*
X14081784Y9651848D01*
X15059389Y8674245D01*
X15379413Y8354221D01*
X15379414Y8354220D01*
X15408805Y8334581D01*
X15423502Y8324760D01*
X15493071Y8310922D01*
X15562641Y8324760D01*
X15606731Y8354220D01*
X17045778Y9793269D01*
X17075240Y9837359D01*
X17089078Y9906929D01*
X17075240Y9976498D01*
X17045780Y10020588D01*
X15748152Y11318214D01*
X15748150Y11318216D01*
X15748149Y11318217D01*
X15704062Y11347676D01*
X15704061Y11347677D01*
X15634493Y11361514D01*
X15564923Y11347677D01*
X15520835Y11318218D01*
X14419514Y10216896D01*
X14365020Y10191485D01*
X14306942Y10207048D01*
X14272454Y10256301D01*
X14270354Y10291561D01*
X14274263Y10318749D01*
X14274263Y10318754D01*
X14255509Y10449190D01*
X14255507Y10449199D01*
X14223155Y10520038D01*
X14218389Y10579976D01*
X14253266Y10628955D01*
X14269470Y10637761D01*
X14398998Y10691413D01*
X14521919Y10773546D01*
X14626454Y10878081D01*
X14708587Y11001002D01*
X14765161Y11137584D01*
X14794003Y11282579D01*
X14794003Y11430415D01*
X14780843Y11496575D01*
X14765162Y11575407D01*
X14765161Y11575409D01*
X14765161Y11575410D01*
X14736874Y11643701D01*
X14708588Y11711991D01*
X14708586Y11711994D01*
X14626457Y11834909D01*
X14626456Y11834910D01*
X14626454Y11834913D01*
X14610420Y11850947D01*
X14585010Y11905439D01*
X14600573Y11963517D01*
X14649826Y11998005D01*
X14672576Y12001000D01*
X21640224Y12001000D01*
X21640225Y12001000D01*
X21737254Y12026999D01*
X21824247Y12077224D01*
X21895276Y12148253D01*
X22296732Y12549711D01*
X22334119Y12571893D01*
X22417343Y12596329D01*
X22528209Y12667578D01*
X22614511Y12767176D01*
X22669258Y12887054D01*
X22682610Y12979920D01*
X22688013Y13017497D01*
X22688013Y13017502D01*
X22683573Y13048382D01*
X22695887Y13107235D01*
X22708419Y13123042D01*
X23404021Y13818643D01*
X23444700Y13916851D01*
X23444700Y14023149D01*
X23444700Y18628940D01*
X23465265Y18685441D01*
X23476503Y18695333D01*
X23475958Y18695962D01*
X23480704Y18700076D01*
X23480709Y18700078D01*
X23567011Y18799676D01*
X23621758Y18919554D01*
X23640513Y19050000D01*
X23640513Y19050004D01*
X23621759Y19180440D01*
X23621758Y19180441D01*
X23621758Y19180446D01*
X23567011Y19300324D01*
X23567010Y19300325D01*
X23567010Y19300326D01*
X23501426Y19376013D01*
X23480709Y19399922D01*
X23480706Y19399924D01*
X23480705Y19399925D01*
X23369846Y19471170D01*
X23369843Y19471171D01*
X23343023Y19479046D01*
X23243398Y19508300D01*
X23243394Y19508300D01*
X23111606Y19508300D01*
X23111601Y19508300D01*
X22985157Y19471171D01*
X22985153Y19471170D01*
X22874294Y19399925D01*
X22874289Y19399920D01*
X22787989Y19300326D01*
X22733242Y19180446D01*
X22733240Y19180440D01*
X22714487Y19050004D01*
X22714487Y19049997D01*
X22733240Y18919561D01*
X22733241Y18919556D01*
X22733242Y18919554D01*
X22787989Y18799676D01*
X22805808Y18779112D01*
X22874290Y18700079D01*
X22879042Y18695962D01*
X22876986Y18693590D01*
X22906324Y18655078D01*
X22910300Y18628940D01*
X22910300Y15391889D01*
X22889735Y15335388D01*
X22837664Y15305324D01*
X22778450Y15315765D01*
X22774878Y15317943D01*
X22734847Y15343669D01*
X22734844Y15343670D01*
X22734843Y15343671D01*
X22709553Y15351097D01*
X22608398Y15380800D01*
X22608394Y15380800D01*
X22498488Y15380800D01*
X22441987Y15401365D01*
X22436333Y15406545D01*
X20592597Y17250281D01*
X18566357Y19276521D01*
X18468149Y19317200D01*
X13304767Y19317200D01*
X13248266Y19337765D01*
X13218202Y19389836D01*
X13228643Y19449050D01*
X13257245Y19479046D01*
X13257353Y19479116D01*
X13265562Y19484391D01*
X13351864Y19583989D01*
X13406611Y19703867D01*
X13412956Y19748000D01*
X13425366Y19834310D01*
X13425366Y19834317D01*
X13406612Y19964753D01*
X13406611Y19964754D01*
X13406611Y19964759D01*
X13351864Y20084637D01*
X13351863Y20084638D01*
X13351863Y20084639D01*
X13308713Y20134436D01*
X13265562Y20184235D01*
X13265559Y20184237D01*
X13265558Y20184238D01*
X13154699Y20255483D01*
X13154696Y20255484D01*
X13129406Y20262910D01*
X13028251Y20292613D01*
X13028247Y20292613D01*
X12896459Y20292613D01*
X12896454Y20292613D01*
X12770010Y20255484D01*
X12770006Y20255483D01*
X12659147Y20184238D01*
X12659142Y20184233D01*
X12572842Y20084639D01*
X12545848Y20025530D01*
X12530026Y19990884D01*
X12487849Y19948033D01*
X12450070Y19939500D01*
X11313762Y19939500D01*
X11257261Y19960065D01*
X11227197Y20012136D01*
X11233806Y20063916D01*
X11239257Y20075852D01*
X11239256Y20075852D01*
X11239258Y20075854D01*
X11247466Y20132940D01*
X11258013Y20206297D01*
X11258013Y20206304D01*
X11239259Y20336740D01*
X11239258Y20336741D01*
X11239258Y20336746D01*
X11184511Y20456624D01*
X11184510Y20456625D01*
X11184510Y20456626D01*
X11141360Y20506423D01*
X11098209Y20556222D01*
X11098206Y20556224D01*
X11098205Y20556225D01*
X10987346Y20627470D01*
X10987343Y20627471D01*
X10962053Y20634897D01*
X10860898Y20664600D01*
X10860894Y20664600D01*
X10733027Y20664600D01*
X10676526Y20685165D01*
X10670872Y20690345D01*
X10646310Y20714907D01*
X10430560Y20930658D01*
X10430558Y20930659D01*
X10430557Y20930660D01*
X10337021Y20969403D01*
X10337020Y20969403D01*
X6936530Y20969403D01*
X6880029Y20989968D01*
X6849965Y21042039D01*
X6860406Y21101253D01*
X6874371Y21119454D01*
X7518255Y21763337D01*
X7557001Y21856877D01*
X7557001Y21958123D01*
X7557001Y21965202D01*
X7557000Y21965216D01*
X7557000Y22113278D01*
X7577565Y22169779D01*
X7597380Y22187226D01*
X7605709Y22192578D01*
X7692011Y22292176D01*
X7746758Y22412054D01*
X7765513Y22542500D01*
X7765513Y22542504D01*
X7746759Y22672940D01*
X7746758Y22672941D01*
X7746758Y22672946D01*
X7692011Y22792824D01*
X7692010Y22792825D01*
X7692010Y22792826D01*
X7648860Y22842623D01*
X7605709Y22892422D01*
X7605706Y22892424D01*
X7605705Y22892425D01*
X7494846Y22963670D01*
X7494843Y22963671D01*
X7469553Y22971097D01*
X7446007Y22978011D01*
X21059500Y22978011D01*
X21059500Y22741989D01*
X21090307Y22507986D01*
X21151394Y22280007D01*
X21187609Y22192577D01*
X21241713Y22061957D01*
X21241714Y22061955D01*
X21359728Y21857548D01*
X21360243Y21856877D01*
X21503408Y21670301D01*
X21670301Y21503408D01*
X21857550Y21359727D01*
X22061951Y21241716D01*
X22280007Y21151394D01*
X22507986Y21090307D01*
X22687541Y21066669D01*
X22741987Y21059500D01*
X22741989Y21059500D01*
X22978013Y21059500D01*
X23026784Y21065922D01*
X23212014Y21090307D01*
X23439993Y21151394D01*
X23658049Y21241716D01*
X23862450Y21359727D01*
X24049699Y21503408D01*
X24216592Y21670301D01*
X24360273Y21857550D01*
X24478284Y22061951D01*
X24568606Y22280007D01*
X24629693Y22507986D01*
X24660500Y22741989D01*
X24660500Y22978011D01*
X24656038Y23011900D01*
X24641171Y23124830D01*
X24629693Y23212014D01*
X24568606Y23439993D01*
X24478284Y23658049D01*
X24387580Y23815152D01*
X24377140Y23874364D01*
X24407204Y23926435D01*
X24463705Y23947000D01*
X24519460Y23947000D01*
X24519461Y23947000D01*
X24657553Y23987547D01*
X24778628Y24065357D01*
X24872877Y24174127D01*
X24932665Y24305043D01*
X24943131Y24377833D01*
X24953147Y24447497D01*
X24953147Y24447504D01*
X24932666Y24589951D01*
X24932665Y24589952D01*
X24932665Y24589957D01*
X24872877Y24720873D01*
X24778628Y24829643D01*
X24778626Y24829644D01*
X24778624Y24829646D01*
X24657554Y24907453D01*
X24657550Y24907454D01*
X24519467Y24947999D01*
X24519461Y24948000D01*
X24375539Y24948000D01*
X24375538Y24948000D01*
X24375532Y24947999D01*
X24237449Y24907454D01*
X24237445Y24907453D01*
X24116375Y24829646D01*
X24116370Y24829642D01*
X24022122Y24720872D01*
X23962335Y24589957D01*
X23962333Y24589951D01*
X23942669Y24453180D01*
X23914273Y24400180D01*
X23858453Y24377833D01*
X23811715Y24389565D01*
X23658049Y24478284D01*
X23658047Y24478285D01*
X23658045Y24478286D01*
X23658043Y24478287D01*
X23519594Y24535634D01*
X23439993Y24568606D01*
X23360333Y24589951D01*
X23212026Y24629690D01*
X23212014Y24629693D01*
X22978013Y24660500D01*
X22978011Y24660500D01*
X22741989Y24660500D01*
X22741987Y24660500D01*
X22507985Y24629693D01*
X22507973Y24629690D01*
X22280013Y24568608D01*
X22280009Y24568607D01*
X22280007Y24568606D01*
X22280005Y24568605D01*
X22061956Y24478287D01*
X22061954Y24478286D01*
X21857547Y24360272D01*
X21670304Y24216595D01*
X21503405Y24049696D01*
X21359728Y23862453D01*
X21241714Y23658046D01*
X21241713Y23658044D01*
X21151395Y23439995D01*
X21151392Y23439987D01*
X21090310Y23212027D01*
X21090307Y23212015D01*
X21063962Y23011900D01*
X21059500Y22978011D01*
X7446007Y22978011D01*
X7368398Y23000800D01*
X7368394Y23000800D01*
X7236606Y23000800D01*
X7236601Y23000800D01*
X7110157Y22963671D01*
X7110153Y22963670D01*
X6999294Y22892425D01*
X6999289Y22892420D01*
X6912989Y22792826D01*
X6858242Y22672946D01*
X6858240Y22672940D01*
X6839487Y22542504D01*
X6839487Y22542497D01*
X6858240Y22412061D01*
X6858241Y22412056D01*
X6858242Y22412054D01*
X6912989Y22292176D01*
X6999291Y22192578D01*
X6999292Y22192577D01*
X7003359Y22189964D01*
X7007618Y22187227D01*
X7044034Y22139382D01*
X7048000Y22113278D01*
X7048000Y22049328D01*
X7027435Y21992827D01*
X7022255Y21987173D01*
X6587827Y21552745D01*
X6533333Y21527334D01*
X6525672Y21527000D01*
X3964877Y21527000D01*
X3908376Y21547565D01*
X3878312Y21599636D01*
X3888753Y21658850D01*
X3895141Y21668410D01*
X3967983Y21763340D01*
X4040273Y21857550D01*
X4158284Y22061951D01*
X4248606Y22280007D01*
X4309693Y22507986D01*
X4340500Y22741989D01*
X4340500Y22978011D01*
X4336038Y23011900D01*
X4321171Y23124830D01*
X4309693Y23212014D01*
X4248606Y23439993D01*
X4158284Y23658049D01*
X4040273Y23862450D01*
X3896592Y24049699D01*
X3729699Y24216592D01*
X3708208Y24233082D01*
X3542452Y24360272D01*
X3473329Y24400180D01*
X3338049Y24478284D01*
X3338047Y24478285D01*
X3338045Y24478286D01*
X3338043Y24478287D01*
X3199594Y24535634D01*
X3119993Y24568606D01*
X3040333Y24589951D01*
X2892026Y24629690D01*
X2892014Y24629693D01*
X2658013Y24660500D01*
X2658011Y24660500D01*
X2421989Y24660500D01*
X2421987Y24660500D01*
X2187985Y24629693D01*
X2187973Y24629690D01*
X1960013Y24568608D01*
X1960009Y24568607D01*
X1960007Y24568606D01*
X1960005Y24568605D01*
X1741956Y24478287D01*
X1741954Y24478286D01*
X1537547Y24360272D01*
X1350304Y24216595D01*
X1183405Y24049696D01*
X1039728Y23862453D01*
X921714Y23658046D01*
X921713Y23658044D01*
X831395Y23439995D01*
X831392Y23439987D01*
X770310Y23212027D01*
X770307Y23212015D01*
X743962Y23011900D01*
X739500Y22978011D01*
X0Y22978011D01*
X0Y25312100D01*
X20565Y25368601D01*
X72636Y25398665D01*
X87900Y25400000D01*
X8650395Y25400000D01*
X8706896Y25379435D01*
G37*
%TD.AperFunction*%
%TD*%
M02*
