%TF.GenerationSoftware,KiCad,Pcbnew,8.0.6*%
%TF.CreationDate,2024-11-09T20:31:53-07:00*%
%TF.ProjectId,SparkFun_Qwiic_Navigation,53706172-6b46-4756-9e5f-51776969635f,rev?*%
%TF.SameCoordinates,Original*%
%TF.FileFunction,Legend,Bot*%
%TF.FilePolarity,Positive*%
%FSLAX46Y46*%
G04 Gerber Fmt 4.6, Leading zero omitted, Abs format (unit mm)*
G04 Created by KiCad (PCBNEW 8.0.6) date 2024-11-09 20:31:53*
%MOMM*%
%LPD*%
G01*
G04 APERTURE LIST*
%ADD10C,0.120000*%
%ADD11C,0.203200*%
%ADD12C,0.152400*%
%ADD13C,0.000000*%
%ADD14C,0.200000*%
%ADD15C,0.018437*%
G04 APERTURE END LIST*
D10*
%TO.C,R14*%
X6587258Y22112500D02*
X6112742Y22112500D01*
X6587258Y21067500D02*
X6112742Y21067500D01*
%TO.C,R8*%
X12177500Y7382742D02*
X12177500Y7857258D01*
X13222500Y7382742D02*
X13222500Y7857258D01*
D11*
%TO.C,J1*%
X20987500Y15700000D02*
X22637500Y15700000D01*
X20987500Y14950000D02*
X20987500Y15700000D01*
X20987500Y9700000D02*
X20987500Y10450000D01*
X22637500Y9700000D02*
X20987500Y9700000D01*
X25237500Y11200000D02*
X25237500Y14200000D01*
%TO.C,J3*%
X162500Y14200000D02*
X162500Y11200000D01*
X2762500Y15700000D02*
X4412500Y15700000D01*
X4412500Y15700000D02*
X4412500Y14950000D01*
X4412500Y10450000D02*
X4412500Y9700000D01*
X4412500Y9700000D02*
X2762500Y9700000D01*
D12*
%TO.C,JP5*%
X7874000Y20828000D02*
X7874000Y22352000D01*
X9448800Y22809200D02*
X8331200Y22809200D01*
X9448800Y20370800D02*
X8331200Y20370800D01*
X9906000Y22352000D02*
X9906000Y20828000D01*
X7874000Y22352000D02*
G75*
G02*
X8331200Y22809200I457200J0D01*
G01*
X8331200Y20370800D02*
G75*
G02*
X7874000Y20828000I1J457201D01*
G01*
X9448800Y22809200D02*
G75*
G02*
X9906000Y22352000I0J-457200D01*
G01*
X9906000Y20828000D02*
G75*
G02*
X9448800Y20370800I-457201J1D01*
G01*
D10*
%TO.C,C1*%
X9015000Y17285580D02*
X9015000Y17004420D01*
X10035000Y17285580D02*
X10035000Y17004420D01*
D13*
%TO.C,G\u002A\u002A\u002A*%
G36*
X23076886Y5312372D02*
G01*
X23125239Y5306042D01*
X23166840Y5289834D01*
X23204453Y5262752D01*
X23221649Y5245827D01*
X23252287Y5204224D01*
X23272649Y5156320D01*
X23283138Y5100979D01*
X23284153Y5037066D01*
X23281220Y5005485D01*
X23267935Y4948230D01*
X23244964Y4899732D01*
X23212513Y4860278D01*
X23170790Y4830156D01*
X23120000Y4809650D01*
X23111569Y4807640D01*
X23083287Y4803943D01*
X23055838Y4803744D01*
X23030373Y4806729D01*
X22981217Y4819882D01*
X22940307Y4842834D01*
X22906286Y4876485D01*
X22877795Y4921734D01*
X22870534Y4936265D01*
X22860473Y4959142D01*
X22854360Y4979838D01*
X22850875Y5003509D01*
X22848697Y5035312D01*
X22848009Y5071341D01*
X22853508Y5129819D01*
X22868123Y5180061D01*
X22892309Y5223396D01*
X22926526Y5261152D01*
X22936529Y5269708D01*
X22974815Y5294289D01*
X23017029Y5308174D01*
X23066379Y5312540D01*
X23076886Y5312372D01*
G37*
G36*
X22508283Y4877226D02*
G01*
X22508283Y4182796D01*
X20912063Y4184786D01*
X19315843Y4186775D01*
X19251403Y4201595D01*
X19222074Y4208708D01*
X19120610Y4239888D01*
X19028144Y4279600D01*
X18943073Y4328736D01*
X18863792Y4388187D01*
X18788698Y4458846D01*
X18760004Y4489955D01*
X18692843Y4575081D01*
X18638158Y4664677D01*
X18595832Y4759039D01*
X18565745Y4858459D01*
X18547779Y4963234D01*
X18541817Y5073656D01*
X18542157Y5101201D01*
X18549854Y5201391D01*
X18568180Y5296012D01*
X18571369Y5305896D01*
X19225879Y5305896D01*
X19277505Y5305750D01*
X19306582Y5304498D01*
X19344798Y5297164D01*
X19377897Y5281886D01*
X19410175Y5257087D01*
X19440682Y5221052D01*
X19463134Y5176768D01*
X19477325Y5126757D01*
X19483182Y5073419D01*
X19480633Y5019158D01*
X19469604Y4966375D01*
X19450022Y4917473D01*
X19421814Y4874853D01*
X19401920Y4854499D01*
X19370314Y4833704D01*
X19332099Y4821058D01*
X19284612Y4815410D01*
X19225879Y4812602D01*
X19227675Y4678880D01*
X19229471Y4545158D01*
X19292589Y4544196D01*
X19323469Y4544221D01*
X19389026Y4548615D01*
X19423475Y4555124D01*
X19883904Y4555124D01*
X20050004Y4555124D01*
X20216104Y4555124D01*
X20216104Y5063390D01*
X20282544Y5063390D01*
X20282544Y4555124D01*
X20448644Y4555124D01*
X20614744Y4555124D01*
X20614744Y5063390D01*
X20614744Y5567362D01*
X20661252Y5567362D01*
X20661677Y5565909D01*
X20665782Y5554033D01*
X20673970Y5531028D01*
X20685901Y5497833D01*
X20701234Y5455388D01*
X20719627Y5404632D01*
X20740741Y5346507D01*
X20764235Y5281950D01*
X20789767Y5211903D01*
X20816996Y5137305D01*
X20845582Y5059096D01*
X21029913Y4555124D01*
X21196053Y4555132D01*
X21362194Y4555140D01*
X21458099Y4867501D01*
X21461157Y4877450D01*
X21480002Y4938330D01*
X21497713Y4994811D01*
X21513901Y5045706D01*
X21528177Y5089825D01*
X21540155Y5125980D01*
X21549446Y5152983D01*
X21555662Y5169645D01*
X21558415Y5174777D01*
X21558485Y5174678D01*
X21561526Y5166681D01*
X21568052Y5147317D01*
X21577663Y5117838D01*
X21589963Y5079490D01*
X21604551Y5033525D01*
X21621029Y4981190D01*
X21639000Y4923735D01*
X21658064Y4862409D01*
X21753303Y4555124D01*
X21919846Y4555239D01*
X22086389Y4555353D01*
X22270116Y5061843D01*
X22453843Y5568334D01*
X22287190Y5570111D01*
X22266907Y5570303D01*
X22212608Y5570481D01*
X22170894Y5570018D01*
X22141242Y5568897D01*
X22123132Y5567101D01*
X22116042Y5564614D01*
X22115390Y5563025D01*
X22111304Y5550643D01*
X22103996Y5527207D01*
X22093830Y5493928D01*
X22081173Y5452021D01*
X22066389Y5402695D01*
X22049842Y5347165D01*
X22031899Y5286640D01*
X22012925Y5222334D01*
X22004633Y5194236D01*
X21986134Y5132056D01*
X21968820Y5074548D01*
X21953051Y5022867D01*
X21939189Y4978168D01*
X21927594Y4941607D01*
X21918625Y4914341D01*
X21912643Y4897523D01*
X21910008Y4892310D01*
X21908462Y4896201D01*
X21903435Y4911701D01*
X21895432Y4937727D01*
X21884843Y4972962D01*
X21872062Y5016090D01*
X21857480Y5065794D01*
X21841489Y5120756D01*
X21824481Y5179660D01*
X21814623Y5213908D01*
X21797247Y5274183D01*
X21780684Y5331532D01*
X21765407Y5384315D01*
X21751893Y5430891D01*
X21740619Y5469617D01*
X21732058Y5498854D01*
X21726689Y5516960D01*
X21710128Y5571890D01*
X21549839Y5570112D01*
X21389549Y5568334D01*
X21357679Y5458708D01*
X21352023Y5439252D01*
X21324010Y5342927D01*
X21299421Y5258474D01*
X21278020Y5185149D01*
X21259571Y5122203D01*
X21243836Y5068888D01*
X21230580Y5024459D01*
X21219566Y4988167D01*
X21210557Y4959265D01*
X21203318Y4937007D01*
X21197612Y4920645D01*
X21193202Y4909431D01*
X21189853Y4902619D01*
X21187327Y4899461D01*
X21185389Y4899210D01*
X21183802Y4901119D01*
X21182329Y4904441D01*
X21181888Y4905641D01*
X21177760Y4918393D01*
X21170377Y4942311D01*
X21160128Y4976101D01*
X21147400Y5018465D01*
X21132583Y5068108D01*
X21116063Y5123736D01*
X21098229Y5184052D01*
X21079470Y5247761D01*
X20984292Y5571656D01*
X20822772Y5571656D01*
X20789766Y5571565D01*
X20748311Y5571169D01*
X20712929Y5570503D01*
X20685422Y5569614D01*
X20667595Y5568552D01*
X20661252Y5567362D01*
X20614744Y5567362D01*
X20614744Y5571656D01*
X20448644Y5571656D01*
X20282544Y5571656D01*
X20282544Y5063390D01*
X20216104Y5063390D01*
X20216104Y5571656D01*
X20050004Y5571656D01*
X19883904Y5571656D01*
X19883904Y5063390D01*
X19883904Y5060068D01*
X19883904Y4555124D01*
X19423475Y4555124D01*
X19448720Y4559894D01*
X19506933Y4579059D01*
X19568045Y4607111D01*
X19613719Y4633985D01*
X19672275Y4681077D01*
X19721384Y4737309D01*
X19760409Y4802039D01*
X19770424Y4822830D01*
X19786660Y4859803D01*
X19798389Y4893359D01*
X19806306Y4926831D01*
X19811105Y4963550D01*
X19813480Y5006852D01*
X19814124Y5060068D01*
X19813218Y5115264D01*
X19809800Y5164031D01*
X19803124Y5206327D01*
X19792447Y5245590D01*
X19777028Y5285260D01*
X19756124Y5328774D01*
X19745636Y5347659D01*
X19708678Y5399823D01*
X19662951Y5448714D01*
X19611745Y5491091D01*
X19558349Y5523710D01*
X19546500Y5529502D01*
X19491204Y5552686D01*
X19436733Y5568238D01*
X19378651Y5577186D01*
X19312521Y5580554D01*
X19229471Y5581622D01*
X19227675Y5443759D01*
X19225879Y5305896D01*
X18571369Y5305896D01*
X18597781Y5387751D01*
X18639302Y5479293D01*
X18652523Y5503969D01*
X18710621Y5595274D01*
X18778319Y5677625D01*
X18855102Y5750627D01*
X18940454Y5813884D01*
X19033857Y5867003D01*
X19134798Y5909587D01*
X19242759Y5941241D01*
X19247330Y5942261D01*
X19253277Y5943401D01*
X19260196Y5944464D01*
X19268545Y5945450D01*
X19278778Y5946364D01*
X19291353Y5947207D01*
X19306725Y5947984D01*
X19325351Y5948695D01*
X19347686Y5949346D01*
X19374187Y5949937D01*
X19405310Y5950472D01*
X19441511Y5950953D01*
X19483245Y5951384D01*
X19530970Y5951768D01*
X19585142Y5952106D01*
X19646215Y5952402D01*
X19714647Y5952659D01*
X19790894Y5952879D01*
X19875411Y5953066D01*
X19968656Y5953221D01*
X20071083Y5953348D01*
X20183149Y5953450D01*
X20305311Y5953529D01*
X20438024Y5953589D01*
X20581744Y5953631D01*
X20736928Y5953659D01*
X20904031Y5953676D01*
X21083511Y5953684D01*
X21275822Y5953686D01*
X23255733Y5953686D01*
X23327315Y5935504D01*
X23370574Y5923536D01*
X23471597Y5886917D01*
X23564896Y5839870D01*
X23651473Y5781842D01*
X23732331Y5712281D01*
X23803708Y5635868D01*
X23867497Y5549690D01*
X23919317Y5457821D01*
X23959277Y5360033D01*
X23987485Y5256099D01*
X24004052Y5145793D01*
X24007043Y5047665D01*
X23997901Y4946575D01*
X23976891Y4844849D01*
X23944309Y4744478D01*
X23926297Y4701539D01*
X23877911Y4610285D01*
X23818984Y4525824D01*
X23750523Y4448904D01*
X23673534Y4380275D01*
X23589026Y4320687D01*
X23498005Y4270888D01*
X23401479Y4231627D01*
X23300454Y4203655D01*
X23195937Y4187719D01*
X23188695Y4187273D01*
X23167538Y4186533D01*
X23136688Y4185811D01*
X23098373Y4185150D01*
X23054816Y4184592D01*
X23008244Y4184177D01*
X22847127Y4183060D01*
X22847127Y4431519D01*
X22847127Y4679977D01*
X22886475Y4641475D01*
X22894851Y4633546D01*
X22948083Y4593666D01*
X23008265Y4564980D01*
X23074973Y4547649D01*
X23147783Y4541836D01*
X23216736Y4546011D01*
X23292919Y4561806D01*
X23365359Y4589706D01*
X23421762Y4623076D01*
X23476030Y4669196D01*
X23522769Y4724620D01*
X23560322Y4787664D01*
X23574983Y4819020D01*
X23591260Y4859929D01*
X23603238Y4900449D01*
X23612192Y4945138D01*
X23619398Y4998551D01*
X23623061Y5054988D01*
X23620299Y5130248D01*
X23609570Y5204518D01*
X23591433Y5274223D01*
X23566450Y5335794D01*
X23529021Y5398407D01*
X23480021Y5456647D01*
X23422606Y5504879D01*
X23357408Y5542581D01*
X23285056Y5569229D01*
X23284082Y5569496D01*
X23245988Y5576806D01*
X23200548Y5580861D01*
X23151821Y5581718D01*
X23103867Y5579432D01*
X23060745Y5574060D01*
X23026515Y5565658D01*
X22991327Y5551706D01*
X22933859Y5519460D01*
X22882008Y5476555D01*
X22847127Y5442552D01*
X22847127Y5507104D01*
X22847127Y5571656D01*
X22677705Y5571656D01*
X22508283Y5571656D01*
X22508283Y5568334D01*
X22508283Y4877226D01*
G37*
D12*
%TO.C,JP7*%
X10414000Y20828000D02*
X10414000Y22352000D01*
X11988800Y22809200D02*
X10871200Y22809200D01*
X11988800Y20370800D02*
X10871200Y20370800D01*
X12446000Y22352000D02*
X12446000Y20828000D01*
X10414000Y22352000D02*
G75*
G02*
X10871200Y22809200I457200J0D01*
G01*
X10871200Y20370800D02*
G75*
G02*
X10414000Y20828000I1J457201D01*
G01*
X11988800Y22809200D02*
G75*
G02*
X12446000Y22352000I0J-457200D01*
G01*
X12446000Y20828000D02*
G75*
G02*
X11988800Y20370800I-457201J1D01*
G01*
D10*
%TO.C,U4*%
X10500000Y15435000D02*
X12700000Y15435000D01*
X10500000Y9965000D02*
X12700000Y9965000D01*
X14900000Y15435000D02*
X12700000Y15435000D01*
X14900000Y9965000D02*
X12700000Y9965000D01*
D14*
X15300000Y15900000D02*
G75*
G02*
X15100000Y15900000I-100000J0D01*
G01*
X15100000Y15900000D02*
G75*
G02*
X15300000Y15900000I100000J0D01*
G01*
D12*
%TO.C,JP1*%
X18669000Y16510000D02*
X18669000Y18237200D01*
X20447000Y18491200D02*
X18923000Y18491200D01*
X20447000Y16256000D02*
X18923000Y16256000D01*
X20701000Y18237200D02*
X20701000Y16510000D01*
X18669000Y18237200D02*
G75*
G02*
X18923000Y18491200I254000J0D01*
G01*
X18923000Y16256000D02*
G75*
G02*
X18669000Y16510000I0J254000D01*
G01*
X20447000Y18491200D02*
G75*
G02*
X20701000Y18237200I0J-254000D01*
G01*
X20701000Y16510000D02*
G75*
G02*
X20447000Y16256000I-254000J0D01*
G01*
D13*
%TO.C,kibuzzard-66F18F8F*%
G36*
X11651459Y19810536D02*
G01*
X11668197Y19750021D01*
X11652103Y19688219D01*
X11599957Y19668906D01*
X11554249Y19689506D01*
X11536867Y19742296D01*
X11553605Y19805386D01*
X11597382Y19828562D01*
X11651459Y19810536D01*
G37*
G36*
X12102961Y19435858D02*
G01*
X12102961Y19221266D01*
X12099721Y19155304D01*
X12090031Y19089978D01*
X12073984Y19025916D01*
X12051735Y18963735D01*
X12023499Y18904034D01*
X11989547Y18847389D01*
X11950206Y18794344D01*
X11905856Y18745411D01*
X11856922Y18701060D01*
X11803877Y18661719D01*
X11747232Y18627767D01*
X11687531Y18599531D01*
X11625350Y18577282D01*
X11561288Y18561235D01*
X11495962Y18551545D01*
X11430000Y18548305D01*
X11364038Y18551545D01*
X11298712Y18561235D01*
X11234650Y18577282D01*
X11172469Y18599531D01*
X11112768Y18627767D01*
X11056123Y18661719D01*
X11003078Y18701060D01*
X10954144Y18745411D01*
X10909794Y18794344D01*
X10870453Y18847389D01*
X10836501Y18904034D01*
X10808265Y18963735D01*
X10786016Y19025916D01*
X10769969Y19089978D01*
X10760279Y19155304D01*
X10757039Y19221266D01*
X10757039Y19435858D01*
X10757039Y19573627D01*
X10971631Y19573627D01*
X10974206Y19530494D01*
X10987082Y19496373D01*
X11022489Y19468691D01*
X11090086Y19460322D01*
X11157039Y19469335D01*
X11193090Y19498948D01*
X11205322Y19534356D01*
X11207253Y19578777D01*
X11217554Y19663594D01*
X11248455Y19727489D01*
X11291588Y19773358D01*
X11338584Y19804099D01*
X11325708Y19735858D01*
X11334649Y19658677D01*
X11361474Y19588505D01*
X11406180Y19525343D01*
X11462761Y19475629D01*
X11525207Y19445801D01*
X11593519Y19435858D01*
X11671702Y19445801D01*
X11741445Y19475629D01*
X11802747Y19525343D01*
X11850315Y19589506D01*
X11878856Y19662682D01*
X11888369Y19744871D01*
X11877425Y19838934D01*
X11844592Y19918548D01*
X11789871Y19983712D01*
X11715980Y20031996D01*
X11625637Y20060966D01*
X11518841Y20070622D01*
X11425159Y20065112D01*
X11338790Y20048579D01*
X11259734Y20021026D01*
X11187991Y19982451D01*
X11123562Y19932854D01*
X11057092Y19858739D01*
X11009614Y19774163D01*
X10981127Y19679126D01*
X10971631Y19573627D01*
X10757039Y19573627D01*
X10757039Y20070622D01*
X10757039Y20821695D01*
X12102961Y20821695D01*
X12102961Y20070622D01*
X12102961Y19744871D01*
X12102961Y19435858D01*
G37*
%TO.C,kibuzzard-66EF7B7C*%
G36*
X19664592Y12626609D02*
G01*
X19618240Y12544635D01*
X19664592Y12496137D01*
X19680043Y12398712D01*
X19668026Y12309442D01*
X19629399Y12261373D01*
X19583906Y12245064D01*
X19525536Y12242489D01*
X18967597Y12242489D01*
X18910086Y12245064D01*
X18862876Y12261373D01*
X18823391Y12308584D01*
X18811373Y12396996D01*
X18828970Y12500858D01*
X18881760Y12544635D01*
X18830258Y12624034D01*
X18819811Y12685408D01*
X19122103Y12685408D01*
X19158155Y12598712D01*
X19245708Y12563519D01*
X19332403Y12598712D01*
X19369313Y12681974D01*
X19332403Y12772103D01*
X19247425Y12810730D01*
X19159871Y12773820D01*
X19122103Y12685408D01*
X18819811Y12685408D01*
X18813090Y12724893D01*
X18827778Y12823319D01*
X18871841Y12914878D01*
X18945279Y12999571D01*
X19037220Y13067287D01*
X19136791Y13107916D01*
X19243991Y13121459D01*
X19354053Y13108011D01*
X19455341Y13067668D01*
X19547854Y13000429D01*
X19621292Y12916023D01*
X19665355Y12824177D01*
X19680043Y12724893D01*
X19673296Y12681974D01*
X19664592Y12626609D01*
G37*
G36*
X19360730Y13610730D02*
G01*
X19353863Y13540558D01*
X19333262Y13467382D01*
X19299785Y13394421D01*
X19254292Y13324893D01*
X19193991Y13263305D01*
X19116094Y13214163D01*
X19024464Y13181974D01*
X18922961Y13171245D01*
X18821030Y13182189D01*
X18728112Y13215021D01*
X18648927Y13264592D01*
X18588197Y13325751D01*
X18542704Y13394421D01*
X18509227Y13466524D01*
X18488627Y13539056D01*
X18481760Y13609013D01*
X18481760Y13794421D01*
X18795923Y13794421D01*
X18795923Y13610730D01*
X18831974Y13520601D01*
X18921245Y13483691D01*
X19015665Y13524034D01*
X19046567Y13609013D01*
X19046567Y13794421D01*
X18795923Y13794421D01*
X18481760Y13794421D01*
X18481760Y13950644D01*
X18493777Y14041631D01*
X18533262Y14089700D01*
X18580472Y14106009D01*
X18637983Y14108584D01*
X19523820Y14108584D01*
X19583047Y14106009D01*
X19630258Y14089700D01*
X19669742Y14041631D01*
X19681760Y13952361D01*
X19669742Y13861373D01*
X19631116Y13813305D01*
X19584764Y13796996D01*
X19525536Y13794421D01*
X19360730Y13794421D01*
X19360730Y13610730D01*
G37*
G36*
X19664592Y11669957D02*
G01*
X19618240Y11586695D01*
X19665880Y11537768D01*
X19681760Y11445923D01*
X19669742Y11357511D01*
X19630258Y11310300D01*
X19583047Y11293991D01*
X19525536Y11291416D01*
X18572747Y11291416D01*
X18515236Y11293991D01*
X18468884Y11310300D01*
X18430258Y11357511D01*
X18418240Y11447639D01*
X18426824Y11522318D01*
X18450858Y11566953D01*
X18486910Y11589270D01*
X18529828Y11596137D01*
X18574464Y11595279D01*
X18869742Y11595279D01*
X18827253Y11674678D01*
X18819040Y11729185D01*
X19123820Y11729185D01*
X19159871Y11641631D01*
X19247425Y11605579D01*
X19334120Y11641631D01*
X19371030Y11727468D01*
X19334120Y11815021D01*
X19247425Y11852790D01*
X19159871Y11816738D01*
X19123820Y11729185D01*
X18819040Y11729185D01*
X18813090Y11768670D01*
X18827778Y11867096D01*
X18871841Y11958655D01*
X18945279Y12043348D01*
X19037220Y12111063D01*
X19136791Y12151693D01*
X19243991Y12165236D01*
X19354053Y12151788D01*
X19455341Y12111445D01*
X19547854Y12044206D01*
X19621292Y11959800D01*
X19665355Y11867954D01*
X19680043Y11768670D01*
X19673594Y11727468D01*
X19664592Y11669957D01*
G37*
%TO.C,kibuzzard-66F182A6*%
G36*
X7350118Y7390579D02*
G01*
X7350118Y6490579D01*
X7350118Y6178991D01*
X7350118Y5964399D01*
X7346831Y5897491D01*
X7337002Y5831227D01*
X7320725Y5766246D01*
X7298157Y5703173D01*
X7269515Y5642615D01*
X7235076Y5585157D01*
X7195171Y5531351D01*
X7150184Y5481715D01*
X7100548Y5436728D01*
X7046742Y5396823D01*
X6989284Y5362384D01*
X6928727Y5333742D01*
X6865654Y5311174D01*
X6800672Y5294897D01*
X6734408Y5285068D01*
X6667500Y5281781D01*
X6600592Y5285068D01*
X6534328Y5294897D01*
X6469346Y5311174D01*
X6406273Y5333742D01*
X6345716Y5362384D01*
X6288258Y5396823D01*
X6234452Y5436728D01*
X6184816Y5481715D01*
X6139829Y5531351D01*
X6099924Y5585157D01*
X6065485Y5642615D01*
X6036843Y5703173D01*
X6014275Y5766246D01*
X5997998Y5831227D01*
X5988169Y5897491D01*
X5984882Y5964399D01*
X5984882Y6178991D01*
X5984882Y6486717D01*
X6212350Y6486717D01*
X6220361Y6410036D01*
X6244396Y6331066D01*
X6284453Y6249807D01*
X6308916Y6215043D01*
X6335955Y6191223D01*
X6374582Y6178991D01*
X6446685Y6207318D01*
X6498830Y6255601D01*
X6516212Y6300021D01*
X6486599Y6369549D01*
X6480805Y6377918D01*
X6473723Y6388863D01*
X6466642Y6401094D01*
X6460204Y6418476D01*
X6455054Y6439077D01*
X6450547Y6464828D01*
X6449260Y6495730D01*
X6462135Y6569120D01*
X6500118Y6641867D01*
X6570290Y6699163D01*
X6618573Y6715579D01*
X6673294Y6721052D01*
X6743627Y6711234D01*
X6802693Y6681781D01*
X6847918Y6640097D01*
X6876727Y6593584D01*
X6897328Y6495730D01*
X6886706Y6427811D01*
X6854839Y6363112D01*
X6829088Y6298734D01*
X6847436Y6254957D01*
X6902479Y6208605D01*
X6977157Y6180279D01*
X7024152Y6198305D01*
X7063423Y6251094D01*
X7103480Y6327489D01*
X7127514Y6407318D01*
X7135526Y6490579D01*
X7131663Y6545139D01*
X7120075Y6603240D01*
X7099313Y6664077D01*
X7067929Y6726846D01*
X7027371Y6787200D01*
X6979088Y6840794D01*
X6919700Y6886663D01*
X6845826Y6923841D01*
X6760526Y6948466D01*
X6666856Y6956674D01*
X6576727Y6948627D01*
X6494324Y6924485D01*
X6422704Y6887790D01*
X6364925Y6842082D01*
X6317929Y6788487D01*
X6278659Y6728133D01*
X6248240Y6665043D01*
X6227800Y6603240D01*
X6216212Y6543530D01*
X6212350Y6486717D01*
X5984882Y6486717D01*
X5984882Y7252811D01*
X6199474Y7252811D01*
X6217661Y7155601D01*
X6272221Y7075129D01*
X6353498Y7021052D01*
X6451835Y7003026D01*
X6528802Y7017189D01*
X6600046Y7059678D01*
X6665569Y7130494D01*
X6665569Y7063541D01*
X6667500Y7035215D01*
X6677800Y7010107D01*
X6708058Y6987575D01*
X6765998Y6979850D01*
X6822006Y6986931D01*
X6851620Y7008820D01*
X6861921Y7033927D01*
X6863852Y7063541D01*
X6863852Y7390579D01*
X6835526Y7470408D01*
X6758273Y7500021D01*
X6686491Y7481030D01*
X6625655Y7424056D01*
X6600547Y7387682D01*
X6569002Y7332639D01*
X6535365Y7276148D01*
X6503981Y7235429D01*
X6435097Y7202597D01*
X6424796Y7205815D01*
X6407414Y7221266D01*
X6397758Y7251524D01*
X6411921Y7285644D01*
X6435097Y7299807D01*
X6450547Y7301738D01*
X6485955Y7304957D01*
X6516212Y7318476D01*
X6539388Y7351309D01*
X6547114Y7408605D01*
X6538101Y7461395D01*
X6511062Y7489721D01*
X6481448Y7499378D01*
X6450547Y7501309D01*
X6353981Y7483283D01*
X6272865Y7429206D01*
X6217822Y7349056D01*
X6199474Y7252811D01*
X5984882Y7252811D01*
X5984882Y7672554D01*
X6221363Y7672554D01*
X6230376Y7605601D01*
X6259989Y7569549D01*
X6295397Y7557318D01*
X6339818Y7555386D01*
X7005483Y7555386D01*
X7049903Y7557318D01*
X7084667Y7569549D01*
X7113637Y7605601D01*
X7122650Y7673841D01*
X7113637Y7740794D01*
X7084024Y7776846D01*
X7048616Y7789077D01*
X7004195Y7791009D01*
X6338530Y7791009D01*
X6295397Y7789077D01*
X6259989Y7776846D01*
X6230376Y7740794D01*
X6221363Y7672554D01*
X5984882Y7672554D01*
X5984882Y7791009D01*
X5984882Y8005601D01*
X5988169Y8072509D01*
X5997998Y8138773D01*
X6014275Y8203754D01*
X6036843Y8266827D01*
X6065485Y8327385D01*
X6099924Y8384843D01*
X6139829Y8438649D01*
X6184816Y8488285D01*
X6234452Y8533272D01*
X6288258Y8573177D01*
X6345716Y8607616D01*
X6406273Y8636258D01*
X6469346Y8658826D01*
X6534328Y8675103D01*
X6600592Y8684932D01*
X6667500Y8688219D01*
X6734408Y8684932D01*
X6800672Y8675103D01*
X6865654Y8658826D01*
X6928727Y8636258D01*
X6989284Y8607616D01*
X7046742Y8573177D01*
X7100548Y8533272D01*
X7150184Y8488285D01*
X7195171Y8438649D01*
X7235076Y8384843D01*
X7269515Y8327385D01*
X7298157Y8266827D01*
X7320725Y8203754D01*
X7337002Y8138773D01*
X7346831Y8072509D01*
X7350118Y8005601D01*
X7350118Y7791009D01*
X7350118Y7673841D01*
X7350118Y7390579D01*
G37*
%TO.C,kibuzzard-66EF7A03*%
G36*
X24728188Y18756532D02*
G01*
X24728188Y18565783D01*
X23531812Y18565783D01*
X23531812Y18756532D01*
X23531812Y19082712D01*
X23722561Y19082712D01*
X23732353Y19003742D01*
X23761728Y18933165D01*
X23810687Y18870981D01*
X23873634Y18822658D01*
X23944974Y18793664D01*
X24024707Y18784000D01*
X24082504Y18789579D01*
X24136867Y18806317D01*
X24185508Y18832211D01*
X24226137Y18865259D01*
X24286223Y18935073D01*
X24326853Y19003742D01*
X24326853Y18860681D01*
X24329142Y18821196D01*
X24340587Y18790294D01*
X24372632Y18764543D01*
X24433290Y18756532D01*
X24492232Y18764543D01*
X24523705Y18790867D01*
X24535150Y18823485D01*
X24537439Y18862970D01*
X24537439Y19276131D01*
X24505966Y19349379D01*
X24431001Y19380280D01*
X24372918Y19369980D01*
X24319986Y19339078D01*
X24279213Y19299307D01*
X24237010Y19244086D01*
X24197668Y19183714D01*
X24165479Y19128492D01*
X24133433Y19078850D01*
X24094521Y19035216D01*
X24051602Y19004744D01*
X24007539Y18994586D01*
X23977210Y18998592D01*
X23947454Y19023771D01*
X23932003Y19081568D01*
X23955751Y19148521D01*
X24026996Y19170838D01*
X24063619Y19172555D01*
X24092804Y19183428D01*
X24116838Y19215473D01*
X24124278Y19276131D01*
X24116266Y19335645D01*
X24089943Y19367691D01*
X24058469Y19378563D01*
X24018984Y19380280D01*
X23945864Y19371124D01*
X23877576Y19343656D01*
X23814120Y19297877D01*
X23763254Y19237346D01*
X23732734Y19165624D01*
X23722561Y19082712D01*
X23531812Y19082712D01*
X23531812Y19380280D01*
X23531812Y19571029D01*
X23534693Y19629662D01*
X23543306Y19687730D01*
X23557570Y19744674D01*
X23577346Y19799945D01*
X23602445Y19853013D01*
X23632625Y19903364D01*
X23667595Y19950515D01*
X23707017Y19994012D01*
X23750514Y20033434D01*
X23797665Y20068404D01*
X23848016Y20098583D01*
X23901083Y20123682D01*
X23956355Y20143459D01*
X24013299Y20157723D01*
X24071367Y20166336D01*
X24130000Y20169217D01*
X24188633Y20166336D01*
X24246701Y20157723D01*
X24303645Y20143459D01*
X24358917Y20123682D01*
X24411984Y20098583D01*
X24462335Y20068404D01*
X24509486Y20033434D01*
X24552983Y19994012D01*
X24592405Y19950515D01*
X24627375Y19903364D01*
X24657555Y19853013D01*
X24682654Y19799945D01*
X24702430Y19744674D01*
X24716694Y19687730D01*
X24725307Y19629662D01*
X24728188Y19571029D01*
X24728188Y19380280D01*
X24728188Y19276131D01*
X24728188Y18756532D01*
G37*
D10*
%TO.C,R12*%
X9002500Y7382742D02*
X9002500Y7857258D01*
X10047500Y7382742D02*
X10047500Y7857258D01*
%TO.C,R13*%
X1667742Y6555000D02*
X2142258Y6555000D01*
X1667742Y5510000D02*
X2142258Y5510000D01*
D13*
%TO.C,kibuzzard-66EF7B15*%
G36*
X12111974Y3861073D02*
G01*
X12111974Y3033176D01*
X12111974Y2685536D01*
X12111974Y2149056D01*
X10748026Y2149056D01*
X10748026Y2685536D01*
X10748026Y3033176D01*
X10967768Y3033176D01*
X10977496Y2939542D01*
X11006681Y2859499D01*
X11055322Y2793047D01*
X11115837Y2743333D01*
X11180644Y2713505D01*
X11249742Y2703562D01*
X11344056Y2725773D01*
X11408112Y2792403D01*
X11477639Y2720300D01*
X11529142Y2694227D01*
X11590944Y2685536D01*
X11674278Y2696481D01*
X11747454Y2729313D01*
X11810472Y2784034D01*
X11858755Y2855494D01*
X11887725Y2938541D01*
X11897382Y3033176D01*
X11887725Y3121159D01*
X11858755Y3201416D01*
X11810472Y3273948D01*
X11749456Y3331173D01*
X11682289Y3365508D01*
X11608970Y3376953D01*
X11548133Y3344764D01*
X11527854Y3248197D01*
X11542017Y3177382D01*
X11602532Y3140043D01*
X11609614Y3137468D01*
X11625064Y3127811D01*
X11644378Y3108498D01*
X11659828Y3077597D01*
X11666910Y3031888D01*
X11646953Y2951416D01*
X11593519Y2921159D01*
X11537511Y2945944D01*
X11518841Y3020300D01*
X11518841Y3055708D01*
X11513047Y3085322D01*
X11496953Y3114292D01*
X11463476Y3129742D01*
X11406824Y3137468D01*
X11342446Y3129099D01*
X11308970Y3102060D01*
X11298026Y3069227D01*
X11296094Y3028026D01*
X11296094Y3019013D01*
X11287725Y2959142D01*
X11254893Y2940472D01*
X11210472Y2961717D01*
X11194378Y3020300D01*
X11207253Y3075665D01*
X11245880Y3113004D01*
X11298956Y3152203D01*
X11313977Y3206280D01*
X11290944Y3275236D01*
X11220129Y3338970D01*
X11131288Y3320300D01*
X11126781Y3318369D01*
X11112618Y3311288D01*
X11091373Y3298412D01*
X11065622Y3277811D01*
X11037940Y3249485D01*
X11011545Y3211502D01*
X10989013Y3163863D01*
X10973562Y3104635D01*
X10967768Y3033176D01*
X10748026Y3033176D01*
X10748026Y4126309D01*
X10975494Y4126309D01*
X11048884Y4067082D01*
X11549742Y3863648D01*
X11048884Y3660215D01*
X10976137Y3599700D01*
X10994807Y3504421D01*
X11056609Y3430386D01*
X11145451Y3445193D01*
X11816266Y3750343D01*
X11863262Y3794764D01*
X11880644Y3861073D01*
X11864549Y3933176D01*
X11816266Y3976953D01*
X11145451Y4282103D01*
X11055966Y4294979D01*
X10994807Y4222876D01*
X10975494Y4126309D01*
X10748026Y4126309D01*
X10748026Y4697983D01*
X10967768Y4697983D01*
X10977496Y4604349D01*
X11006681Y4524306D01*
X11055322Y4457854D01*
X11115837Y4408140D01*
X11180644Y4378312D01*
X11249742Y4368369D01*
X11344056Y4390579D01*
X11408112Y4457210D01*
X11477639Y4385107D01*
X11529142Y4359034D01*
X11590944Y4350343D01*
X11674278Y4361288D01*
X11747454Y4394120D01*
X11810472Y4448841D01*
X11858755Y4520300D01*
X11887725Y4603348D01*
X11897382Y4697983D01*
X11887725Y4785966D01*
X11858755Y4866223D01*
X11810472Y4938755D01*
X11749456Y4995980D01*
X11682289Y5030315D01*
X11608970Y5041760D01*
X11548133Y5009571D01*
X11527854Y4913004D01*
X11542017Y4842189D01*
X11602532Y4804850D01*
X11609614Y4802275D01*
X11625064Y4792618D01*
X11644378Y4773305D01*
X11659828Y4742403D01*
X11666910Y4696695D01*
X11646953Y4616223D01*
X11593519Y4585966D01*
X11537511Y4610751D01*
X11518841Y4685107D01*
X11518841Y4720515D01*
X11513047Y4750129D01*
X11496953Y4779099D01*
X11463476Y4794549D01*
X11406824Y4802275D01*
X11342446Y4793906D01*
X11308970Y4766867D01*
X11298026Y4734034D01*
X11296094Y4692833D01*
X11296094Y4683820D01*
X11287725Y4623948D01*
X11254893Y4605279D01*
X11210472Y4626524D01*
X11194378Y4685107D01*
X11207253Y4740472D01*
X11245880Y4777811D01*
X11298956Y4817010D01*
X11313977Y4871087D01*
X11290944Y4940043D01*
X11220129Y5003777D01*
X11131288Y4985107D01*
X11126781Y4983176D01*
X11112618Y4976094D01*
X11091373Y4963219D01*
X11065622Y4942618D01*
X11037940Y4914292D01*
X11011545Y4876309D01*
X10989013Y4828670D01*
X10973562Y4769442D01*
X10967768Y4697983D01*
X10748026Y4697983D01*
X10748026Y5041760D01*
X10748026Y5470944D01*
X12111974Y5470944D01*
X12111974Y5041760D01*
X12111974Y4697983D01*
X12111974Y3861073D01*
G37*
%TO.C,G\u002A\u002A\u002A*%
G36*
X8781481Y12216887D02*
G01*
X8424019Y12216887D01*
X8317413Y12106377D01*
X8781481Y11821318D01*
X8781481Y11475846D01*
X8124833Y11911660D01*
X7742927Y11519808D01*
X7742927Y11857288D01*
X8116747Y12216887D01*
X7347265Y12216887D01*
X7503689Y12502132D01*
X8781481Y12502132D01*
X8781481Y12216887D01*
G37*
G36*
X8781515Y12996079D02*
G01*
X8313543Y12996079D01*
X8279333Y12995237D01*
X8246137Y12992644D01*
X8214120Y12988196D01*
X8198605Y12985244D01*
X8183446Y12981790D01*
X8168665Y12977822D01*
X8154281Y12973325D01*
X8140315Y12968287D01*
X8126788Y12962696D01*
X8113720Y12956539D01*
X8101132Y12949802D01*
X8089044Y12942473D01*
X8077477Y12934539D01*
X8066452Y12925987D01*
X8055990Y12916804D01*
X8046110Y12906978D01*
X8036833Y12896496D01*
X8028180Y12885344D01*
X8020172Y12873510D01*
X8012828Y12860982D01*
X8006171Y12847745D01*
X8000219Y12833788D01*
X7994995Y12819098D01*
X7990517Y12803661D01*
X7986808Y12787465D01*
X7983887Y12770496D01*
X7981775Y12752743D01*
X7980493Y12734193D01*
X7980061Y12714831D01*
X7980252Y12701681D01*
X7980804Y12688069D01*
X7981688Y12674274D01*
X7982872Y12660575D01*
X7984327Y12647251D01*
X7986021Y12634580D01*
X7987924Y12622841D01*
X7990006Y12612314D01*
X7724930Y12612314D01*
X7722817Y12619851D01*
X7720891Y12627419D01*
X7719181Y12635042D01*
X7717715Y12642742D01*
X7716524Y12650542D01*
X7715637Y12658465D01*
X7715316Y12662480D01*
X7715083Y12666534D01*
X7714940Y12670631D01*
X7714892Y12674772D01*
X7715155Y12688105D01*
X7715938Y12701379D01*
X7717233Y12714580D01*
X7719029Y12727696D01*
X7721318Y12740712D01*
X7724090Y12753617D01*
X7727337Y12766396D01*
X7731050Y12779036D01*
X7735218Y12791525D01*
X7739833Y12803848D01*
X7744886Y12815992D01*
X7750368Y12827944D01*
X7756269Y12839691D01*
X7762580Y12851219D01*
X7769293Y12862516D01*
X7776398Y12873568D01*
X7783885Y12884361D01*
X7791746Y12894882D01*
X7799972Y12905119D01*
X7808553Y12915057D01*
X7817480Y12924683D01*
X7826744Y12933985D01*
X7836337Y12942948D01*
X7846248Y12951561D01*
X7856468Y12959808D01*
X7866989Y12967677D01*
X7877802Y12975155D01*
X7888896Y12982229D01*
X7900264Y12988884D01*
X7911895Y12995108D01*
X7923781Y13000888D01*
X7935912Y13006210D01*
X7935912Y13010114D01*
X7742961Y13010114D01*
X7791385Y13281324D01*
X8781515Y13281324D01*
X8781515Y12996079D01*
G37*
G36*
X7933767Y11302271D02*
G01*
X8781601Y11302271D01*
X8781601Y11017026D01*
X7933767Y11017026D01*
X7933767Y10820264D01*
X7742954Y10820264D01*
X7742954Y11017026D01*
X7680774Y11017026D01*
X7665198Y11016668D01*
X7650861Y11015575D01*
X7644148Y11014745D01*
X7637732Y11013722D01*
X7631610Y11012501D01*
X7625778Y11011081D01*
X7620231Y11009457D01*
X7614966Y11007626D01*
X7609978Y11005586D01*
X7605264Y11003332D01*
X7600820Y11000862D01*
X7596640Y10998171D01*
X7592723Y10995258D01*
X7589062Y10992117D01*
X7585655Y10988747D01*
X7582496Y10985144D01*
X7579583Y10981305D01*
X7576911Y10977226D01*
X7574477Y10972903D01*
X7572275Y10968335D01*
X7570302Y10963517D01*
X7568553Y10958446D01*
X7567026Y10953118D01*
X7565716Y10947531D01*
X7564618Y10941682D01*
X7563729Y10935566D01*
X7563044Y10929181D01*
X7562560Y10922523D01*
X7562178Y10908375D01*
X7562270Y10895553D01*
X7562548Y10882566D01*
X7563016Y10869465D01*
X7563677Y10856303D01*
X7564533Y10843133D01*
X7565589Y10830006D01*
X7566848Y10816975D01*
X7568312Y10804092D01*
X7355285Y10804092D01*
X7354381Y10822304D01*
X7353213Y10840846D01*
X7350557Y10878610D01*
X7349306Y10897675D01*
X7348266Y10916757D01*
X7347555Y10935779D01*
X7347292Y10954661D01*
X7347672Y10976159D01*
X7348803Y10996964D01*
X7350672Y11017076D01*
X7353264Y11036497D01*
X7356565Y11055227D01*
X7360562Y11073266D01*
X7365240Y11090616D01*
X7370586Y11107277D01*
X7376585Y11123249D01*
X7383224Y11138534D01*
X7390488Y11153132D01*
X7398364Y11167044D01*
X7406837Y11180271D01*
X7415895Y11192813D01*
X7425522Y11204671D01*
X7435705Y11215845D01*
X7446429Y11226337D01*
X7457682Y11236147D01*
X7469449Y11245275D01*
X7481716Y11253723D01*
X7494468Y11261492D01*
X7507693Y11268581D01*
X7521376Y11274991D01*
X7535503Y11280724D01*
X7550061Y11285780D01*
X7565034Y11290159D01*
X7580410Y11293863D01*
X7596174Y11296892D01*
X7612313Y11299246D01*
X7628812Y11300927D01*
X7645658Y11301935D01*
X7662836Y11302271D01*
X7742954Y11302271D01*
X7742954Y11389174D01*
X7933767Y11583612D01*
X7933767Y11302271D01*
G37*
G36*
X8781579Y9322839D02*
G01*
X8237301Y9322839D01*
X8199192Y9322059D01*
X8181214Y9321078D01*
X8163946Y9319698D01*
X8147379Y9317913D01*
X8131507Y9315721D01*
X8116324Y9313117D01*
X8101821Y9310097D01*
X8087991Y9306657D01*
X8074829Y9302793D01*
X8062327Y9298500D01*
X8050478Y9293774D01*
X8039275Y9288612D01*
X8028711Y9283010D01*
X8018779Y9276962D01*
X8009472Y9270465D01*
X8000783Y9263516D01*
X7992706Y9256109D01*
X7985232Y9248241D01*
X7978356Y9239907D01*
X7972070Y9231104D01*
X7966367Y9221827D01*
X7961240Y9212072D01*
X7956683Y9201835D01*
X7952688Y9191112D01*
X7949248Y9179899D01*
X7946356Y9168192D01*
X7944006Y9155987D01*
X7942191Y9143278D01*
X7940902Y9130064D01*
X7940135Y9116338D01*
X7939880Y9102098D01*
X7940127Y9089749D01*
X7940870Y9077897D01*
X7942107Y9066535D01*
X7943840Y9055656D01*
X7946069Y9045253D01*
X7948795Y9035319D01*
X7952017Y9025849D01*
X7955736Y9016833D01*
X7959953Y9008267D01*
X7964667Y9000142D01*
X7969880Y8992452D01*
X7975591Y8985191D01*
X7981802Y8978351D01*
X7988512Y8971925D01*
X7995721Y8965906D01*
X8003431Y8960288D01*
X8011641Y8955064D01*
X8020352Y8950227D01*
X8029564Y8945770D01*
X8039278Y8941686D01*
X8060211Y8934609D01*
X8083156Y8928943D01*
X8108115Y8924631D01*
X8135090Y8921620D01*
X8164086Y8919853D01*
X8195104Y8919277D01*
X8781579Y8919277D01*
X8781579Y8634033D01*
X8142684Y8634033D01*
X8095529Y8634964D01*
X8050521Y8637904D01*
X8007781Y8643074D01*
X7967434Y8650694D01*
X7948196Y8655492D01*
X7929603Y8660986D01*
X7911671Y8667203D01*
X7894413Y8674170D01*
X7877847Y8681915D01*
X7861987Y8690466D01*
X7846849Y8699850D01*
X7832449Y8710095D01*
X7818802Y8721229D01*
X7805922Y8733279D01*
X7793827Y8746273D01*
X7782531Y8760237D01*
X7772050Y8775201D01*
X7762399Y8791191D01*
X7753594Y8808235D01*
X7745650Y8826361D01*
X7738582Y8845596D01*
X7732407Y8865968D01*
X7727139Y8887504D01*
X7722795Y8910232D01*
X7719389Y8934179D01*
X7716937Y8959374D01*
X7715454Y8985843D01*
X7714956Y9013615D01*
X7715595Y9036283D01*
X7717520Y9058955D01*
X7720746Y9081551D01*
X7725288Y9103988D01*
X7731159Y9126185D01*
X7738375Y9148058D01*
X7746950Y9169528D01*
X7756897Y9190510D01*
X7768233Y9210924D01*
X7780970Y9230688D01*
X7787869Y9240300D01*
X7795124Y9249719D01*
X7802737Y9258934D01*
X7810709Y9267935D01*
X7819042Y9276713D01*
X7827739Y9285256D01*
X7836800Y9293554D01*
X7846229Y9301597D01*
X7856026Y9309376D01*
X7866193Y9316879D01*
X7876732Y9324096D01*
X7887646Y9331018D01*
X7887646Y9337153D01*
X7743025Y9337153D01*
X7743025Y9608270D01*
X8781579Y9608270D01*
X8781579Y9322839D01*
G37*
G36*
X8429052Y10739186D02*
G01*
X8474072Y10736245D01*
X8516820Y10731076D01*
X8557172Y10723455D01*
X8576411Y10718657D01*
X8595004Y10713163D01*
X8612937Y10706947D01*
X8630194Y10699980D01*
X8646759Y10692235D01*
X8662618Y10683684D01*
X8677754Y10674299D01*
X8692152Y10664054D01*
X8705797Y10652920D01*
X8718674Y10640870D01*
X8730767Y10627877D01*
X8742060Y10613912D01*
X8752538Y10598948D01*
X8762186Y10582958D01*
X8770988Y10565914D01*
X8778930Y10547789D01*
X8785994Y10528554D01*
X8792167Y10508182D01*
X8797433Y10486646D01*
X8801775Y10463918D01*
X8805180Y10439970D01*
X8807631Y10414775D01*
X8809112Y10388306D01*
X8809610Y10360534D01*
X8808971Y10337881D01*
X8807046Y10315217D01*
X8803819Y10292625D01*
X8799277Y10270187D01*
X8793404Y10247987D01*
X8786186Y10226107D01*
X8777609Y10204630D01*
X8767657Y10183639D01*
X8756317Y10163216D01*
X8743573Y10143445D01*
X8736671Y10133830D01*
X8729412Y10124408D01*
X8721795Y10115191D01*
X8713818Y10106188D01*
X8705479Y10097410D01*
X8696777Y10088867D01*
X8687710Y10080570D01*
X8678275Y10072529D01*
X8668471Y10064754D01*
X8658296Y10057256D01*
X8647749Y10050045D01*
X8636827Y10043131D01*
X8636827Y10037090D01*
X8781541Y10037090D01*
X8781541Y9765787D01*
X7742987Y9765787D01*
X7742987Y10051124D01*
X8287359Y10051124D01*
X8325435Y10051905D01*
X8343398Y10052888D01*
X8360652Y10054270D01*
X8377206Y10056057D01*
X8393066Y10058252D01*
X8408239Y10060860D01*
X8422731Y10063884D01*
X8436551Y10067329D01*
X8449704Y10071198D01*
X8462199Y10075497D01*
X8474041Y10080228D01*
X8485237Y10085397D01*
X8495795Y10091007D01*
X8505722Y10097063D01*
X8515024Y10103568D01*
X8523709Y10110527D01*
X8531783Y10117943D01*
X8539254Y10125821D01*
X8546127Y10134166D01*
X8552411Y10142980D01*
X8558112Y10152269D01*
X8563237Y10162036D01*
X8567793Y10172285D01*
X8571787Y10183021D01*
X8575226Y10194248D01*
X8578117Y10205970D01*
X8580467Y10218191D01*
X8582282Y10230914D01*
X8583570Y10244145D01*
X8584338Y10257887D01*
X8584593Y10272145D01*
X8584346Y10284493D01*
X8583604Y10296344D01*
X8582368Y10307703D01*
X8580637Y10318579D01*
X8578410Y10328978D01*
X8575687Y10338906D01*
X8572468Y10348371D01*
X8568752Y10357380D01*
X8564538Y10365940D01*
X8559827Y10374057D01*
X8554618Y10381739D01*
X8548911Y10388993D01*
X8542705Y10395825D01*
X8535999Y10402242D01*
X8528794Y10408252D01*
X8521089Y10413861D01*
X8512883Y10419076D01*
X8504177Y10423905D01*
X8494969Y10428354D01*
X8485259Y10432430D01*
X8464333Y10439490D01*
X8441395Y10445143D01*
X8416443Y10449442D01*
X8389472Y10452444D01*
X8360479Y10454205D01*
X8329462Y10454780D01*
X7742987Y10454780D01*
X7742987Y10740117D01*
X8381883Y10740117D01*
X8429052Y10739186D01*
G37*
G36*
X8265291Y15557963D02*
G01*
X9147142Y15557963D01*
X9400879Y15272718D01*
X8653146Y15272718D01*
X8653146Y15268535D01*
X8671752Y15254867D01*
X8689224Y15240209D01*
X8705555Y15224608D01*
X8720733Y15208110D01*
X8734750Y15190763D01*
X8747597Y15172613D01*
X8759265Y15153707D01*
X8769744Y15134092D01*
X8779024Y15113815D01*
X8787097Y15092922D01*
X8793954Y15071461D01*
X8799584Y15049478D01*
X8803980Y15027021D01*
X8807131Y15004135D01*
X8809028Y14980868D01*
X8809663Y14957267D01*
X8808911Y14929096D01*
X8806686Y14901830D01*
X8803031Y14875470D01*
X8797991Y14850013D01*
X8791609Y14825460D01*
X8783930Y14801809D01*
X8774997Y14779060D01*
X8764855Y14757212D01*
X8753548Y14736265D01*
X8741120Y14716217D01*
X8727615Y14697068D01*
X8713077Y14678817D01*
X8697550Y14661463D01*
X8681079Y14645007D01*
X8663707Y14629446D01*
X8645478Y14614780D01*
X8626436Y14601009D01*
X8606626Y14588132D01*
X8586092Y14576147D01*
X8564878Y14565055D01*
X8520584Y14545545D01*
X8474098Y14529596D01*
X8425772Y14517201D01*
X8375960Y14508354D01*
X8325013Y14503051D01*
X8273284Y14501284D01*
X8218368Y14503011D01*
X8164542Y14508222D01*
X8112145Y14516964D01*
X8086588Y14522674D01*
X8061514Y14529285D01*
X8036968Y14536802D01*
X8012989Y14545231D01*
X7989622Y14554578D01*
X7966908Y14564850D01*
X7944890Y14576051D01*
X7923609Y14588187D01*
X7903109Y14601266D01*
X7883431Y14615291D01*
X7864618Y14630270D01*
X7846712Y14646209D01*
X7829756Y14663112D01*
X7813791Y14680986D01*
X7798861Y14699837D01*
X7785006Y14719671D01*
X7772271Y14740493D01*
X7760696Y14762310D01*
X7750325Y14785127D01*
X7741199Y14808950D01*
X7733361Y14833785D01*
X7726853Y14859638D01*
X7721718Y14886514D01*
X7717998Y14914421D01*
X7715734Y14943363D01*
X7714971Y14973346D01*
X7715538Y14997230D01*
X7717255Y15020656D01*
X7719130Y15035525D01*
X7929856Y15035525D01*
X7930346Y15018734D01*
X7931793Y15002617D01*
X7934166Y14987165D01*
X7937434Y14972367D01*
X7941567Y14958216D01*
X7946531Y14944702D01*
X7952297Y14931815D01*
X7958833Y14919546D01*
X7966107Y14907886D01*
X7974089Y14896827D01*
X7982747Y14886358D01*
X7992049Y14876470D01*
X8001965Y14867155D01*
X8012463Y14858403D01*
X8023512Y14850205D01*
X8035080Y14842551D01*
X8047137Y14835432D01*
X8059651Y14828840D01*
X8085923Y14817196D01*
X8113648Y14807547D01*
X8142574Y14799817D01*
X8172452Y14793933D01*
X8203031Y14789822D01*
X8234061Y14787410D01*
X8265291Y14786622D01*
X8296789Y14787343D01*
X8327874Y14789571D01*
X8358323Y14793403D01*
X8387912Y14798937D01*
X8402314Y14802372D01*
X8416417Y14806270D01*
X8430194Y14810642D01*
X8443616Y14815500D01*
X8456656Y14820857D01*
X8469285Y14826725D01*
X8481476Y14833115D01*
X8493201Y14840041D01*
X8504431Y14847514D01*
X8515140Y14855547D01*
X8525298Y14864151D01*
X8534878Y14873339D01*
X8543852Y14883123D01*
X8552193Y14893516D01*
X8559871Y14904528D01*
X8566860Y14916174D01*
X8573132Y14928464D01*
X8578657Y14941411D01*
X8583409Y14955028D01*
X8587360Y14969325D01*
X8590482Y14984317D01*
X8592746Y15000014D01*
X8594125Y15016428D01*
X8594591Y15033573D01*
X8594125Y15050569D01*
X8592746Y15066866D01*
X8590482Y15082475D01*
X8587360Y15097406D01*
X8583409Y15111670D01*
X8578657Y15125277D01*
X8573132Y15138238D01*
X8566860Y15150562D01*
X8559871Y15162261D01*
X8552193Y15173345D01*
X8543852Y15183824D01*
X8534878Y15193708D01*
X8525298Y15203009D01*
X8515140Y15211736D01*
X8504431Y15219901D01*
X8493201Y15227512D01*
X8481476Y15234582D01*
X8469285Y15241120D01*
X8443616Y15252642D01*
X8416417Y15262163D01*
X8387912Y15269766D01*
X8358323Y15275533D01*
X8327874Y15279550D01*
X8296789Y15281899D01*
X8265291Y15282663D01*
X8233739Y15281941D01*
X8202471Y15279710D01*
X8171728Y15275873D01*
X8141751Y15270332D01*
X8127126Y15266892D01*
X8112783Y15262990D01*
X8098753Y15258613D01*
X8085066Y15253750D01*
X8071751Y15248388D01*
X8058840Y15242514D01*
X8046363Y15236118D01*
X8034349Y15229185D01*
X8022829Y15221706D01*
X8011833Y15213666D01*
X8001392Y15205055D01*
X7991535Y15195859D01*
X7982293Y15186068D01*
X7973696Y15175667D01*
X7965775Y15164647D01*
X7958559Y15152993D01*
X7952078Y15140695D01*
X7946364Y15127739D01*
X7941446Y15114114D01*
X7937354Y15099808D01*
X7934119Y15084808D01*
X7931771Y15069103D01*
X7930340Y15052679D01*
X7929856Y15035525D01*
X7719130Y15035525D01*
X7720147Y15043594D01*
X7724237Y15066011D01*
X7729550Y15087874D01*
X7736110Y15109152D01*
X7743940Y15129812D01*
X7748340Y15139901D01*
X7753066Y15149823D01*
X7758122Y15159575D01*
X7763510Y15169152D01*
X7769234Y15178550D01*
X7775298Y15187767D01*
X7781703Y15196796D01*
X7788452Y15205635D01*
X7795550Y15214280D01*
X7802998Y15222726D01*
X7810801Y15230969D01*
X7818960Y15239006D01*
X7827479Y15246832D01*
X7836361Y15254444D01*
X7845608Y15261836D01*
X7855225Y15269007D01*
X7865214Y15275950D01*
X7875577Y15282663D01*
X7875577Y15286660D01*
X7743039Y15286660D01*
X7791370Y15557963D01*
X8265291Y15557963D01*
G37*
G36*
X8517867Y14418691D02*
G01*
X8536842Y14417357D01*
X8555150Y14415156D01*
X8572795Y14412111D01*
X8589779Y14408241D01*
X8606105Y14403566D01*
X8621777Y14398107D01*
X8636798Y14391884D01*
X8651170Y14384916D01*
X8664897Y14377225D01*
X8677981Y14368830D01*
X8690426Y14359751D01*
X8702234Y14350010D01*
X8713409Y14339625D01*
X8723953Y14328617D01*
X8733870Y14317007D01*
X8743163Y14304815D01*
X8751834Y14292060D01*
X8759887Y14278763D01*
X8767325Y14264944D01*
X8774151Y14250624D01*
X8780367Y14235822D01*
X8785976Y14220559D01*
X8790983Y14204855D01*
X8799198Y14172204D01*
X8805036Y14138032D01*
X8808521Y14102499D01*
X8809678Y14065768D01*
X8809272Y14041621D01*
X8808031Y14017491D01*
X8805916Y13993442D01*
X8802887Y13969535D01*
X8798906Y13945833D01*
X8793934Y13922396D01*
X8787934Y13899288D01*
X8780865Y13876570D01*
X8772690Y13854303D01*
X8763369Y13832551D01*
X8752864Y13811375D01*
X8741137Y13790836D01*
X8728149Y13770998D01*
X8713860Y13751921D01*
X8698233Y13733667D01*
X8681229Y13716300D01*
X8693963Y13715196D01*
X8706703Y13713588D01*
X8719419Y13711521D01*
X8732081Y13709038D01*
X8744661Y13706186D01*
X8757128Y13703007D01*
X8769454Y13699548D01*
X8781609Y13695852D01*
X8781609Y13406797D01*
X8773097Y13411490D01*
X8763439Y13415818D01*
X8752709Y13419788D01*
X8740985Y13423410D01*
X8728343Y13426692D01*
X8714860Y13429643D01*
X8700613Y13432272D01*
X8685679Y13434587D01*
X8654053Y13438310D01*
X8620596Y13440884D01*
X8585922Y13442377D01*
X8550643Y13442859D01*
X8010082Y13442859D01*
X7987328Y13443580D01*
X7965734Y13445708D01*
X7945272Y13449189D01*
X7925912Y13453970D01*
X7907627Y13459998D01*
X7890387Y13467219D01*
X7874163Y13475580D01*
X7858927Y13485028D01*
X7844651Y13495509D01*
X7831305Y13506969D01*
X7818860Y13519357D01*
X7807289Y13532617D01*
X7796562Y13546697D01*
X7786650Y13561544D01*
X7777526Y13577104D01*
X7769160Y13593323D01*
X7754587Y13627528D01*
X7742702Y13663732D01*
X7733276Y13701508D01*
X7726079Y13740429D01*
X7720881Y13780068D01*
X7717452Y13819999D01*
X7715564Y13859794D01*
X7714985Y13899027D01*
X7715975Y13942731D01*
X7719041Y13986242D01*
X7724333Y14029223D01*
X7731995Y14071339D01*
X7736762Y14091968D01*
X7742177Y14112255D01*
X7748258Y14132158D01*
X7755024Y14151635D01*
X7762493Y14170645D01*
X7770685Y14189144D01*
X7779616Y14207092D01*
X7789305Y14224447D01*
X7799772Y14241166D01*
X7811033Y14257207D01*
X7823109Y14272529D01*
X7836016Y14287089D01*
X7849774Y14300847D01*
X7864401Y14313759D01*
X7879915Y14325784D01*
X7896334Y14336880D01*
X7913678Y14347005D01*
X7931964Y14356117D01*
X7951211Y14364174D01*
X7971437Y14371134D01*
X7992661Y14376956D01*
X8014901Y14381596D01*
X8038175Y14385015D01*
X8062502Y14387168D01*
X8062502Y14101830D01*
X8052158Y14100719D01*
X8042207Y14099269D01*
X8032647Y14097484D01*
X8023472Y14095366D01*
X8014679Y14092918D01*
X8006262Y14090144D01*
X7998219Y14087046D01*
X7990543Y14083627D01*
X7983232Y14079890D01*
X7976281Y14075838D01*
X7969685Y14071474D01*
X7963440Y14066801D01*
X7957542Y14061822D01*
X7951986Y14056539D01*
X7946768Y14050957D01*
X7941884Y14045077D01*
X7937330Y14038903D01*
X7933101Y14032437D01*
X7929193Y14025683D01*
X7925601Y14018643D01*
X7922321Y14011321D01*
X7919349Y14003719D01*
X7916681Y13995841D01*
X7914312Y13987688D01*
X7910454Y13970574D01*
X7907742Y13952401D01*
X7906140Y13933191D01*
X7905613Y13912969D01*
X7905870Y13894367D01*
X7906719Y13876236D01*
X7908278Y13858677D01*
X7910663Y13841790D01*
X7912202Y13833630D01*
X7913991Y13825675D01*
X7916046Y13817940D01*
X7918381Y13810435D01*
X7921010Y13803173D01*
X7923949Y13796168D01*
X7927211Y13789431D01*
X7930812Y13782975D01*
X7934766Y13776814D01*
X7939088Y13770958D01*
X7943793Y13765422D01*
X7948894Y13760217D01*
X7954408Y13755356D01*
X7960347Y13750852D01*
X7966728Y13746717D01*
X7973565Y13742964D01*
X7980872Y13739606D01*
X7988664Y13736654D01*
X7996956Y13734122D01*
X8005762Y13732023D01*
X8015097Y13730367D01*
X8024975Y13729170D01*
X8035413Y13728442D01*
X8046423Y13728196D01*
X8273299Y13728196D01*
X8379905Y13728196D01*
X8408586Y13728975D01*
X8425772Y13730403D01*
X8444298Y13732928D01*
X8463745Y13736852D01*
X8483696Y13742479D01*
X8493729Y13746026D01*
X8503732Y13750112D01*
X8513651Y13754775D01*
X8523434Y13760053D01*
X8533029Y13765984D01*
X8542385Y13772606D01*
X8551447Y13779957D01*
X8560166Y13788074D01*
X8568487Y13796996D01*
X8576358Y13806761D01*
X8583729Y13817405D01*
X8590545Y13828968D01*
X8596755Y13841487D01*
X8602307Y13854999D01*
X8607148Y13869544D01*
X8611227Y13885158D01*
X8614489Y13901880D01*
X8616885Y13919747D01*
X8618360Y13938797D01*
X8618864Y13959069D01*
X8618523Y13976290D01*
X8617454Y13993167D01*
X8615585Y14009596D01*
X8612846Y14025469D01*
X8611128Y14033164D01*
X8609166Y14040680D01*
X8606951Y14048005D01*
X8604474Y14055125D01*
X8601726Y14062027D01*
X8598699Y14068697D01*
X8595384Y14075123D01*
X8591771Y14081290D01*
X8587852Y14087186D01*
X8583619Y14092798D01*
X8579061Y14098112D01*
X8574171Y14103115D01*
X8568940Y14107794D01*
X8563358Y14112136D01*
X8557417Y14116127D01*
X8551108Y14119754D01*
X8544422Y14123004D01*
X8537351Y14125864D01*
X8529885Y14128320D01*
X8522015Y14130359D01*
X8513733Y14131968D01*
X8505031Y14133134D01*
X8495898Y14133843D01*
X8486326Y14134082D01*
X8476750Y14133848D01*
X8467586Y14133157D01*
X8458824Y14132020D01*
X8450453Y14130451D01*
X8442463Y14128464D01*
X8434845Y14126071D01*
X8427588Y14123287D01*
X8420681Y14120125D01*
X8414116Y14116596D01*
X8407880Y14112716D01*
X8401965Y14108498D01*
X8396360Y14103954D01*
X8391055Y14099097D01*
X8386040Y14093942D01*
X8381304Y14088502D01*
X8376838Y14082789D01*
X8372631Y14076817D01*
X8368673Y14070599D01*
X8361463Y14057481D01*
X8355128Y14043539D01*
X8349585Y14028880D01*
X8344754Y14013611D01*
X8340552Y13997837D01*
X8336898Y13981666D01*
X8333712Y13965203D01*
X8313299Y13831643D01*
X8310210Y13816079D01*
X8306734Y13801079D01*
X8302792Y13786738D01*
X8298305Y13773149D01*
X8293192Y13760407D01*
X8287373Y13748605D01*
X8284174Y13743085D01*
X8280769Y13737836D01*
X8277147Y13732870D01*
X8273299Y13728196D01*
X8046423Y13728196D01*
X8066872Y13729121D01*
X8084696Y13733954D01*
X8100116Y13742437D01*
X8113354Y13754314D01*
X8124632Y13769326D01*
X8134171Y13787216D01*
X8142194Y13807727D01*
X8148921Y13830602D01*
X8159376Y13882411D01*
X8167311Y13940583D01*
X8182713Y14067778D01*
X8193728Y14132682D01*
X8200840Y14164559D01*
X8209317Y14195710D01*
X8219381Y14225877D01*
X8231253Y14254803D01*
X8245156Y14282230D01*
X8261310Y14307900D01*
X8279939Y14331557D01*
X8301263Y14352942D01*
X8325503Y14371799D01*
X8352883Y14387870D01*
X8383623Y14400897D01*
X8417945Y14410623D01*
X8456071Y14416790D01*
X8486326Y14418477D01*
X8498223Y14419141D01*
X8517867Y14418691D01*
G37*
G36*
X8469319Y16632431D02*
G01*
X8493531Y16629543D01*
X8516692Y16625406D01*
X8538820Y16620063D01*
X8559933Y16613552D01*
X8580048Y16605916D01*
X8599182Y16597195D01*
X8617354Y16587431D01*
X8634579Y16576663D01*
X8650876Y16564932D01*
X8666262Y16552281D01*
X8680754Y16538748D01*
X8694370Y16524376D01*
X8707127Y16509205D01*
X8719042Y16493276D01*
X8730134Y16476630D01*
X8740418Y16459307D01*
X8749913Y16441349D01*
X8766604Y16403689D01*
X8780346Y16363978D01*
X8791277Y16322541D01*
X8799538Y16279705D01*
X8805266Y16235798D01*
X8808601Y16191146D01*
X8809682Y16146075D01*
X8808623Y16102014D01*
X8805354Y16058213D01*
X8799732Y16015029D01*
X8791616Y15972818D01*
X8786578Y15952188D01*
X8780864Y15931936D01*
X8774455Y15912105D01*
X8767334Y15892740D01*
X8759484Y15873885D01*
X8750886Y15855586D01*
X8741523Y15837886D01*
X8731377Y15820830D01*
X8720430Y15804463D01*
X8708665Y15788828D01*
X8696065Y15773972D01*
X8682610Y15759938D01*
X8668284Y15746771D01*
X8653070Y15734515D01*
X8636948Y15723214D01*
X8619902Y15712915D01*
X8601914Y15703660D01*
X8582966Y15695495D01*
X8563041Y15688463D01*
X8542120Y15682610D01*
X8520186Y15677981D01*
X8497222Y15674619D01*
X8473209Y15672569D01*
X8448130Y15671876D01*
X8430443Y15672348D01*
X8413512Y15673745D01*
X8397316Y15676038D01*
X8381836Y15679198D01*
X8367051Y15683195D01*
X8352941Y15688001D01*
X8339485Y15693586D01*
X8326664Y15699921D01*
X8314458Y15706978D01*
X8302845Y15714726D01*
X8291807Y15723137D01*
X8281322Y15732182D01*
X8271370Y15741831D01*
X8261932Y15752055D01*
X8252986Y15762826D01*
X8244514Y15774114D01*
X8228906Y15798124D01*
X8214947Y15823853D01*
X8202474Y15851068D01*
X8191327Y15879535D01*
X8181342Y15909022D01*
X8172360Y15939295D01*
X8164217Y15970122D01*
X8156752Y16001269D01*
X8149875Y16031386D01*
X8143393Y16061313D01*
X8130955Y16119631D01*
X8124672Y16147538D01*
X8118127Y16174287D01*
X8111158Y16199637D01*
X8103599Y16223346D01*
X8099548Y16234510D01*
X8095288Y16245172D01*
X8090799Y16255303D01*
X8086061Y16264872D01*
X8081052Y16273850D01*
X8075753Y16282206D01*
X8070143Y16289909D01*
X8064201Y16296930D01*
X8057908Y16303238D01*
X8051242Y16308804D01*
X8044183Y16313596D01*
X8036711Y16317584D01*
X8028805Y16320739D01*
X8020444Y16323030D01*
X8011609Y16324427D01*
X8002279Y16324899D01*
X7994397Y16324626D01*
X7986949Y16323822D01*
X7979923Y16322509D01*
X7973308Y16320712D01*
X7967091Y16318452D01*
X7961261Y16315752D01*
X7955804Y16312635D01*
X7950709Y16309125D01*
X7945965Y16305243D01*
X7941558Y16301013D01*
X7937477Y16296457D01*
X7933709Y16291599D01*
X7930243Y16286461D01*
X7927067Y16281067D01*
X7924168Y16275438D01*
X7921534Y16269597D01*
X7917014Y16257375D01*
X7913410Y16244581D01*
X7910627Y16231399D01*
X7908565Y16218011D01*
X7907131Y16204600D01*
X7906226Y16191349D01*
X7905753Y16178441D01*
X7905617Y16166058D01*
X7905985Y16147080D01*
X7907135Y16128612D01*
X7909142Y16110738D01*
X7912079Y16093543D01*
X7913918Y16085227D01*
X7916017Y16077112D01*
X7918386Y16069210D01*
X7921032Y16061531D01*
X7923966Y16054084D01*
X7927196Y16046882D01*
X7930731Y16039935D01*
X7934581Y16033253D01*
X7938755Y16026847D01*
X7943262Y16020727D01*
X7948110Y16014904D01*
X7953310Y16009389D01*
X7958870Y16004192D01*
X7964800Y15999324D01*
X7971108Y15994795D01*
X7977804Y15990616D01*
X7984897Y15986798D01*
X7992396Y15983352D01*
X8000310Y15980287D01*
X8008648Y15977615D01*
X8017420Y15975345D01*
X8026635Y15973490D01*
X8036301Y15972058D01*
X8046427Y15971062D01*
X8046427Y15699945D01*
X8023021Y15702574D01*
X8000646Y15706277D01*
X7979281Y15711021D01*
X7958909Y15716774D01*
X7939510Y15723505D01*
X7921066Y15731181D01*
X7903558Y15739771D01*
X7886968Y15749243D01*
X7871275Y15759564D01*
X7856462Y15770703D01*
X7842510Y15782629D01*
X7829399Y15795308D01*
X7817112Y15808710D01*
X7805629Y15822802D01*
X7794931Y15837553D01*
X7784999Y15852930D01*
X7775816Y15868902D01*
X7767361Y15885437D01*
X7752563Y15920067D01*
X7740455Y15956566D01*
X7730886Y15994678D01*
X7723705Y16034149D01*
X7718763Y16074722D01*
X7715908Y16116144D01*
X7714989Y16158158D01*
X7715820Y16199976D01*
X7718439Y16241589D01*
X7723034Y16282650D01*
X7729794Y16322818D01*
X7734044Y16342459D01*
X7738907Y16361748D01*
X7744406Y16380641D01*
X7750563Y16399096D01*
X7757404Y16417070D01*
X7764951Y16434519D01*
X7773227Y16451401D01*
X7782258Y16467672D01*
X7792065Y16483291D01*
X7802673Y16498213D01*
X7814106Y16512396D01*
X7826386Y16525797D01*
X7839538Y16538373D01*
X7853585Y16550080D01*
X7868550Y16560877D01*
X7884458Y16570719D01*
X7901332Y16579565D01*
X7919195Y16587371D01*
X7938071Y16594093D01*
X7957984Y16599690D01*
X7978956Y16604118D01*
X8001013Y16607333D01*
X8024177Y16609295D01*
X8048472Y16609958D01*
X8065407Y16609486D01*
X8081599Y16608090D01*
X8097069Y16605800D01*
X8111838Y16602643D01*
X8125926Y16598650D01*
X8139355Y16593848D01*
X8152146Y16588268D01*
X8164319Y16581938D01*
X8175896Y16574887D01*
X8186898Y16567145D01*
X8197344Y16558740D01*
X8207257Y16549701D01*
X8216658Y16540057D01*
X8225567Y16529838D01*
X8234005Y16519072D01*
X8241993Y16507789D01*
X8256704Y16483786D01*
X8269866Y16458062D01*
X8281649Y16430848D01*
X8292219Y16402376D01*
X8301744Y16372880D01*
X8310391Y16342591D01*
X8325724Y16280565D01*
X8333502Y16243496D01*
X8341145Y16208413D01*
X8348747Y16175373D01*
X8356401Y16144430D01*
X8364201Y16115641D01*
X8372241Y16089062D01*
X8376379Y16076618D01*
X8380613Y16064748D01*
X8384954Y16053459D01*
X8389413Y16042756D01*
X8394003Y16032649D01*
X8398734Y16023142D01*
X8403619Y16014245D01*
X8408669Y16005962D01*
X8413896Y15998302D01*
X8419311Y15991271D01*
X8424928Y15984877D01*
X8430756Y15979126D01*
X8436808Y15974026D01*
X8443096Y15969582D01*
X8449630Y15965804D01*
X8456424Y15962696D01*
X8463489Y15960267D01*
X8470836Y15958524D01*
X8478476Y15957472D01*
X8486423Y15957120D01*
X8495635Y15957428D01*
X8504453Y15958336D01*
X8512884Y15959819D01*
X8520934Y15961854D01*
X8528611Y15964415D01*
X8535921Y15967479D01*
X8542870Y15971021D01*
X8549465Y15975018D01*
X8555714Y15979444D01*
X8561621Y15984275D01*
X8567195Y15989487D01*
X8572442Y15995057D01*
X8577368Y16000958D01*
X8581980Y16007168D01*
X8586284Y16013662D01*
X8590288Y16020415D01*
X8597420Y16034603D01*
X8603429Y16049538D01*
X8608368Y16065025D01*
X8612290Y16080869D01*
X8615247Y16096877D01*
X8617294Y16112854D01*
X8618484Y16128606D01*
X8618868Y16143937D01*
X8618251Y16164594D01*
X8616381Y16185052D01*
X8613232Y16205156D01*
X8611170Y16215026D01*
X8608778Y16224749D01*
X8606054Y16234305D01*
X8602993Y16243674D01*
X8599594Y16252838D01*
X8595852Y16261775D01*
X8591764Y16270468D01*
X8587327Y16278895D01*
X8582537Y16287039D01*
X8577392Y16294878D01*
X8571888Y16302394D01*
X8566022Y16309567D01*
X8559791Y16316377D01*
X8553190Y16322805D01*
X8546218Y16328832D01*
X8538871Y16334436D01*
X8531145Y16339600D01*
X8523037Y16344304D01*
X8514545Y16348527D01*
X8505664Y16352251D01*
X8496391Y16355456D01*
X8486724Y16358122D01*
X8476659Y16360229D01*
X8466192Y16361759D01*
X8455320Y16362691D01*
X8444041Y16363006D01*
X8444041Y16634030D01*
X8469319Y16632431D01*
G37*
G36*
X6589731Y11912520D02*
G01*
X7531066Y11912520D01*
X7509532Y11894817D01*
X7484778Y11874162D01*
X7452621Y11846948D01*
X7414505Y11814158D01*
X7371871Y11776773D01*
X7326160Y11735776D01*
X7278816Y11692150D01*
X7181031Y11603268D01*
X7159975Y11583668D01*
X7140458Y11564681D01*
X7122571Y11546089D01*
X7106406Y11527674D01*
X7092052Y11509219D01*
X7079602Y11490506D01*
X7074120Y11480985D01*
X7069148Y11471318D01*
X7064697Y11461477D01*
X7060779Y11451436D01*
X7057405Y11441167D01*
X7054587Y11430643D01*
X7052337Y11419836D01*
X7050664Y11408721D01*
X7049582Y11397268D01*
X7049101Y11385452D01*
X7049233Y11373245D01*
X7049989Y11360620D01*
X7051480Y11312854D01*
X7049983Y11266752D01*
X7045590Y11222298D01*
X7038391Y11179475D01*
X7028477Y11138264D01*
X7015937Y11098650D01*
X7000864Y11060614D01*
X6983348Y11024139D01*
X6963479Y10989210D01*
X6941348Y10955807D01*
X6917046Y10923915D01*
X6890663Y10893516D01*
X6862290Y10864592D01*
X6832018Y10837127D01*
X6799937Y10811104D01*
X6766138Y10786505D01*
X6732699Y10764827D01*
X6699086Y10745620D01*
X6665371Y10728801D01*
X6631623Y10714284D01*
X6597914Y10701984D01*
X6564315Y10691817D01*
X6530895Y10683697D01*
X6497725Y10677540D01*
X6464876Y10673261D01*
X6432420Y10670774D01*
X6400425Y10669996D01*
X6368963Y10670840D01*
X6338105Y10673223D01*
X6307921Y10677059D01*
X6249858Y10688752D01*
X6195340Y10705239D01*
X6144930Y10725841D01*
X6099195Y10749880D01*
X6058699Y10776677D01*
X6024007Y10805551D01*
X5995685Y10835824D01*
X5984089Y10851274D01*
X5974297Y10866818D01*
X5966380Y10882372D01*
X5960408Y10897852D01*
X5965251Y10896883D01*
X5970846Y10895973D01*
X5978150Y10895048D01*
X5986858Y10894308D01*
X5996663Y10893956D01*
X6007261Y10894191D01*
X6018347Y10895215D01*
X6023977Y10896086D01*
X6029614Y10897229D01*
X6035221Y10898670D01*
X6040758Y10900434D01*
X6046188Y10902547D01*
X6051473Y10905032D01*
X6056574Y10907916D01*
X6061454Y10911223D01*
X6066074Y10914979D01*
X6070395Y10919208D01*
X6074380Y10923937D01*
X6077991Y10929189D01*
X6081190Y10934991D01*
X6083937Y10941367D01*
X6086196Y10948342D01*
X6087927Y10955942D01*
X6088712Y10961561D01*
X6089106Y10967376D01*
X6089122Y10973373D01*
X6088772Y10979536D01*
X6088069Y10985850D01*
X6087026Y10992299D01*
X6083970Y11005543D01*
X6079704Y11019146D01*
X6074329Y11032986D01*
X6067947Y11046940D01*
X6060660Y11060887D01*
X6052567Y11074704D01*
X6043771Y11088270D01*
X6034371Y11101461D01*
X6024471Y11114157D01*
X6014170Y11126235D01*
X6003570Y11137572D01*
X5992772Y11148047D01*
X5981878Y11157537D01*
X5968584Y11167815D01*
X5962068Y11172384D01*
X5955637Y11176579D01*
X5949290Y11180405D01*
X5943024Y11183869D01*
X5936838Y11186974D01*
X5930730Y11189726D01*
X5924699Y11192131D01*
X5918743Y11194193D01*
X5912861Y11195917D01*
X5907051Y11197308D01*
X5901311Y11198373D01*
X5895640Y11199115D01*
X5890035Y11199540D01*
X5884496Y11199653D01*
X5879021Y11199459D01*
X5873608Y11198963D01*
X5868255Y11198170D01*
X5862961Y11197087D01*
X5857724Y11195716D01*
X5852543Y11194065D01*
X5847415Y11192137D01*
X5842340Y11189938D01*
X5832340Y11184748D01*
X5822530Y11178536D01*
X5812896Y11171342D01*
X5803426Y11163207D01*
X5796595Y11156612D01*
X5790357Y11149761D01*
X5784689Y11142685D01*
X5779566Y11135414D01*
X5774962Y11127978D01*
X5770853Y11120409D01*
X5767215Y11112736D01*
X5764022Y11104990D01*
X5761250Y11097203D01*
X5758874Y11089403D01*
X5755211Y11073890D01*
X5752837Y11058695D01*
X5751552Y11044064D01*
X5751159Y11030240D01*
X5751460Y11017467D01*
X5752258Y11005990D01*
X5753354Y10996051D01*
X5755651Y10981770D01*
X5756768Y10976575D01*
X5748928Y10986288D01*
X5740302Y10997975D01*
X5729582Y11013811D01*
X5717551Y11033494D01*
X5704990Y11056722D01*
X5698756Y11069570D01*
X5692684Y11083191D01*
X5686870Y11097547D01*
X5681414Y11112599D01*
X5676412Y11128310D01*
X5671963Y11144642D01*
X5668164Y11161558D01*
X5665113Y11179019D01*
X5662908Y11196987D01*
X5661648Y11215426D01*
X5661428Y11234296D01*
X5662349Y11253560D01*
X5664506Y11273180D01*
X5667999Y11293119D01*
X5672925Y11313338D01*
X5679381Y11333799D01*
X5687467Y11354466D01*
X5697278Y11375299D01*
X5708914Y11396261D01*
X5722472Y11417315D01*
X5735547Y11435341D01*
X5748900Y11451882D01*
X5762519Y11466961D01*
X5776391Y11480603D01*
X5790500Y11492833D01*
X5804834Y11503676D01*
X5819380Y11513157D01*
X5834124Y11521299D01*
X5849052Y11528128D01*
X5864150Y11533669D01*
X5879406Y11537945D01*
X5894806Y11540982D01*
X5910336Y11542805D01*
X5925983Y11543438D01*
X5941733Y11542906D01*
X5957573Y11541233D01*
X5973490Y11538444D01*
X5989469Y11534564D01*
X6005497Y11529617D01*
X6021561Y11523629D01*
X6037647Y11516623D01*
X6053741Y11508625D01*
X6069831Y11499659D01*
X6085903Y11489751D01*
X6101942Y11478923D01*
X6117937Y11467202D01*
X6133872Y11454612D01*
X6149735Y11441177D01*
X6181190Y11411873D01*
X6212193Y11379487D01*
X6226135Y11365055D01*
X6240124Y11352291D01*
X6254123Y11341151D01*
X6268096Y11331585D01*
X6282007Y11323546D01*
X6295819Y11316988D01*
X6309498Y11311863D01*
X6323005Y11308122D01*
X6336306Y11305720D01*
X6349363Y11304608D01*
X6362141Y11304740D01*
X6374604Y11306067D01*
X6386714Y11308542D01*
X6398437Y11312119D01*
X6409735Y11316749D01*
X6420573Y11322385D01*
X6430914Y11328980D01*
X6440723Y11336486D01*
X6449962Y11344856D01*
X6458596Y11354043D01*
X6466588Y11363999D01*
X6473903Y11374677D01*
X6480504Y11386029D01*
X6486354Y11398008D01*
X6491418Y11410566D01*
X6495660Y11423657D01*
X6499042Y11437233D01*
X6501530Y11451246D01*
X6503086Y11465649D01*
X6503675Y11480394D01*
X6503261Y11495435D01*
X6501806Y11510724D01*
X6500253Y11521072D01*
X6498276Y11531029D01*
X6495893Y11540594D01*
X6493126Y11549766D01*
X6489994Y11558543D01*
X6486518Y11566924D01*
X6482719Y11574909D01*
X6478616Y11582495D01*
X6474230Y11589683D01*
X6469581Y11596471D01*
X6464690Y11602857D01*
X6459576Y11608841D01*
X6454260Y11614421D01*
X6448762Y11619596D01*
X6443103Y11624365D01*
X6437303Y11628728D01*
X6431381Y11632682D01*
X6425360Y11636227D01*
X6419257Y11639361D01*
X6413095Y11642084D01*
X6406893Y11644394D01*
X6400672Y11646291D01*
X6394451Y11647772D01*
X6388252Y11648837D01*
X6382094Y11649485D01*
X6375997Y11649714D01*
X6369983Y11649524D01*
X6364070Y11648913D01*
X6358281Y11647880D01*
X6352634Y11646425D01*
X6347150Y11644545D01*
X6341850Y11642239D01*
X6337460Y11639880D01*
X6333179Y11637211D01*
X6329010Y11634256D01*
X6324953Y11631042D01*
X6321012Y11627593D01*
X6317189Y11623935D01*
X6309900Y11616093D01*
X6303104Y11607717D01*
X6296816Y11599010D01*
X6291052Y11590172D01*
X6285828Y11581408D01*
X6281159Y11572917D01*
X6277061Y11564904D01*
X6270643Y11551114D01*
X6265357Y11538142D01*
X6263816Y11542341D01*
X6262146Y11547422D01*
X6260104Y11554342D01*
X6257861Y11562989D01*
X6255589Y11573250D01*
X6253456Y11585016D01*
X6251636Y11598172D01*
X6250298Y11612609D01*
X6249864Y11620272D01*
X6249614Y11628213D01*
X6249570Y11636419D01*
X6249753Y11644874D01*
X6250186Y11653566D01*
X6250888Y11662479D01*
X6251882Y11671601D01*
X6253189Y11680917D01*
X6254830Y11690414D01*
X6256826Y11700076D01*
X6259200Y11709891D01*
X6261972Y11719844D01*
X6265163Y11729921D01*
X6268796Y11740109D01*
X6276251Y11758261D01*
X6284858Y11775910D01*
X6289628Y11784515D01*
X6294728Y11792955D01*
X6300173Y11801218D01*
X6305976Y11809291D01*
X6312152Y11817162D01*
X6318715Y11824816D01*
X6325679Y11832242D01*
X6333059Y11839427D01*
X6340868Y11846356D01*
X6349121Y11853019D01*
X6357831Y11859401D01*
X6367014Y11865490D01*
X6376683Y11871273D01*
X6386853Y11876738D01*
X6397537Y11881870D01*
X6408751Y11886657D01*
X6420507Y11891087D01*
X6432821Y11895146D01*
X6445706Y11898822D01*
X6459177Y11902102D01*
X6473247Y11904972D01*
X6487932Y11907420D01*
X6503245Y11909433D01*
X6519201Y11910998D01*
X6535813Y11912102D01*
X6553096Y11912732D01*
X6571063Y11912876D01*
X6589731Y11912520D01*
G37*
D15*
%TO.C,Ref\u002A\u002A*%
X19850182Y25058161D02*
X19850882Y25058109D01*
X19851579Y25058023D01*
X19852271Y25057904D01*
X19852958Y25057753D01*
X19853639Y25057572D01*
X19854312Y25057359D01*
X19854976Y25057118D01*
X19855631Y25056848D01*
X19856275Y25056550D01*
X19857527Y25055875D01*
X19858724Y25055100D01*
X19859857Y25054231D01*
X19860918Y25053275D01*
X19861899Y25052239D01*
X19862791Y25051131D01*
X19863201Y25050552D01*
X19863586Y25049957D01*
X19863945Y25049347D01*
X19864276Y25048723D01*
X19864579Y25048087D01*
X19864852Y25047438D01*
X19865095Y25046777D01*
X19865306Y25046107D01*
X19865485Y25045426D01*
X19865630Y25044737D01*
X19923966Y24731244D01*
X19924293Y24729853D01*
X19924741Y24728456D01*
X19925303Y24727064D01*
X19925972Y24725686D01*
X19926739Y24724330D01*
X19927596Y24723006D01*
X19928537Y24721722D01*
X19929553Y24720488D01*
X19930637Y24719314D01*
X19931780Y24718207D01*
X19932974Y24717178D01*
X19934213Y24716235D01*
X19935489Y24715387D01*
X19936792Y24714644D01*
X19938117Y24714014D01*
X19939454Y24713508D01*
X20149587Y24627497D01*
X20150895Y24626922D01*
X20152283Y24626442D01*
X20153736Y24626056D01*
X20155244Y24625763D01*
X20156794Y24625562D01*
X20158373Y24625452D01*
X20159971Y24625433D01*
X20161573Y24625503D01*
X20163169Y24625662D01*
X20164747Y24625909D01*
X20166293Y24626244D01*
X20167796Y24626664D01*
X20169243Y24627171D01*
X20170623Y24627761D01*
X20171923Y24628436D01*
X20173131Y24629193D01*
X20435018Y24808922D01*
X20435610Y24809307D01*
X20436219Y24809661D01*
X20436844Y24809986D01*
X20437484Y24810281D01*
X20438138Y24810546D01*
X20438803Y24810782D01*
X20440165Y24811166D01*
X20441560Y24811434D01*
X20442976Y24811586D01*
X20444402Y24811625D01*
X20445829Y24811550D01*
X20447246Y24811362D01*
X20448641Y24811063D01*
X20450004Y24810654D01*
X20451324Y24810136D01*
X20452591Y24809509D01*
X20453201Y24809155D01*
X20453793Y24808774D01*
X20454367Y24808367D01*
X20454921Y24807933D01*
X20455453Y24807473D01*
X20455963Y24806986D01*
X20676549Y24586418D01*
X20677034Y24585907D01*
X20677493Y24585373D01*
X20677926Y24584818D01*
X20678332Y24584243D01*
X20678712Y24583649D01*
X20679065Y24583038D01*
X20679391Y24582411D01*
X20679691Y24581769D01*
X20679964Y24581114D01*
X20680209Y24580447D01*
X20680618Y24579083D01*
X20680918Y24577687D01*
X20681106Y24576271D01*
X20681182Y24574844D01*
X20681144Y24573418D01*
X20680993Y24572003D01*
X20680874Y24571303D01*
X20680726Y24570610D01*
X20680549Y24569925D01*
X20680343Y24569250D01*
X20680107Y24568586D01*
X20679842Y24567933D01*
X20679548Y24567295D01*
X20679223Y24566671D01*
X20678869Y24566063D01*
X20678485Y24565473D01*
X20501872Y24308086D01*
X20501119Y24306869D01*
X20500450Y24305564D01*
X20499867Y24304183D01*
X20499370Y24302736D01*
X20498960Y24301237D01*
X20498638Y24299697D01*
X20498405Y24298128D01*
X20498260Y24296542D01*
X20498206Y24294950D01*
X20498243Y24293364D01*
X20498371Y24291797D01*
X20498592Y24290261D01*
X20498906Y24288766D01*
X20499314Y24287325D01*
X20499817Y24285950D01*
X20500415Y24284652D01*
X20593340Y24067901D01*
X20593588Y24067234D01*
X20593867Y24066570D01*
X20594516Y24065251D01*
X20595278Y24063952D01*
X20596143Y24062681D01*
X20597103Y24061446D01*
X20598148Y24060255D01*
X20599269Y24059115D01*
X20600457Y24058034D01*
X20601703Y24057021D01*
X20602998Y24056082D01*
X20604333Y24055227D01*
X20605698Y24054462D01*
X20607084Y24053796D01*
X20608483Y24053236D01*
X20609884Y24052791D01*
X20610584Y24052614D01*
X20611280Y24052468D01*
X20914356Y23996105D01*
X20915047Y23995956D01*
X20915729Y23995775D01*
X20916400Y23995561D01*
X20917062Y23995315D01*
X20917711Y23995040D01*
X20918349Y23994735D01*
X20918973Y23994402D01*
X20919583Y23994042D01*
X20920178Y23993656D01*
X20920758Y23993244D01*
X20921321Y23992809D01*
X20921866Y23992350D01*
X20922393Y23991870D01*
X20922901Y23991368D01*
X20923389Y23990847D01*
X20923856Y23990306D01*
X20924301Y23989748D01*
X20924724Y23989172D01*
X20925124Y23988581D01*
X20925499Y23987975D01*
X20925849Y23987355D01*
X20926173Y23986722D01*
X20926470Y23986078D01*
X20926739Y23985422D01*
X20926980Y23984757D01*
X20927192Y23984084D01*
X20927373Y23983402D01*
X20927524Y23982714D01*
X20927642Y23982021D01*
X20927728Y23981323D01*
X20927780Y23980621D01*
X20927797Y23979916D01*
X20927779Y23667972D01*
X20927761Y23667268D01*
X20927709Y23666566D01*
X20927623Y23665867D01*
X20927504Y23665172D01*
X20927354Y23664483D01*
X20927172Y23663800D01*
X20926960Y23663125D01*
X20926718Y23662459D01*
X20926150Y23661155D01*
X20925475Y23659899D01*
X20924700Y23658699D01*
X20923831Y23657562D01*
X20922875Y23656498D01*
X20921840Y23655514D01*
X20920731Y23654620D01*
X20920152Y23654209D01*
X20919557Y23653823D01*
X20918947Y23653464D01*
X20918324Y23653133D01*
X20917687Y23652830D01*
X20917038Y23652557D01*
X20916378Y23652315D01*
X20915707Y23652105D01*
X20915027Y23651928D01*
X20914338Y23651784D01*
X20618692Y23596767D01*
X20617997Y23596624D01*
X20617301Y23596449D01*
X20615907Y23596006D01*
X20614519Y23595447D01*
X20613146Y23594779D01*
X20611798Y23594010D01*
X20610482Y23593148D01*
X20609209Y23592202D01*
X20607987Y23591180D01*
X20606825Y23590089D01*
X20605732Y23588938D01*
X20604718Y23587735D01*
X20603791Y23586489D01*
X20602961Y23585206D01*
X20602236Y23583895D01*
X20601626Y23582565D01*
X20601367Y23581895D01*
X20601139Y23581224D01*
X20508841Y23350663D01*
X20508270Y23349351D01*
X20507793Y23347962D01*
X20507410Y23346508D01*
X20507121Y23345000D01*
X20506923Y23343451D01*
X20506817Y23341873D01*
X20506801Y23340277D01*
X20506875Y23338676D01*
X20507038Y23337081D01*
X20507288Y23335506D01*
X20507626Y23333961D01*
X20508050Y23332459D01*
X20508560Y23331011D01*
X20509154Y23329631D01*
X20509832Y23328329D01*
X20510593Y23327118D01*
X20678521Y23082397D01*
X20678904Y23081806D01*
X20679257Y23081199D01*
X20679580Y23080575D01*
X20679874Y23079936D01*
X20680138Y23079283D01*
X20680373Y23078618D01*
X20680755Y23077257D01*
X20681021Y23075863D01*
X20681173Y23074446D01*
X20681210Y23073018D01*
X20681135Y23071590D01*
X20680948Y23070172D01*
X20680650Y23068774D01*
X20680242Y23067409D01*
X20679724Y23066086D01*
X20679099Y23064816D01*
X20678747Y23064204D01*
X20678367Y23063610D01*
X20677961Y23063034D01*
X20677529Y23062479D01*
X20677070Y23061945D01*
X20676586Y23061433D01*
X20455981Y22840865D01*
X20455471Y22840382D01*
X20454939Y22839925D01*
X20454385Y22839494D01*
X20453811Y22839090D01*
X20453219Y22838711D01*
X20452609Y22838360D01*
X20451983Y22838035D01*
X20451342Y22837737D01*
X20450688Y22837465D01*
X20450022Y22837221D01*
X20448659Y22836814D01*
X20447264Y22836517D01*
X20445847Y22836330D01*
X20444420Y22836254D01*
X20442994Y22836291D01*
X20441578Y22836442D01*
X20440877Y22836560D01*
X20440183Y22836707D01*
X20439498Y22836882D01*
X20438821Y22837087D01*
X20438156Y22837321D01*
X20437502Y22837584D01*
X20436862Y22837876D01*
X20436237Y22838198D01*
X20435628Y22838549D01*
X20435036Y22838930D01*
X20194648Y23003927D01*
X20193439Y23004677D01*
X20192144Y23005334D01*
X20190775Y23005899D01*
X20189343Y23006372D01*
X20187861Y23006752D01*
X20186339Y23007038D01*
X20184791Y23007232D01*
X20183228Y23007331D01*
X20181661Y23007337D01*
X20180103Y23007249D01*
X20178566Y23007066D01*
X20177061Y23006788D01*
X20175600Y23006415D01*
X20174195Y23005946D01*
X20172858Y23005382D01*
X20171601Y23004722D01*
X20065585Y22948119D01*
X20064953Y22947816D01*
X20064315Y22947549D01*
X20063673Y22947319D01*
X20063028Y22947125D01*
X20062380Y22946966D01*
X20061732Y22946841D01*
X20061083Y22946752D01*
X20060436Y22946697D01*
X20059791Y22946675D01*
X20059150Y22946687D01*
X20058513Y22946732D01*
X20057882Y22946809D01*
X20057257Y22946918D01*
X20056640Y22947059D01*
X20056033Y22947231D01*
X20055435Y22947434D01*
X20054849Y22947668D01*
X20054275Y22947931D01*
X20053715Y22948224D01*
X20053169Y22948546D01*
X20052639Y22948897D01*
X20052126Y22949277D01*
X20051630Y22949684D01*
X20051154Y22950118D01*
X20050698Y22950580D01*
X20050263Y22951069D01*
X20049850Y22951583D01*
X20049461Y22952124D01*
X20049097Y22952690D01*
X20048758Y22953280D01*
X20048446Y22953896D01*
X20048162Y22954535D01*
X19829567Y23482714D01*
X19829312Y23483372D01*
X19829091Y23484039D01*
X19828903Y23484714D01*
X19828748Y23485398D01*
X19828625Y23486087D01*
X19828534Y23486781D01*
X19828446Y23488180D01*
X19828480Y23489583D01*
X19828633Y23490982D01*
X19828902Y23492364D01*
X19829283Y23493722D01*
X19829774Y23495044D01*
X19830370Y23496320D01*
X19831069Y23497541D01*
X19831867Y23498696D01*
X19832760Y23499776D01*
X19833242Y23500285D01*
X19833746Y23500770D01*
X19834273Y23501232D01*
X19834822Y23501669D01*
X19835392Y23502079D01*
X19835983Y23502461D01*
X19862515Y23518705D01*
X19864430Y23519921D01*
X19866472Y23521309D01*
X19868603Y23522839D01*
X19870786Y23524480D01*
X19872984Y23526203D01*
X19875160Y23527976D01*
X19877275Y23529771D01*
X19879293Y23531555D01*
X19896853Y23543577D01*
X19913613Y23556630D01*
X19929526Y23570668D01*
X19944546Y23585646D01*
X19958629Y23601519D01*
X19971727Y23618241D01*
X19983795Y23635766D01*
X19994788Y23654050D01*
X20004659Y23673046D01*
X20009159Y23682797D01*
X20013362Y23692709D01*
X20017262Y23702776D01*
X20020852Y23712993D01*
X20024128Y23723355D01*
X20027083Y23733854D01*
X20029713Y23744486D01*
X20032010Y23755246D01*
X20033969Y23766126D01*
X20035585Y23777122D01*
X20036852Y23788228D01*
X20037764Y23799439D01*
X20038315Y23810747D01*
X20038501Y23822149D01*
X20038052Y23839902D01*
X20036719Y23857422D01*
X20034525Y23874688D01*
X20031491Y23891677D01*
X20027639Y23908367D01*
X20022989Y23924738D01*
X20017565Y23940768D01*
X20011388Y23956434D01*
X20004479Y23971716D01*
X19996860Y23986591D01*
X19988553Y24001038D01*
X19979579Y24015035D01*
X19969960Y24028560D01*
X19959718Y24041593D01*
X19948875Y24054110D01*
X19937452Y24066091D01*
X19925470Y24077514D01*
X19912952Y24088357D01*
X19899920Y24098598D01*
X19886394Y24108216D01*
X19872397Y24117190D01*
X19857950Y24125496D01*
X19843075Y24133115D01*
X19827794Y24140023D01*
X19812128Y24146200D01*
X19796099Y24151624D01*
X19779728Y24156272D01*
X19763038Y24160125D01*
X19746051Y24163158D01*
X19728786Y24165352D01*
X19711268Y24166684D01*
X19693516Y24167133D01*
X19675765Y24166684D01*
X19658246Y24165352D01*
X19640982Y24163158D01*
X19623995Y24160125D01*
X19607305Y24156272D01*
X19590935Y24151624D01*
X19574907Y24146200D01*
X19559242Y24140023D01*
X19543961Y24133115D01*
X19529087Y24125496D01*
X19514641Y24117190D01*
X19500644Y24108216D01*
X19487119Y24098598D01*
X19474088Y24088357D01*
X19461571Y24077514D01*
X19449590Y24066091D01*
X19438168Y24054110D01*
X19427325Y24041592D01*
X19417084Y24028560D01*
X19407466Y24015035D01*
X19398493Y24001037D01*
X19390187Y23986591D01*
X19382568Y23971716D01*
X19375660Y23956434D01*
X19369483Y23940768D01*
X19364060Y23924738D01*
X19359411Y23908367D01*
X19355559Y23891676D01*
X19352525Y23874688D01*
X19350331Y23857422D01*
X19348999Y23839902D01*
X19348550Y23822149D01*
X19349286Y23799439D01*
X19351465Y23777122D01*
X19355039Y23755246D01*
X19359965Y23733854D01*
X19366195Y23712993D01*
X19373684Y23692709D01*
X19382386Y23673046D01*
X19392256Y23654050D01*
X19403248Y23635766D01*
X19415316Y23618241D01*
X19428414Y23601519D01*
X19442497Y23585646D01*
X19457518Y23570668D01*
X19473433Y23556630D01*
X19490195Y23543577D01*
X19507758Y23531555D01*
X19509765Y23529771D01*
X19511873Y23527976D01*
X19514044Y23526203D01*
X19516240Y23524480D01*
X19518421Y23522839D01*
X19520551Y23521309D01*
X19522590Y23519921D01*
X19524500Y23518705D01*
X19551031Y23502461D01*
X19551619Y23502079D01*
X19552186Y23501669D01*
X19552732Y23501232D01*
X19553257Y23500770D01*
X19553759Y23500285D01*
X19554239Y23499776D01*
X19554696Y23499247D01*
X19555130Y23498697D01*
X19555540Y23498128D01*
X19555926Y23497541D01*
X19556287Y23496938D01*
X19556623Y23496320D01*
X19556934Y23495688D01*
X19557219Y23495044D01*
X19557478Y23494388D01*
X19557710Y23493722D01*
X19557915Y23493047D01*
X19558093Y23492365D01*
X19558242Y23491676D01*
X19558363Y23490982D01*
X19558456Y23490284D01*
X19558519Y23489584D01*
X19558552Y23488882D01*
X19558555Y23488180D01*
X19558528Y23487480D01*
X19558470Y23486782D01*
X19558380Y23486087D01*
X19558259Y23485398D01*
X19558106Y23484714D01*
X19557919Y23484039D01*
X19557700Y23483372D01*
X19557447Y23482714D01*
X19338870Y22954517D01*
X19338587Y22953877D01*
X19338275Y22953261D01*
X19337936Y22952671D01*
X19337572Y22952105D01*
X19337183Y22951565D01*
X19336771Y22951051D01*
X19336337Y22950563D01*
X19335881Y22950102D01*
X19335405Y22949668D01*
X19334910Y22949261D01*
X19334398Y22948882D01*
X19333868Y22948532D01*
X19333323Y22948211D01*
X19332763Y22947918D01*
X19332190Y22947655D01*
X19331604Y22947422D01*
X19331007Y22947220D01*
X19330400Y22947048D01*
X19329783Y22946908D01*
X19329159Y22946798D01*
X19328528Y22946721D01*
X19327891Y22946677D01*
X19327249Y22946665D01*
X19326604Y22946686D01*
X19325957Y22946741D01*
X19325308Y22946830D01*
X19324658Y22946953D01*
X19324010Y22947111D01*
X19323364Y22947305D01*
X19322720Y22947534D01*
X19322081Y22947799D01*
X19321447Y22948100D01*
X19215432Y23004703D01*
X19214171Y23005364D01*
X19212832Y23005930D01*
X19211426Y23006399D01*
X19209964Y23006774D01*
X19208458Y23007053D01*
X19206921Y23007237D01*
X19205363Y23007327D01*
X19203797Y23007322D01*
X19202235Y23007223D01*
X19200688Y23007029D01*
X19199168Y23006742D01*
X19197687Y23006362D01*
X19196256Y23005888D01*
X19194887Y23005321D01*
X19193593Y23004661D01*
X19192385Y23003908D01*
X18951978Y22838911D01*
X18951388Y22838530D01*
X18950780Y22838179D01*
X18950156Y22837858D01*
X18949517Y22837565D01*
X18948864Y22837302D01*
X18948200Y22837069D01*
X18946839Y22836688D01*
X18945445Y22836423D01*
X18944029Y22836273D01*
X18942603Y22836236D01*
X18941176Y22836311D01*
X18939760Y22836498D01*
X18938365Y22836795D01*
X18937002Y22837202D01*
X18935683Y22837718D01*
X18934417Y22838341D01*
X18933808Y22838692D01*
X18933216Y22839071D01*
X18932643Y22839475D01*
X18932091Y22839906D01*
X18931560Y22840363D01*
X18931052Y22840846D01*
X18710447Y23061414D01*
X18709960Y23061926D01*
X18709500Y23062460D01*
X18709066Y23063015D01*
X18708659Y23063591D01*
X18708278Y23064185D01*
X18707924Y23064797D01*
X18707597Y23065424D01*
X18707297Y23066067D01*
X18707024Y23066722D01*
X18706778Y23067390D01*
X18706369Y23068756D01*
X18706070Y23070153D01*
X18705883Y23071571D01*
X18705808Y23073000D01*
X18705846Y23074427D01*
X18705999Y23075844D01*
X18706119Y23076544D01*
X18706267Y23077238D01*
X18706444Y23077924D01*
X18706651Y23078599D01*
X18706887Y23079264D01*
X18707153Y23079917D01*
X18707448Y23080556D01*
X18707772Y23081180D01*
X18708127Y23081788D01*
X18708511Y23082378D01*
X18876458Y23327099D01*
X18877213Y23328310D01*
X18877886Y23329612D01*
X18878476Y23330992D01*
X18878982Y23332440D01*
X18879404Y23333942D01*
X18879741Y23335487D01*
X18879990Y23337063D01*
X18880153Y23338657D01*
X18880227Y23340258D01*
X18880212Y23341854D01*
X18880106Y23343432D01*
X18879909Y23344981D01*
X18879620Y23346489D01*
X18879238Y23347943D01*
X18878762Y23349332D01*
X18878191Y23350644D01*
X18785893Y23581205D01*
X18785665Y23581877D01*
X18785404Y23582546D01*
X18784793Y23583877D01*
X18784069Y23585187D01*
X18783240Y23586470D01*
X18782315Y23587716D01*
X18781304Y23588919D01*
X18780214Y23590070D01*
X18779056Y23591161D01*
X18777837Y23592183D01*
X18776567Y23593129D01*
X18775254Y23593991D01*
X18773907Y23594760D01*
X18772535Y23595428D01*
X18771148Y23595987D01*
X18770450Y23596224D01*
X18769752Y23596430D01*
X18769055Y23596605D01*
X18768359Y23596747D01*
X18472713Y23651765D01*
X18472026Y23651908D01*
X18471347Y23652086D01*
X18470678Y23652296D01*
X18470018Y23652538D01*
X18469370Y23652811D01*
X18468734Y23653114D01*
X18468111Y23653445D01*
X18467502Y23653804D01*
X18466907Y23654190D01*
X18466328Y23654601D01*
X18465765Y23655036D01*
X18465220Y23655495D01*
X18464692Y23655976D01*
X18464184Y23656478D01*
X18463695Y23657001D01*
X18463227Y23657543D01*
X18462781Y23658103D01*
X18462357Y23658679D01*
X18461957Y23659272D01*
X18461581Y23659880D01*
X18461230Y23660502D01*
X18460905Y23661136D01*
X18460606Y23661782D01*
X18460336Y23662439D01*
X18460094Y23663106D01*
X18459881Y23663781D01*
X18459699Y23664464D01*
X18459548Y23665153D01*
X18459429Y23665847D01*
X18459343Y23666546D01*
X18459290Y23667249D01*
X18459273Y23667953D01*
X18459236Y23979898D01*
X18459252Y23980604D01*
X18459302Y23981307D01*
X18459387Y23982007D01*
X18459504Y23982702D01*
X18459653Y23983391D01*
X18459834Y23984073D01*
X18460045Y23984748D01*
X18460285Y23985414D01*
X18460555Y23986070D01*
X18460851Y23986716D01*
X18461524Y23987970D01*
X18462298Y23989168D01*
X18463166Y23990303D01*
X18464120Y23991366D01*
X18465153Y23992349D01*
X18466260Y23993243D01*
X18467432Y23994041D01*
X18468041Y23994401D01*
X18468663Y23994734D01*
X18469298Y23995039D01*
X18469946Y23995315D01*
X18470605Y23995560D01*
X18471274Y23995774D01*
X18471953Y23995956D01*
X18472640Y23996104D01*
X18775735Y24052468D01*
X18777124Y24052791D01*
X18778521Y24053236D01*
X18779915Y24053796D01*
X18781299Y24054462D01*
X18782662Y24055226D01*
X18783995Y24056082D01*
X18785290Y24057020D01*
X18786537Y24058034D01*
X18787726Y24059114D01*
X18788849Y24060254D01*
X18789896Y24061446D01*
X18790858Y24062681D01*
X18791726Y24063952D01*
X18792491Y24065250D01*
X18793143Y24066569D01*
X18793674Y24067900D01*
X18886581Y24284652D01*
X18887182Y24285949D01*
X18887688Y24287324D01*
X18888098Y24288765D01*
X18888414Y24290260D01*
X18888636Y24291797D01*
X18888765Y24293364D01*
X18888802Y24294950D01*
X18888747Y24296541D01*
X18888602Y24298128D01*
X18888366Y24299697D01*
X18888041Y24301237D01*
X18887628Y24302736D01*
X18887127Y24304182D01*
X18886539Y24305564D01*
X18885864Y24306869D01*
X18885104Y24308085D01*
X18708510Y24565473D01*
X18708129Y24566063D01*
X18707778Y24566671D01*
X18707455Y24567295D01*
X18707163Y24567933D01*
X18706899Y24568585D01*
X18706664Y24569250D01*
X18706282Y24570610D01*
X18706015Y24572003D01*
X18705863Y24573418D01*
X18705823Y24574844D01*
X18705897Y24576271D01*
X18706082Y24577687D01*
X18706379Y24579083D01*
X18706786Y24580447D01*
X18707302Y24581769D01*
X18707927Y24583037D01*
X18708280Y24583649D01*
X18708660Y24584242D01*
X18709066Y24584818D01*
X18709499Y24585373D01*
X18709959Y24585907D01*
X18710445Y24586418D01*
X18931013Y24806986D01*
X18931525Y24807472D01*
X18932058Y24807933D01*
X18932613Y24808366D01*
X18933188Y24808774D01*
X18933782Y24809154D01*
X18934392Y24809508D01*
X18935019Y24809835D01*
X18935660Y24810135D01*
X18936314Y24810408D01*
X18936980Y24810654D01*
X18938343Y24811063D01*
X18939737Y24811362D01*
X18941151Y24811549D01*
X18942576Y24811624D01*
X18944001Y24811586D01*
X18945414Y24811433D01*
X18946113Y24811314D01*
X18946806Y24811166D01*
X18947490Y24810988D01*
X18948164Y24810781D01*
X18948828Y24810546D01*
X18949480Y24810280D01*
X18950118Y24809985D01*
X18950742Y24809661D01*
X18951349Y24809306D01*
X18951939Y24808922D01*
X19213845Y24629193D01*
X19215056Y24628435D01*
X19216359Y24627761D01*
X19217741Y24627170D01*
X19219191Y24626664D01*
X19220695Y24626244D01*
X19222242Y24625909D01*
X19223820Y24625662D01*
X19225417Y24625503D01*
X19227019Y24625432D01*
X19228616Y24625452D01*
X19230194Y24625561D01*
X19231743Y24625762D01*
X19233248Y24626056D01*
X19234700Y24626442D01*
X19236084Y24626922D01*
X19237389Y24627496D01*
X19447503Y24713507D01*
X19448172Y24713745D01*
X19448838Y24714014D01*
X19449501Y24714314D01*
X19450160Y24714644D01*
X19451462Y24715387D01*
X19452737Y24716235D01*
X19453975Y24717178D01*
X19455170Y24718207D01*
X19456313Y24719314D01*
X19457397Y24720488D01*
X19458414Y24721722D01*
X19459356Y24723005D01*
X19460215Y24724330D01*
X19460983Y24725685D01*
X19461653Y24727064D01*
X19462216Y24728456D01*
X19462664Y24729852D01*
X19462843Y24730549D01*
X19462991Y24731244D01*
X19521346Y25044737D01*
X19521491Y25045426D01*
X19521670Y25046107D01*
X19521881Y25046777D01*
X19522124Y25047438D01*
X19522397Y25048087D01*
X19522700Y25048723D01*
X19523032Y25049347D01*
X19523390Y25049957D01*
X19523775Y25050552D01*
X19524186Y25051131D01*
X19524621Y25051694D01*
X19525078Y25052239D01*
X19525559Y25052767D01*
X19526060Y25053275D01*
X19526581Y25053763D01*
X19527122Y25054231D01*
X19527680Y25054676D01*
X19528256Y25055100D01*
X19528847Y25055499D01*
X19529454Y25055875D01*
X19530074Y25056226D01*
X19530707Y25056550D01*
X19531352Y25056848D01*
X19532008Y25057118D01*
X19532673Y25057359D01*
X19533347Y25057572D01*
X19534029Y25057753D01*
X19534717Y25057904D01*
X19535411Y25058023D01*
X19536110Y25058109D01*
X19536812Y25058161D01*
X19537516Y25058178D01*
X19849479Y25058178D01*
X19850182Y25058161D01*
G36*
X19850182Y25058161D02*
G01*
X19850882Y25058109D01*
X19851579Y25058023D01*
X19852271Y25057904D01*
X19852958Y25057753D01*
X19853639Y25057572D01*
X19854312Y25057359D01*
X19854976Y25057118D01*
X19855631Y25056848D01*
X19856275Y25056550D01*
X19857527Y25055875D01*
X19858724Y25055100D01*
X19859857Y25054231D01*
X19860918Y25053275D01*
X19861899Y25052239D01*
X19862791Y25051131D01*
X19863201Y25050552D01*
X19863586Y25049957D01*
X19863945Y25049347D01*
X19864276Y25048723D01*
X19864579Y25048087D01*
X19864852Y25047438D01*
X19865095Y25046777D01*
X19865306Y25046107D01*
X19865485Y25045426D01*
X19865630Y25044737D01*
X19923966Y24731244D01*
X19924293Y24729853D01*
X19924741Y24728456D01*
X19925303Y24727064D01*
X19925972Y24725686D01*
X19926739Y24724330D01*
X19927596Y24723006D01*
X19928537Y24721722D01*
X19929553Y24720488D01*
X19930637Y24719314D01*
X19931780Y24718207D01*
X19932974Y24717178D01*
X19934213Y24716235D01*
X19935489Y24715387D01*
X19936792Y24714644D01*
X19938117Y24714014D01*
X19939454Y24713508D01*
X20149587Y24627497D01*
X20150895Y24626922D01*
X20152283Y24626442D01*
X20153736Y24626056D01*
X20155244Y24625763D01*
X20156794Y24625562D01*
X20158373Y24625452D01*
X20159971Y24625433D01*
X20161573Y24625503D01*
X20163169Y24625662D01*
X20164747Y24625909D01*
X20166293Y24626244D01*
X20167796Y24626664D01*
X20169243Y24627171D01*
X20170623Y24627761D01*
X20171923Y24628436D01*
X20173131Y24629193D01*
X20435018Y24808922D01*
X20435610Y24809307D01*
X20436219Y24809661D01*
X20436844Y24809986D01*
X20437484Y24810281D01*
X20438138Y24810546D01*
X20438803Y24810782D01*
X20440165Y24811166D01*
X20441560Y24811434D01*
X20442976Y24811586D01*
X20444402Y24811625D01*
X20445829Y24811550D01*
X20447246Y24811362D01*
X20448641Y24811063D01*
X20450004Y24810654D01*
X20451324Y24810136D01*
X20452591Y24809509D01*
X20453201Y24809155D01*
X20453793Y24808774D01*
X20454367Y24808367D01*
X20454921Y24807933D01*
X20455453Y24807473D01*
X20455963Y24806986D01*
X20676549Y24586418D01*
X20677034Y24585907D01*
X20677493Y24585373D01*
X20677926Y24584818D01*
X20678332Y24584243D01*
X20678712Y24583649D01*
X20679065Y24583038D01*
X20679391Y24582411D01*
X20679691Y24581769D01*
X20679964Y24581114D01*
X20680209Y24580447D01*
X20680618Y24579083D01*
X20680918Y24577687D01*
X20681106Y24576271D01*
X20681182Y24574844D01*
X20681144Y24573418D01*
X20680993Y24572003D01*
X20680874Y24571303D01*
X20680726Y24570610D01*
X20680549Y24569925D01*
X20680343Y24569250D01*
X20680107Y24568586D01*
X20679842Y24567933D01*
X20679548Y24567295D01*
X20679223Y24566671D01*
X20678869Y24566063D01*
X20678485Y24565473D01*
X20501872Y24308086D01*
X20501119Y24306869D01*
X20500450Y24305564D01*
X20499867Y24304183D01*
X20499370Y24302736D01*
X20498960Y24301237D01*
X20498638Y24299697D01*
X20498405Y24298128D01*
X20498260Y24296542D01*
X20498206Y24294950D01*
X20498243Y24293364D01*
X20498371Y24291797D01*
X20498592Y24290261D01*
X20498906Y24288766D01*
X20499314Y24287325D01*
X20499817Y24285950D01*
X20500415Y24284652D01*
X20593340Y24067901D01*
X20593588Y24067234D01*
X20593867Y24066570D01*
X20594516Y24065251D01*
X20595278Y24063952D01*
X20596143Y24062681D01*
X20597103Y24061446D01*
X20598148Y24060255D01*
X20599269Y24059115D01*
X20600457Y24058034D01*
X20601703Y24057021D01*
X20602998Y24056082D01*
X20604333Y24055227D01*
X20605698Y24054462D01*
X20607084Y24053796D01*
X20608483Y24053236D01*
X20609884Y24052791D01*
X20610584Y24052614D01*
X20611280Y24052468D01*
X20914356Y23996105D01*
X20915047Y23995956D01*
X20915729Y23995775D01*
X20916400Y23995561D01*
X20917062Y23995315D01*
X20917711Y23995040D01*
X20918349Y23994735D01*
X20918973Y23994402D01*
X20919583Y23994042D01*
X20920178Y23993656D01*
X20920758Y23993244D01*
X20921321Y23992809D01*
X20921866Y23992350D01*
X20922393Y23991870D01*
X20922901Y23991368D01*
X20923389Y23990847D01*
X20923856Y23990306D01*
X20924301Y23989748D01*
X20924724Y23989172D01*
X20925124Y23988581D01*
X20925499Y23987975D01*
X20925849Y23987355D01*
X20926173Y23986722D01*
X20926470Y23986078D01*
X20926739Y23985422D01*
X20926980Y23984757D01*
X20927192Y23984084D01*
X20927373Y23983402D01*
X20927524Y23982714D01*
X20927642Y23982021D01*
X20927728Y23981323D01*
X20927780Y23980621D01*
X20927797Y23979916D01*
X20927779Y23667972D01*
X20927761Y23667268D01*
X20927709Y23666566D01*
X20927623Y23665867D01*
X20927504Y23665172D01*
X20927354Y23664483D01*
X20927172Y23663800D01*
X20926960Y23663125D01*
X20926718Y23662459D01*
X20926150Y23661155D01*
X20925475Y23659899D01*
X20924700Y23658699D01*
X20923831Y23657562D01*
X20922875Y23656498D01*
X20921840Y23655514D01*
X20920731Y23654620D01*
X20920152Y23654209D01*
X20919557Y23653823D01*
X20918947Y23653464D01*
X20918324Y23653133D01*
X20917687Y23652830D01*
X20917038Y23652557D01*
X20916378Y23652315D01*
X20915707Y23652105D01*
X20915027Y23651928D01*
X20914338Y23651784D01*
X20618692Y23596767D01*
X20617997Y23596624D01*
X20617301Y23596449D01*
X20615907Y23596006D01*
X20614519Y23595447D01*
X20613146Y23594779D01*
X20611798Y23594010D01*
X20610482Y23593148D01*
X20609209Y23592202D01*
X20607987Y23591180D01*
X20606825Y23590089D01*
X20605732Y23588938D01*
X20604718Y23587735D01*
X20603791Y23586489D01*
X20602961Y23585206D01*
X20602236Y23583895D01*
X20601626Y23582565D01*
X20601367Y23581895D01*
X20601139Y23581224D01*
X20508841Y23350663D01*
X20508270Y23349351D01*
X20507793Y23347962D01*
X20507410Y23346508D01*
X20507121Y23345000D01*
X20506923Y23343451D01*
X20506817Y23341873D01*
X20506801Y23340277D01*
X20506875Y23338676D01*
X20507038Y23337081D01*
X20507288Y23335506D01*
X20507626Y23333961D01*
X20508050Y23332459D01*
X20508560Y23331011D01*
X20509154Y23329631D01*
X20509832Y23328329D01*
X20510593Y23327118D01*
X20678521Y23082397D01*
X20678904Y23081806D01*
X20679257Y23081199D01*
X20679580Y23080575D01*
X20679874Y23079936D01*
X20680138Y23079283D01*
X20680373Y23078618D01*
X20680755Y23077257D01*
X20681021Y23075863D01*
X20681173Y23074446D01*
X20681210Y23073018D01*
X20681135Y23071590D01*
X20680948Y23070172D01*
X20680650Y23068774D01*
X20680242Y23067409D01*
X20679724Y23066086D01*
X20679099Y23064816D01*
X20678747Y23064204D01*
X20678367Y23063610D01*
X20677961Y23063034D01*
X20677529Y23062479D01*
X20677070Y23061945D01*
X20676586Y23061433D01*
X20455981Y22840865D01*
X20455471Y22840382D01*
X20454939Y22839925D01*
X20454385Y22839494D01*
X20453811Y22839090D01*
X20453219Y22838711D01*
X20452609Y22838360D01*
X20451983Y22838035D01*
X20451342Y22837737D01*
X20450688Y22837465D01*
X20450022Y22837221D01*
X20448659Y22836814D01*
X20447264Y22836517D01*
X20445847Y22836330D01*
X20444420Y22836254D01*
X20442994Y22836291D01*
X20441578Y22836442D01*
X20440877Y22836560D01*
X20440183Y22836707D01*
X20439498Y22836882D01*
X20438821Y22837087D01*
X20438156Y22837321D01*
X20437502Y22837584D01*
X20436862Y22837876D01*
X20436237Y22838198D01*
X20435628Y22838549D01*
X20435036Y22838930D01*
X20194648Y23003927D01*
X20193439Y23004677D01*
X20192144Y23005334D01*
X20190775Y23005899D01*
X20189343Y23006372D01*
X20187861Y23006752D01*
X20186339Y23007038D01*
X20184791Y23007232D01*
X20183228Y23007331D01*
X20181661Y23007337D01*
X20180103Y23007249D01*
X20178566Y23007066D01*
X20177061Y23006788D01*
X20175600Y23006415D01*
X20174195Y23005946D01*
X20172858Y23005382D01*
X20171601Y23004722D01*
X20065585Y22948119D01*
X20064953Y22947816D01*
X20064315Y22947549D01*
X20063673Y22947319D01*
X20063028Y22947125D01*
X20062380Y22946966D01*
X20061732Y22946841D01*
X20061083Y22946752D01*
X20060436Y22946697D01*
X20059791Y22946675D01*
X20059150Y22946687D01*
X20058513Y22946732D01*
X20057882Y22946809D01*
X20057257Y22946918D01*
X20056640Y22947059D01*
X20056033Y22947231D01*
X20055435Y22947434D01*
X20054849Y22947668D01*
X20054275Y22947931D01*
X20053715Y22948224D01*
X20053169Y22948546D01*
X20052639Y22948897D01*
X20052126Y22949277D01*
X20051630Y22949684D01*
X20051154Y22950118D01*
X20050698Y22950580D01*
X20050263Y22951069D01*
X20049850Y22951583D01*
X20049461Y22952124D01*
X20049097Y22952690D01*
X20048758Y22953280D01*
X20048446Y22953896D01*
X20048162Y22954535D01*
X19829567Y23482714D01*
X19829312Y23483372D01*
X19829091Y23484039D01*
X19828903Y23484714D01*
X19828748Y23485398D01*
X19828625Y23486087D01*
X19828534Y23486781D01*
X19828446Y23488180D01*
X19828480Y23489583D01*
X19828633Y23490982D01*
X19828902Y23492364D01*
X19829283Y23493722D01*
X19829774Y23495044D01*
X19830370Y23496320D01*
X19831069Y23497541D01*
X19831867Y23498696D01*
X19832760Y23499776D01*
X19833242Y23500285D01*
X19833746Y23500770D01*
X19834273Y23501232D01*
X19834822Y23501669D01*
X19835392Y23502079D01*
X19835983Y23502461D01*
X19862515Y23518705D01*
X19864430Y23519921D01*
X19866472Y23521309D01*
X19868603Y23522839D01*
X19870786Y23524480D01*
X19872984Y23526203D01*
X19875160Y23527976D01*
X19877275Y23529771D01*
X19879293Y23531555D01*
X19896853Y23543577D01*
X19913613Y23556630D01*
X19929526Y23570668D01*
X19944546Y23585646D01*
X19958629Y23601519D01*
X19971727Y23618241D01*
X19983795Y23635766D01*
X19994788Y23654050D01*
X20004659Y23673046D01*
X20009159Y23682797D01*
X20013362Y23692709D01*
X20017262Y23702776D01*
X20020852Y23712993D01*
X20024128Y23723355D01*
X20027083Y23733854D01*
X20029713Y23744486D01*
X20032010Y23755246D01*
X20033969Y23766126D01*
X20035585Y23777122D01*
X20036852Y23788228D01*
X20037764Y23799439D01*
X20038315Y23810747D01*
X20038501Y23822149D01*
X20038052Y23839902D01*
X20036719Y23857422D01*
X20034525Y23874688D01*
X20031491Y23891677D01*
X20027639Y23908367D01*
X20022989Y23924738D01*
X20017565Y23940768D01*
X20011388Y23956434D01*
X20004479Y23971716D01*
X19996860Y23986591D01*
X19988553Y24001038D01*
X19979579Y24015035D01*
X19969960Y24028560D01*
X19959718Y24041593D01*
X19948875Y24054110D01*
X19937452Y24066091D01*
X19925470Y24077514D01*
X19912952Y24088357D01*
X19899920Y24098598D01*
X19886394Y24108216D01*
X19872397Y24117190D01*
X19857950Y24125496D01*
X19843075Y24133115D01*
X19827794Y24140023D01*
X19812128Y24146200D01*
X19796099Y24151624D01*
X19779728Y24156272D01*
X19763038Y24160125D01*
X19746051Y24163158D01*
X19728786Y24165352D01*
X19711268Y24166684D01*
X19693516Y24167133D01*
X19675765Y24166684D01*
X19658246Y24165352D01*
X19640982Y24163158D01*
X19623995Y24160125D01*
X19607305Y24156272D01*
X19590935Y24151624D01*
X19574907Y24146200D01*
X19559242Y24140023D01*
X19543961Y24133115D01*
X19529087Y24125496D01*
X19514641Y24117190D01*
X19500644Y24108216D01*
X19487119Y24098598D01*
X19474088Y24088357D01*
X19461571Y24077514D01*
X19449590Y24066091D01*
X19438168Y24054110D01*
X19427325Y24041592D01*
X19417084Y24028560D01*
X19407466Y24015035D01*
X19398493Y24001037D01*
X19390187Y23986591D01*
X19382568Y23971716D01*
X19375660Y23956434D01*
X19369483Y23940768D01*
X19364060Y23924738D01*
X19359411Y23908367D01*
X19355559Y23891676D01*
X19352525Y23874688D01*
X19350331Y23857422D01*
X19348999Y23839902D01*
X19348550Y23822149D01*
X19349286Y23799439D01*
X19351465Y23777122D01*
X19355039Y23755246D01*
X19359965Y23733854D01*
X19366195Y23712993D01*
X19373684Y23692709D01*
X19382386Y23673046D01*
X19392256Y23654050D01*
X19403248Y23635766D01*
X19415316Y23618241D01*
X19428414Y23601519D01*
X19442497Y23585646D01*
X19457518Y23570668D01*
X19473433Y23556630D01*
X19490195Y23543577D01*
X19507758Y23531555D01*
X19509765Y23529771D01*
X19511873Y23527976D01*
X19514044Y23526203D01*
X19516240Y23524480D01*
X19518421Y23522839D01*
X19520551Y23521309D01*
X19522590Y23519921D01*
X19524500Y23518705D01*
X19551031Y23502461D01*
X19551619Y23502079D01*
X19552186Y23501669D01*
X19552732Y23501232D01*
X19553257Y23500770D01*
X19553759Y23500285D01*
X19554239Y23499776D01*
X19554696Y23499247D01*
X19555130Y23498697D01*
X19555540Y23498128D01*
X19555926Y23497541D01*
X19556287Y23496938D01*
X19556623Y23496320D01*
X19556934Y23495688D01*
X19557219Y23495044D01*
X19557478Y23494388D01*
X19557710Y23493722D01*
X19557915Y23493047D01*
X19558093Y23492365D01*
X19558242Y23491676D01*
X19558363Y23490982D01*
X19558456Y23490284D01*
X19558519Y23489584D01*
X19558552Y23488882D01*
X19558555Y23488180D01*
X19558528Y23487480D01*
X19558470Y23486782D01*
X19558380Y23486087D01*
X19558259Y23485398D01*
X19558106Y23484714D01*
X19557919Y23484039D01*
X19557700Y23483372D01*
X19557447Y23482714D01*
X19338870Y22954517D01*
X19338587Y22953877D01*
X19338275Y22953261D01*
X19337936Y22952671D01*
X19337572Y22952105D01*
X19337183Y22951565D01*
X19336771Y22951051D01*
X19336337Y22950563D01*
X19335881Y22950102D01*
X19335405Y22949668D01*
X19334910Y22949261D01*
X19334398Y22948882D01*
X19333868Y22948532D01*
X19333323Y22948211D01*
X19332763Y22947918D01*
X19332190Y22947655D01*
X19331604Y22947422D01*
X19331007Y22947220D01*
X19330400Y22947048D01*
X19329783Y22946908D01*
X19329159Y22946798D01*
X19328528Y22946721D01*
X19327891Y22946677D01*
X19327249Y22946665D01*
X19326604Y22946686D01*
X19325957Y22946741D01*
X19325308Y22946830D01*
X19324658Y22946953D01*
X19324010Y22947111D01*
X19323364Y22947305D01*
X19322720Y22947534D01*
X19322081Y22947799D01*
X19321447Y22948100D01*
X19215432Y23004703D01*
X19214171Y23005364D01*
X19212832Y23005930D01*
X19211426Y23006399D01*
X19209964Y23006774D01*
X19208458Y23007053D01*
X19206921Y23007237D01*
X19205363Y23007327D01*
X19203797Y23007322D01*
X19202235Y23007223D01*
X19200688Y23007029D01*
X19199168Y23006742D01*
X19197687Y23006362D01*
X19196256Y23005888D01*
X19194887Y23005321D01*
X19193593Y23004661D01*
X19192385Y23003908D01*
X18951978Y22838911D01*
X18951388Y22838530D01*
X18950780Y22838179D01*
X18950156Y22837858D01*
X18949517Y22837565D01*
X18948864Y22837302D01*
X18948200Y22837069D01*
X18946839Y22836688D01*
X18945445Y22836423D01*
X18944029Y22836273D01*
X18942603Y22836236D01*
X18941176Y22836311D01*
X18939760Y22836498D01*
X18938365Y22836795D01*
X18937002Y22837202D01*
X18935683Y22837718D01*
X18934417Y22838341D01*
X18933808Y22838692D01*
X18933216Y22839071D01*
X18932643Y22839475D01*
X18932091Y22839906D01*
X18931560Y22840363D01*
X18931052Y22840846D01*
X18710447Y23061414D01*
X18709960Y23061926D01*
X18709500Y23062460D01*
X18709066Y23063015D01*
X18708659Y23063591D01*
X18708278Y23064185D01*
X18707924Y23064797D01*
X18707597Y23065424D01*
X18707297Y23066067D01*
X18707024Y23066722D01*
X18706778Y23067390D01*
X18706369Y23068756D01*
X18706070Y23070153D01*
X18705883Y23071571D01*
X18705808Y23073000D01*
X18705846Y23074427D01*
X18705999Y23075844D01*
X18706119Y23076544D01*
X18706267Y23077238D01*
X18706444Y23077924D01*
X18706651Y23078599D01*
X18706887Y23079264D01*
X18707153Y23079917D01*
X18707448Y23080556D01*
X18707772Y23081180D01*
X18708127Y23081788D01*
X18708511Y23082378D01*
X18876458Y23327099D01*
X18877213Y23328310D01*
X18877886Y23329612D01*
X18878476Y23330992D01*
X18878982Y23332440D01*
X18879404Y23333942D01*
X18879741Y23335487D01*
X18879990Y23337063D01*
X18880153Y23338657D01*
X18880227Y23340258D01*
X18880212Y23341854D01*
X18880106Y23343432D01*
X18879909Y23344981D01*
X18879620Y23346489D01*
X18879238Y23347943D01*
X18878762Y23349332D01*
X18878191Y23350644D01*
X18785893Y23581205D01*
X18785665Y23581877D01*
X18785404Y23582546D01*
X18784793Y23583877D01*
X18784069Y23585187D01*
X18783240Y23586470D01*
X18782315Y23587716D01*
X18781304Y23588919D01*
X18780214Y23590070D01*
X18779056Y23591161D01*
X18777837Y23592183D01*
X18776567Y23593129D01*
X18775254Y23593991D01*
X18773907Y23594760D01*
X18772535Y23595428D01*
X18771148Y23595987D01*
X18770450Y23596224D01*
X18769752Y23596430D01*
X18769055Y23596605D01*
X18768359Y23596747D01*
X18472713Y23651765D01*
X18472026Y23651908D01*
X18471347Y23652086D01*
X18470678Y23652296D01*
X18470018Y23652538D01*
X18469370Y23652811D01*
X18468734Y23653114D01*
X18468111Y23653445D01*
X18467502Y23653804D01*
X18466907Y23654190D01*
X18466328Y23654601D01*
X18465765Y23655036D01*
X18465220Y23655495D01*
X18464692Y23655976D01*
X18464184Y23656478D01*
X18463695Y23657001D01*
X18463227Y23657543D01*
X18462781Y23658103D01*
X18462357Y23658679D01*
X18461957Y23659272D01*
X18461581Y23659880D01*
X18461230Y23660502D01*
X18460905Y23661136D01*
X18460606Y23661782D01*
X18460336Y23662439D01*
X18460094Y23663106D01*
X18459881Y23663781D01*
X18459699Y23664464D01*
X18459548Y23665153D01*
X18459429Y23665847D01*
X18459343Y23666546D01*
X18459290Y23667249D01*
X18459273Y23667953D01*
X18459236Y23979898D01*
X18459252Y23980604D01*
X18459302Y23981307D01*
X18459387Y23982007D01*
X18459504Y23982702D01*
X18459653Y23983391D01*
X18459834Y23984073D01*
X18460045Y23984748D01*
X18460285Y23985414D01*
X18460555Y23986070D01*
X18460851Y23986716D01*
X18461524Y23987970D01*
X18462298Y23989168D01*
X18463166Y23990303D01*
X18464120Y23991366D01*
X18465153Y23992349D01*
X18466260Y23993243D01*
X18467432Y23994041D01*
X18468041Y23994401D01*
X18468663Y23994734D01*
X18469298Y23995039D01*
X18469946Y23995315D01*
X18470605Y23995560D01*
X18471274Y23995774D01*
X18471953Y23995956D01*
X18472640Y23996104D01*
X18775735Y24052468D01*
X18777124Y24052791D01*
X18778521Y24053236D01*
X18779915Y24053796D01*
X18781299Y24054462D01*
X18782662Y24055226D01*
X18783995Y24056082D01*
X18785290Y24057020D01*
X18786537Y24058034D01*
X18787726Y24059114D01*
X18788849Y24060254D01*
X18789896Y24061446D01*
X18790858Y24062681D01*
X18791726Y24063952D01*
X18792491Y24065250D01*
X18793143Y24066569D01*
X18793674Y24067900D01*
X18886581Y24284652D01*
X18887182Y24285949D01*
X18887688Y24287324D01*
X18888098Y24288765D01*
X18888414Y24290260D01*
X18888636Y24291797D01*
X18888765Y24293364D01*
X18888802Y24294950D01*
X18888747Y24296541D01*
X18888602Y24298128D01*
X18888366Y24299697D01*
X18888041Y24301237D01*
X18887628Y24302736D01*
X18887127Y24304182D01*
X18886539Y24305564D01*
X18885864Y24306869D01*
X18885104Y24308085D01*
X18708510Y24565473D01*
X18708129Y24566063D01*
X18707778Y24566671D01*
X18707455Y24567295D01*
X18707163Y24567933D01*
X18706899Y24568585D01*
X18706664Y24569250D01*
X18706282Y24570610D01*
X18706015Y24572003D01*
X18705863Y24573418D01*
X18705823Y24574844D01*
X18705897Y24576271D01*
X18706082Y24577687D01*
X18706379Y24579083D01*
X18706786Y24580447D01*
X18707302Y24581769D01*
X18707927Y24583037D01*
X18708280Y24583649D01*
X18708660Y24584242D01*
X18709066Y24584818D01*
X18709499Y24585373D01*
X18709959Y24585907D01*
X18710445Y24586418D01*
X18931013Y24806986D01*
X18931525Y24807472D01*
X18932058Y24807933D01*
X18932613Y24808366D01*
X18933188Y24808774D01*
X18933782Y24809154D01*
X18934392Y24809508D01*
X18935019Y24809835D01*
X18935660Y24810135D01*
X18936314Y24810408D01*
X18936980Y24810654D01*
X18938343Y24811063D01*
X18939737Y24811362D01*
X18941151Y24811549D01*
X18942576Y24811624D01*
X18944001Y24811586D01*
X18945414Y24811433D01*
X18946113Y24811314D01*
X18946806Y24811166D01*
X18947490Y24810988D01*
X18948164Y24810781D01*
X18948828Y24810546D01*
X18949480Y24810280D01*
X18950118Y24809985D01*
X18950742Y24809661D01*
X18951349Y24809306D01*
X18951939Y24808922D01*
X19213845Y24629193D01*
X19215056Y24628435D01*
X19216359Y24627761D01*
X19217741Y24627170D01*
X19219191Y24626664D01*
X19220695Y24626244D01*
X19222242Y24625909D01*
X19223820Y24625662D01*
X19225417Y24625503D01*
X19227019Y24625432D01*
X19228616Y24625452D01*
X19230194Y24625561D01*
X19231743Y24625762D01*
X19233248Y24626056D01*
X19234700Y24626442D01*
X19236084Y24626922D01*
X19237389Y24627496D01*
X19447503Y24713507D01*
X19448172Y24713745D01*
X19448838Y24714014D01*
X19449501Y24714314D01*
X19450160Y24714644D01*
X19451462Y24715387D01*
X19452737Y24716235D01*
X19453975Y24717178D01*
X19455170Y24718207D01*
X19456313Y24719314D01*
X19457397Y24720488D01*
X19458414Y24721722D01*
X19459356Y24723005D01*
X19460215Y24724330D01*
X19460983Y24725685D01*
X19461653Y24727064D01*
X19462216Y24728456D01*
X19462664Y24729852D01*
X19462843Y24730549D01*
X19462991Y24731244D01*
X19521346Y25044737D01*
X19521491Y25045426D01*
X19521670Y25046107D01*
X19521881Y25046777D01*
X19522124Y25047438D01*
X19522397Y25048087D01*
X19522700Y25048723D01*
X19523032Y25049347D01*
X19523390Y25049957D01*
X19523775Y25050552D01*
X19524186Y25051131D01*
X19524621Y25051694D01*
X19525078Y25052239D01*
X19525559Y25052767D01*
X19526060Y25053275D01*
X19526581Y25053763D01*
X19527122Y25054231D01*
X19527680Y25054676D01*
X19528256Y25055100D01*
X19528847Y25055499D01*
X19529454Y25055875D01*
X19530074Y25056226D01*
X19530707Y25056550D01*
X19531352Y25056848D01*
X19532008Y25057118D01*
X19532673Y25057359D01*
X19533347Y25057572D01*
X19534029Y25057753D01*
X19534717Y25057904D01*
X19535411Y25058023D01*
X19536110Y25058109D01*
X19536812Y25058161D01*
X19537516Y25058178D01*
X19849479Y25058178D01*
X19850182Y25058161D01*
G37*
D10*
%TO.C,D1*%
X21137500Y9020000D02*
X20137500Y9020000D01*
%TO.C,R3*%
X12177500Y16907742D02*
X12177500Y17382258D01*
X13222500Y16907742D02*
X13222500Y17382258D01*
%TO.C,R6*%
X747500Y17860242D02*
X747500Y18334758D01*
X1792500Y17860242D02*
X1792500Y18334758D01*
D12*
%TO.C,JP2*%
X20891500Y16510000D02*
X20891500Y18237200D01*
X22669500Y18491200D02*
X21145500Y18491200D01*
X22669500Y16256000D02*
X21145500Y16256000D01*
X22923500Y18237200D02*
X22923500Y16510000D01*
X20891500Y18237200D02*
G75*
G02*
X21145500Y18491200I254000J0D01*
G01*
X21145500Y16256000D02*
G75*
G02*
X20891500Y16510000I0J254000D01*
G01*
X22669500Y18491200D02*
G75*
G02*
X22923500Y18237200I0J-254000D01*
G01*
X22923500Y16510000D02*
G75*
G02*
X22669500Y16256000I-254000J0D01*
G01*
D10*
%TO.C,R4*%
X10590000Y16907742D02*
X10590000Y17382258D01*
X11635000Y16907742D02*
X11635000Y17382258D01*
D13*
%TO.C,kibuzzard-64C2E6A3*%
G36*
X19576415Y8637905D02*
G01*
X19567384Y8563398D01*
X19540291Y8490585D01*
X19495135Y8419465D01*
X19448939Y8372157D01*
X19389090Y8334375D01*
X19318446Y8309610D01*
X19239865Y8301355D01*
X19161125Y8309610D01*
X19090005Y8334375D01*
X19029680Y8372157D01*
X18983325Y8419465D01*
X18938169Y8490444D01*
X18911076Y8562834D01*
X18902045Y8636635D01*
X18902045Y8796655D01*
X19126835Y8796655D01*
X19126835Y8637905D01*
X19155410Y8561705D01*
X19239865Y8524875D01*
X19323685Y8561705D01*
X19351625Y8636635D01*
X19351625Y8796655D01*
X19126835Y8796655D01*
X18902045Y8796655D01*
X18902045Y8908415D01*
X18910618Y8973820D01*
X18936335Y9007475D01*
X18969990Y9019540D01*
X19013805Y9021445D01*
X19718655Y9021445D01*
X19784695Y9013825D01*
X19819937Y8980170D01*
X19831685Y8909685D01*
X19823113Y8844280D01*
X19797395Y8810625D01*
X19763740Y8798560D01*
X19719925Y8796655D01*
X19576415Y8796655D01*
X19576415Y8637905D01*
G37*
G36*
X19050635Y8236585D02*
G01*
X19755485Y7991475D01*
X19774535Y7982585D01*
X19812635Y7947660D01*
X19831685Y7880985D01*
X19802475Y7811135D01*
X19777075Y7790815D01*
X19755485Y7779385D01*
X19736079Y7772832D01*
X19683959Y7755204D01*
X19599123Y7726502D01*
X19481571Y7686726D01*
X19331305Y7635875D01*
X19769455Y7487285D01*
X19810730Y7451090D01*
X19831685Y7386320D01*
X19810730Y7321550D01*
X19777075Y7287895D01*
X19755485Y7279005D01*
X19050635Y7035165D01*
X18988405Y7019925D01*
X18942685Y7041197D01*
X18907125Y7105015D01*
X18894425Y7164705D01*
X18907760Y7207250D01*
X18935065Y7230745D01*
X18978245Y7247255D01*
X19404965Y7386955D01*
X18964275Y7533005D01*
X18923000Y7568565D01*
X18902045Y7628890D01*
X18910935Y7681595D01*
X18939510Y7721282D01*
X18984595Y7746365D01*
X19402425Y7884795D01*
X18978245Y8024495D01*
X18916015Y8053070D01*
X18895695Y8098790D01*
X18908395Y8165465D01*
X18943002Y8229283D01*
X18988405Y8250555D01*
X19050635Y8236585D01*
G37*
G36*
X19576415Y6565265D02*
G01*
X19573875Y6525895D01*
X19690856Y6476506D01*
X19767479Y6443486D01*
X19803745Y6426835D01*
X19828510Y6403340D01*
X19840575Y6362700D01*
X19822795Y6297295D01*
X19785965Y6238240D01*
X19741515Y6218555D01*
X19675475Y6237605D01*
X19594618Y6273165D01*
X19528155Y6301952D01*
X19476085Y6323965D01*
X19408634Y6271048D01*
X19329894Y6239298D01*
X19239865Y6228715D01*
X19161125Y6236970D01*
X19090005Y6261735D01*
X19029680Y6299200D01*
X18983325Y6345555D01*
X18938169Y6416534D01*
X18911076Y6488924D01*
X18902045Y6562725D01*
X18902045Y6725285D01*
X19126835Y6725285D01*
X19126835Y6565265D01*
X19155410Y6489065D01*
X19239865Y6452235D01*
X19323685Y6489065D01*
X19351625Y6562725D01*
X19351625Y6725285D01*
X19126835Y6725285D01*
X18902045Y6725285D01*
X18902045Y6837045D01*
X18910618Y6902450D01*
X18936335Y6936105D01*
X18969990Y6948170D01*
X19013805Y6950075D01*
X19718655Y6950075D01*
X19784695Y6942455D01*
X19819937Y6908800D01*
X19831685Y6838315D01*
X19823113Y6772910D01*
X19797395Y6739255D01*
X19763740Y6727190D01*
X19719925Y6725285D01*
X19576415Y6725285D01*
X19576415Y6565265D01*
G37*
%TO.C,kibuzzard-66EF7B78*%
G36*
X17034174Y15865665D02*
G01*
X17081384Y15849356D01*
X17120869Y15802146D01*
X17132886Y15713734D01*
X17120869Y15623605D01*
X17082242Y15576395D01*
X17036749Y15560086D01*
X16978380Y15557511D01*
X16920869Y15560086D01*
X16873659Y15576395D01*
X16834174Y15623605D01*
X16822157Y15712017D01*
X16834174Y15801288D01*
X16872800Y15849356D01*
X16919152Y15865665D01*
X16976663Y15868240D01*
X17034174Y15865665D01*
G37*
G36*
X17034174Y12174678D02*
G01*
X17081384Y12158369D01*
X17120869Y12111159D01*
X17132886Y12022747D01*
X17120869Y11932618D01*
X17082242Y11885408D01*
X17036749Y11869099D01*
X16978380Y11866524D01*
X16920869Y11869099D01*
X16873659Y11885408D01*
X16834174Y11932618D01*
X16822157Y12021030D01*
X16834174Y12110300D01*
X16872800Y12158369D01*
X16919152Y12174678D01*
X16976663Y12177253D01*
X17034174Y12174678D01*
G37*
G36*
X17990397Y15865665D02*
G01*
X18036749Y15849356D01*
X18075376Y15802146D01*
X18087393Y15713734D01*
X18075376Y15623605D01*
X18036749Y15576395D01*
X17991255Y15560086D01*
X17932886Y15557511D01*
X17374946Y15557511D01*
X17315719Y15560086D01*
X17268509Y15576395D01*
X17229024Y15623605D01*
X17217006Y15712017D01*
X17229024Y15801288D01*
X17267650Y15849356D01*
X17314002Y15865665D01*
X17371513Y15868240D01*
X17931170Y15868240D01*
X17990397Y15865665D01*
G37*
G36*
X17990397Y12174678D02*
G01*
X18036749Y12158369D01*
X18075376Y12111159D01*
X18087393Y12022747D01*
X18075376Y11932618D01*
X18036749Y11885408D01*
X17991255Y11869099D01*
X17932886Y11866524D01*
X17374946Y11866524D01*
X17315719Y11869099D01*
X17268509Y11885408D01*
X17229024Y11932618D01*
X17217006Y12021030D01*
X17229024Y12110300D01*
X17267650Y12158369D01*
X17314002Y12174678D01*
X17371513Y12177253D01*
X17931170Y12177253D01*
X17990397Y12174678D01*
G37*
G36*
X17840397Y8856223D02*
G01*
X17921727Y8843348D01*
X18028165Y8779828D01*
X18076234Y8673391D01*
X18084603Y8601288D01*
X18087393Y8505150D01*
X18084818Y8467382D01*
X18069367Y8433906D01*
X18022157Y8404721D01*
X17932886Y8395279D01*
X17848766Y8404721D01*
X17804131Y8433906D01*
X17789539Y8467382D01*
X17786964Y8503433D01*
X17777521Y8543777D01*
X17716577Y8549785D01*
X16976663Y8549785D01*
X16918294Y8553219D01*
X16870225Y8569528D01*
X16830740Y8615880D01*
X16818723Y8704292D01*
X16830740Y8793562D01*
X16869367Y8841631D01*
X16915719Y8857940D01*
X16974946Y8860515D01*
X17735461Y8860515D01*
X17840397Y8856223D01*
G37*
G36*
X17988680Y15443348D02*
G01*
X18035891Y15427039D01*
X18075376Y15379828D01*
X18087393Y15291416D01*
X18075376Y15200429D01*
X18036749Y15152361D01*
X17991255Y15136052D01*
X17932886Y15133476D01*
X17598122Y15133476D01*
X17535461Y15100000D01*
X17510569Y15015021D01*
X17523444Y14972961D01*
X17536320Y14906867D01*
X17477092Y14810730D01*
X17410783Y14782403D01*
X17330311Y14772961D01*
X17265075Y14794421D01*
X17226448Y14850215D01*
X17210998Y14912017D01*
X17206706Y14963519D01*
X17226448Y15055365D01*
X17285676Y15142060D01*
X17232886Y15190129D01*
X17215290Y15289700D01*
X17227307Y15379828D01*
X17265933Y15427039D01*
X17311427Y15443348D01*
X17369796Y15445923D01*
X17929453Y15445923D01*
X17988680Y15443348D01*
G37*
G36*
X18102843Y11325751D02*
G01*
X18088919Y11215594D01*
X18047145Y11111731D01*
X17977521Y11014163D01*
X17885390Y10935479D01*
X17776091Y10888269D01*
X17649624Y10872532D01*
X17529071Y10887315D01*
X17421489Y10931664D01*
X17326878Y11005579D01*
X17253439Y11100668D01*
X17209376Y11208536D01*
X17194689Y11329185D01*
X17194907Y11330901D01*
X17508852Y11330901D01*
X17546620Y11226180D01*
X17647908Y11186695D01*
X17754345Y11233047D01*
X17788680Y11329185D01*
X17754345Y11423605D01*
X17649624Y11468240D01*
X17549195Y11427897D01*
X17508852Y11330901D01*
X17194907Y11330901D01*
X17209663Y11447067D01*
X17254584Y11553505D01*
X17329453Y11648498D01*
X17425113Y11722890D01*
X17532409Y11767525D01*
X17651341Y11782403D01*
X17774279Y11766571D01*
X17882147Y11719075D01*
X17974946Y11639914D01*
X18046000Y11541679D01*
X18088633Y11436958D01*
X18102405Y11329185D01*
X18102843Y11325751D01*
G37*
G36*
X17749839Y13783691D02*
G01*
X17842758Y13751502D01*
X17922371Y13702146D01*
X17984388Y13639914D01*
X18031599Y13569313D01*
X18066792Y13494850D01*
X18088680Y13419099D01*
X18095976Y13344635D01*
X18079238Y13227897D01*
X18029024Y13111159D01*
X17961880Y13036576D01*
X17888633Y13018836D01*
X17809281Y13057940D01*
X17741041Y13127039D01*
X17718294Y13186695D01*
X17756062Y13275966D01*
X17778380Y13351502D01*
X17740612Y13438197D01*
X17649624Y13475107D01*
X17559496Y13437339D01*
X17522586Y13348069D01*
X17553487Y13261373D01*
X17584388Y13176395D01*
X17560783Y13114592D01*
X17489968Y13052790D01*
X17392114Y13016738D01*
X17340612Y13033047D01*
X17303702Y13065665D01*
X17273659Y13111159D01*
X17222157Y13225322D01*
X17204989Y13348069D01*
X17212285Y13421245D01*
X17234174Y13496567D01*
X17269152Y13570815D01*
X17315719Y13640773D01*
X17376878Y13702361D01*
X17455633Y13751502D01*
X17547479Y13783691D01*
X17647908Y13794421D01*
X17749839Y13783691D01*
G37*
G36*
X17988680Y10794421D02*
G01*
X18035032Y10778112D01*
X18073659Y10730901D01*
X18085676Y10642489D01*
X18073659Y10553219D01*
X18035032Y10505150D01*
X17988680Y10488841D01*
X17931170Y10486266D01*
X17649624Y10486266D01*
X17559496Y10451931D01*
X17526019Y10360944D01*
X17558637Y10270815D01*
X17649624Y10239056D01*
X17929453Y10239056D01*
X17986964Y10236481D01*
X18034174Y10220172D01*
X18073659Y10172103D01*
X18085676Y10081116D01*
X18073659Y9990987D01*
X18035032Y9943777D01*
X17988680Y9927468D01*
X17931170Y9924893D01*
X17649624Y9924893D01*
X17530216Y9935002D01*
X17426067Y9965331D01*
X17337178Y10015880D01*
X17269462Y10084931D01*
X17228833Y10170768D01*
X17215290Y10273391D01*
X17247908Y10397854D01*
X17321727Y10489700D01*
X17286534Y10494850D01*
X17253916Y10513734D01*
X17225590Y10560086D01*
X17215290Y10640773D01*
X17226448Y10730043D01*
X17263358Y10777253D01*
X17307994Y10793562D01*
X17364646Y10796996D01*
X17929453Y10796996D01*
X17988680Y10794421D01*
G37*
G36*
X18068509Y9356223D02*
G01*
X18022157Y9274249D01*
X18068509Y9225751D01*
X18083959Y9128326D01*
X18071942Y9039056D01*
X18033315Y8990987D01*
X17987822Y8974678D01*
X17929453Y8972103D01*
X17371513Y8972103D01*
X17314002Y8974678D01*
X17266792Y8990987D01*
X17227307Y9038197D01*
X17215290Y9126609D01*
X17232886Y9230472D01*
X17285676Y9274249D01*
X17234174Y9353648D01*
X17223727Y9415021D01*
X17526019Y9415021D01*
X17562071Y9328326D01*
X17649624Y9293133D01*
X17736320Y9328326D01*
X17773230Y9411588D01*
X17736320Y9501717D01*
X17651341Y9540343D01*
X17563788Y9503433D01*
X17526019Y9415021D01*
X17223727Y9415021D01*
X17217006Y9454506D01*
X17231694Y9552933D01*
X17275757Y9644492D01*
X17349195Y9729185D01*
X17441136Y9796900D01*
X17540707Y9837530D01*
X17647908Y9851073D01*
X17757970Y9837625D01*
X17859257Y9797282D01*
X17951770Y9730043D01*
X18025209Y9645637D01*
X18069272Y9553791D01*
X18083959Y9454506D01*
X18077212Y9411588D01*
X18068509Y9356223D01*
G37*
G36*
X18085676Y16556652D02*
G01*
X18074571Y16435944D01*
X18041255Y16324464D01*
X17985730Y16222210D01*
X17907994Y16129185D01*
X17814592Y16051824D01*
X17712071Y15996567D01*
X17600429Y15963412D01*
X17479667Y15952361D01*
X17362071Y15963412D01*
X17253058Y15996567D01*
X17152629Y16051824D01*
X17060783Y16129185D01*
X16984174Y16221888D01*
X16929453Y16323176D01*
X16896620Y16433047D01*
X16885676Y16551502D01*
X16885676Y16690558D01*
X17199839Y16690558D01*
X17199839Y16553219D01*
X17220869Y16443348D01*
X17283959Y16350644D01*
X17376663Y16287554D01*
X17486534Y16266524D01*
X17596191Y16287554D01*
X17688251Y16350644D01*
X17750697Y16442918D01*
X17771513Y16551502D01*
X17771513Y16690558D01*
X17199839Y16690558D01*
X16885676Y16690558D01*
X16885676Y16846781D01*
X16896835Y16937768D01*
X16935461Y16985837D01*
X16982672Y17002146D01*
X17040182Y17004721D01*
X17927736Y17004721D01*
X17988680Y17000429D01*
X18036749Y16982403D01*
X18073659Y16935193D01*
X18085676Y16848498D01*
X18085676Y16690558D01*
X18085676Y16556652D01*
G37*
G36*
X17732886Y14723391D02*
G01*
X17809281Y14703433D01*
X17883101Y14670386D01*
X17953487Y14624464D01*
X18015504Y14561588D01*
X18064217Y14477682D01*
X18095762Y14376395D01*
X18106277Y14261373D01*
X18096513Y14105150D01*
X18067221Y13993562D01*
X18018401Y13926609D01*
X17950054Y13904292D01*
X17871084Y13926609D01*
X17809281Y13972961D01*
X17788680Y14029614D01*
X17810998Y14108584D01*
X17833315Y14247639D01*
X17809281Y14348927D01*
X17744045Y14400429D01*
X17744045Y14034764D01*
X17730955Y13965021D01*
X17691685Y13910300D01*
X17628380Y13874893D01*
X17543187Y13863090D01*
X17422586Y13888627D01*
X17307994Y13965236D01*
X17246000Y14043348D01*
X17208804Y14141488D01*
X17196406Y14259657D01*
X17196781Y14263090D01*
X17472800Y14263090D01*
X17490826Y14189270D01*
X17541470Y14161803D01*
X17582672Y14208155D01*
X17582672Y14400429D01*
X17506277Y14360086D01*
X17472800Y14263090D01*
X17196781Y14263090D01*
X17210616Y14389652D01*
X17253249Y14502670D01*
X17324303Y14598712D01*
X17417865Y14671674D01*
X17528022Y14715451D01*
X17654775Y14730043D01*
X17732886Y14723391D01*
G37*
G36*
X17486534Y12933476D02*
G01*
X17524303Y12853648D01*
X17524303Y12810730D01*
X17742328Y12810730D01*
X17849911Y12801097D01*
X17936892Y12772198D01*
X18003273Y12724034D01*
X18050006Y12655651D01*
X18078046Y12566094D01*
X18087393Y12455365D01*
X18084818Y12399571D01*
X18068509Y12352361D01*
X18021298Y12312017D01*
X17932886Y12299142D01*
X17853916Y12309442D01*
X17811856Y12343777D01*
X17795547Y12390129D01*
X17792114Y12453648D01*
X17778380Y12490558D01*
X17726878Y12500000D01*
X17527736Y12500000D01*
X17529453Y12410730D01*
X17525161Y12352361D01*
X17507135Y12305150D01*
X17459925Y12267382D01*
X17374946Y12254506D01*
X17298552Y12263948D01*
X17251341Y12286266D01*
X17227307Y12323176D01*
X17217865Y12363519D01*
X17217006Y12409013D01*
X17220440Y12500000D01*
X17083101Y12500000D01*
X17025590Y12503433D01*
X16977521Y12520601D01*
X16938895Y12567811D01*
X16926878Y12654506D01*
X16938036Y12744635D01*
X16974088Y12791845D01*
X17018723Y12808155D01*
X17076234Y12810730D01*
X17225590Y12810730D01*
X17225590Y12846781D01*
X17262500Y12929185D01*
X17373230Y12956652D01*
X17486534Y12933476D01*
G37*
D10*
%TO.C,R11*%
X13765000Y7382742D02*
X13765000Y7857258D01*
X14810000Y7382742D02*
X14810000Y7857258D01*
D13*
%TO.C,kibuzzard-66EF7AE6*%
G36*
X17188755Y3675719D02*
G01*
X17188755Y3165848D01*
X17188755Y2634088D01*
X17188755Y2097607D01*
X15831245Y2097607D01*
X15831245Y2634088D01*
X15831245Y3164560D01*
X16060000Y3164560D01*
X16069013Y3097607D01*
X16098627Y3061556D01*
X16134034Y3049324D01*
X16178455Y3047393D01*
X16760429Y3047393D01*
X16760429Y2733230D01*
X16762361Y2696534D01*
X16772661Y2666921D01*
X16802918Y2641813D01*
X16860858Y2634088D01*
X16917511Y2641813D01*
X16948412Y2666921D01*
X16959356Y2697822D01*
X16961288Y2734517D01*
X16961288Y3165848D01*
X16952275Y3232800D01*
X16922661Y3268852D01*
X16887253Y3281084D01*
X16842833Y3283015D01*
X16177167Y3283015D01*
X16134034Y3281084D01*
X16098627Y3268852D01*
X16069013Y3232800D01*
X16060000Y3164560D01*
X15831245Y3164560D01*
X15831245Y3671856D01*
X16050987Y3671856D01*
X16058999Y3595175D01*
X16083033Y3516205D01*
X16123090Y3434946D01*
X16147554Y3400182D01*
X16174592Y3376363D01*
X16213219Y3364131D01*
X16285322Y3392457D01*
X16337468Y3440740D01*
X16354850Y3485161D01*
X16325236Y3554689D01*
X16319442Y3563058D01*
X16312361Y3574002D01*
X16305279Y3586234D01*
X16298841Y3603616D01*
X16293691Y3624217D01*
X16289185Y3649968D01*
X16287897Y3680869D01*
X16300773Y3754260D01*
X16338755Y3827006D01*
X16408927Y3884303D01*
X16457210Y3900719D01*
X16511931Y3906191D01*
X16582264Y3896373D01*
X16641330Y3866921D01*
X16686556Y3825236D01*
X16715365Y3778723D01*
X16735966Y3680869D01*
X16725343Y3612951D01*
X16693476Y3548251D01*
X16667725Y3483873D01*
X16686073Y3440097D01*
X16741116Y3393745D01*
X16815794Y3365418D01*
X16862790Y3383444D01*
X16902060Y3436234D01*
X16942117Y3512629D01*
X16966152Y3592457D01*
X16974163Y3675719D01*
X16970300Y3730279D01*
X16958712Y3788380D01*
X16937951Y3849217D01*
X16906567Y3911985D01*
X16866009Y3972339D01*
X16817725Y4025933D01*
X16758337Y4071803D01*
X16684464Y4108981D01*
X16599163Y4133605D01*
X16505494Y4141813D01*
X16415365Y4133766D01*
X16332961Y4109624D01*
X16261341Y4072929D01*
X16203562Y4027221D01*
X16156567Y3973627D01*
X16117296Y3913273D01*
X16086878Y3850182D01*
X16066438Y3788380D01*
X16054850Y3728670D01*
X16050987Y3671856D01*
X15831245Y3671856D01*
X15831245Y4520354D01*
X16045837Y4520354D01*
X16054421Y4423215D01*
X16080172Y4341241D01*
X16123090Y4274431D01*
X16189399Y4228079D01*
X16268584Y4258981D01*
X16331030Y4334946D01*
X16307210Y4421212D01*
X16294979Y4436019D01*
X16280172Y4454045D01*
X16270515Y4479152D01*
X16266009Y4521642D01*
X16282103Y4569281D01*
X16321373Y4589882D01*
X16363219Y4567350D01*
X16385751Y4516491D01*
X16401845Y4437951D01*
X16421803Y4355547D01*
X16455279Y4282639D01*
X16504206Y4226148D01*
X16574056Y4189936D01*
X16670300Y4177865D01*
X16731781Y4183337D01*
X16787468Y4199753D01*
X16874378Y4255762D01*
X16931674Y4334946D01*
X16964506Y4423144D01*
X16974163Y4508766D01*
X16968369Y4580869D01*
X16954206Y4641384D01*
X16932961Y4690955D01*
X16908498Y4730869D01*
X16883391Y4761770D01*
X16860858Y4784303D01*
X16842833Y4798466D01*
X16833820Y4806191D01*
X16750129Y4838380D01*
X16667725Y4784303D01*
X16637969Y4730798D01*
X16646552Y4675004D01*
X16693476Y4616921D01*
X16740472Y4564775D01*
X16752704Y4513916D01*
X16734034Y4437951D01*
X16674163Y4414775D01*
X16634249Y4448251D01*
X16603991Y4549324D01*
X16587414Y4610644D01*
X16569871Y4659410D01*
X16528670Y4731513D01*
X16473305Y4783015D01*
X16403777Y4813916D01*
X16320086Y4824217D01*
X16245622Y4814632D01*
X16180172Y4785876D01*
X16123734Y4737951D01*
X16080458Y4675433D01*
X16054492Y4602901D01*
X16045837Y4520354D01*
X15831245Y4520354D01*
X15831245Y4843530D01*
X15831245Y4843637D01*
X15834513Y4910167D01*
X15844287Y4976056D01*
X15860472Y5040670D01*
X15882912Y5103386D01*
X15911391Y5163600D01*
X15945636Y5220734D01*
X15985315Y5274235D01*
X16030047Y5323590D01*
X16079402Y5368322D01*
X16132904Y5408002D01*
X16190037Y5442246D01*
X16250252Y5470726D01*
X16312968Y5493166D01*
X16377581Y5509351D01*
X16443470Y5519124D01*
X16510000Y5522393D01*
X16576530Y5519124D01*
X16642419Y5509351D01*
X16707032Y5493166D01*
X16769748Y5470726D01*
X16829963Y5442246D01*
X16887096Y5408002D01*
X16940598Y5368322D01*
X16989953Y5323590D01*
X17034685Y5274235D01*
X17074364Y5220734D01*
X17108609Y5163600D01*
X17137088Y5103386D01*
X17159528Y5040670D01*
X17175713Y4976056D01*
X17185487Y4910167D01*
X17188755Y4843637D01*
X17188755Y4843530D01*
X17188755Y4508766D01*
X17188755Y3675719D01*
G37*
%TO.C,kibuzzard-66F18F5E*%
G36*
X9564893Y19449056D02*
G01*
X9564893Y19234464D01*
X9561643Y19168312D01*
X9551925Y19102798D01*
X9535832Y19038553D01*
X9513520Y18976193D01*
X9485202Y18916321D01*
X9451153Y18859513D01*
X9411699Y18806316D01*
X9367221Y18757242D01*
X9318147Y18712764D01*
X9264950Y18673311D01*
X9208142Y18639261D01*
X9148270Y18610944D01*
X9085911Y18588631D01*
X9021665Y18572539D01*
X8956151Y18562821D01*
X8890000Y18559571D01*
X8823849Y18562821D01*
X8758335Y18572539D01*
X8694089Y18588631D01*
X8631730Y18610944D01*
X8571858Y18639261D01*
X8515050Y18673311D01*
X8461853Y18712764D01*
X8412779Y18757242D01*
X8368301Y18806316D01*
X8328847Y18859513D01*
X8294798Y18916321D01*
X8266480Y18976193D01*
X8244168Y19038553D01*
X8228075Y19102798D01*
X8218357Y19168312D01*
X8215107Y19234464D01*
X8215107Y19449056D01*
X8215107Y19879099D01*
X8429700Y19879099D01*
X8430987Y19584249D01*
X8433562Y19539828D01*
X8445794Y19505064D01*
X8481845Y19476094D01*
X8552017Y19467082D01*
X8616395Y19475451D01*
X8650515Y19503133D01*
X8662103Y19536609D01*
X8664034Y19577811D01*
X8664034Y19776094D01*
X8732275Y19785107D01*
X8729700Y19763219D01*
X8729700Y19756781D01*
X8739785Y19678526D01*
X8770043Y19606853D01*
X8820472Y19541760D01*
X8884206Y19490258D01*
X8954378Y19459356D01*
X9030987Y19449056D01*
X9116323Y19459070D01*
X9192074Y19489113D01*
X9258240Y19539185D01*
X9309385Y19603991D01*
X9340072Y19678240D01*
X9350300Y19761931D01*
X9344667Y19831459D01*
X9327768Y19895837D01*
X9283348Y19983391D01*
X9260172Y20010429D01*
X9181631Y20059356D01*
X9094077Y20011717D01*
X9050300Y19931888D01*
X9092790Y19844335D01*
X9113391Y19769657D01*
X9094077Y19707854D01*
X9040000Y19685966D01*
X8986567Y19709142D01*
X8965322Y19765794D01*
X8983348Y19816009D01*
X9014249Y19888112D01*
X8988498Y19971803D01*
X8949871Y20029099D01*
X8912532Y20045193D01*
X8546867Y19997554D01*
X8510815Y19991116D01*
X8475408Y19976309D01*
X8441288Y19940258D01*
X8429700Y19879099D01*
X8215107Y19879099D01*
X8215107Y20059356D01*
X8215107Y20810429D01*
X9564893Y20810429D01*
X9564893Y20059356D01*
X9564893Y19761931D01*
X9564893Y19449056D01*
G37*
%TO.C,kibuzzard-66EF7B1E*%
G36*
X9105021Y3028670D02*
G01*
X9089410Y2947232D01*
X9042575Y2878026D01*
X8973530Y2830708D01*
X8891288Y2814936D01*
X8808884Y2830708D01*
X8739356Y2878026D01*
X8692039Y2947554D01*
X8676266Y3029957D01*
X8676266Y3132961D01*
X9105021Y3132961D01*
X9105021Y3028670D01*
G37*
G36*
X9569399Y4115365D02*
G01*
X9569399Y3251416D01*
X9569399Y2579313D01*
X9569399Y2042833D01*
X8210601Y2042833D01*
X8210601Y2579313D01*
X8210601Y3250129D01*
X8440644Y3250129D01*
X8440644Y3028670D01*
X8448852Y2939828D01*
X8473476Y2857425D01*
X8514517Y2781459D01*
X8571974Y2711931D01*
X8640858Y2653911D01*
X8716180Y2612468D01*
X8797940Y2587602D01*
X8886137Y2579313D01*
X8976709Y2587602D01*
X9060440Y2612468D01*
X9137331Y2653911D01*
X9207382Y2711931D01*
X9265684Y2781701D01*
X9307328Y2858391D01*
X9332315Y2942001D01*
X9340644Y3032532D01*
X9340644Y3251416D01*
X9331631Y3316438D01*
X9303948Y3351845D01*
X9267897Y3365365D01*
X9222189Y3368584D01*
X8556524Y3368584D01*
X8513391Y3366652D01*
X8477983Y3354421D01*
X8449013Y3318369D01*
X8440644Y3250129D01*
X8210601Y3250129D01*
X8210601Y4112790D01*
X8441931Y4112790D01*
X8449657Y4054206D01*
X8465751Y4021373D01*
X8492146Y3998197D01*
X8924764Y3676309D01*
X8555236Y3676309D01*
X8512747Y3673734D01*
X8478627Y3660858D01*
X8450944Y3624807D01*
X8441931Y3557854D01*
X8450944Y3490901D01*
X8480558Y3454850D01*
X8515966Y3442618D01*
X8560386Y3440687D01*
X9224764Y3440687D01*
X9269185Y3442618D01*
X9303948Y3454850D01*
X9332918Y3490901D01*
X9341931Y3559142D01*
X9334850Y3625451D01*
X9307167Y3663433D01*
X8866824Y3996910D01*
X9224764Y3996910D01*
X9269185Y3998841D01*
X9303948Y4011073D01*
X9332918Y4047124D01*
X9341931Y4115365D01*
X9332918Y4181674D01*
X9303948Y4216438D01*
X9268541Y4228670D01*
X9223476Y4231245D01*
X8555236Y4231245D01*
X8512103Y4228670D01*
X8477983Y4215794D01*
X8450300Y4180386D01*
X8441931Y4112790D01*
X8210601Y4112790D01*
X8210601Y4685751D01*
X8425193Y4685751D01*
X8429861Y4618959D01*
X8443863Y4547339D01*
X8466234Y4479582D01*
X8496009Y4424378D01*
X8521760Y4388326D01*
X8548798Y4364506D01*
X8586137Y4352275D01*
X8658240Y4381888D01*
X8709421Y4429528D01*
X8726481Y4477167D01*
X8696867Y4546695D01*
X8669828Y4612682D01*
X8660815Y4692189D01*
X8676749Y4776845D01*
X8724549Y4847983D01*
X8795526Y4896266D01*
X8880987Y4912361D01*
X8969185Y4895622D01*
X9045794Y4845408D01*
X9098906Y4772983D01*
X9116609Y4689614D01*
X9112425Y4615579D01*
X9099871Y4560858D01*
X8989142Y4560858D01*
X8989142Y4656137D01*
X8987210Y4690901D01*
X8976910Y4717940D01*
X8946652Y4739828D01*
X8888712Y4746266D01*
X8832060Y4739185D01*
X8801803Y4715365D01*
X8791502Y4687039D01*
X8789571Y4652275D01*
X8789571Y4426953D01*
X8798584Y4377382D01*
X8815322Y4347124D01*
X8841073Y4331674D01*
X8869399Y4325880D01*
X8901588Y4325236D01*
X9165536Y4325236D01*
X9239571Y4356137D01*
X9274818Y4392511D01*
X9304592Y4439828D01*
X9332489Y4511073D01*
X9349227Y4596052D01*
X9354807Y4694764D01*
X9346035Y4784249D01*
X9319721Y4867296D01*
X9275864Y4943906D01*
X9214464Y5014077D01*
X9140832Y5072661D01*
X9060279Y5114506D01*
X8972806Y5139614D01*
X8878412Y5147983D01*
X8788404Y5139493D01*
X8705075Y5114024D01*
X8628425Y5071575D01*
X8558455Y5012146D01*
X8500153Y4940807D01*
X8458509Y4862629D01*
X8433522Y4777610D01*
X8425193Y4685751D01*
X8210601Y4685751D01*
X8210601Y5147983D01*
X8210601Y5577167D01*
X9569399Y5577167D01*
X9569399Y5147983D01*
X9569399Y4694764D01*
X9569399Y4115365D01*
G37*
D10*
%TO.C,R15*%
X6587258Y20525000D02*
X6112742Y20525000D01*
X6587258Y19480000D02*
X6112742Y19480000D01*
D13*
%TO.C,kibuzzard-66F18F9B*%
G36*
X14634592Y19419442D02*
G01*
X14634592Y19204850D01*
X14631392Y19139708D01*
X14621822Y19075194D01*
X14605975Y19011929D01*
X14584003Y18950521D01*
X14556118Y18891563D01*
X14522588Y18835622D01*
X14483737Y18783237D01*
X14439938Y18734912D01*
X14391613Y18691113D01*
X14339228Y18652262D01*
X14283287Y18618732D01*
X14224328Y18590847D01*
X14162921Y18568875D01*
X14099656Y18553027D01*
X14035141Y18543458D01*
X13970000Y18540258D01*
X13904859Y18543458D01*
X13840344Y18553027D01*
X13777079Y18568875D01*
X13715672Y18590847D01*
X13656713Y18618732D01*
X13600772Y18652262D01*
X13548387Y18691113D01*
X13500062Y18734912D01*
X13456263Y18783237D01*
X13417412Y18835622D01*
X13383882Y18891563D01*
X13355997Y18950521D01*
X13334025Y19011929D01*
X13318178Y19075194D01*
X13308608Y19139708D01*
X13305408Y19204850D01*
X13305408Y19419442D01*
X13305408Y19967940D01*
X13520000Y19967940D01*
X13520000Y19536609D01*
X13529013Y19469657D01*
X13558627Y19433605D01*
X13594034Y19421373D01*
X13638455Y19419442D01*
X13713455Y19431191D01*
X13801974Y19466438D01*
X13893552Y19515526D01*
X13977725Y19568798D01*
X14062221Y19622071D01*
X14154764Y19671159D01*
X14244249Y19706406D01*
X14319571Y19718155D01*
X14360129Y19720730D01*
X14390386Y19734249D01*
X14412918Y19770300D01*
X14420000Y19836609D01*
X14413562Y19904206D01*
X14390386Y19939614D01*
X14359485Y19952489D01*
X14316996Y19955064D01*
X14223809Y19946051D01*
X14127082Y19919013D01*
X14036792Y19881191D01*
X13962918Y19839828D01*
X13898219Y19796695D01*
X13835451Y19753562D01*
X13755622Y19703991D01*
X13755622Y19961502D01*
X13753047Y20005279D01*
X13740172Y20040687D01*
X13704120Y20069657D01*
X13637167Y20078670D01*
X13570858Y20069657D01*
X13535451Y20042618D01*
X13522575Y20009142D01*
X13520000Y19967940D01*
X13305408Y19967940D01*
X13305408Y20078670D01*
X13305408Y20829742D01*
X14634592Y20829742D01*
X14634592Y20078670D01*
X14634592Y19836609D01*
X14634592Y19419442D01*
G37*
D10*
%TO.C,R2*%
X13765000Y16907742D02*
X13765000Y17382258D01*
X14810000Y16907742D02*
X14810000Y17382258D01*
D13*
%TO.C,kibuzzard-66EF7A0B*%
G36*
X22678888Y21030633D02*
G01*
X22718945Y20986570D01*
X23006212Y20391434D01*
X23021091Y20310747D01*
X22956999Y20255240D01*
X22873451Y20238644D01*
X22816227Y20302164D01*
X22763580Y20412035D01*
X22677743Y20412035D01*
X22482035Y20412035D01*
X22429388Y20303308D01*
X22373308Y20237500D01*
X22288616Y20254095D01*
X22225097Y20310175D01*
X22240547Y20391434D01*
X22336857Y20590576D01*
X22570161Y20590576D01*
X22677743Y20590576D01*
X22623952Y20701592D01*
X22570161Y20590576D01*
X22336857Y20590576D01*
X22527815Y20985426D01*
X22567014Y21031778D01*
X22622808Y21047228D01*
X22678888Y21030633D01*
G37*
G36*
X22139832Y21039789D02*
G01*
X22171878Y21014038D01*
X22182750Y20982564D01*
X22184467Y20944224D01*
X22184467Y20352521D01*
X22181606Y20311892D01*
X22169589Y20279846D01*
X22138115Y20255240D01*
X22080318Y20247228D01*
X21975025Y20247228D01*
X21885755Y20247228D01*
X21805283Y20254632D01*
X21730962Y20276842D01*
X21662793Y20313859D01*
X21600776Y20365683D01*
X21549202Y20427951D01*
X21512364Y20496298D01*
X21490261Y20570726D01*
X21483312Y20646656D01*
X21692335Y20646656D01*
X21706356Y20573552D01*
X21748416Y20512178D01*
X21809932Y20470547D01*
X21882321Y20456670D01*
X21975025Y20456670D01*
X21975025Y20837786D01*
X21883466Y20837786D01*
X21810218Y20823766D01*
X21748416Y20781706D01*
X21706356Y20719903D01*
X21692335Y20646656D01*
X21483312Y20646656D01*
X21482893Y20651234D01*
X21490261Y20729632D01*
X21512364Y20802307D01*
X21549202Y20869260D01*
X21600776Y20930490D01*
X21662579Y20981563D01*
X21730104Y21018044D01*
X21803351Y21039932D01*
X21882321Y21047228D01*
X22079174Y21047228D01*
X22139832Y21039789D01*
G37*
G36*
X21382178Y21039217D02*
G01*
X21414224Y21012893D01*
X21425097Y20981420D01*
X21426813Y20943079D01*
X21426813Y20352521D01*
X21425097Y20313036D01*
X21414224Y20281563D01*
X21382178Y20255240D01*
X21322665Y20247228D01*
X21262006Y20255240D01*
X21229961Y20280991D01*
X21219088Y20311892D01*
X21217371Y20351377D01*
X21217371Y20462393D01*
X21110933Y20462393D01*
X20988473Y20296441D01*
X20924381Y20243222D01*
X20843122Y20274696D01*
X20788187Y20342221D01*
X20819088Y20421191D01*
X20901491Y20531062D01*
X20845538Y20593373D01*
X20811967Y20667384D01*
X20800776Y20753094D01*
X20800896Y20754238D01*
X21010218Y20754238D01*
X21036541Y20691291D01*
X21091477Y20670690D01*
X21217371Y20670690D01*
X21217371Y20837786D01*
X21093766Y20837786D01*
X21034825Y20813752D01*
X21010218Y20754238D01*
X20800896Y20754238D01*
X20807929Y20821048D01*
X20829388Y20882994D01*
X20862149Y20935783D01*
X20903208Y20976270D01*
X20949274Y21006599D01*
X20997057Y21028916D01*
X21044982Y21042650D01*
X21091477Y21047228D01*
X21321520Y21047228D01*
X21382178Y21039217D01*
G37*
D10*
%TO.C,R7*%
X1667742Y8460000D02*
X2142258Y8460000D01*
X1667742Y7415000D02*
X2142258Y7415000D01*
D13*
%TO.C,kibuzzard-67117BDD*%
G36*
X16284464Y22866513D02*
G01*
X16241330Y22864582D01*
X16205923Y22852350D01*
X16176309Y22816298D01*
X16167296Y22748058D01*
X16176309Y22681105D01*
X16205923Y22645054D01*
X16241330Y22632822D01*
X16285751Y22630891D01*
X16951416Y22630891D01*
X16995837Y22632822D01*
X17030601Y22645054D01*
X17059571Y22681105D01*
X17068584Y22749345D01*
X17059571Y22816298D01*
X17029957Y22852350D01*
X16994549Y22864582D01*
X16950129Y22866513D01*
X17283176Y22866513D01*
X17283176Y22749345D01*
X17283176Y22442908D01*
X17283176Y21321448D01*
X17283176Y20927457D01*
X17283176Y20712865D01*
X16510000Y20197414D01*
X15736824Y20712865D01*
X15736824Y20927457D01*
X15736824Y22866513D01*
X15951416Y22866513D01*
X15951416Y20927457D01*
X16058712Y20927457D01*
X16058712Y21613723D01*
X16166009Y21613723D01*
X16166009Y21025311D01*
X16167940Y20988616D01*
X16178240Y20959646D01*
X16208498Y20935182D01*
X16265150Y20927457D01*
X16321803Y20935182D01*
X16352060Y20960290D01*
X16362361Y20989903D01*
X16364292Y21026599D01*
X16364292Y21204281D01*
X16953991Y21204281D01*
X16997124Y21206212D01*
X17031245Y21218444D01*
X17059571Y21254496D01*
X17068584Y21321448D01*
X17059571Y21387758D01*
X17030601Y21422521D01*
X16995837Y21434109D01*
X16952704Y21436041D01*
X16364292Y21436041D01*
X16364292Y21615011D01*
X16362361Y21651706D01*
X16352060Y21680676D01*
X16321803Y21705139D01*
X16263863Y21712865D01*
X16207854Y21705139D01*
X16178240Y21680032D01*
X16167940Y21650418D01*
X16166009Y21613723D01*
X16058712Y21613723D01*
X16058712Y22440333D01*
X16168584Y22440333D01*
X16176309Y22381749D01*
X16192403Y22348916D01*
X16218798Y22325740D01*
X16651416Y22003852D01*
X16281888Y22003852D01*
X16239399Y22001277D01*
X16205279Y21988401D01*
X16177597Y21952350D01*
X16168584Y21885397D01*
X16177597Y21818444D01*
X16207210Y21782393D01*
X16242618Y21770161D01*
X16287039Y21768230D01*
X16951416Y21768230D01*
X16995837Y21770161D01*
X17030601Y21782393D01*
X17059571Y21818444D01*
X17068584Y21886685D01*
X17061502Y21952994D01*
X17033820Y21990976D01*
X16593476Y22324453D01*
X16951416Y22324453D01*
X16995837Y22326384D01*
X17030601Y22338616D01*
X17059571Y22374667D01*
X17068584Y22442908D01*
X17059571Y22509217D01*
X17030601Y22543981D01*
X16995193Y22556212D01*
X16950129Y22558788D01*
X16281888Y22558788D01*
X16238755Y22556212D01*
X16204635Y22543337D01*
X16176953Y22507929D01*
X16168584Y22440333D01*
X16058712Y22440333D01*
X16058712Y22866513D01*
X15951416Y22866513D01*
X15736824Y22866513D01*
X15736824Y23617586D01*
X17283176Y23617586D01*
X17283176Y22866513D01*
X16284464Y22866513D01*
G37*
%TO.C,kibuzzard-66EF7A24*%
G36*
X22503005Y18875924D02*
G01*
X22503005Y18399052D01*
X21318075Y18399052D01*
X21318075Y18875924D01*
X21318075Y18978928D01*
X21508823Y18978928D01*
X21532285Y18898814D01*
X21614117Y18875924D01*
X22209252Y18875924D01*
X22289367Y18898814D01*
X22312257Y18980073D01*
X22289367Y19060187D01*
X22208108Y19083077D01*
X21821270Y19083077D01*
X21831570Y19094522D01*
X21864760Y19164908D01*
X21824703Y19233005D01*
X21749167Y19268485D01*
X21712543Y19255323D01*
X21673630Y19220416D01*
X21543158Y19075066D01*
X21528280Y19056754D01*
X21508823Y18978928D01*
X21318075Y18978928D01*
X21318075Y19270774D01*
X21318075Y19461522D01*
X21320927Y19519594D01*
X21329459Y19577107D01*
X21343586Y19633506D01*
X21363173Y19688249D01*
X21388032Y19740809D01*
X21417923Y19790679D01*
X21452558Y19837378D01*
X21491604Y19880459D01*
X21534684Y19919504D01*
X21581384Y19954139D01*
X21631254Y19984030D01*
X21683813Y20008889D01*
X21738556Y20028476D01*
X21794956Y20042604D01*
X21852468Y20051135D01*
X21910540Y20053988D01*
X21968612Y20051135D01*
X22026124Y20042604D01*
X22082524Y20028476D01*
X22137267Y20008889D01*
X22189826Y19984030D01*
X22239696Y19954139D01*
X22286396Y19919504D01*
X22329476Y19880459D01*
X22368522Y19837378D01*
X22403157Y19790679D01*
X22433048Y19740809D01*
X22457907Y19688249D01*
X22477494Y19633506D01*
X22491621Y19577107D01*
X22500153Y19519594D01*
X22503005Y19461522D01*
X22503005Y19270774D01*
X22503005Y18980073D01*
X22503005Y18875924D01*
G37*
D12*
%TO.C,JP8*%
X12954000Y20942300D02*
X12954000Y22466300D01*
X14528800Y22923500D02*
X13411200Y22923500D01*
X14528800Y20485100D02*
X13411200Y20485100D01*
X14986000Y22466300D02*
X14986000Y20942300D01*
X12954000Y22466300D02*
G75*
G02*
X13411200Y22923500I457200J0D01*
G01*
X13411200Y20485100D02*
G75*
G02*
X12954000Y20942300I1J457201D01*
G01*
X14528800Y22923500D02*
G75*
G02*
X14986000Y22466300I0J-457200D01*
G01*
X14986000Y20942300D02*
G75*
G02*
X14528800Y20485100I-457201J1D01*
G01*
%TO.C,D2*%
D14*
X2810221Y17462500D02*
G75*
G02*
X2610221Y17462500I-100000J0D01*
G01*
X2610221Y17462500D02*
G75*
G02*
X2810221Y17462500I100000J0D01*
G01*
D13*
%TO.C,kibuzzard-66EF7AEF*%
G36*
X14029871Y2914775D02*
G01*
X13904979Y2975290D01*
X14029871Y3035805D01*
X14029871Y2914775D01*
G37*
G36*
X14180515Y3899753D02*
G01*
X14164903Y3818315D01*
X14118069Y3749109D01*
X14049024Y3701792D01*
X13966781Y3686019D01*
X13884378Y3701792D01*
X13814850Y3749109D01*
X13767532Y3818637D01*
X13751760Y3901041D01*
X13751760Y4004045D01*
X14180515Y4004045D01*
X14180515Y3899753D01*
G37*
G36*
X14652618Y4122500D02*
G01*
X14652618Y2693315D01*
X14652618Y2514346D01*
X14652618Y1977865D01*
X13287382Y1977865D01*
X13287382Y2514346D01*
X13287382Y2974002D01*
X13516137Y2974002D01*
X13533519Y2911234D01*
X13585665Y2867135D01*
X14253906Y2543959D01*
X14345322Y2526577D01*
X14408412Y2598036D01*
X14427082Y2693315D01*
X14353047Y2756406D01*
X14230730Y2815633D01*
X14230730Y3132371D01*
X14354335Y3191599D01*
X14425794Y3255976D01*
X14407124Y3349968D01*
X14344678Y3422071D01*
X14253906Y3405333D01*
X13584378Y3082157D01*
X13534807Y3037092D01*
X13516137Y2974002D01*
X13287382Y2974002D01*
X13287382Y4121212D01*
X13516137Y4121212D01*
X13516137Y3899753D01*
X13524345Y3810912D01*
X13548970Y3728509D01*
X13590011Y3652543D01*
X13647468Y3583015D01*
X13716352Y3524995D01*
X13791674Y3483552D01*
X13873433Y3458686D01*
X13961631Y3450397D01*
X14052202Y3458686D01*
X14135933Y3483552D01*
X14212825Y3524995D01*
X14282876Y3583015D01*
X14341178Y3652784D01*
X14382822Y3729474D01*
X14407808Y3813085D01*
X14416137Y3903616D01*
X14416137Y4122500D01*
X14407124Y4187521D01*
X14379442Y4222929D01*
X14343391Y4236449D01*
X14297682Y4239667D01*
X13632017Y4239667D01*
X13588884Y4237736D01*
X13553476Y4225504D01*
X13524506Y4189453D01*
X13516137Y4121212D01*
X13287382Y4121212D01*
X13287382Y4636234D01*
X13501974Y4636234D01*
X13510558Y4539095D01*
X13536309Y4457121D01*
X13579227Y4390311D01*
X13645536Y4343959D01*
X13724721Y4374861D01*
X13787167Y4450826D01*
X13763348Y4537092D01*
X13751116Y4551899D01*
X13736309Y4569925D01*
X13726652Y4595032D01*
X13722146Y4637521D01*
X13738240Y4685161D01*
X13777511Y4705762D01*
X13819356Y4683230D01*
X13841888Y4632371D01*
X13857983Y4553830D01*
X13877940Y4471427D01*
X13911416Y4398519D01*
X13960343Y4342028D01*
X14030193Y4305815D01*
X14126438Y4293745D01*
X14187918Y4299217D01*
X14243605Y4315633D01*
X14330515Y4371642D01*
X14387811Y4450826D01*
X14420644Y4539024D01*
X14430300Y4624646D01*
X14424506Y4696749D01*
X14410343Y4757264D01*
X14389099Y4806835D01*
X14364635Y4846749D01*
X14339528Y4877650D01*
X14316996Y4900182D01*
X14298970Y4914346D01*
X14289957Y4922071D01*
X14206266Y4954260D01*
X14123863Y4900182D01*
X14094106Y4846677D01*
X14102690Y4790883D01*
X14149614Y4732800D01*
X14196609Y4680655D01*
X14208841Y4629796D01*
X14190172Y4553830D01*
X14130300Y4530655D01*
X14090386Y4564131D01*
X14060129Y4665204D01*
X14043552Y4726524D01*
X14026009Y4775290D01*
X13984807Y4847393D01*
X13929442Y4898895D01*
X13859914Y4929796D01*
X13776223Y4940097D01*
X13701760Y4930511D01*
X13636309Y4901756D01*
X13579871Y4853830D01*
X13536595Y4791313D01*
X13510629Y4718780D01*
X13501974Y4636234D01*
X13287382Y4636234D01*
X13287382Y4959410D01*
X13287382Y4959517D01*
X13290669Y5026425D01*
X13300498Y5092689D01*
X13316775Y5157671D01*
X13339343Y5220744D01*
X13367985Y5281301D01*
X13402424Y5338759D01*
X13442329Y5392565D01*
X13487316Y5442201D01*
X13536952Y5487188D01*
X13590758Y5527093D01*
X13648216Y5561533D01*
X13708773Y5590174D01*
X13771846Y5612742D01*
X13836828Y5629019D01*
X13903092Y5638848D01*
X13970000Y5642135D01*
X14036908Y5638848D01*
X14103172Y5629019D01*
X14168154Y5612742D01*
X14231227Y5590174D01*
X14291784Y5561533D01*
X14349242Y5527093D01*
X14403048Y5487188D01*
X14452684Y5442201D01*
X14497671Y5392565D01*
X14537576Y5338759D01*
X14572015Y5281301D01*
X14600657Y5220744D01*
X14623225Y5157671D01*
X14639502Y5092689D01*
X14649331Y5026425D01*
X14652618Y4959517D01*
X14652618Y4959410D01*
X14652618Y4624646D01*
X14652618Y4122500D01*
G37*
D12*
%TO.C,JP6*%
X3746500Y5715000D02*
X3746500Y8255000D01*
X5321300Y8712200D02*
X4203700Y8712200D01*
X5321300Y5257800D02*
X4203700Y5257800D01*
X5778500Y8255000D02*
X5778500Y5715000D01*
X3746500Y8255000D02*
G75*
G02*
X4203700Y8712200I457200J0D01*
G01*
X4203700Y5257800D02*
G75*
G02*
X3746500Y5715000I1J457201D01*
G01*
X5321300Y8712200D02*
G75*
G02*
X5778500Y8255000I0J-457200D01*
G01*
X5778500Y5715000D02*
G75*
G02*
X5321300Y5257800I-457201J1D01*
G01*
D10*
%TO.C,R5*%
X21702500Y7382742D02*
X21702500Y7857258D01*
X22747500Y7382742D02*
X22747500Y7857258D01*
D12*
%TO.C,JP3*%
X23114000Y16510000D02*
X23114000Y18237200D01*
X24892000Y18491200D02*
X23368000Y18491200D01*
X24892000Y16256000D02*
X23368000Y16256000D01*
X25146000Y18237200D02*
X25146000Y16510000D01*
X23114000Y18237200D02*
G75*
G02*
X23368000Y18491200I254000J0D01*
G01*
X23368000Y16256000D02*
G75*
G02*
X23114000Y16510000I0J254000D01*
G01*
X24892000Y18491200D02*
G75*
G02*
X25146000Y18237200I0J-254000D01*
G01*
X25146000Y16510000D02*
G75*
G02*
X24892000Y16256000I-254000J0D01*
G01*
D10*
%TO.C,R10*%
X15352500Y7382742D02*
X15352500Y7857258D01*
X16397500Y7382742D02*
X16397500Y7857258D01*
%TO.C,R9*%
X10590000Y7382742D02*
X10590000Y7857258D01*
X11635000Y7382742D02*
X11635000Y7857258D01*
D12*
%TO.C,JP4*%
X23114000Y6858000D02*
X23114000Y8382000D01*
X23571200Y8839200D02*
X24688800Y8839200D01*
X23571200Y6400800D02*
X24688800Y6400800D01*
X25146000Y8382000D02*
X25146000Y6858000D01*
X23114000Y8382000D02*
G75*
G02*
X23571200Y8839200I457201J-1D01*
G01*
X23571200Y6400800D02*
G75*
G02*
X23114000Y6858000I0J457200D01*
G01*
X24688800Y8839200D02*
G75*
G02*
X25146000Y8382000I-1J-457201D01*
G01*
X25146000Y6858000D02*
G75*
G02*
X24688800Y6400800I-457200J0D01*
G01*
D13*
%TO.C,kibuzzard-66EF79E9*%
G36*
X19774199Y19157033D02*
G01*
X19837504Y19138792D01*
X19875486Y19108392D01*
X19888147Y19065831D01*
X19872697Y19018335D01*
X19837790Y18989150D01*
X19786288Y18974272D01*
X19735930Y18967977D01*
X19690150Y18967405D01*
X19684428Y18967405D01*
X19595300Y18973485D01*
X19531638Y18991725D01*
X19493441Y19022126D01*
X19480708Y19064686D01*
X19493512Y19107748D01*
X19531924Y19138506D01*
X19595944Y19156961D01*
X19685572Y19163113D01*
X19774199Y19157033D01*
G37*
G36*
X20289483Y18757963D02*
G01*
X20289483Y18567214D01*
X19080517Y18567214D01*
X19080517Y18757963D01*
X19080517Y19063542D01*
X19271266Y19063542D01*
X19278705Y18993442D01*
X19301023Y18931925D01*
X19334356Y18880995D01*
X19374843Y18842655D01*
X19422625Y18813613D01*
X19477847Y18790581D01*
X19534356Y18773985D01*
X19586001Y18764257D01*
X19635501Y18759536D01*
X19685572Y18757963D01*
X19736931Y18759679D01*
X19788004Y18764830D01*
X19840651Y18774987D01*
X19896731Y18791725D01*
X19950951Y18814758D01*
X19998019Y18843799D01*
X20037790Y18881854D01*
X20070122Y18931925D01*
X20091581Y18992297D01*
X20098734Y19061253D01*
X20093870Y19122197D01*
X20079278Y19176847D01*
X20055959Y19223628D01*
X20024914Y19260967D01*
X19949378Y19317047D01*
X19906459Y19337505D01*
X19858963Y19351954D01*
X19767976Y19367977D01*
X19684428Y19372555D01*
X19636359Y19371124D01*
X19588290Y19366832D01*
X19537361Y19357533D01*
X19480708Y19341081D01*
X19424914Y19318048D01*
X19376559Y19289007D01*
X19335501Y19250380D01*
X19301595Y19198592D01*
X19278848Y19135645D01*
X19271266Y19063542D01*
X19080517Y19063542D01*
X19080517Y19372555D01*
X19080517Y19563304D01*
X19083428Y19622553D01*
X19092132Y19681232D01*
X19106546Y19738776D01*
X19126531Y19794629D01*
X19151894Y19848255D01*
X19182391Y19899136D01*
X19217729Y19946783D01*
X19257566Y19990737D01*
X19301520Y20030575D01*
X19349167Y20065912D01*
X19400049Y20096410D01*
X19453675Y20121773D01*
X19509528Y20141757D01*
X19567071Y20156171D01*
X19625750Y20164875D01*
X19685000Y20167786D01*
X19744250Y20164875D01*
X19802929Y20156171D01*
X19860472Y20141757D01*
X19916325Y20121773D01*
X19969951Y20096410D01*
X20020833Y20065912D01*
X20068480Y20030575D01*
X20112434Y19990737D01*
X20152271Y19946783D01*
X20187609Y19899136D01*
X20218106Y19848255D01*
X20243469Y19794629D01*
X20263454Y19738776D01*
X20277868Y19681232D01*
X20286572Y19622553D01*
X20289483Y19563304D01*
X20289483Y19372555D01*
X20289483Y19061253D01*
X20289483Y18757963D01*
G37*
D10*
%TO.C,R1*%
X15352500Y16907742D02*
X15352500Y17382258D01*
X16397500Y16907742D02*
X16397500Y17382258D01*
%TD*%
M02*
