%TF.GenerationSoftware,KiCad,Pcbnew,8.0.6*%
%TF.CreationDate,2024-11-09T20:31:53-07:00*%
%TF.ProjectId,SparkFun_Qwiic_Navigation,53706172-6b46-4756-9e5f-51776969635f,rev?*%
%TF.SameCoordinates,Original*%
%TF.FileFunction,Soldermask,Bot*%
%TF.FilePolarity,Negative*%
%FSLAX46Y46*%
G04 Gerber Fmt 4.6, Leading zero omitted, Abs format (unit mm)*
G04 Created by KiCad (PCBNEW 8.0.6) date 2024-11-09 20:31:53*
%MOMM*%
%LPD*%
G01*
G04 APERTURE LIST*
G04 Aperture macros list*
%AMRoundRect*
0 Rectangle with rounded corners*
0 $1 Rounding radius*
0 $2 $3 $4 $5 $6 $7 $8 $9 X,Y pos of 4 corners*
0 Add a 4 corners polygon primitive as box body*
4,1,4,$2,$3,$4,$5,$6,$7,$8,$9,$2,$3,0*
0 Add four circle primitives for the rounded corners*
1,1,$1+$1,$2,$3*
1,1,$1+$1,$4,$5*
1,1,$1+$1,$6,$7*
1,1,$1+$1,$8,$9*
0 Add four rect primitives between the rounded corners*
20,1,$1+$1,$2,$3,$4,$5,0*
20,1,$1+$1,$4,$5,$6,$7,0*
20,1,$1+$1,$6,$7,$8,$9,0*
20,1,$1+$1,$8,$9,$2,$3,0*%
G04 Aperture macros list end*
%ADD10C,0.000000*%
%ADD11C,1.000000*%
%ADD12C,3.100000*%
%ADD13C,0.700000*%
%ADD14C,2.082800*%
%ADD15RoundRect,0.200000X-0.200000X-0.275000X0.200000X-0.275000X0.200000X0.275000X-0.200000X0.275000X0*%
%ADD16RoundRect,0.200000X-0.275000X0.200000X-0.275000X-0.200000X0.275000X-0.200000X0.275000X0.200000X0*%
%ADD17RoundRect,0.101600X-0.675000X0.300000X-0.675000X-0.300000X0.675000X-0.300000X0.675000X0.300000X0*%
%ADD18RoundRect,0.101600X-1.000000X0.600000X-1.000000X-0.600000X1.000000X-0.600000X1.000000X0.600000X0*%
%ADD19RoundRect,0.101600X0.675000X-0.300000X0.675000X0.300000X-0.675000X0.300000X-0.675000X-0.300000X0*%
%ADD20RoundRect,0.101600X1.000000X-0.600000X1.000000X0.600000X-1.000000X0.600000X-1.000000X-0.600000X0*%
%ADD21RoundRect,0.101600X0.635000X-0.330200X0.635000X0.330200X-0.635000X0.330200X-0.635000X-0.330200X0*%
%ADD22RoundRect,0.225000X0.250000X-0.225000X0.250000X0.225000X-0.250000X0.225000X-0.250000X-0.225000X0*%
%ADD23RoundRect,0.100000X0.637500X0.100000X-0.637500X0.100000X-0.637500X-0.100000X0.637500X-0.100000X0*%
%ADD24RoundRect,0.085000X0.635000X-0.317500X0.635000X0.317500X-0.635000X0.317500X-0.635000X-0.317500X0*%
%ADD25RoundRect,0.200000X0.200000X0.275000X-0.200000X0.275000X-0.200000X-0.275000X0.200000X-0.275000X0*%
%ADD26RoundRect,0.218750X-0.256250X0.218750X-0.256250X-0.218750X0.256250X-0.218750X0.256250X0.218750X0*%
%ADD27C,2.100000*%
%ADD28RoundRect,0.101600X-0.400000X-0.350000X0.400000X-0.350000X0.400000X0.350000X-0.400000X0.350000X0*%
%ADD29RoundRect,0.101600X-0.635000X0.330200X-0.635000X-0.330200X0.635000X-0.330200X0.635000X0.330200X0*%
G04 APERTURE END LIST*
D10*
%TO.C,JP5*%
G36*
X9130500Y21336000D02*
G01*
X8649500Y21336000D01*
X8649500Y21844000D01*
X9130500Y21844000D01*
X9130500Y21336000D01*
G37*
%TO.C,JP7*%
G36*
X11670500Y21336000D02*
G01*
X11189500Y21336000D01*
X11189500Y21844000D01*
X11670500Y21844000D01*
X11670500Y21336000D01*
G37*
%TO.C,JP8*%
G36*
X14210500Y21450300D02*
G01*
X13729500Y21450300D01*
X13729500Y21958300D01*
X14210500Y21958300D01*
X14210500Y21450300D01*
G37*
%TO.C,JP6*%
G36*
X5003000Y6210300D02*
G01*
X4522000Y6210300D01*
X4522000Y6718300D01*
X5003000Y6718300D01*
X5003000Y6210300D01*
G37*
G36*
X5026000Y7243000D02*
G01*
X4545000Y7243000D01*
X4545000Y7751000D01*
X5026000Y7751000D01*
X5026000Y7243000D01*
G37*
%TO.C,JP4*%
G36*
X24370500Y7366000D02*
G01*
X23889500Y7366000D01*
X23889500Y7874000D01*
X24370500Y7874000D01*
X24370500Y7366000D01*
G37*
%TD*%
D11*
%TO.C,FID2*%
X952500Y952500D03*
%TD*%
%TO.C,FID1*%
X24447500Y24447500D03*
%TD*%
D12*
%TO.C,ST2*%
X22860000Y22860000D03*
%TD*%
D11*
%TO.C,SW2*%
X14043503Y11356497D03*
D13*
X11356497Y14043503D03*
%TD*%
D14*
%TO.C,J5*%
X8890000Y1270000D03*
X11430000Y1270000D03*
X13970000Y1270000D03*
X16510000Y1270000D03*
%TD*%
D12*
%TO.C,ST1*%
X2540000Y22860000D03*
%TD*%
%TO.C,ST3*%
X2540000Y2540000D03*
%TD*%
D14*
%TO.C,J2*%
X8890000Y24130000D03*
X11430000Y24130000D03*
X13970000Y24130000D03*
X16510000Y24130000D03*
%TD*%
D12*
%TO.C,ST4*%
X22860000Y2540000D03*
%TD*%
D15*
%TO.C,R14*%
X5525000Y21590000D03*
X7175000Y21590000D03*
%TD*%
D16*
%TO.C,R8*%
X12700000Y8445000D03*
X12700000Y6795000D03*
%TD*%
D17*
%TO.C,J1*%
X20637500Y14200000D03*
X20637500Y13200000D03*
X20637500Y12200000D03*
X20637500Y11200000D03*
D18*
X24312500Y9900000D03*
X24312500Y15500000D03*
%TD*%
D19*
%TO.C,J3*%
X4762500Y11200000D03*
X4762500Y12200000D03*
X4762500Y13200000D03*
X4762500Y14200000D03*
D20*
X1087500Y15500000D03*
X1087500Y9900000D03*
%TD*%
D21*
%TO.C,JP5*%
X8890000Y21069300D03*
X8890000Y22110700D03*
%TD*%
D22*
%TO.C,C1*%
X9525000Y16370000D03*
X9525000Y17920000D03*
%TD*%
D21*
%TO.C,JP7*%
X11430000Y21069300D03*
X11430000Y22110700D03*
%TD*%
D23*
%TO.C,U4*%
X15562500Y14975000D03*
X15562500Y14325000D03*
X15562500Y13675000D03*
X15562500Y13025000D03*
X15562500Y12375000D03*
X15562500Y11725000D03*
X15562500Y11075000D03*
X15562500Y10425000D03*
X9837500Y10425000D03*
X9837500Y11075000D03*
X9837500Y11725000D03*
X9837500Y12375000D03*
X9837500Y13025000D03*
X9837500Y13675000D03*
X9837500Y14325000D03*
X9837500Y14975000D03*
%TD*%
D24*
%TO.C,JP1*%
X19685000Y16967200D03*
X19685000Y17780000D03*
%TD*%
D16*
%TO.C,R12*%
X9525000Y8445000D03*
X9525000Y6795000D03*
%TD*%
D25*
%TO.C,R13*%
X2730000Y6032500D03*
X1080000Y6032500D03*
%TD*%
D26*
%TO.C,D1*%
X20637500Y8407500D03*
X20637500Y6832500D03*
%TD*%
D16*
%TO.C,R3*%
X12700000Y17970000D03*
X12700000Y16320000D03*
%TD*%
%TO.C,R6*%
X1270000Y18922500D03*
X1270000Y17272500D03*
%TD*%
D24*
%TO.C,JP2*%
X21907500Y16967200D03*
X21907500Y17780000D03*
%TD*%
D16*
%TO.C,R4*%
X11112500Y17970000D03*
X11112500Y16320000D03*
%TD*%
%TO.C,R11*%
X14287500Y8445000D03*
X14287500Y6795000D03*
%TD*%
D15*
%TO.C,R15*%
X5525000Y20002500D03*
X7175000Y20002500D03*
%TD*%
D16*
%TO.C,R2*%
X14287500Y17970000D03*
X14287500Y16320000D03*
%TD*%
D25*
%TO.C,R7*%
X2730000Y7937500D03*
X1080000Y7937500D03*
%TD*%
D21*
%TO.C,JP8*%
X13970000Y21183600D03*
X13970000Y22225000D03*
%TD*%
D27*
%TO.C,D2*%
X5080000Y18097500D03*
D28*
X3530000Y17547500D03*
X3530000Y18647500D03*
X6630000Y18647500D03*
X6630000Y17547500D03*
%TD*%
D21*
%TO.C,JP6*%
X4762500Y5943600D03*
X4762500Y6985000D03*
D29*
X4762500Y8026400D03*
%TD*%
D16*
%TO.C,R5*%
X22225000Y8445000D03*
X22225000Y6795000D03*
%TD*%
D24*
%TO.C,JP3*%
X24130000Y16967200D03*
X24130000Y17780000D03*
%TD*%
D16*
%TO.C,R10*%
X15875000Y8445000D03*
X15875000Y6795000D03*
%TD*%
%TO.C,R9*%
X11112500Y8445000D03*
X11112500Y6795000D03*
%TD*%
D29*
%TO.C,JP4*%
X24130000Y8140700D03*
X24130000Y7099300D03*
%TD*%
D16*
%TO.C,R1*%
X15875000Y17970000D03*
X15875000Y16320000D03*
%TD*%
M02*
