M48
; DRILL file {KiCad 8.0.6} date 2024-11-09T20:31:53-0700
; FORMAT={-:-/ absolute / metric / decimal}
; #@! TF.CreationDate,2024-11-09T20:31:53-07:00
; #@! TF.GenerationSoftware,Kicad,Pcbnew,8.0.6
; #@! TF.FileFunction,MixedPlating,1,2
FMAT,2
METRIC
; #@! TA.AperFunction,Plated,PTH,ViaDrill
T1C0.300
; #@! TA.AperFunction,Plated,PTH,ComponentDrill
T2C1.016
; #@! TA.AperFunction,NonPlated,NPTH,ComponentDrill
T3C0.700
; #@! TA.AperFunction,NonPlated,NPTH,ComponentDrill
T4C1.000
; #@! TA.AperFunction,NonPlated,NPTH,ComponentDrill
T5C2.100
; #@! TA.AperFunction,NonPlated,NPTH,ComponentDrill
T6C3.100
%
G90
G05
T1
X1.27Y20.002
X3.175Y13.335
X3.492Y14.287
X3.492Y11.112
X4.445Y20.715
X4.445Y20.002
X6.032Y16.192
X6.032Y12.383
X6.35Y23.495
X6.667Y3.175
X7.302Y22.543
X8.255Y8.89
X8.258Y7.942
X8.459Y14.605
X8.459Y13.767
X10.319Y17.304
X10.795Y20.206
X12.383Y11.747
X12.962Y19.834
X13.335Y14.129
X13.811Y10.319
X14.287Y19.685
X15.875Y19.685
X16.986Y17.145
X16.986Y13.018
X17.72Y13.183
X18.415Y9.525
X18.427Y13.1
X18.732Y21.907
X18.732Y3.175
X19.05Y14.693
X19.05Y10.477
X19.685Y9.842
X20.637Y9.525
X21.907Y14.287
X22.225Y13.018
X22.225Y10.477
X22.543Y14.922
X23.177Y19.05
T2
X8.89Y24.13
X8.89Y1.27
X11.43Y24.13
X11.43Y1.27
X13.97Y24.13
X13.97Y1.27
X16.51Y24.13
X16.51Y1.27
T3
X11.356Y14.044
T4
X14.044Y11.356
T5
X5.08Y18.098
T6
X2.54Y22.86
X2.54Y2.54
X22.86Y22.86
X22.86Y2.54
M30
